<svg xmlns="http://www.w3.org/2000/svg" xmlns:xlink="http://www.w3.org/1999/xlink" width="1024" zoomAndPan="magnify" viewBox="0 0 768 767.999994" height="1024" preserveAspectRatio="xMidYMid meet" version="1.0"><defs><clipPath id="506d92ecfa"><path d="M 136.367188 191 L 440 191 L 440 408 L 136.367188 408 Z M 136.367188 191 " clip-rule="nonzero"/></clipPath><clipPath id="d20f42e2c7"><path d="M 474 157.207031 L 602 157.207031 L 602 286 L 474 286 Z M 474 157.207031 " clip-rule="nonzero"/></clipPath><clipPath id="e091db8b30"><path d="M 166 397 L 631.367188 397 L 631.367188 648 L 166 648 Z M 166 397 " clip-rule="nonzero"/></clipPath></defs><path fill="#f4f6ea" d="M 405.664062 368.464844 L 405.355469 368.464844 L 405.355469 360.421875 C 405.351562 360.15625 405.328125 359.890625 405.273438 359.628906 C 405.222656 359.371094 405.144531 359.117188 405.042969 358.871094 C 404.941406 358.625 404.8125 358.390625 404.664062 358.171875 C 404.519531 357.949219 404.347656 357.746094 404.160156 357.558594 C 403.972656 357.371094 403.769531 357.203125 403.546875 357.054688 C 403.324219 356.90625 403.089844 356.78125 402.84375 356.679688 C 402.597656 356.578125 402.347656 356.5 402.085938 356.449219 C 401.824219 356.398438 401.5625 356.371094 401.292969 356.371094 C 401.027344 356.371094 400.765625 356.398438 400.503906 356.449219 C 400.242188 356.5 399.988281 356.578125 399.742188 356.679688 C 399.496094 356.78125 399.265625 356.90625 399.042969 357.054688 C 398.820312 357.203125 398.617188 357.371094 398.429688 357.558594 C 398.238281 357.746094 398.070312 357.949219 397.921875 358.171875 C 397.773438 358.390625 397.648438 358.625 397.546875 358.871094 C 397.445312 359.117188 397.367188 359.371094 397.316406 359.628906 C 397.261719 359.890625 397.234375 360.15625 397.234375 360.421875 L 397.234375 368.464844 L 386.628906 368.464844 L 386.628906 360.421875 C 386.628906 360.152344 386.601562 359.890625 386.550781 359.628906 C 386.5 359.367188 386.421875 359.113281 386.320312 358.867188 C 386.21875 358.621094 386.09375 358.386719 385.945312 358.164062 C 385.796875 357.945312 385.628906 357.738281 385.4375 357.550781 C 385.25 357.363281 385.046875 357.191406 384.824219 357.046875 C 384.601562 356.898438 384.367188 356.773438 384.121094 356.671875 C 383.875 356.566406 383.621094 356.492188 383.359375 356.4375 C 383.097656 356.386719 382.835938 356.359375 382.570312 356.359375 C 382.300781 356.359375 382.039062 356.386719 381.777344 356.4375 C 381.515625 356.492188 381.261719 356.566406 381.015625 356.671875 C 380.769531 356.773438 380.535156 356.898438 380.3125 357.046875 C 380.09375 357.191406 379.886719 357.363281 379.699219 357.550781 C 379.511719 357.738281 379.339844 357.945312 379.195312 358.164062 C 379.046875 358.386719 378.921875 358.621094 378.816406 358.867188 C 378.714844 359.113281 378.640625 359.367188 378.585938 359.628906 C 378.535156 359.890625 378.507812 360.152344 378.507812 360.421875 L 378.507812 368.464844 L 367.90625 368.464844 L 367.90625 360.421875 C 367.902344 360.15625 367.878906 359.890625 367.824219 359.628906 C 367.773438 359.371094 367.695312 359.117188 367.59375 358.871094 C 367.488281 358.625 367.363281 358.394531 367.214844 358.171875 C 367.066406 357.949219 366.898438 357.746094 366.710938 357.558594 C 366.523438 357.371094 366.316406 357.203125 366.097656 357.054688 C 365.875 356.910156 365.640625 356.785156 365.394531 356.683594 C 365.148438 356.582031 364.898438 356.503906 364.636719 356.453125 C 364.375 356.402344 364.113281 356.375 363.84375 356.375 C 363.578125 356.375 363.316406 356.402344 363.054688 356.453125 C 362.792969 356.503906 362.539062 356.582031 362.296875 356.683594 C 362.050781 356.785156 361.816406 356.910156 361.59375 357.054688 C 361.371094 357.203125 361.167969 357.371094 360.980469 357.558594 C 360.792969 357.746094 360.621094 357.949219 360.476562 358.171875 C 360.328125 358.394531 360.203125 358.625 360.097656 358.871094 C 359.996094 359.117188 359.917969 359.371094 359.867188 359.628906 C 359.8125 359.890625 359.785156 360.15625 359.785156 360.421875 L 359.785156 368.710938 C 359.078125 368.855469 358.386719 369.054688 357.710938 369.316406 C 357.039062 369.578125 356.390625 369.894531 355.769531 370.265625 C 355.152344 370.636719 354.566406 371.058594 354.019531 371.53125 C 353.472656 372.003906 352.96875 372.515625 352.511719 373.074219 C 352.050781 373.632812 351.644531 374.226562 351.289062 374.855469 C 350.929688 375.484375 350.628906 376.140625 350.386719 376.820312 C 350.140625 377.5 349.957031 378.195312 349.832031 378.90625 C 349.707031 379.617188 349.644531 380.335938 349.644531 381.058594 L 341.601562 381.058594 C 341.335938 381.058594 341.074219 381.085938 340.8125 381.136719 C 340.550781 381.1875 340.296875 381.265625 340.050781 381.367188 C 339.804688 381.46875 339.570312 381.59375 339.347656 381.742188 C 339.125 381.890625 338.921875 382.058594 338.734375 382.246094 C 338.542969 382.4375 338.375 382.640625 338.226562 382.863281 C 338.078125 383.085938 337.953125 383.320312 337.851562 383.566406 C 337.75 383.8125 337.675781 384.066406 337.621094 384.328125 C 337.570312 384.589844 337.542969 384.851562 337.542969 385.117188 C 337.542969 385.386719 337.570312 385.648438 337.621094 385.910156 C 337.675781 386.171875 337.75 386.425781 337.851562 386.671875 C 337.953125 386.917969 338.078125 387.152344 338.226562 387.375 C 338.375 387.59375 338.542969 387.800781 338.734375 387.988281 C 338.921875 388.175781 339.125 388.347656 339.347656 388.492188 C 339.570312 388.640625 339.804688 388.765625 340.050781 388.867188 C 340.296875 388.972656 340.550781 389.046875 340.8125 389.101562 C 341.074219 389.152344 341.335938 389.179688 341.601562 389.179688 L 349.644531 389.179688 L 349.644531 399.78125 L 341.601562 399.78125 C 341.335938 399.785156 341.074219 399.8125 340.8125 399.863281 C 340.554688 399.917969 340.300781 399.992188 340.054688 400.097656 C 339.808594 400.199219 339.578125 400.324219 339.355469 400.472656 C 339.136719 400.621094 338.929688 400.789062 338.742188 400.976562 C 338.554688 401.164062 338.386719 401.371094 338.242188 401.589844 C 338.09375 401.8125 337.96875 402.046875 337.867188 402.292969 C 337.765625 402.539062 337.6875 402.792969 337.636719 403.050781 C 337.585938 403.3125 337.558594 403.578125 337.558594 403.84375 C 337.558594 404.109375 337.585938 404.371094 337.636719 404.632812 C 337.6875 404.894531 337.765625 405.144531 337.867188 405.390625 C 337.96875 405.636719 338.09375 405.871094 338.242188 406.09375 C 338.386719 406.3125 338.554688 406.519531 338.742188 406.707031 C 338.929688 406.894531 339.136719 407.0625 339.355469 407.210938 C 339.578125 407.359375 339.808594 407.484375 340.054688 407.589844 C 340.300781 407.691406 340.554688 407.769531 340.8125 407.820312 C 341.074219 407.875 341.335938 407.902344 341.601562 407.902344 L 349.644531 407.902344 L 349.644531 418.507812 L 341.601562 418.507812 C 341.335938 418.507812 341.074219 418.535156 340.8125 418.585938 C 340.550781 418.640625 340.300781 418.714844 340.054688 418.820312 C 339.808594 418.921875 339.574219 419.046875 339.351562 419.195312 C 339.132812 419.34375 338.929688 419.511719 338.738281 419.699219 C 338.550781 419.886719 338.382812 420.09375 338.238281 420.3125 C 338.089844 420.535156 337.964844 420.769531 337.863281 421.015625 C 337.761719 421.261719 337.683594 421.515625 337.632812 421.773438 C 337.582031 422.035156 337.554688 422.300781 337.554688 422.566406 C 337.554688 422.832031 337.582031 423.09375 337.632812 423.355469 C 337.683594 423.617188 337.761719 423.871094 337.863281 424.117188 C 337.964844 424.363281 338.089844 424.597656 338.238281 424.816406 C 338.382812 425.039062 338.550781 425.242188 338.738281 425.433594 C 338.929688 425.621094 339.132812 425.789062 339.351562 425.9375 C 339.574219 426.085938 339.808594 426.210938 340.054688 426.3125 C 340.300781 426.414062 340.550781 426.492188 340.8125 426.546875 C 341.074219 426.597656 341.335938 426.625 341.601562 426.625 L 349.644531 426.625 C 349.644531 427.347656 349.707031 428.066406 349.832031 428.777344 C 349.957031 429.488281 350.140625 430.183594 350.386719 430.863281 C 350.632812 431.546875 350.933594 432.199219 351.289062 432.828125 C 351.644531 433.457031 352.054688 434.050781 352.511719 434.609375 C 352.96875 435.167969 353.472656 435.683594 354.019531 436.152344 C 354.566406 436.625 355.152344 437.046875 355.769531 437.417969 C 356.390625 437.792969 357.039062 438.105469 357.710938 438.367188 C 358.386719 438.628906 359.078125 438.828125 359.785156 438.972656 L 359.785156 447.257812 C 359.785156 447.527344 359.808594 447.792969 359.863281 448.054688 C 359.914062 448.316406 359.988281 448.570312 360.089844 448.816406 C 360.191406 449.0625 360.316406 449.300781 360.464844 449.523438 C 360.613281 449.742188 360.78125 449.949219 360.96875 450.140625 C 361.160156 450.328125 361.363281 450.496094 361.585938 450.644531 C 361.808594 450.792969 362.042969 450.921875 362.289062 451.023438 C 362.535156 451.125 362.789062 451.203125 363.050781 451.253906 C 363.3125 451.308594 363.578125 451.332031 363.84375 451.332031 C 364.113281 451.332031 364.378906 451.308594 364.640625 451.253906 C 364.902344 451.203125 365.15625 451.125 365.402344 451.023438 C 365.648438 450.921875 365.882812 450.792969 366.105469 450.644531 C 366.328125 450.496094 366.53125 450.328125 366.722656 450.140625 C 366.910156 449.949219 367.078125 449.742188 367.226562 449.523438 C 367.375 449.300781 367.5 449.0625 367.601562 448.816406 C 367.703125 448.570312 367.777344 448.316406 367.828125 448.054688 C 367.878906 447.792969 367.90625 447.527344 367.90625 447.257812 L 367.90625 439.21875 L 378.507812 439.21875 L 378.507812 447.257812 C 378.511719 447.527344 378.535156 447.789062 378.589844 448.050781 C 378.640625 448.3125 378.71875 448.566406 378.820312 448.8125 C 378.921875 449.054688 379.046875 449.289062 379.195312 449.511719 C 379.34375 449.730469 379.511719 449.9375 379.703125 450.125 C 379.890625 450.3125 380.09375 450.480469 380.316406 450.628906 C 380.539062 450.777344 380.769531 450.902344 381.015625 451.003906 C 381.261719 451.105469 381.515625 451.179688 381.777344 451.234375 C 382.039062 451.285156 382.304688 451.3125 382.570312 451.3125 C 382.835938 451.3125 383.097656 451.285156 383.359375 451.234375 C 383.621094 451.179688 383.875 451.105469 384.121094 451.003906 C 384.367188 450.902344 384.601562 450.777344 384.820312 450.628906 C 385.042969 450.480469 385.25 450.3125 385.4375 450.125 C 385.625 449.9375 385.792969 449.730469 385.941406 449.511719 C 386.089844 449.289062 386.214844 449.054688 386.316406 448.8125 C 386.417969 448.566406 386.496094 448.3125 386.550781 448.050781 C 386.601562 447.789062 386.628906 447.527344 386.628906 447.257812 L 386.628906 439.21875 L 397.234375 439.21875 L 397.234375 447.257812 C 397.234375 447.527344 397.261719 447.792969 397.3125 448.054688 C 397.363281 448.316406 397.4375 448.570312 397.542969 448.816406 C 397.644531 449.0625 397.765625 449.296875 397.914062 449.519531 C 398.0625 449.742188 398.230469 449.949219 398.421875 450.136719 C 398.609375 450.328125 398.8125 450.496094 399.035156 450.644531 C 399.257812 450.792969 399.492188 450.917969 399.738281 451.019531 C 399.984375 451.121094 400.238281 451.199219 400.5 451.253906 C 400.761719 451.304688 401.027344 451.332031 401.292969 451.332031 C 401.5625 451.332031 401.828125 451.304688 402.089844 451.253906 C 402.351562 451.199219 402.605469 451.121094 402.851562 451.019531 C 403.097656 450.917969 403.332031 450.792969 403.554688 450.644531 C 403.777344 450.496094 403.980469 450.328125 404.167969 450.136719 C 404.359375 449.949219 404.527344 449.742188 404.675781 449.519531 C 404.820312 449.296875 404.945312 449.0625 405.046875 448.816406 C 405.148438 448.570312 405.226562 448.316406 405.277344 448.054688 C 405.328125 447.792969 405.355469 447.527344 405.355469 447.257812 L 405.355469 439.21875 L 405.664062 439.21875 C 406.492188 439.21875 407.308594 439.136719 408.121094 438.976562 C 408.929688 438.8125 409.71875 438.574219 410.480469 438.257812 C 411.246094 437.941406 411.972656 437.554688 412.660156 437.09375 C 413.347656 436.632812 413.984375 436.113281 414.566406 435.527344 C 415.152344 434.941406 415.675781 434.308594 416.132812 433.621094 C 416.59375 432.933594 416.984375 432.207031 417.300781 431.441406 C 417.617188 430.679688 417.855469 429.890625 418.019531 429.082031 C 418.183594 428.269531 418.265625 427.453125 418.265625 426.625 L 426.390625 426.625 C 426.65625 426.625 426.917969 426.597656 427.179688 426.546875 C 427.441406 426.492188 427.695312 426.414062 427.9375 426.3125 C 428.183594 426.210938 428.417969 426.085938 428.640625 425.9375 C 428.859375 425.789062 429.0625 425.621094 429.253906 425.433594 C 429.441406 425.242188 429.609375 425.039062 429.753906 424.816406 C 429.902344 424.597656 430.027344 424.363281 430.128906 424.117188 C 430.230469 423.871094 430.308594 423.617188 430.359375 423.355469 C 430.410156 423.09375 430.4375 422.832031 430.4375 422.566406 C 430.4375 422.300781 430.410156 422.035156 430.359375 421.773438 C 430.308594 421.515625 430.230469 421.261719 430.128906 421.015625 C 430.027344 420.769531 429.902344 420.535156 429.753906 420.3125 C 429.609375 420.09375 429.441406 419.886719 429.253906 419.699219 C 429.0625 419.511719 428.859375 419.34375 428.640625 419.195312 C 428.417969 419.046875 428.183594 418.921875 427.9375 418.820312 C 427.695312 418.714844 427.441406 418.640625 427.179688 418.585938 C 426.917969 418.535156 426.65625 418.507812 426.390625 418.507812 L 418.265625 418.507812 L 418.265625 407.902344 L 426.390625 407.902344 C 426.65625 407.902344 426.917969 407.875 427.179688 407.820312 C 427.4375 407.769531 427.691406 407.691406 427.9375 407.589844 C 428.183594 407.484375 428.414062 407.359375 428.636719 407.210938 C 428.855469 407.0625 429.0625 406.894531 429.25 406.707031 C 429.4375 406.519531 429.605469 406.3125 429.75 406.09375 C 429.898438 405.871094 430.023438 405.636719 430.125 405.390625 C 430.226562 405.144531 430.304688 404.894531 430.355469 404.632812 C 430.40625 404.371094 430.433594 404.109375 430.433594 403.84375 C 430.433594 403.578125 430.40625 403.3125 430.355469 403.050781 C 430.304688 402.792969 430.226562 402.539062 430.125 402.292969 C 430.023438 402.046875 429.898438 401.8125 429.75 401.59375 C 429.605469 401.371094 429.4375 401.164062 429.25 400.976562 C 429.0625 400.789062 428.855469 400.621094 428.636719 400.472656 C 428.414062 400.324219 428.183594 400.199219 427.9375 400.097656 C 427.691406 399.992188 427.4375 399.917969 427.179688 399.863281 C 426.917969 399.8125 426.65625 399.785156 426.390625 399.78125 L 418.265625 399.78125 L 418.265625 389.179688 L 426.390625 389.179688 C 426.65625 389.179688 426.917969 389.152344 427.179688 389.101562 C 427.441406 389.046875 427.695312 388.972656 427.941406 388.867188 C 428.1875 388.765625 428.421875 388.640625 428.644531 388.492188 C 428.867188 388.347656 429.070312 388.175781 429.257812 387.988281 C 429.449219 387.800781 429.617188 387.59375 429.765625 387.375 C 429.914062 387.152344 430.039062 386.917969 430.140625 386.671875 C 430.242188 386.425781 430.320312 386.171875 430.371094 385.910156 C 430.421875 385.648438 430.449219 385.386719 430.449219 385.117188 C 430.449219 384.851562 430.421875 384.589844 430.371094 384.328125 C 430.320312 384.066406 430.242188 383.8125 430.140625 383.566406 C 430.039062 383.320312 429.914062 383.085938 429.765625 382.863281 C 429.617188 382.640625 429.449219 382.4375 429.257812 382.246094 C 429.070312 382.058594 428.867188 381.890625 428.644531 381.742188 C 428.421875 381.59375 428.1875 381.46875 427.941406 381.367188 C 427.695312 381.265625 427.441406 381.1875 427.179688 381.136719 C 426.917969 381.085938 426.65625 381.058594 426.390625 381.058594 L 418.265625 381.058594 C 418.265625 380.230469 418.183594 379.414062 418.019531 378.601562 C 417.859375 377.792969 417.617188 377.003906 417.300781 376.242188 C 416.984375 375.476562 416.59375 374.75 416.136719 374.0625 C 415.675781 373.378906 415.152344 372.742188 414.566406 372.15625 C 413.984375 371.570312 413.347656 371.050781 412.660156 370.589844 C 411.972656 370.132812 411.246094 369.742188 410.480469 369.425781 C 409.71875 369.109375 408.929688 368.871094 408.121094 368.707031 C 407.308594 368.546875 406.488281 368.464844 405.664062 368.464844 Z M 410.148438 426.617188 C 410.148438 426.910156 410.117188 427.203125 410.058594 427.492188 C 410.003906 427.78125 409.917969 428.0625 409.804688 428.332031 C 409.691406 428.605469 409.554688 428.863281 409.390625 429.109375 C 409.226562 429.351562 409.039062 429.578125 408.832031 429.785156 C 408.625 429.996094 408.398438 430.179688 408.152344 430.34375 C 407.910156 430.507812 407.652344 430.644531 407.378906 430.757812 C 407.105469 430.871094 406.828125 430.957031 406.539062 431.015625 C 406.25 431.070312 405.957031 431.101562 405.664062 431.101562 L 362.242188 431.101562 C 361.949219 431.101562 361.65625 431.070312 361.371094 431.015625 C 361.082031 430.957031 360.800781 430.871094 360.527344 430.757812 C 360.257812 430.644531 360 430.507812 359.753906 430.34375 C 359.511719 430.179688 359.285156 429.996094 359.074219 429.785156 C 358.867188 429.578125 358.679688 429.351562 358.519531 429.105469 C 358.355469 428.863281 358.214844 428.605469 358.105469 428.332031 C 357.992188 428.058594 357.90625 427.78125 357.847656 427.492188 C 357.792969 427.203125 357.761719 426.910156 357.761719 426.617188 L 357.761719 381.0625 C 357.761719 380.769531 357.792969 380.476562 357.847656 380.1875 C 357.90625 379.902344 357.992188 379.621094 358.105469 379.347656 C 358.21875 379.078125 358.355469 378.820312 358.519531 378.574219 C 358.683594 378.332031 358.867188 378.105469 359.078125 377.894531 C 359.285156 377.6875 359.511719 377.503906 359.753906 377.339844 C 360 377.175781 360.257812 377.039062 360.53125 376.925781 C 360.800781 376.8125 361.082031 376.726562 361.371094 376.671875 C 361.660156 376.613281 361.949219 376.582031 362.242188 376.582031 L 405.664062 376.582031 C 405.957031 376.582031 406.25 376.613281 406.539062 376.667969 C 406.824219 376.726562 407.105469 376.8125 407.378906 376.925781 C 407.648438 377.039062 407.90625 377.175781 408.152344 377.339844 C 408.398438 377.503906 408.625 377.6875 408.832031 377.894531 C 409.039062 378.105469 409.226562 378.328125 409.390625 378.574219 C 409.554688 378.820312 409.691406 379.078125 409.804688 379.347656 C 409.917969 379.621094 410.003906 379.902344 410.058594 380.1875 C 410.117188 380.476562 410.148438 380.769531 410.148438 381.0625 Z M 410.148438 426.617188 " fill-opacity="1" fill-rule="nonzero"/><path fill="#f4f6ea" d="M 397.121094 385.546875 L 370.785156 385.546875 C 370.519531 385.546875 370.257812 385.574219 369.996094 385.625 C 369.734375 385.675781 369.480469 385.753906 369.234375 385.855469 C 368.988281 385.957031 368.753906 386.082031 368.53125 386.230469 C 368.308594 386.378906 368.105469 386.546875 367.917969 386.734375 C 367.726562 386.925781 367.558594 387.128906 367.410156 387.351562 C 367.261719 387.574219 367.136719 387.804688 367.035156 388.050781 C 366.933594 388.296875 366.855469 388.550781 366.804688 388.8125 C 366.753906 389.074219 366.726562 389.339844 366.726562 389.605469 L 366.726562 418.078125 C 366.726562 418.34375 366.753906 418.609375 366.804688 418.871094 C 366.855469 419.132812 366.933594 419.386719 367.035156 419.632812 C 367.136719 419.878906 367.261719 420.113281 367.410156 420.332031 C 367.558594 420.554688 367.726562 420.761719 367.917969 420.949219 C 368.105469 421.136719 368.308594 421.304688 368.53125 421.453125 C 368.753906 421.601562 368.988281 421.726562 369.234375 421.828125 C 369.480469 421.929688 369.734375 422.007812 369.996094 422.058594 C 370.257812 422.113281 370.519531 422.136719 370.785156 422.136719 L 397.121094 422.136719 C 397.386719 422.136719 397.652344 422.113281 397.914062 422.058594 C 398.171875 422.007812 398.425781 421.929688 398.675781 421.828125 C 398.921875 421.726562 399.152344 421.601562 399.375 421.453125 C 399.597656 421.304688 399.804688 421.136719 399.992188 420.949219 C 400.179688 420.761719 400.347656 420.554688 400.496094 420.335938 C 400.644531 420.113281 400.769531 419.878906 400.871094 419.632812 C 400.972656 419.386719 401.050781 419.132812 401.101562 418.871094 C 401.152344 418.609375 401.179688 418.34375 401.179688 418.078125 L 401.179688 389.605469 C 401.179688 389.339844 401.152344 389.074219 401.101562 388.8125 C 401.050781 388.550781 400.972656 388.296875 400.871094 388.050781 C 400.769531 387.804688 400.644531 387.570312 400.496094 387.351562 C 400.347656 387.128906 400.179688 386.921875 399.992188 386.734375 C 399.804688 386.546875 399.597656 386.378906 399.375 386.230469 C 399.15625 386.082031 398.921875 385.957031 398.675781 385.855469 C 398.425781 385.753906 398.171875 385.675781 397.914062 385.625 C 397.652344 385.574219 397.386719 385.546875 397.121094 385.546875 Z M 393.0625 414.019531 L 374.847656 414.019531 L 374.847656 393.664062 L 393.0625 393.664062 Z M 393.0625 414.019531 " fill-opacity="1" fill-rule="nonzero"/><path fill="#f4f6ea" d="M 383.238281 337.121094 C 382.148438 337.121094 381.054688 337.148438 379.964844 337.203125 C 378.875 337.257812 377.785156 337.335938 376.699219 337.445312 C 375.613281 337.550781 374.527344 337.683594 373.449219 337.84375 C 372.367188 338.003906 371.292969 338.191406 370.222656 338.40625 C 369.152344 338.617188 368.085938 338.855469 367.027344 339.121094 C 365.96875 339.386719 364.917969 339.679688 363.871094 339.996094 C 362.828125 340.3125 361.789062 340.65625 360.761719 341.023438 C 359.734375 341.390625 358.714844 341.785156 357.707031 342.203125 C 356.699219 342.621094 355.699219 343.0625 354.710938 343.527344 C 353.726562 343.996094 352.75 344.488281 351.789062 345 C 350.824219 345.515625 349.875 346.054688 348.9375 346.617188 C 348 347.175781 347.078125 347.761719 346.171875 348.367188 C 345.265625 348.972656 344.371094 349.601562 343.496094 350.253906 C 342.617188 350.902344 341.757812 351.574219 340.914062 352.269531 C 340.070312 352.960938 339.242188 353.671875 338.433594 354.40625 C 337.625 355.140625 336.832031 355.894531 336.0625 356.664062 C 335.289062 357.4375 334.535156 358.226562 333.804688 359.035156 C 333.070312 359.847656 332.355469 360.671875 331.664062 361.515625 C 330.972656 362.359375 330.300781 363.222656 329.648438 364.097656 C 329 364.976562 328.371094 365.867188 327.765625 366.777344 C 327.15625 367.683594 326.574219 368.605469 326.011719 369.542969 C 325.449219 370.480469 324.914062 371.429688 324.398438 372.390625 C 323.882812 373.355469 323.394531 374.328125 322.925781 375.316406 C 322.460938 376.304688 322.015625 377.300781 321.597656 378.3125 C 321.179688 379.320312 320.789062 380.339844 320.421875 381.367188 C 320.054688 382.394531 319.710938 383.429688 319.394531 384.476562 C 319.078125 385.519531 318.785156 386.574219 318.519531 387.632812 C 318.253906 388.691406 318.015625 389.757812 317.800781 390.828125 C 317.589844 391.898438 317.402344 392.972656 317.242188 394.054688 C 317.082031 395.132812 316.949219 396.21875 316.84375 397.304688 C 316.734375 398.390625 316.65625 399.480469 316.601562 400.570312 C 316.546875 401.660156 316.519531 402.75 316.519531 403.84375 C 316.519531 404.933594 316.546875 406.027344 316.601562 407.117188 C 316.65625 408.207031 316.734375 409.296875 316.84375 410.382812 C 316.949219 411.46875 317.082031 412.554688 317.242188 413.632812 C 317.402344 414.714844 317.589844 415.789062 317.804688 416.859375 C 318.015625 417.929688 318.253906 418.996094 318.519531 420.054688 C 318.785156 421.113281 319.078125 422.164062 319.394531 423.210938 C 319.710938 424.253906 320.054688 425.292969 320.421875 426.320312 C 320.789062 427.347656 321.183594 428.367188 321.601562 429.375 C 322.019531 430.382812 322.460938 431.382812 322.925781 432.371094 C 323.394531 433.355469 323.882812 434.332031 324.398438 435.292969 C 324.914062 436.257812 325.453125 437.207031 326.011719 438.144531 C 326.574219 439.082031 327.160156 440.003906 327.765625 440.910156 C 328.371094 441.816406 329 442.710938 329.652344 443.585938 C 330.300781 444.464844 330.972656 445.324219 331.664062 446.167969 C 332.359375 447.011719 333.070312 447.839844 333.804688 448.648438 C 334.539062 449.457031 335.289062 450.25 336.0625 451.019531 C 336.835938 451.792969 337.625 452.546875 338.433594 453.277344 C 339.242188 454.011719 340.070312 454.726562 340.914062 455.417969 C 341.757812 456.109375 342.617188 456.78125 343.496094 457.433594 C 344.375 458.082031 345.265625 458.710938 346.171875 459.316406 C 347.082031 459.925781 348.003906 460.507812 348.941406 461.070312 C 349.875 461.632812 350.828125 462.167969 351.789062 462.683594 C 352.753906 463.199219 353.726562 463.691406 354.714844 464.15625 C 355.703125 464.625 356.699219 465.066406 357.707031 465.484375 C 358.71875 465.902344 359.734375 466.292969 360.765625 466.660156 C 361.792969 467.03125 362.828125 467.371094 363.875 467.6875 C 364.917969 468.007812 365.96875 468.296875 367.03125 468.5625 C 368.089844 468.828125 369.152344 469.066406 370.222656 469.28125 C 371.296875 469.492188 372.371094 469.679688 373.449219 469.839844 C 374.53125 470 375.613281 470.132812 376.703125 470.242188 C 377.789062 470.347656 378.875 470.429688 379.96875 470.480469 C 381.058594 470.535156 382.148438 470.5625 383.242188 470.5625 C 384.332031 470.5625 385.425781 470.535156 386.515625 470.480469 C 387.605469 470.429688 388.695312 470.347656 389.78125 470.242188 C 390.867188 470.132812 391.949219 470 393.03125 469.839844 C 394.109375 469.679688 395.1875 469.492188 396.257812 469.28125 C 397.328125 469.066406 398.394531 468.828125 399.453125 468.5625 C 400.511719 468.296875 401.5625 468.007812 402.609375 467.6875 C 403.652344 467.371094 404.691406 467.03125 405.71875 466.660156 C 406.746094 466.292969 407.765625 465.902344 408.773438 465.484375 C 409.78125 465.066406 410.78125 464.621094 411.765625 464.15625 C 412.753906 463.6875 413.730469 463.199219 414.691406 462.683594 C 415.65625 462.167969 416.605469 461.628906 417.542969 461.070312 C 418.476562 460.507812 419.402344 459.925781 420.308594 459.316406 C 421.214844 458.710938 422.109375 458.082031 422.984375 457.433594 C 423.863281 456.78125 424.722656 456.109375 425.566406 455.417969 C 426.410156 454.722656 427.238281 454.011719 428.046875 453.277344 C 428.855469 452.542969 429.648438 451.792969 430.417969 451.019531 C 431.191406 450.246094 431.945312 449.457031 432.675781 448.648438 C 433.410156 447.839844 434.125 447.011719 434.816406 446.167969 C 435.507812 445.324219 436.179688 444.464844 436.832031 443.585938 C 437.480469 442.710938 438.109375 441.816406 438.714844 440.910156 C 439.324219 440 439.90625 439.078125 440.46875 438.144531 C 441.03125 437.207031 441.566406 436.257812 442.082031 435.292969 C 442.597656 434.332031 443.089844 433.355469 443.554688 432.367188 C 444.023438 431.382812 444.464844 430.382812 444.882812 429.375 C 445.300781 428.367188 445.691406 427.347656 446.0625 426.320312 C 446.429688 425.292969 446.769531 424.253906 447.085938 423.210938 C 447.40625 422.164062 447.695312 421.113281 447.960938 420.054688 C 448.226562 418.996094 448.464844 417.929688 448.679688 416.859375 C 448.890625 415.789062 449.078125 414.710938 449.238281 413.632812 C 449.398438 412.550781 449.53125 411.46875 449.640625 410.382812 C 449.746094 409.296875 449.828125 408.207031 449.878906 407.117188 C 449.933594 406.023438 449.960938 404.933594 449.960938 403.84375 C 449.960938 402.75 449.929688 401.660156 449.875 400.570312 C 449.820312 399.480469 449.742188 398.390625 449.632812 397.304688 C 449.523438 396.21875 449.390625 395.136719 449.230469 394.054688 C 449.066406 392.976562 448.878906 391.902344 448.667969 390.832031 C 448.453125 389.761719 448.210938 388.695312 447.945312 387.636719 C 447.679688 386.578125 447.386719 385.527344 447.070312 384.484375 C 446.753906 383.4375 446.410156 382.402344 446.042969 381.375 C 445.671875 380.347656 445.28125 379.328125 444.863281 378.320312 C 444.441406 377.3125 444 376.316406 443.535156 375.328125 C 443.066406 374.34375 442.574219 373.367188 442.058594 372.40625 C 441.542969 371.441406 441.007812 370.492188 440.445312 369.558594 C 439.882812 368.621094 439.300781 367.699219 438.691406 366.792969 C 438.085938 365.882812 437.457031 364.992188 436.808594 364.117188 C 436.15625 363.238281 435.484375 362.378906 434.792969 361.535156 C 434.101562 360.691406 433.386719 359.863281 432.652344 359.054688 C 431.921875 358.246094 431.167969 357.457031 430.394531 356.683594 C 429.625 355.914062 428.832031 355.160156 428.023438 354.429688 C 427.214844 353.695312 426.390625 352.980469 425.546875 352.289062 C 424.703125 351.597656 423.84375 350.925781 422.964844 350.273438 C 422.089844 349.625 421.195312 348.996094 420.289062 348.390625 C 419.382812 347.78125 418.460938 347.199219 417.523438 346.636719 C 416.589844 346.074219 415.636719 345.535156 414.675781 345.023438 C 413.714844 344.507812 412.738281 344.015625 411.753906 343.550781 C 410.765625 343.082031 409.769531 342.640625 408.761719 342.21875 C 407.753906 341.800781 406.734375 341.410156 405.707031 341.039062 C 404.679688 340.671875 403.644531 340.328125 402.597656 340.011719 C 401.554688 339.695312 400.503906 339.402344 399.445312 339.136719 C 398.386719 338.871094 397.320312 338.628906 396.25 338.417969 C 395.179688 338.203125 394.105469 338.015625 393.023438 337.855469 C 391.945312 337.691406 390.863281 337.558594 389.777344 337.449219 C 388.691406 337.34375 387.601562 337.261719 386.511719 337.207031 C 385.421875 337.152344 384.332031 337.125 383.238281 337.121094 Z M 383.238281 462.441406 C 381.320312 462.441406 379.40625 462.347656 377.496094 462.160156 C 375.585938 461.972656 373.6875 461.691406 371.804688 461.316406 C 369.925781 460.941406 368.066406 460.476562 366.226562 459.917969 C 364.390625 459.363281 362.585938 458.714844 360.8125 457.980469 C 359.039062 457.246094 357.308594 456.425781 355.613281 455.523438 C 353.921875 454.617188 352.277344 453.632812 350.683594 452.566406 C 349.085938 451.5 347.546875 450.359375 346.0625 449.140625 C 344.578125 447.921875 343.160156 446.636719 341.800781 445.277344 C 340.445312 443.921875 339.160156 442.5 337.941406 441.015625 C 336.722656 439.535156 335.582031 437.992188 334.515625 436.398438 C 333.449219 434.800781 332.464844 433.15625 331.558594 431.464844 C 330.652344 429.773438 329.835938 428.039062 329.101562 426.265625 C 328.367188 424.492188 327.71875 422.6875 327.164062 420.851562 C 326.605469 419.015625 326.140625 417.15625 325.765625 415.273438 C 325.390625 413.390625 325.109375 411.496094 324.921875 409.585938 C 324.734375 407.675781 324.640625 405.761719 324.640625 403.839844 C 324.640625 401.921875 324.734375 400.007812 324.921875 398.097656 C 325.109375 396.1875 325.390625 394.289062 325.765625 392.410156 C 326.140625 390.527344 326.605469 388.667969 327.164062 386.832031 C 327.71875 384.992188 328.367188 383.1875 329.101562 381.414062 C 329.835938 379.640625 330.65625 377.910156 331.558594 376.21875 C 332.464844 374.523438 333.449219 372.878906 334.515625 371.285156 C 335.582031 369.6875 336.722656 368.148438 337.941406 366.664062 C 339.160156 365.183594 340.445312 363.761719 341.804688 362.40625 C 343.160156 361.046875 344.582031 359.761719 346.066406 358.542969 C 347.546875 357.324219 349.089844 356.183594 350.683594 355.117188 C 352.28125 354.050781 353.925781 353.066406 355.617188 352.160156 C 357.308594 351.253906 359.042969 350.4375 360.816406 349.703125 C 362.589844 348.96875 364.394531 348.320312 366.230469 347.765625 C 368.066406 347.207031 369.925781 346.742188 371.808594 346.367188 C 373.691406 345.992188 375.585938 345.710938 377.496094 345.523438 C 379.40625 345.335938 381.320312 345.242188 383.242188 345.242188 C 385.160156 345.242188 387.074219 345.335938 388.984375 345.523438 C 390.894531 345.710938 392.792969 345.992188 394.671875 346.367188 C 396.554688 346.742188 398.414062 347.207031 400.25 347.765625 C 402.089844 348.320312 403.894531 348.96875 405.667969 349.703125 C 407.441406 350.4375 409.171875 351.257812 410.867188 352.160156 C 412.558594 353.066406 414.203125 354.050781 415.796875 355.117188 C 417.394531 356.183594 418.933594 357.324219 420.417969 358.542969 C 421.902344 359.761719 423.320312 361.046875 424.679688 362.40625 C 426.035156 363.761719 427.324219 365.183594 428.539062 366.667969 C 429.757812 368.148438 430.898438 369.691406 431.964844 371.285156 C 433.03125 372.882812 434.019531 374.523438 434.921875 376.21875 C 435.828125 377.910156 436.648438 379.644531 437.382812 381.417969 C 438.117188 383.191406 438.761719 384.996094 439.320312 386.832031 C 439.875 388.667969 440.339844 390.527344 440.714844 392.410156 C 441.089844 394.292969 441.371094 396.1875 441.558594 398.097656 C 441.746094 400.007812 441.84375 401.921875 441.84375 403.84375 C 441.839844 405.761719 441.742188 407.675781 441.554688 409.585938 C 441.363281 411.492188 441.082031 413.390625 440.703125 415.269531 C 440.328125 417.152344 439.863281 419.011719 439.304688 420.847656 C 438.746094 422.683594 438.097656 424.484375 437.363281 426.257812 C 436.628906 428.03125 435.808594 429.761719 434.902344 431.453125 C 433.996094 433.144531 433.011719 434.789062 431.945312 436.382812 C 430.878906 437.980469 429.738281 439.519531 428.519531 441 C 427.300781 442.484375 426.015625 443.902344 424.660156 445.261719 C 423.300781 446.617188 421.882812 447.90625 420.398438 449.121094 C 418.914062 450.339844 417.375 451.480469 415.78125 452.546875 C 414.1875 453.613281 412.542969 454.601562 410.851562 455.503906 C 409.160156 456.410156 407.425781 457.230469 405.65625 457.964844 C 403.882812 458.699219 402.078125 459.347656 400.242188 459.90625 C 398.40625 460.464844 396.546875 460.929688 394.667969 461.304688 C 392.785156 461.683594 390.890625 461.964844 388.980469 462.15625 C 387.070312 462.34375 385.15625 462.441406 383.238281 462.441406 Z M 383.238281 462.441406 " fill-opacity="1" fill-rule="nonzero"/><path fill="#f4f6ea" d="M 437.253906 317.941406 L 419.863281 321.769531 C 418.761719 321.28125 417.65625 320.8125 416.535156 320.363281 L 406.96875 305.398438 C 406.59375 304.816406 406.105469 304.355469 405.496094 304.023438 C 404.890625 303.691406 404.238281 303.523438 403.546875 303.523438 L 364.316406 303.523438 C 363.621094 303.523438 362.972656 303.691406 362.367188 304.023438 C 361.757812 304.355469 361.265625 304.8125 360.894531 305.394531 L 351.777344 319.664062 C 350.019531 320.320312 348.296875 321.027344 346.621094 321.773438 L 329.226562 317.941406 C 328.550781 317.792969 327.878906 317.816406 327.214844 318.007812 C 326.550781 318.203125 325.972656 318.546875 325.484375 319.035156 L 297.742188 346.773438 C 297.253906 347.265625 296.914062 347.84375 296.71875 348.507812 C 296.523438 349.171875 296.5 349.839844 296.648438 350.519531 L 300.597656 368.464844 C 300.097656 369.644531 299.628906 370.84375 299.179688 372.050781 L 285.484375 380.804688 C 284.902344 381.179688 284.445312 381.667969 284.113281 382.277344 C 283.777344 382.882812 283.613281 383.535156 283.613281 384.226562 L 283.613281 423.457031 C 283.613281 424.152344 283.777344 424.800781 284.113281 425.40625 C 284.445312 426.015625 284.902344 426.507812 285.484375 426.878906 L 299.1875 435.636719 C 299.90625 437.535156 300.691406 439.414062 301.535156 441.25 L 298.03125 457.164062 C 297.882812 457.839844 297.90625 458.507812 298.101562 459.171875 C 298.292969 459.839844 298.636719 460.414062 299.125 460.90625 L 326.867188 488.648438 C 327.355469 489.136719 327.933594 489.480469 328.597656 489.671875 C 329.261719 489.867188 329.933594 489.890625 330.609375 489.742188 L 347.066406 486.117188 C 348.570312 486.78125 350.128906 487.410156 351.777344 488.019531 L 360.894531 502.289062 C 361.269531 502.871094 361.757812 503.328125 362.367188 503.660156 C 362.972656 503.992188 363.625 504.160156 364.316406 504.160156 L 403.546875 504.160156 C 404.238281 504.160156 404.890625 503.992188 405.496094 503.660156 C 406.105469 503.328125 406.59375 502.867188 406.96875 502.285156 L 416.535156 487.320312 C 417.5 486.933594 418.460938 486.535156 419.417969 486.117188 L 435.871094 489.742188 C 436.546875 489.890625 437.21875 489.871094 437.882812 489.675781 C 438.550781 489.480469 439.125 489.136719 439.613281 488.648438 L 467.355469 460.90625 C 467.847656 460.414062 468.1875 459.839844 468.382812 459.171875 C 468.578125 458.507812 468.601562 457.839844 468.449219 457.164062 L 464.945312 441.253906 C 465.621094 439.785156 466.253906 438.296875 466.84375 436.804688 L 482.375 426.878906 C 482.957031 426.507812 483.417969 426.015625 483.75 425.410156 C 484.082031 424.800781 484.25 424.152344 484.25 423.457031 L 484.25 384.226562 C 484.25 383.535156 484.082031 382.882812 483.75 382.277344 C 483.417969 381.667969 482.957031 381.179688 482.375 380.804688 L 466.847656 370.882812 C 466.535156 370.070312 466.214844 369.265625 465.878906 368.464844 L 469.832031 350.519531 C 469.980469 349.839844 469.957031 349.171875 469.761719 348.507812 C 469.566406 347.84375 469.226562 347.265625 468.734375 346.777344 L 440.996094 319.035156 C 440.507812 318.546875 439.929688 318.207031 439.265625 318.011719 C 438.601562 317.816406 437.929688 317.792969 437.253906 317.941406 Z M 461.421875 350.941406 L 457.667969 368 C 457.476562 368.871094 457.5625 369.714844 457.925781 370.53125 C 458.582031 371.996094 459.167969 373.5 459.738281 375.011719 C 460.054688 375.855469 460.589844 376.519531 461.351562 377.003906 L 476.128906 386.449219 L 476.128906 421.234375 L 461.351562 430.679688 C 460.589844 431.164062 460.050781 431.828125 459.738281 432.671875 C 458.933594 434.808594 458.019531 436.945312 457.019531 439.027344 C 456.621094 439.867188 456.519531 440.742188 456.71875 441.648438 L 460.042969 456.738281 L 435.449219 481.332031 L 419.847656 477.898438 C 418.960938 477.699219 418.105469 477.792969 417.277344 478.175781 C 415.671875 478.914062 414.035156 479.589844 412.378906 480.222656 C 411.542969 480.542969 410.886719 481.078125 410.40625 481.832031 L 401.324219 496.042969 L 366.539062 496.042969 L 357.878906 482.492188 C 357.378906 481.710938 356.695312 481.167969 355.820312 480.859375 C 353.429688 480 351.261719 479.125 349.199219 478.179688 C 348.375 477.792969 347.519531 477.703125 346.632812 477.898438 L 331.035156 481.332031 L 306.4375 456.738281 L 309.761719 441.648438 C 309.960938 440.742188 309.859375 439.867188 309.457031 439.027344 C 308.304688 436.617188 307.257812 434.105469 306.339844 431.574219 C 306.027344 430.707031 305.484375 430.023438 304.710938 429.527344 L 291.730469 421.234375 L 291.730469 386.449219 L 304.710938 378.15625 C 305.484375 377.660156 306.03125 376.980469 306.34375 376.113281 C 307.023438 374.21875 307.738281 372.347656 308.550781 370.527344 C 308.917969 369.710938 309.003906 368.871094 308.808594 368 L 305.054688 350.945312 L 329.652344 326.351562 L 346.199219 329.992188 C 347.089844 330.183594 347.949219 330.089844 348.78125 329.707031 C 351.027344 328.664062 353.398438 327.695312 355.824219 326.828125 C 356.695312 326.515625 357.378906 325.972656 357.878906 325.195312 L 366.539062 311.644531 L 401.320312 311.644531 L 410.402344 325.851562 C 410.886719 326.605469 411.542969 327.144531 412.382812 327.460938 C 414.1875 328.148438 415.957031 328.894531 417.699219 329.703125 C 418.527344 330.089844 419.390625 330.183594 420.285156 329.992188 L 436.828125 326.351562 Z M 461.421875 350.941406 " fill-opacity="1" fill-rule="nonzero"/><g clip-path="url(#506d92ecfa)"><path fill="#f4f6ea" d="M 255.664062 403.84375 C 255.664062 403.574219 255.636719 403.3125 255.585938 403.050781 C 255.53125 402.789062 255.457031 402.535156 255.355469 402.289062 C 255.25 402.042969 255.125 401.808594 254.976562 401.585938 C 254.832031 401.363281 254.664062 401.160156 254.472656 400.972656 C 254.285156 400.78125 254.082031 400.613281 253.859375 400.464844 C 253.636719 400.320312 253.402344 400.195312 253.15625 400.089844 C 252.910156 399.988281 252.65625 399.914062 252.394531 399.859375 C 252.132812 399.808594 251.871094 399.78125 251.601562 399.78125 L 144.484375 399.78125 L 144.484375 225.710938 L 420.28125 225.710938 L 387.421875 244.515625 C 387.191406 244.648438 386.972656 244.800781 386.773438 244.976562 C 386.570312 245.152344 386.390625 245.34375 386.226562 245.554688 C 386.0625 245.765625 385.921875 245.992188 385.804688 246.230469 C 385.683594 246.46875 385.589844 246.714844 385.519531 246.972656 C 385.449219 247.230469 385.40625 247.492188 385.386719 247.757812 C 385.367188 248.023438 385.375 248.289062 385.410156 248.554688 C 385.445312 248.820312 385.503906 249.078125 385.589844 249.328125 C 385.671875 249.582031 385.78125 249.824219 385.914062 250.054688 C 386.046875 250.289062 386.199219 250.503906 386.375 250.703125 C 386.550781 250.90625 386.742188 251.089844 386.953125 251.25 C 387.164062 251.414062 387.390625 251.554688 387.628906 251.675781 C 387.867188 251.792969 388.113281 251.886719 388.371094 251.957031 C 388.628906 252.027344 388.890625 252.070312 389.15625 252.089844 C 389.421875 252.109375 389.6875 252.101562 389.953125 252.066406 C 390.21875 252.035156 390.476562 251.972656 390.730469 251.890625 C 390.980469 251.804688 391.222656 251.695312 391.453125 251.5625 L 437.578125 225.171875 C 437.867188 225 438.136719 224.796875 438.375 224.558594 L 438.464844 224.472656 C 438.765625 224.152344 439.007812 223.792969 439.191406 223.394531 C 439.246094 223.277344 439.292969 223.164062 439.335938 223.042969 C 439.511719 222.597656 439.605469 222.136719 439.617188 221.660156 L 439.617188 221.648438 C 439.609375 221.164062 439.511719 220.699219 439.335938 220.246094 C 439.292969 220.136719 439.25 220.03125 439.199219 219.921875 C 438.847656 219.152344 438.304688 218.554688 437.574219 218.125 L 391.453125 191.734375 C 391.222656 191.601562 390.980469 191.492188 390.730469 191.40625 C 390.476562 191.324219 390.21875 191.265625 389.953125 191.230469 C 389.6875 191.195312 389.421875 191.1875 389.15625 191.207031 C 388.890625 191.226562 388.628906 191.269531 388.371094 191.339844 C 388.113281 191.410156 387.867188 191.503906 387.628906 191.621094 C 387.390625 191.742188 387.164062 191.882812 386.953125 192.046875 C 386.742188 192.210938 386.550781 192.390625 386.375 192.59375 C 386.199219 192.792969 386.046875 193.007812 385.914062 193.242188 C 385.78125 193.472656 385.671875 193.714844 385.589844 193.96875 C 385.503906 194.21875 385.445312 194.480469 385.410156 194.742188 C 385.375 195.007812 385.367188 195.273438 385.386719 195.539062 C 385.40625 195.804688 385.449219 196.066406 385.519531 196.324219 C 385.589844 196.582031 385.683594 196.828125 385.804688 197.066406 C 385.921875 197.304688 386.0625 197.53125 386.226562 197.742188 C 386.390625 197.953125 386.570312 198.144531 386.773438 198.320312 C 386.972656 198.496094 387.191406 198.648438 387.421875 198.78125 L 420.296875 217.59375 L 140.425781 217.59375 C 140.15625 217.59375 139.894531 217.617188 139.632812 217.671875 C 139.371094 217.722656 139.117188 217.800781 138.871094 217.902344 C 138.625 218.003906 138.390625 218.128906 138.167969 218.277344 C 137.949219 218.425781 137.742188 218.59375 137.554688 218.78125 C 137.367188 218.96875 137.195312 219.175781 137.050781 219.398438 C 136.902344 219.617188 136.777344 219.851562 136.675781 220.097656 C 136.570312 220.34375 136.496094 220.597656 136.441406 220.859375 C 136.390625 221.121094 136.363281 221.386719 136.367188 221.652344 L 136.367188 403.84375 C 136.363281 404.109375 136.390625 404.371094 136.441406 404.632812 C 136.496094 404.894531 136.570312 405.148438 136.675781 405.394531 C 136.777344 405.640625 136.902344 405.875 137.050781 406.097656 C 137.195312 406.320312 137.367188 406.523438 137.554688 406.714844 C 137.742188 406.902344 137.949219 407.070312 138.167969 407.21875 C 138.390625 407.367188 138.625 407.492188 138.871094 407.59375 C 139.117188 407.695312 139.371094 407.773438 139.632812 407.824219 C 139.894531 407.875 140.160156 407.902344 140.425781 407.902344 L 251.601562 407.902344 C 251.871094 407.902344 252.132812 407.875 252.394531 407.824219 C 252.65625 407.773438 252.910156 407.695312 253.15625 407.59375 C 253.402344 407.492188 253.636719 407.367188 253.859375 407.21875 C 254.082031 407.070312 254.285156 406.902344 254.472656 406.714844 C 254.664062 406.523438 254.832031 406.320312 254.980469 406.097656 C 255.125 405.875 255.25 405.640625 255.355469 405.394531 C 255.457031 405.148438 255.53125 404.894531 255.585938 404.632812 C 255.636719 404.371094 255.664062 404.109375 255.664062 403.84375 Z M 255.664062 403.84375 " fill-opacity="1" fill-rule="nonzero"/></g><g clip-path="url(#d20f42e2c7)"><path fill="#f4f6ea" d="M 538.039062 285.359375 C 539.082031 285.359375 540.125 285.335938 541.167969 285.28125 C 542.207031 285.230469 543.246094 285.15625 544.285156 285.054688 C 545.324219 284.949219 546.359375 284.824219 547.390625 284.671875 C 548.421875 284.515625 549.449219 284.339844 550.46875 284.136719 C 551.492188 283.933594 552.507812 283.703125 553.519531 283.449219 C 554.53125 283.199219 555.539062 282.917969 556.535156 282.617188 C 557.53125 282.3125 558.523438 281.988281 559.503906 281.636719 C 560.484375 281.285156 561.457031 280.910156 562.421875 280.511719 C 563.386719 280.113281 564.339844 279.6875 565.28125 279.242188 C 566.222656 278.796875 567.152344 278.328125 568.074219 277.835938 C 568.992188 277.347656 569.898438 276.832031 570.792969 276.296875 C 571.6875 275.761719 572.570312 275.203125 573.4375 274.625 C 574.304688 274.042969 575.15625 273.445312 575.992188 272.824219 C 576.832031 272.203125 577.652344 271.558594 578.457031 270.898438 C 579.265625 270.238281 580.054688 269.558594 580.828125 268.855469 C 581.597656 268.15625 582.355469 267.4375 583.089844 266.699219 C 583.828125 265.964844 584.546875 265.207031 585.246094 264.4375 C 585.949219 263.664062 586.628906 262.875 587.289062 262.066406 C 587.953125 261.261719 588.59375 260.441406 589.214844 259.601562 C 589.835938 258.765625 590.433594 257.914062 591.015625 257.046875 C 591.59375 256.179688 592.152344 255.296875 592.6875 254.402344 C 593.222656 253.511719 593.738281 252.601562 594.230469 251.683594 C 594.71875 250.765625 595.1875 249.832031 595.636719 248.890625 C 596.082031 247.949219 596.503906 246.996094 596.902344 246.03125 C 597.300781 245.066406 597.675781 244.09375 598.027344 243.113281 C 598.378906 242.132812 598.707031 241.140625 599.007812 240.144531 C 599.3125 239.148438 599.589844 238.140625 599.84375 237.132812 C 600.097656 236.121094 600.324219 235.101562 600.527344 234.078125 C 600.730469 233.058594 600.910156 232.03125 601.0625 231 C 601.214844 229.96875 601.34375 228.933594 601.445312 227.894531 C 601.546875 226.859375 601.625 225.816406 601.675781 224.777344 C 601.726562 223.734375 601.75 222.695312 601.75 221.652344 C 601.75 220.609375 601.726562 219.566406 601.675781 218.523438 C 601.625 217.484375 601.546875 216.445312 601.445312 215.40625 C 601.34375 214.367188 601.214844 213.335938 601.0625 212.300781 C 600.910156 211.269531 600.730469 210.246094 600.527344 209.222656 C 600.324219 208.199219 600.097656 207.183594 599.84375 206.171875 C 599.589844 205.160156 599.3125 204.15625 599.007812 203.15625 C 598.707031 202.160156 598.378906 201.167969 598.027344 200.1875 C 597.675781 199.207031 597.300781 198.234375 596.902344 197.269531 C 596.503906 196.308594 596.082031 195.355469 595.636719 194.410156 C 595.191406 193.46875 594.722656 192.539062 594.230469 191.617188 C 593.738281 190.699219 593.222656 189.792969 592.6875 188.898438 C 592.152344 188.003906 591.59375 187.121094 591.015625 186.257812 C 590.4375 185.390625 589.835938 184.535156 589.214844 183.699219 C 588.59375 182.863281 587.953125 182.039062 587.289062 181.234375 C 586.628906 180.429688 585.949219 179.640625 585.25 178.867188 C 584.546875 178.09375 583.828125 177.339844 583.09375 176.601562 C 582.355469 175.863281 581.601562 175.144531 580.828125 174.445312 C 580.054688 173.746094 579.265625 173.066406 578.460938 172.402344 C 577.652344 171.742188 576.832031 171.101562 575.996094 170.480469 C 575.15625 169.859375 574.304688 169.257812 573.4375 168.679688 C 572.570312 168.097656 571.691406 167.542969 570.796875 167.003906 C 569.902344 166.46875 568.996094 165.957031 568.074219 165.464844 C 567.15625 164.972656 566.226562 164.503906 565.28125 164.058594 C 564.339844 163.613281 563.386719 163.191406 562.421875 162.792969 C 561.460938 162.390625 560.488281 162.015625 559.507812 161.664062 C 558.523438 161.316406 557.535156 160.988281 556.535156 160.683594 C 555.539062 160.382812 554.535156 160.105469 553.523438 159.851562 C 552.511719 159.597656 551.496094 159.371094 550.472656 159.164062 C 549.449219 158.960938 548.421875 158.785156 547.390625 158.632812 C 546.359375 158.476562 545.324219 158.351562 544.289062 158.25 C 543.25 158.144531 542.210938 158.070312 541.167969 158.019531 C 540.128906 157.96875 539.085938 157.941406 538.042969 157.941406 C 537 157.941406 535.957031 157.96875 534.917969 158.019531 C 533.875 158.070312 532.835938 158.144531 531.796875 158.25 C 530.761719 158.351562 529.726562 158.476562 528.695312 158.632812 C 527.664062 158.785156 526.636719 158.960938 525.613281 159.164062 C 524.589844 159.371094 523.574219 159.597656 522.5625 159.851562 C 521.550781 160.105469 520.546875 160.382812 519.546875 160.683594 C 518.550781 160.988281 517.5625 161.316406 516.578125 161.667969 C 515.597656 162.015625 514.625 162.394531 513.660156 162.792969 C 512.699219 163.191406 511.746094 163.613281 510.804688 164.058594 C 509.859375 164.503906 508.929688 164.972656 508.011719 165.464844 C 507.089844 165.957031 506.183594 166.46875 505.289062 167.007812 C 504.394531 167.542969 503.515625 168.101562 502.648438 168.679688 C 501.78125 169.257812 500.929688 169.859375 500.089844 170.480469 C 499.253906 171.101562 498.429688 171.742188 497.625 172.402344 C 496.820312 173.066406 496.03125 173.746094 495.257812 174.445312 C 494.484375 175.148438 493.730469 175.867188 492.992188 176.601562 C 492.253906 177.339844 491.535156 178.09375 490.835938 178.867188 C 490.136719 179.640625 489.457031 180.429688 488.792969 181.234375 C 488.132812 182.042969 487.492188 182.863281 486.871094 183.699219 C 486.25 184.539062 485.648438 185.390625 485.070312 186.257812 C 484.492188 187.125 483.933594 188.003906 483.398438 188.898438 C 482.859375 189.792969 482.347656 190.699219 481.855469 191.621094 C 481.363281 192.539062 480.894531 193.46875 480.449219 194.414062 C 480.003906 195.355469 479.582031 196.308594 479.183594 197.273438 C 478.785156 198.234375 478.410156 199.207031 478.058594 200.1875 C 477.707031 201.171875 477.378906 202.160156 477.078125 203.160156 C 476.773438 204.15625 476.496094 205.160156 476.242188 206.171875 C 475.988281 207.183594 475.761719 208.199219 475.558594 209.222656 C 475.355469 210.246094 475.175781 211.273438 475.023438 212.304688 C 474.871094 213.335938 474.742188 214.371094 474.640625 215.40625 C 474.539062 216.445312 474.460938 217.484375 474.410156 218.527344 C 474.359375 219.566406 474.332031 220.609375 474.332031 221.652344 C 474.335938 222.695312 474.363281 223.738281 474.414062 224.777344 C 474.464844 225.820312 474.542969 226.859375 474.648438 227.894531 C 474.75 228.933594 474.878906 229.964844 475.03125 230.996094 C 475.1875 232.027344 475.367188 233.054688 475.570312 234.078125 C 475.773438 235.097656 476.003906 236.113281 476.257812 237.125 C 476.511719 238.136719 476.789062 239.140625 477.09375 240.136719 C 477.394531 241.136719 477.722656 242.125 478.074219 243.105469 C 478.425781 244.085938 478.804688 245.058594 479.203125 246.019531 C 479.601562 246.984375 480.023438 247.9375 480.46875 248.878906 C 480.917969 249.820312 481.386719 250.75 481.878906 251.667969 C 482.367188 252.589844 482.882812 253.496094 483.417969 254.390625 C 483.957031 255.28125 484.511719 256.164062 485.09375 257.03125 C 485.671875 257.894531 486.273438 258.746094 486.894531 259.585938 C 487.515625 260.421875 488.15625 261.242188 488.816406 262.046875 C 489.476562 262.855469 490.160156 263.644531 490.859375 264.414062 C 491.558594 265.1875 492.277344 265.941406 493.015625 266.679688 C 493.75 267.417969 494.503906 268.136719 495.277344 268.835938 C 496.050781 269.535156 496.839844 270.214844 497.644531 270.875 C 498.449219 271.539062 499.273438 272.179688 500.109375 272.800781 C 500.945312 273.421875 501.796875 274.023438 502.664062 274.601562 C 503.53125 275.179688 504.410156 275.738281 505.304688 276.273438 C 506.199219 276.808594 507.105469 277.324219 508.023438 277.816406 C 508.941406 278.308594 509.875 278.777344 510.816406 279.222656 C 511.757812 279.667969 512.710938 280.089844 513.671875 280.492188 C 514.636719 280.890625 515.605469 281.265625 516.589844 281.617188 C 517.570312 281.96875 518.558594 282.296875 519.554688 282.601562 C 520.554688 282.902344 521.558594 283.183594 522.566406 283.4375 C 523.578125 283.691406 524.59375 283.917969 525.617188 284.125 C 526.640625 284.328125 527.664062 284.507812 528.695312 284.660156 C 529.726562 284.816406 530.761719 284.941406 531.796875 285.046875 C 532.835938 285.148438 533.875 285.226562 534.914062 285.28125 C 535.957031 285.332031 537 285.359375 538.039062 285.359375 Z M 538.039062 166.0625 C 539.863281 166.0625 541.675781 166.148438 543.488281 166.328125 C 545.300781 166.507812 547.101562 166.773438 548.886719 167.128906 C 550.671875 167.484375 552.433594 167.925781 554.179688 168.453125 C 555.921875 168.980469 557.632812 169.59375 559.3125 170.292969 C 560.996094 170.988281 562.640625 171.765625 564.246094 172.625 C 565.851562 173.480469 567.410156 174.417969 568.925781 175.429688 C 570.4375 176.441406 571.898438 177.523438 573.308594 178.679688 C 574.714844 179.832031 576.0625 181.054688 577.347656 182.339844 C 578.636719 183.628906 579.859375 184.976562 581.011719 186.382812 C 582.167969 187.789062 583.25 189.25 584.261719 190.765625 C 585.273438 192.277344 586.210938 193.839844 587.066406 195.445312 C 587.925781 197.050781 588.703125 198.695312 589.402344 200.375 C 590.097656 202.058594 590.710938 203.769531 591.238281 205.511719 C 591.765625 207.253906 592.207031 209.019531 592.5625 210.804688 C 592.917969 212.589844 593.1875 214.386719 593.363281 216.199219 C 593.542969 218.011719 593.632812 219.828125 593.632812 221.648438 C 593.632812 223.46875 593.542969 225.285156 593.367188 227.097656 C 593.1875 228.910156 592.921875 230.707031 592.566406 232.492188 C 592.210938 234.28125 591.769531 236.042969 591.238281 237.785156 C 590.710938 239.527344 590.097656 241.242188 589.402344 242.921875 C 588.707031 244.605469 587.929688 246.25 587.070312 247.855469 C 586.210938 249.460938 585.277344 251.019531 584.265625 252.535156 C 583.253906 254.046875 582.171875 255.507812 581.015625 256.914062 C 579.859375 258.324219 578.640625 259.671875 577.351562 260.957031 C 576.066406 262.246094 574.71875 263.464844 573.308594 264.621094 C 571.902344 265.777344 570.441406 266.859375 568.929688 267.871094 C 567.414062 268.882812 565.855469 269.816406 564.25 270.675781 C 562.644531 271.535156 561 272.3125 559.316406 273.007812 C 557.636719 273.707031 555.921875 274.316406 554.179688 274.847656 C 552.4375 275.375 550.675781 275.816406 548.890625 276.171875 C 547.105469 276.527344 545.304688 276.792969 543.492188 276.972656 C 541.679688 277.152344 539.867188 277.242188 538.042969 277.242188 C 536.222656 277.242188 534.40625 277.152344 532.597656 276.972656 C 530.785156 276.792969 528.984375 276.527344 527.199219 276.171875 C 525.414062 275.816406 523.648438 275.375 521.90625 274.847656 C 520.164062 274.320312 518.453125 273.707031 516.769531 273.011719 C 515.089844 272.3125 513.445312 271.535156 511.839844 270.675781 C 510.234375 269.820312 508.675781 268.882812 507.160156 267.875 C 505.644531 266.863281 504.1875 265.777344 502.777344 264.625 C 501.371094 263.46875 500.023438 262.246094 498.734375 260.960938 C 497.449219 259.671875 496.226562 258.324219 495.070312 256.917969 C 493.917969 255.511719 492.832031 254.050781 491.824219 252.535156 C 490.8125 251.023438 489.875 249.464844 489.019531 247.859375 C 488.160156 246.25 487.382812 244.609375 486.683594 242.925781 C 485.988281 241.242188 485.375 239.53125 484.847656 237.789062 C 484.316406 236.046875 483.875 234.285156 483.519531 232.496094 C 483.164062 230.710938 482.898438 228.914062 482.71875 227.101562 C 482.542969 225.289062 482.453125 223.472656 482.453125 221.652344 C 482.453125 219.832031 482.546875 218.015625 482.726562 216.207031 C 482.90625 214.394531 483.175781 212.597656 483.53125 210.8125 C 483.886719 209.027344 484.332031 207.265625 484.859375 205.523438 C 485.390625 203.78125 486.003906 202.070312 486.699219 200.390625 C 487.398438 198.707031 488.175781 197.066406 489.035156 195.460938 C 489.894531 193.855469 490.828125 192.296875 491.839844 190.78125 C 492.851562 189.269531 493.933594 187.808594 495.089844 186.402344 C 496.242188 184.996094 497.464844 183.648438 498.75 182.363281 C 500.039062 181.074219 501.386719 179.855469 502.792969 178.699219 C 504.199219 177.542969 505.660156 176.460938 507.171875 175.449219 C 508.683594 174.4375 510.242188 173.503906 511.847656 172.644531 C 513.453125 171.785156 515.097656 171.007812 516.777344 170.308594 C 518.457031 169.613281 520.167969 169 521.910156 168.46875 C 523.652344 167.941406 525.414062 167.496094 527.199219 167.140625 C 528.984375 166.78125 530.78125 166.515625 532.59375 166.335938 C 534.40625 166.152344 536.21875 166.0625 538.039062 166.0625 Z M 538.039062 166.0625 " fill-opacity="1" fill-rule="nonzero"/></g><path fill="#f4f6ea" d="M 525.222656 246.210938 C 525.613281 246.566406 526.050781 246.839844 526.546875 247.023438 C 527.039062 247.207031 527.550781 247.292969 528.074219 247.28125 C 528.601562 247.265625 529.105469 247.15625 529.589844 246.945312 C 530.074219 246.738281 530.5 246.445312 530.871094 246.070312 L 570.066406 206.167969 C 570.25 205.976562 570.417969 205.769531 570.5625 205.546875 C 570.710938 205.324219 570.832031 205.089844 570.933594 204.84375 C 571.035156 204.59375 571.109375 204.339844 571.15625 204.078125 C 571.207031 203.816406 571.230469 203.550781 571.230469 203.285156 C 571.226562 203.019531 571.199219 202.753906 571.144531 202.492188 C 571.089844 202.230469 571.011719 201.980469 570.90625 201.734375 C 570.800781 201.488281 570.675781 201.253906 570.523438 201.035156 C 570.375 200.8125 570.203125 200.609375 570.011719 200.421875 C 569.824219 200.238281 569.617188 200.070312 569.394531 199.925781 C 569.171875 199.777344 568.933594 199.65625 568.6875 199.554688 C 568.441406 199.453125 568.1875 199.378906 567.921875 199.332031 C 567.660156 199.28125 567.398438 199.257812 567.128906 199.257812 C 566.863281 199.261719 566.601562 199.289062 566.339844 199.34375 C 566.078125 199.398438 565.824219 199.476562 565.578125 199.582031 C 565.332031 199.6875 565.101562 199.8125 564.878906 199.964844 C 564.660156 200.113281 564.457031 200.285156 564.269531 200.476562 L 527.828125 237.574219 L 511.660156 222.699219 C 511.464844 222.519531 511.253906 222.359375 511.027344 222.222656 C 510.796875 222.085938 510.558594 221.96875 510.308594 221.878906 C 510.058594 221.789062 509.800781 221.722656 509.539062 221.683594 C 509.277344 221.640625 509.011719 221.628906 508.746094 221.640625 C 508.480469 221.652344 508.21875 221.6875 507.960938 221.75 C 507.699219 221.8125 507.449219 221.902344 507.210938 222.015625 C 506.96875 222.125 506.738281 222.261719 506.523438 222.417969 C 506.308594 222.574219 506.113281 222.75 505.933594 222.949219 C 505.753906 223.144531 505.59375 223.355469 505.453125 223.582031 C 505.316406 223.808594 505.203125 224.046875 505.109375 224.296875 C 505.019531 224.546875 504.953125 224.804688 504.910156 225.066406 C 504.871094 225.332031 504.855469 225.59375 504.867188 225.859375 C 504.875 226.128906 504.914062 226.390625 504.976562 226.648438 C 505.039062 226.90625 505.125 227.15625 505.238281 227.398438 C 505.347656 227.640625 505.484375 227.867188 505.640625 228.082031 C 505.796875 228.300781 505.972656 228.496094 506.167969 228.675781 Z M 525.222656 246.210938 " fill-opacity="1" fill-rule="nonzero"/><g clip-path="url(#e091db8b30)"><path fill="#f4f6ea" d="M 627.5625 397.445312 L 516.386719 397.445312 C 516.121094 397.441406 515.855469 397.46875 515.59375 397.519531 C 515.332031 397.570312 515.078125 397.644531 514.828125 397.746094 C 514.582031 397.847656 514.347656 397.972656 514.125 398.121094 C 513.902344 398.269531 513.695312 398.4375 513.507812 398.625 C 513.316406 398.816406 513.148438 399.019531 513 399.242188 C 512.851562 399.464844 512.726562 399.699219 512.621094 399.945312 C 512.519531 400.191406 512.441406 400.445312 512.390625 400.710938 C 512.339844 400.972656 512.3125 401.234375 512.3125 401.503906 C 512.3125 401.769531 512.339844 402.035156 512.390625 402.296875 C 512.441406 402.558594 512.519531 402.8125 512.621094 403.058594 C 512.726562 403.308594 512.851562 403.542969 513 403.761719 C 513.148438 403.984375 513.316406 404.191406 513.507812 404.378906 C 513.695312 404.566406 513.902344 404.734375 514.125 404.882812 C 514.347656 405.03125 514.582031 405.15625 514.828125 405.257812 C 515.078125 405.359375 515.332031 405.4375 515.59375 405.488281 C 515.855469 405.539062 516.121094 405.5625 516.386719 405.5625 L 623.503906 405.5625 L 623.503906 579.632812 L 293.449219 579.632812 C 293.363281 578.273438 293.230469 576.917969 293.058594 575.566406 C 292.882812 574.214844 292.667969 572.871094 292.40625 571.535156 C 292.148438 570.199219 291.84375 568.871094 291.5 567.550781 C 291.15625 566.234375 290.769531 564.929688 290.339844 563.636719 C 289.910156 562.34375 289.441406 561.066406 288.929688 559.800781 C 288.417969 558.539062 287.867188 557.292969 287.277344 556.066406 C 286.6875 554.839844 286.058594 553.632812 285.390625 552.445312 C 284.722656 551.257812 284.015625 550.09375 283.273438 548.953125 C 282.53125 547.808594 281.75 546.691406 280.9375 545.601562 C 280.121094 544.507812 279.273438 543.445312 278.390625 542.40625 C 277.507812 541.371094 276.59375 540.359375 275.644531 539.382812 C 274.699219 538.402344 273.722656 537.457031 272.714844 536.539062 C 271.703125 535.625 270.667969 534.742188 269.601562 533.890625 C 268.539062 533.042969 267.449219 532.226562 266.332031 531.449219 C 265.214844 530.667969 264.074219 529.925781 262.90625 529.21875 C 261.742188 528.511719 260.558594 527.84375 259.347656 527.214844 C 258.140625 526.582031 256.914062 525.992188 255.667969 525.441406 C 254.425781 524.886719 253.164062 524.378906 251.882812 523.90625 C 250.605469 523.4375 249.3125 523.007812 248.007812 522.617188 C 246.703125 522.230469 245.386719 521.886719 244.058594 521.582031 C 242.730469 521.277344 241.394531 521.019531 240.046875 520.800781 C 238.703125 520.582031 237.351562 520.40625 235.996094 520.277344 C 234.640625 520.144531 233.28125 520.058594 231.921875 520.015625 C 230.558594 519.96875 229.199219 519.96875 227.835938 520.015625 C 226.476562 520.058594 225.117188 520.144531 223.761719 520.273438 C 222.40625 520.40625 221.054688 520.578125 219.710938 520.796875 C 218.363281 521.011719 217.027344 521.273438 215.699219 521.578125 C 214.371094 521.878906 213.054688 522.226562 211.75 522.613281 C 210.441406 523 209.152344 523.429688 207.871094 523.898438 C 206.59375 524.367188 205.332031 524.878906 204.085938 525.429688 C 202.839844 525.980469 201.613281 526.574219 200.40625 527.203125 C 199.199219 527.832031 198.011719 528.5 196.847656 529.207031 C 195.679688 529.914062 194.539062 530.65625 193.421875 531.433594 C 192.304688 532.214844 191.214844 533.027344 190.148438 533.878906 C 189.085938 534.726562 188.046875 535.609375 187.039062 536.523438 C 186.03125 537.441406 185.050781 538.386719 184.105469 539.367188 C 183.15625 540.34375 182.242188 541.351562 181.359375 542.390625 C 180.476562 543.425781 179.625 544.492188 178.8125 545.582031 C 177.996094 546.675781 177.21875 547.789062 176.472656 548.933594 C 175.730469 550.074219 175.023438 551.238281 174.355469 552.425781 C 173.6875 553.613281 173.058594 554.820312 172.46875 556.046875 C 171.875 557.273438 171.324219 558.519531 170.8125 559.78125 C 170.300781 561.042969 169.832031 562.320312 169.402344 563.613281 C 168.972656 564.90625 168.585938 566.210938 168.242188 567.53125 C 167.894531 568.847656 167.59375 570.175781 167.332031 571.511719 C 167.070312 572.847656 166.855469 574.191406 166.679688 575.542969 C 166.503906 576.894531 166.375 578.25 166.289062 579.609375 C 166.199219 580.96875 166.15625 582.332031 166.15625 583.691406 C 166.15625 585.054688 166.199219 586.414062 166.289062 587.773438 C 166.375 589.132812 166.503906 590.488281 166.679688 591.839844 C 166.855469 593.191406 167.070312 594.535156 167.332031 595.871094 C 167.59375 597.210938 167.894531 598.539062 168.242188 599.855469 C 168.585938 601.171875 168.972656 602.476562 169.402344 603.769531 C 169.832031 605.0625 170.300781 606.339844 170.8125 607.605469 C 171.324219 608.867188 171.875 610.113281 172.46875 611.339844 C 173.058594 612.566406 173.6875 613.773438 174.355469 614.960938 C 175.023438 616.148438 175.730469 617.3125 176.472656 618.453125 C 177.21875 619.59375 177.996094 620.710938 178.8125 621.800781 C 179.625 622.894531 180.476562 623.957031 181.359375 624.996094 C 182.242188 626.03125 183.15625 627.039062 184.105469 628.019531 C 185.050781 628.996094 186.03125 629.945312 187.039062 630.859375 C 188.046875 631.777344 189.085938 632.660156 190.148438 633.507812 C 191.214844 634.355469 192.304688 635.171875 193.421875 635.949219 C 194.539062 636.730469 195.679688 637.472656 196.847656 638.179688 C 198.011719 638.882812 199.199219 639.550781 200.40625 640.183594 C 201.613281 640.8125 202.839844 641.402344 204.085938 641.953125 C 205.332031 642.503906 206.59375 643.015625 207.871094 643.488281 C 209.152344 643.957031 210.441406 644.386719 211.75 644.773438 C 213.054688 645.160156 214.371094 645.503906 215.699219 645.808594 C 217.027344 646.113281 218.363281 646.371094 219.710938 646.589844 C 221.054688 646.804688 222.40625 646.980469 223.761719 647.109375 C 225.117188 647.242188 226.476562 647.328125 227.835938 647.371094 C 229.199219 647.414062 230.558594 647.414062 231.921875 647.371094 C 233.28125 647.328125 234.640625 647.238281 235.996094 647.109375 C 237.351562 646.976562 238.703125 646.800781 240.046875 646.585938 C 241.394531 646.367188 242.730469 646.105469 244.058594 645.804688 C 245.386719 645.5 246.703125 645.152344 248.007812 644.765625 C 249.3125 644.378906 250.605469 643.949219 251.882812 643.476562 C 253.164062 643.007812 254.425781 642.496094 255.667969 641.945312 C 256.914062 641.394531 258.140625 640.800781 259.347656 640.171875 C 260.558594 639.542969 261.742188 638.871094 262.90625 638.167969 C 264.074219 637.460938 265.214844 636.71875 266.332031 635.9375 C 267.449219 635.15625 268.539062 634.34375 269.601562 633.492188 C 270.667969 632.644531 271.703125 631.761719 272.714844 630.84375 C 273.722656 629.929688 274.699219 628.980469 275.644531 628.003906 C 276.59375 627.023438 277.507812 626.015625 278.390625 624.976562 C 279.273438 623.941406 280.121094 622.875 280.9375 621.785156 C 281.75 620.691406 282.53125 619.574219 283.273438 618.433594 C 284.015625 617.292969 284.722656 616.128906 285.390625 614.941406 C 286.058594 613.753906 286.6875 612.546875 287.277344 611.316406 C 287.867188 610.089844 288.417969 608.84375 288.929688 607.582031 C 289.441406 606.320312 289.910156 605.042969 290.339844 603.75 C 290.769531 602.457031 291.15625 601.152344 291.5 599.832031 C 291.84375 598.515625 292.148438 597.1875 292.40625 595.851562 C 292.667969 594.511719 292.882812 593.167969 293.058594 591.816406 C 293.230469 590.464844 293.363281 589.113281 293.449219 587.753906 L 627.5625 587.753906 C 627.828125 587.753906 628.09375 587.726562 628.355469 587.675781 C 628.617188 587.621094 628.871094 587.546875 629.117188 587.445312 C 629.363281 587.339844 629.597656 587.214844 629.820312 587.070312 C 630.042969 586.921875 630.246094 586.753906 630.433594 586.5625 C 630.625 586.375 630.792969 586.171875 630.941406 585.949219 C 631.085938 585.726562 631.210938 585.492188 631.316406 585.246094 C 631.417969 585 631.492188 584.746094 631.546875 584.484375 C 631.597656 584.222656 631.625 583.960938 631.621094 583.691406 L 631.621094 401.503906 C 631.625 401.238281 631.597656 400.972656 631.546875 400.710938 C 631.492188 400.449219 631.417969 400.195312 631.316406 399.949219 C 631.210938 399.703125 631.085938 399.46875 630.941406 399.246094 C 630.792969 399.027344 630.625 398.820312 630.433594 398.632812 C 630.246094 398.441406 630.042969 398.273438 629.820312 398.128906 C 629.597656 397.980469 629.363281 397.855469 629.117188 397.75 C 628.871094 397.648438 628.617188 397.574219 628.355469 397.519531 C 628.09375 397.46875 627.832031 397.445312 627.5625 397.445312 Z M 229.949219 639.285156 C 228.128906 639.285156 226.3125 639.195312 224.5 639.015625 C 222.6875 638.839844 220.886719 638.570312 219.101562 638.21875 C 217.316406 637.863281 215.554688 637.421875 213.8125 636.890625 C 212.066406 636.363281 210.355469 635.75 208.675781 635.054688 C 206.992188 634.355469 205.347656 633.578125 203.742188 632.722656 C 202.136719 631.863281 200.578125 630.929688 199.0625 629.917969 C 197.550781 628.90625 196.089844 627.824219 194.679688 626.667969 C 193.273438 625.511719 191.925781 624.292969 190.640625 623.003906 C 189.351562 621.714844 188.128906 620.371094 186.976562 618.960938 C 185.820312 617.554688 184.738281 616.09375 183.726562 614.582031 C 182.714844 613.066406 181.777344 611.507812 180.921875 609.902344 C 180.0625 608.296875 179.285156 606.652344 178.589844 604.96875 C 177.890625 603.289062 177.277344 601.574219 176.75 599.832031 C 176.222656 598.089844 175.78125 596.328125 175.425781 594.542969 C 175.070312 592.757812 174.800781 590.957031 174.625 589.144531 C 174.445312 587.332031 174.355469 585.515625 174.355469 583.695312 C 174.355469 581.875 174.445312 580.058594 174.625 578.246094 C 174.800781 576.4375 175.066406 574.636719 175.421875 572.851562 C 175.777344 571.066406 176.21875 569.300781 176.75 567.558594 C 177.277344 565.816406 177.890625 564.105469 178.585938 562.421875 C 179.28125 560.742188 180.058594 559.097656 180.917969 557.492188 C 181.777344 555.886719 182.710938 554.324219 183.722656 552.8125 C 184.734375 551.296875 185.816406 549.835938 186.972656 548.429688 C 188.128906 547.023438 189.347656 545.675781 190.636719 544.386719 C 191.921875 543.101562 193.269531 541.878906 194.679688 540.722656 C 196.085938 539.570312 197.546875 538.484375 199.058594 537.472656 C 200.574219 536.460938 202.132812 535.527344 203.738281 534.667969 C 205.34375 533.8125 206.988281 533.035156 208.671875 532.335938 C 210.351562 531.640625 212.066406 531.027344 213.808594 530.5 C 215.550781 529.96875 217.3125 529.527344 219.097656 529.171875 C 220.882812 528.816406 222.683594 528.550781 224.496094 528.371094 C 226.308594 528.195312 228.121094 528.105469 229.945312 528.105469 C 231.765625 528.105469 233.582031 528.195312 235.390625 528.371094 C 237.203125 528.550781 239.003906 528.816406 240.789062 529.171875 C 242.574219 529.527344 244.339844 529.96875 246.082031 530.496094 C 247.824219 531.027344 249.535156 531.636719 251.21875 532.335938 C 252.898438 533.03125 254.542969 533.808594 256.148438 534.667969 C 257.753906 535.527344 259.3125 536.460938 260.828125 537.472656 C 262.34375 538.484375 263.800781 539.566406 265.210938 540.722656 C 266.617188 541.875 267.964844 543.097656 269.253906 544.386719 C 270.539062 545.671875 271.761719 547.019531 272.917969 548.425781 C 274.070312 549.835938 275.15625 551.292969 276.164062 552.808594 C 277.175781 554.324219 278.113281 555.882812 278.972656 557.488281 C 279.828125 559.09375 280.605469 560.738281 281.304688 562.417969 C 282 564.101562 282.613281 565.8125 283.140625 567.554688 C 283.671875 569.296875 284.113281 571.0625 284.46875 572.847656 C 284.824219 574.632812 285.089844 576.433594 285.269531 578.242188 C 285.445312 580.054688 285.535156 581.871094 285.535156 583.691406 C 285.535156 585.511719 285.441406 587.328125 285.261719 589.140625 C 285.082031 590.949219 284.8125 592.75 284.457031 594.535156 C 284.101562 596.316406 283.65625 598.082031 283.128906 599.824219 C 282.597656 601.5625 281.984375 603.273438 281.289062 604.957031 C 280.589844 606.636719 279.8125 608.28125 278.953125 609.886719 C 278.09375 611.488281 277.160156 613.046875 276.148438 614.5625 C 275.136719 616.074219 274.054688 617.535156 272.898438 618.941406 C 271.742188 620.347656 270.523438 621.695312 269.234375 622.980469 C 267.949219 624.269531 266.601562 625.492188 265.195312 626.644531 C 263.789062 627.800781 262.328125 628.882812 260.816406 629.894531 C 259.304688 630.90625 257.746094 631.84375 256.140625 632.699219 C 254.535156 633.558594 252.890625 634.335938 251.210938 635.035156 C 249.53125 635.734375 247.820312 636.347656 246.078125 636.875 C 244.335938 637.40625 242.574219 637.847656 240.789062 638.207031 C 239.003906 638.5625 237.207031 638.832031 235.394531 639.011719 C 233.582031 639.191406 231.769531 639.28125 229.949219 639.285156 Z M 229.949219 639.285156 " fill-opacity="1" fill-rule="nonzero"/></g></svg>