<svg xmlns="http://www.w3.org/2000/svg" xmlns:xlink="http://www.w3.org/1999/xlink" width="1024" zoomAndPan="magnify" viewBox="0 0 768 767.999994" height="1024" preserveAspectRatio="xMidYMid meet" version="1.0"><defs><clipPath id="5d9c08b34f"><path d="M 198 186 L 534 186 L 534 616.222656 L 198 616.222656 Z M 198 186 " clip-rule="nonzero"/></clipPath><clipPath id="f9f8294535"><path d="M 155.136719 151.972656 L 431 151.972656 L 431 582 L 155.136719 582 Z M 155.136719 151.972656 " clip-rule="nonzero"/></clipPath><clipPath id="0fe1052c46"><path d="M 568 455 L 657.636719 455 L 657.636719 546 L 568 546 Z M 568 455 " clip-rule="nonzero"/></clipPath></defs><g clip-path="url(#5d9c08b34f)"><path fill="#f4f6ea" d="M 528.253906 616.023438 L 203.65625 616.023438 C 201 616.023438 198.644531 613.960938 198.644531 611.304688 L 198.644531 191.183594 C 198.644531 188.53125 201 186.464844 203.65625 186.464844 L 451.011719 186.464844 C 453.664062 186.464844 455.726562 188.53125 455.726562 191.183594 C 455.726562 193.835938 453.664062 196.195312 451.011719 196.195312 L 208.667969 196.195312 L 208.667969 606.292969 L 523.242188 606.292969 L 523.242188 478.046875 C 523.242188 475.394531 525.601562 473.035156 528.253906 473.035156 C 530.90625 473.035156 533.265625 475.394531 533.265625 478.046875 L 533.265625 611.304688 C 533.265625 613.960938 530.90625 616.023438 528.253906 616.023438 Z M 528.253906 338.300781 C 525.601562 338.300781 523.242188 336.238281 523.242188 333.582031 L 523.242188 291.421875 C 523.242188 288.769531 525.601562 286.410156 528.253906 286.410156 C 530.90625 286.410156 533.265625 288.769531 533.265625 291.421875 L 533.265625 333.582031 C 533.265625 336.238281 530.90625 338.300781 528.253906 338.300781 Z M 528.253906 338.300781 " fill-opacity="1" fill-rule="evenodd"/></g><path fill="#f4f6ea" d="M 528.253906 296.433594 L 451.011719 296.433594 C 448.0625 296.433594 446 294.078125 446 291.421875 L 446 191.183594 C 446 189.121094 447.179688 187.351562 449.242188 186.464844 C 451.304688 185.875 453.371094 186.464844 454.84375 188.234375 L 531.792969 287.886719 C 532.675781 288.769531 533.265625 289.949219 533.265625 291.421875 C 533.265625 294.078125 531.203125 296.433594 528.253906 296.433594 Z M 455.726562 286.410156 L 518.230469 286.410156 L 455.726562 205.628906 Z M 455.726562 286.410156 " fill-opacity="1" fill-rule="evenodd"/><g clip-path="url(#f9f8294535)"><path fill="#f4f6ea" d="M 203.65625 581.824219 L 160.019531 581.824219 C 157.367188 581.824219 155.304688 579.761719 155.304688 576.8125 L 155.304688 156.984375 C 155.304688 154.332031 157.367188 151.972656 160.019531 151.972656 L 425.949219 151.972656 C 428.605469 151.972656 430.960938 154.332031 430.960938 156.984375 L 430.960938 191.183594 C 430.960938 193.835938 428.605469 196.195312 425.949219 196.195312 C 423.296875 196.195312 420.9375 193.835938 420.9375 191.183594 L 420.9375 161.996094 L 165.03125 161.996094 L 165.03125 572.09375 L 203.65625 572.09375 C 206.308594 572.09375 208.667969 574.160156 208.667969 576.8125 C 208.667969 579.761719 206.308594 581.824219 203.65625 581.824219 Z M 203.65625 581.824219 " fill-opacity="1" fill-rule="evenodd"/></g><path fill="#f4f6ea" d="M 300.0625 537.011719 L 265.863281 537.011719 C 263.207031 537.011719 260.851562 534.945312 260.851562 532.292969 L 260.851562 462.125 C 260.851562 459.472656 263.207031 457.113281 265.863281 457.113281 L 300.0625 457.113281 C 302.714844 457.113281 305.074219 459.472656 305.074219 462.125 L 305.074219 532.292969 C 305.074219 534.945312 302.714844 537.011719 300.0625 537.011719 Z M 270.578125 527.28125 L 295.050781 527.28125 L 295.050781 467.136719 L 270.578125 467.136719 Z M 270.578125 527.28125 " fill-opacity="1" fill-rule="evenodd"/><path fill="#f4f6ea" d="M 357.847656 537.011719 L 323.648438 537.011719 C 320.992188 537.011719 318.636719 534.945312 318.636719 532.292969 L 318.636719 448.269531 C 318.636719 445.617188 320.992188 443.257812 323.648438 443.257812 L 357.847656 443.257812 C 360.5 443.257812 362.859375 445.617188 362.859375 448.269531 L 362.859375 532.292969 C 362.859375 534.945312 360.5 537.011719 357.847656 537.011719 Z M 328.660156 527.28125 L 352.835938 527.28125 L 352.835938 453.28125 L 328.660156 453.28125 Z M 328.660156 527.28125 " fill-opacity="1" fill-rule="evenodd"/><path fill="#f4f6ea" d="M 415.632812 537.011719 L 381.433594 537.011719 C 378.777344 537.011719 376.714844 534.945312 376.714844 532.292969 L 376.714844 436.476562 C 376.714844 433.824219 378.777344 431.464844 381.433594 431.464844 L 415.632812 431.464844 C 418.582031 431.464844 420.644531 433.824219 420.644531 436.476562 L 420.644531 532.292969 C 420.644531 534.945312 418.582031 537.011719 415.632812 537.011719 Z M 386.445312 527.28125 L 410.914062 527.28125 L 410.914062 441.191406 L 386.445312 441.488281 Z M 386.445312 527.28125 " fill-opacity="1" fill-rule="evenodd"/><path fill="#f4f6ea" d="M 473.710938 537.304688 L 439.21875 537.304688 C 436.566406 537.304688 434.5 534.945312 434.5 532.292969 L 434.5 448.269531 C 434.5 445.617188 436.566406 443.257812 439.21875 443.257812 L 458.675781 443.257812 C 461.328125 443.257812 463.394531 445.617188 463.394531 448.269531 C 463.394531 450.921875 461.328125 452.984375 458.675781 452.984375 L 444.230469 452.984375 L 444.230469 527.28125 L 468.699219 527.28125 L 468.699219 463.601562 C 468.699219 460.945312 470.765625 458.882812 473.710938 458.882812 C 476.367188 458.882812 478.429688 460.945312 478.429688 463.601562 L 478.429688 532.292969 C 478.429688 534.945312 476.367188 537.304688 473.710938 537.304688 Z M 473.710938 537.304688 " fill-opacity="1" fill-rule="evenodd"/><path fill="#f4f6ea" d="M 261.144531 409.351562 C 259.375 409.351562 257.605469 408.171875 256.722656 406.402344 C 255.839844 403.75 257.015625 401.097656 259.375 399.917969 L 299.765625 383.40625 C 302.421875 382.230469 305.367188 383.703125 306.253906 386.0625 C 307.433594 388.421875 305.957031 391.367188 303.597656 392.546875 L 263.207031 409.058594 C 262.617188 409.351562 261.734375 409.351562 261.144531 409.351562 Z M 342.515625 408.761719 C 341.042969 408.761719 339.566406 408.171875 338.683594 406.992188 C 336.914062 404.929688 337.210938 401.980469 339.273438 400.214844 L 365.808594 378.101562 C 367.871094 376.332031 370.820312 376.628906 372.589844 378.691406 C 374.355469 380.753906 374.0625 383.703125 372 385.472656 L 345.464844 407.582031 C 344.578125 408.46875 343.402344 408.761719 342.515625 408.761719 Z M 327.480469 407.582031 C 326.300781 407.582031 324.828125 406.992188 323.941406 405.816406 L 314.507812 395.199219 C 312.738281 393.136719 313.035156 389.894531 315.097656 388.125 C 317.160156 386.355469 320.109375 386.652344 321.878906 388.714844 L 331.3125 399.328125 C 333.082031 401.390625 332.785156 404.636719 330.722656 406.402344 C 329.839844 407.289062 328.660156 407.582031 327.480469 407.582031 Z M 425.066406 403.75 C 423.003906 403.75 420.9375 402.277344 420.347656 400.214844 C 419.464844 397.855469 420.9375 394.90625 423.296875 394.023438 L 444.820312 386.652344 C 447.179688 385.765625 450.125 387.242188 451.011719 389.894531 C 451.894531 392.546875 450.421875 395.199219 448.0625 396.085938 L 426.539062 403.457031 C 425.949219 403.457031 425.65625 403.75 425.066406 403.75 Z M 406.492188 401.097656 C 405.609375 401.097656 404.429688 400.800781 403.542969 399.917969 L 382.613281 385.175781 C 380.253906 383.40625 379.957031 380.460938 381.433594 378.394531 C 382.90625 376.039062 386.148438 375.449219 388.214844 377.214844 L 409.441406 391.957031 C 411.503906 393.726562 412.09375 396.675781 410.621094 399.035156 C 409.441406 400.214844 407.964844 401.097656 406.492188 401.097656 Z M 406.492188 401.097656 " fill-opacity="1" fill-rule="evenodd"/><path fill="#f4f6ea" d="M 251.710938 423.796875 C 243.160156 423.796875 236.085938 417.019531 236.085938 408.46875 C 236.085938 399.917969 243.160156 393.136719 251.710938 393.136719 C 259.964844 393.136719 267.042969 399.917969 267.042969 408.46875 C 267.042969 417.019531 259.964844 423.796875 251.710938 423.796875 Z M 251.710938 402.867188 C 248.46875 402.867188 246.109375 405.519531 246.109375 408.46875 C 246.109375 411.417969 248.46875 414.070312 251.710938 414.070312 C 254.660156 414.070312 257.015625 411.417969 257.015625 408.46875 C 257.015625 405.519531 254.660156 402.867188 251.710938 402.867188 Z M 251.710938 402.867188 " fill-opacity="1" fill-rule="evenodd"/><path fill="#f4f6ea" d="M 311.558594 399.328125 C 303.011719 399.328125 295.933594 392.546875 295.933594 383.996094 C 295.933594 375.449219 303.011719 368.667969 311.558594 368.667969 C 319.816406 368.667969 326.890625 375.449219 326.890625 383.996094 C 326.890625 392.546875 319.816406 399.328125 311.558594 399.328125 Z M 311.558594 378.394531 C 308.316406 378.394531 305.957031 380.753906 305.957031 383.996094 C 305.957031 386.945312 308.316406 389.597656 311.558594 389.597656 C 314.507812 389.597656 316.867188 386.945312 316.867188 383.996094 C 316.867188 380.753906 314.507812 378.394531 311.558594 378.394531 Z M 311.558594 378.394531 " fill-opacity="1" fill-rule="evenodd"/><path fill="#f4f6ea" d="M 334.261719 425.863281 C 326.007812 425.863281 318.929688 419.082031 318.929688 410.53125 C 318.929688 401.980469 326.007812 395.199219 334.261719 395.199219 C 342.8125 395.199219 349.886719 401.980469 349.886719 410.53125 C 349.886719 419.082031 342.8125 425.863281 334.261719 425.863281 Z M 334.261719 404.929688 C 331.3125 404.929688 328.953125 407.582031 328.953125 410.53125 C 328.953125 413.773438 331.3125 416.132812 334.261719 416.132812 C 337.503906 416.132812 339.863281 413.773438 339.863281 410.53125 C 339.863281 407.582031 337.503906 404.929688 334.261719 404.929688 Z M 334.261719 404.929688 " fill-opacity="1" fill-rule="evenodd"/><path fill="#f4f6ea" d="M 376.714844 390.484375 C 368.460938 390.484375 361.382812 383.40625 361.382812 375.152344 C 361.382812 366.601562 368.460938 359.527344 376.714844 359.527344 C 385.265625 359.527344 392.339844 366.601562 392.339844 375.152344 C 392.339844 383.40625 385.265625 390.484375 376.714844 390.484375 Z M 376.714844 369.550781 C 373.765625 369.550781 371.410156 371.910156 371.410156 375.152344 C 371.410156 378.101562 373.765625 380.460938 376.714844 380.460938 C 379.957031 380.460938 382.316406 378.101562 382.316406 375.152344 C 382.316406 371.910156 379.957031 369.550781 376.714844 369.550781 Z M 376.714844 369.550781 " fill-opacity="1" fill-rule="evenodd"/><path fill="#f4f6ea" d="M 415.042969 417.609375 C 406.492188 417.609375 399.710938 410.53125 399.710938 401.980469 C 399.710938 393.726562 406.492188 386.652344 415.042969 386.652344 C 423.59375 386.652344 430.375 393.726562 430.375 401.980469 C 430.375 410.53125 423.59375 417.609375 415.042969 417.609375 Z M 415.042969 396.675781 C 412.09375 396.675781 409.441406 399.035156 409.441406 401.980469 C 409.441406 405.226562 412.09375 407.582031 415.042969 407.582031 C 417.992188 407.582031 420.644531 405.226562 420.644531 401.980469 C 420.644531 399.035156 417.992188 396.675781 415.042969 396.675781 Z M 415.042969 396.675781 " fill-opacity="1" fill-rule="evenodd"/><path fill="#f4f6ea" d="M 517.933594 483.648438 C 497.003906 483.648438 477.542969 475.394531 462.804688 460.945312 C 448.0625 446.207031 440.101562 426.453125 440.101562 405.816406 C 440.101562 384.882812 448.0625 365.425781 462.804688 350.683594 C 477.542969 335.941406 497.003906 327.980469 517.933594 327.980469 C 538.574219 327.980469 558.328125 335.941406 573.066406 350.683594 C 587.808594 365.425781 595.769531 384.882812 595.769531 405.816406 C 595.769531 426.453125 587.808594 446.207031 573.066406 460.945312 C 558.328125 475.394531 538.574219 483.648438 517.933594 483.648438 Z M 517.933594 337.710938 C 499.65625 337.710938 482.558594 344.785156 469.878906 357.464844 C 456.90625 370.4375 449.832031 387.535156 449.832031 405.816406 C 449.832031 423.796875 456.90625 440.898438 469.878906 453.871094 C 482.558594 466.84375 499.65625 473.917969 517.933594 473.917969 C 536.214844 473.917969 553.3125 466.84375 565.992188 453.871094 C 578.964844 440.898438 586.039062 423.796875 586.039062 405.816406 C 586.039062 387.535156 578.964844 370.4375 565.992188 357.464844 C 553.3125 344.785156 536.214844 337.710938 517.933594 337.710938 Z M 517.933594 337.710938 " fill-opacity="1" fill-rule="evenodd"/><path fill="#f4f6ea" d="M 568.644531 486.597656 C 560.683594 486.597656 553.019531 483.351562 547.417969 477.75 C 546.535156 476.867188 545.648438 475.980469 545.058594 474.804688 C 543.289062 472.738281 543.585938 469.496094 545.945312 468.023438 C 548.007812 466.253906 550.957031 466.546875 552.722656 468.90625 C 553.3125 469.496094 553.902344 470.085938 554.492188 470.675781 C 558.328125 474.507812 563.339844 476.570312 568.644531 476.570312 C 574.246094 476.570312 579.257812 474.507812 583.089844 470.675781 C 586.925781 466.84375 588.988281 461.832031 588.988281 456.523438 C 588.988281 451.21875 586.925781 446.207031 583.089844 442.371094 C 582.5 441.78125 581.617188 441.191406 581.027344 440.605469 C 578.964844 438.835938 578.375 435.886719 580.144531 433.527344 C 581.910156 431.464844 584.859375 431.167969 586.925781 432.644531 C 588.101562 433.527344 588.988281 434.414062 589.871094 435.296875 C 595.472656 440.898438 598.71875 448.5625 598.71875 456.523438 C 598.71875 464.484375 595.472656 472.148438 589.871094 477.75 C 584.269531 483.351562 576.605469 486.597656 568.644531 486.597656 Z M 568.644531 486.597656 " fill-opacity="1" fill-rule="evenodd"/><path fill="#f4f6ea" d="M 517.933594 468.316406 C 501.128906 468.316406 485.503906 461.832031 473.710938 450.039062 C 449.242188 425.566406 449.242188 385.765625 473.710938 361.296875 C 485.503906 349.503906 501.128906 343.015625 517.933594 343.015625 C 534.742188 343.015625 550.367188 349.503906 562.160156 361.296875 C 586.628906 385.765625 586.628906 425.566406 562.160156 450.039062 C 550.367188 461.832031 534.742188 468.316406 517.933594 468.316406 Z M 517.933594 352.746094 C 503.785156 352.746094 490.515625 358.347656 480.492188 368.371094 C 459.855469 389.007812 459.855469 422.621094 480.492188 443.257812 C 490.515625 452.984375 503.785156 458.585938 517.933594 458.585938 C 532.085938 458.585938 545.355469 452.984375 555.378906 443.257812 C 576.015625 422.621094 576.015625 389.007812 555.378906 368.371094 C 545.355469 358.347656 532.085938 352.746094 517.933594 352.746094 Z M 517.933594 352.746094 " fill-opacity="1" fill-rule="evenodd"/><g clip-path="url(#0fe1052c46)"><path fill="#f4f6ea" d="M 637.929688 545.265625 C 633.210938 545.265625 628.199219 543.203125 624.367188 539.664062 L 569.53125 484.828125 C 567.761719 482.761719 567.761719 479.816406 569.53125 477.75 C 571.59375 475.980469 574.542969 475.980469 576.605469 477.75 L 631.441406 532.589844 C 634.980469 536.421875 641.171875 536.421875 644.710938 532.589844 C 646.476562 530.820312 647.65625 528.460938 647.65625 525.808594 C 647.65625 523.449219 646.476562 520.796875 644.710938 519.027344 L 589.871094 464.1875 C 588.101562 462.421875 588.101562 459.175781 589.871094 457.410156 C 591.9375 455.34375 594.882812 455.34375 596.949219 457.410156 L 651.785156 512.246094 C 659.15625 519.617188 659.15625 532 651.785156 539.664062 C 647.953125 543.203125 642.941406 545.265625 637.929688 545.265625 Z M 637.929688 545.265625 " fill-opacity="1" fill-rule="evenodd"/></g></svg>