<svg xmlns="http://www.w3.org/2000/svg" xmlns:xlink="http://www.w3.org/1999/xlink" width="1024" zoomAndPan="magnify" viewBox="0 0 768 767.999994" height="1024" preserveAspectRatio="xMidYMid meet" version="1.0"><defs><clipPath id="1480e244b9"><path d="M 150.910156 545 L 607.660156 545 L 607.660156 607.660156 L 150.910156 607.660156 Z M 150.910156 545 " clip-rule="nonzero"/></clipPath><clipPath id="77fb513383"><path d="M 266 150.910156 L 493 150.910156 L 493 204 L 266 204 Z M 266 150.910156 " clip-rule="nonzero"/></clipPath></defs><path fill="#f4f6ea" d="M 444.835938 497.304688 C 436.269531 497.304688 429.3125 490.34375 429.3125 481.777344 C 429.3125 472.945312 436.269531 465.984375 444.835938 465.984375 C 453.402344 465.984375 460.363281 472.945312 460.363281 481.777344 C 460.363281 490.34375 453.402344 497.304688 444.835938 497.304688 Z M 444.835938 473.210938 C 440.019531 473.210938 436.269531 476.960938 436.269531 481.777344 C 436.269531 486.328125 440.019531 490.34375 444.835938 490.34375 C 449.386719 490.34375 453.402344 486.328125 453.402344 481.777344 C 453.402344 476.960938 449.386719 473.210938 444.835938 473.210938 Z M 444.835938 473.210938 " fill-opacity="1" fill-rule="evenodd"/><path fill="#f4f6ea" d="M 514.703125 485.257812 L 456.882812 485.257812 C 455.007812 485.257812 453.402344 483.652344 453.402344 481.777344 C 453.402344 479.636719 455.007812 478.03125 456.882812 478.03125 L 514.703125 478.03125 C 516.578125 478.03125 518.183594 479.636719 518.183594 481.777344 C 518.183594 483.652344 516.578125 485.257812 514.703125 485.257812 Z M 514.703125 485.257812 " fill-opacity="1" fill-rule="evenodd"/><path fill="#f4f6ea" d="M 543.347656 423.957031 C 536.65625 423.957031 531.300781 418.601562 531.300781 411.910156 C 531.300781 405.488281 536.65625 400.132812 543.347656 400.132812 C 549.773438 400.132812 555.125 405.488281 555.125 411.910156 C 555.125 418.601562 549.773438 423.957031 543.347656 423.957031 Z M 543.347656 407.09375 C 540.671875 407.09375 538.527344 409.234375 538.527344 411.910156 C 538.527344 414.589844 540.671875 416.730469 543.347656 416.730469 C 546.023438 416.730469 548.164062 414.589844 548.164062 411.910156 C 548.164062 409.234375 546.023438 407.09375 543.347656 407.09375 Z M 543.347656 407.09375 " fill-opacity="1" fill-rule="evenodd"/><path fill="#f4f6ea" d="M 444.835938 427.4375 C 436.269531 427.4375 429.3125 420.476562 429.3125 411.910156 C 429.3125 403.34375 436.269531 396.386719 444.835938 396.386719 C 453.402344 396.386719 460.363281 403.34375 460.363281 411.910156 C 460.363281 420.476562 453.402344 427.4375 444.835938 427.4375 Z M 444.835938 403.34375 C 440.019531 403.34375 436.269531 407.09375 436.269531 411.910156 C 436.269531 416.730469 440.019531 420.476562 444.835938 420.476562 C 449.386719 420.476562 453.402344 416.730469 453.402344 411.910156 C 453.402344 407.09375 449.386719 403.34375 444.835938 403.34375 Z M 444.835938 403.34375 " fill-opacity="1" fill-rule="evenodd"/><path fill="#f4f6ea" d="M 514.703125 415.390625 L 456.882812 415.390625 C 455.007812 415.390625 453.402344 413.785156 453.402344 411.910156 C 453.402344 410.039062 455.007812 408.429688 456.882812 408.429688 L 514.703125 408.429688 C 516.578125 408.429688 518.183594 410.039062 518.183594 411.910156 C 518.183594 413.785156 516.578125 415.390625 514.703125 415.390625 Z M 514.703125 415.390625 " fill-opacity="1" fill-rule="evenodd"/><path fill="#f4f6ea" d="M 485.257812 462.503906 C 476.691406 462.503906 469.730469 455.277344 469.730469 446.710938 C 469.730469 438.144531 476.691406 431.183594 485.257812 431.183594 C 493.824219 431.183594 500.785156 438.144531 500.785156 446.710938 C 500.785156 455.277344 493.824219 462.503906 485.257812 462.503906 Z M 485.257812 438.144531 C 480.707031 438.144531 476.691406 442.160156 476.691406 446.710938 C 476.691406 451.53125 480.707031 455.277344 485.257812 455.277344 C 490.078125 455.277344 493.824219 451.53125 493.824219 446.710938 C 493.824219 442.160156 490.078125 438.144531 485.257812 438.144531 Z M 485.257812 438.144531 " fill-opacity="1" fill-rule="evenodd"/><path fill="#f4f6ea" d="M 555.125 450.191406 L 497.304688 450.191406 C 495.429688 450.191406 493.824219 448.851562 493.824219 446.710938 C 493.824219 444.835938 495.429688 443.230469 497.304688 443.230469 L 555.125 443.230469 C 557 443.230469 558.605469 444.835938 558.605469 446.710938 C 558.605469 448.851562 557 450.191406 555.125 450.191406 Z M 555.125 450.191406 " fill-opacity="1" fill-rule="evenodd"/><path fill="#f4f6ea" d="M 485.257812 533.976562 C 476.691406 533.976562 469.730469 527.019531 469.730469 518.183594 C 469.730469 509.617188 476.691406 502.660156 485.257812 502.660156 C 493.824219 502.660156 500.785156 509.617188 500.785156 518.183594 C 500.785156 527.019531 493.824219 533.976562 485.257812 533.976562 Z M 485.257812 509.886719 C 480.707031 509.886719 476.691406 513.632812 476.691406 518.183594 C 476.691406 523.003906 480.707031 526.75 485.257812 526.75 C 490.078125 526.75 493.824219 523.003906 493.824219 518.183594 C 493.824219 513.632812 490.078125 509.886719 485.257812 509.886719 Z M 485.257812 509.886719 " fill-opacity="1" fill-rule="evenodd"/><path fill="#f4f6ea" d="M 555.125 521.933594 L 497.304688 521.933594 C 495.429688 521.933594 493.824219 520.324219 493.824219 518.183594 C 493.824219 516.3125 495.429688 514.703125 497.304688 514.703125 L 555.125 514.703125 C 557 514.703125 558.605469 516.3125 558.605469 518.183594 C 558.605469 520.324219 557 521.933594 555.125 521.933594 Z M 555.125 521.933594 " fill-opacity="1" fill-rule="evenodd"/><path fill="#f4f6ea" d="M 485.257812 390.761719 C 476.691406 390.761719 469.730469 383.804688 469.730469 375.238281 C 469.730469 366.671875 476.691406 359.710938 485.257812 359.710938 C 493.824219 359.710938 500.785156 366.671875 500.785156 375.238281 C 500.785156 383.804688 493.824219 390.761719 485.257812 390.761719 Z M 485.257812 366.671875 C 480.707031 366.671875 476.691406 370.6875 476.691406 375.238281 C 476.691406 380.054688 480.707031 383.804688 485.257812 383.804688 C 490.078125 383.804688 493.824219 380.054688 493.824219 375.238281 C 493.824219 370.6875 490.078125 366.671875 485.257812 366.671875 Z M 485.257812 366.671875 " fill-opacity="1" fill-rule="evenodd"/><path fill="#f4f6ea" d="M 555.125 378.71875 L 497.304688 378.71875 C 495.429688 378.71875 493.824219 377.109375 493.824219 375.238281 C 493.824219 373.363281 495.429688 371.757812 497.304688 371.757812 L 555.125 371.757812 C 557 371.757812 558.605469 373.363281 558.605469 375.238281 C 558.605469 377.109375 557 378.71875 555.125 378.71875 Z M 555.125 378.71875 " fill-opacity="1" fill-rule="evenodd"/><path fill="#f4f6ea" d="M 543.347656 493.558594 C 536.65625 493.558594 531.300781 488.203125 531.300781 481.777344 C 531.300781 475.085938 536.65625 469.730469 543.347656 469.730469 C 549.773438 469.730469 555.125 475.085938 555.125 481.777344 C 555.125 488.203125 549.773438 493.558594 543.347656 493.558594 Z M 543.347656 476.691406 C 540.671875 476.691406 538.527344 479.101562 538.527344 481.777344 C 538.527344 484.457031 540.671875 486.597656 543.347656 486.597656 C 546.023438 486.597656 548.164062 484.457031 548.164062 481.777344 C 548.164062 479.101562 546.023438 476.691406 543.347656 476.691406 Z M 543.347656 476.691406 " fill-opacity="1" fill-rule="evenodd"/><g clip-path="url(#1480e244b9)"><path fill="#f4f6ea" d="M 586.445312 607.859375 L 172.328125 607.859375 C 160.550781 607.859375 150.910156 598.222656 150.910156 586.445312 L 150.910156 567.171875 C 150.910156 555.394531 160.550781 545.757812 172.328125 545.757812 L 586.445312 545.757812 C 598.222656 545.757812 607.859375 555.394531 607.859375 567.171875 L 607.859375 586.445312 C 607.859375 598.222656 598.222656 607.859375 586.445312 607.859375 Z M 172.328125 552.984375 C 164.296875 552.984375 157.871094 559.410156 157.871094 567.171875 L 157.871094 586.445312 C 157.871094 594.207031 164.296875 600.632812 172.328125 600.632812 L 586.445312 600.632812 C 594.207031 600.632812 600.632812 594.207031 600.632812 586.445312 L 600.632812 567.171875 C 600.632812 559.410156 594.207031 552.984375 586.445312 552.984375 Z M 172.328125 552.984375 " fill-opacity="1" fill-rule="evenodd"/></g><path fill="#f4f6ea" d="M 581.894531 552.984375 L 176.609375 552.984375 C 174.738281 552.984375 173.128906 551.378906 173.128906 549.503906 L 173.128906 347.398438 C 173.128906 330.53125 186.78125 317.148438 203.378906 317.148438 L 206.324219 317.148438 C 208.199219 317.148438 209.804688 318.753906 209.804688 320.628906 L 209.804688 330.800781 C 209.804688 332.941406 211.410156 334.546875 213.285156 334.546875 L 242.195312 334.546875 C 244.335938 334.546875 245.941406 332.941406 245.941406 330.800781 L 245.941406 320.628906 C 245.941406 318.753906 247.546875 317.148438 249.421875 317.148438 L 318.753906 317.148438 C 320.628906 317.148438 322.234375 318.753906 322.234375 320.628906 C 322.234375 322.503906 320.628906 324.109375 318.753906 324.109375 L 252.902344 324.109375 L 252.902344 330.800781 C 252.902344 336.691406 248.082031 341.507812 242.195312 341.507812 L 213.285156 341.507812 C 207.394531 341.507812 202.578125 336.691406 202.578125 330.800781 L 202.578125 324.109375 C 190.261719 324.644531 180.359375 334.816406 180.359375 347.398438 L 180.359375 545.757812 L 578.414062 545.757812 L 578.414062 347.398438 C 578.414062 334.816406 568.511719 324.644531 555.929688 324.109375 L 555.929688 330.800781 C 555.929688 336.691406 551.109375 341.507812 545.222656 341.507812 L 516.578125 341.507812 C 510.6875 341.507812 505.871094 336.691406 505.871094 330.800781 L 505.871094 324.109375 L 440.019531 324.109375 C 438.144531 324.109375 436.539062 322.503906 436.539062 320.628906 C 436.539062 318.753906 438.144531 317.148438 440.019531 317.148438 L 509.351562 317.148438 C 511.222656 317.148438 512.832031 318.753906 512.832031 320.628906 L 512.832031 330.800781 C 512.832031 332.941406 514.4375 334.546875 516.578125 334.546875 L 545.222656 334.546875 C 547.363281 334.546875 548.96875 332.941406 548.96875 330.800781 L 548.96875 320.628906 C 548.96875 318.753906 550.574219 317.148438 552.449219 317.148438 L 555.125 317.148438 C 571.992188 317.148438 585.375 330.53125 585.375 347.398438 L 585.375 549.503906 C 585.375 551.378906 583.769531 552.984375 581.894531 552.984375 Z M 581.894531 552.984375 " fill-opacity="1" fill-rule="evenodd"/><path fill="#f4f6ea" d="M 440.019531 580.289062 L 318.753906 580.289062 C 316.613281 580.289062 315.273438 578.683594 315.273438 576.808594 C 315.273438 574.933594 316.613281 573.328125 318.753906 573.328125 L 440.019531 573.328125 C 441.890625 573.328125 443.5 574.933594 443.5 576.808594 C 443.5 578.683594 441.890625 580.289062 440.019531 580.289062 Z M 440.019531 580.289062 " fill-opacity="1" fill-rule="evenodd"/><g clip-path="url(#77fb513383)"><path fill="#f4f6ea" d="M 481.242188 203.914062 L 277.53125 203.914062 C 271.375 203.914062 266.285156 198.828125 266.285156 192.671875 L 266.285156 162.15625 C 266.285156 156 271.375 150.910156 277.53125 150.910156 L 481.242188 150.910156 C 487.398438 150.910156 492.484375 156 492.484375 162.15625 L 492.484375 192.671875 C 492.484375 198.828125 487.398438 203.914062 481.242188 203.914062 Z M 277.53125 157.871094 C 275.121094 157.871094 273.246094 159.746094 273.246094 162.15625 L 273.246094 192.671875 C 273.246094 195.082031 275.121094 196.953125 277.53125 196.953125 L 481.242188 196.953125 C 483.652344 196.953125 485.527344 195.082031 485.527344 192.671875 L 485.527344 162.15625 C 485.527344 159.746094 483.652344 157.871094 481.242188 157.871094 Z M 277.53125 157.871094 " fill-opacity="1" fill-rule="evenodd"/></g><path fill="#f4f6ea" d="M 242.195312 341.507812 L 213.285156 341.507812 C 207.394531 341.507812 202.578125 336.691406 202.578125 330.800781 L 202.578125 302.15625 C 202.578125 296.269531 207.394531 291.449219 213.285156 291.449219 L 242.195312 291.449219 C 248.082031 291.449219 252.902344 296.269531 252.902344 302.15625 L 252.902344 330.800781 C 252.902344 336.691406 248.082031 341.507812 242.195312 341.507812 Z M 213.285156 298.410156 C 211.410156 298.410156 209.804688 300.015625 209.804688 302.15625 L 209.804688 330.800781 C 209.804688 332.941406 211.410156 334.546875 213.285156 334.546875 L 242.195312 334.546875 C 244.335938 334.546875 245.941406 332.941406 245.941406 330.800781 L 245.941406 302.15625 C 245.941406 300.015625 244.335938 298.410156 242.195312 298.410156 Z M 213.285156 298.410156 " fill-opacity="1" fill-rule="evenodd"/><path fill="#f4f6ea" d="M 545.222656 341.507812 L 516.578125 341.507812 C 510.6875 341.507812 505.871094 336.691406 505.871094 330.800781 L 505.871094 302.15625 C 505.871094 296.269531 510.6875 291.449219 516.578125 291.449219 L 545.222656 291.449219 C 551.109375 291.449219 555.929688 296.269531 555.929688 302.15625 L 555.929688 330.800781 C 555.929688 336.691406 551.109375 341.507812 545.222656 341.507812 Z M 516.578125 298.410156 C 514.4375 298.410156 512.832031 300.015625 512.832031 302.15625 L 512.832031 330.800781 C 512.832031 332.941406 514.4375 334.546875 516.578125 334.546875 L 545.222656 334.546875 C 547.363281 334.546875 548.96875 332.941406 548.96875 330.800781 L 548.96875 302.15625 C 548.96875 300.015625 547.363281 298.410156 545.222656 298.410156 Z M 516.578125 298.410156 " fill-opacity="1" fill-rule="evenodd"/><path fill="#f4f6ea" d="M 530.765625 298.410156 C 528.890625 298.410156 527.285156 296.804688 527.285156 294.929688 L 527.285156 256.648438 C 527.285156 252.367188 523.804688 248.886719 519.523438 248.886719 L 488.203125 248.886719 C 486.0625 248.886719 484.722656 247.28125 484.722656 245.40625 C 484.722656 243.265625 486.0625 241.925781 488.203125 241.925781 L 519.523438 241.925781 C 527.820312 241.925781 534.515625 248.351562 534.515625 256.648438 L 534.515625 294.929688 C 534.515625 296.804688 532.90625 298.410156 530.765625 298.410156 Z M 227.738281 298.410156 C 225.867188 298.410156 224.257812 296.804688 224.257812 294.929688 L 224.257812 256.648438 C 224.257812 248.351562 230.953125 241.925781 238.984375 241.925781 L 270.570312 241.925781 C 272.445312 241.925781 274.050781 243.265625 274.050781 245.40625 C 274.050781 247.28125 272.445312 248.886719 270.570312 248.886719 L 238.984375 248.886719 C 234.699219 248.886719 231.21875 252.367188 231.21875 256.648438 L 231.21875 294.929688 C 231.21875 296.804688 229.613281 298.410156 227.738281 298.410156 Z M 444.835938 248.886719 L 313.667969 248.886719 C 311.792969 248.886719 310.1875 247.28125 310.1875 245.40625 C 310.1875 243.265625 311.792969 241.925781 313.667969 241.925781 L 444.835938 241.925781 C 446.980469 241.925781 448.585938 243.265625 448.585938 245.40625 C 448.585938 247.28125 446.980469 248.886719 444.835938 248.886719 Z M 444.835938 248.886719 " fill-opacity="1" fill-rule="evenodd"/><path fill="#f4f6ea" d="M 480.976562 270.300781 L 452.066406 270.300781 C 446.175781 270.300781 441.355469 265.484375 441.355469 259.59375 L 441.355469 230.953125 C 441.355469 225.0625 446.175781 220.242188 452.066406 220.242188 L 480.976562 220.242188 C 486.863281 220.242188 491.683594 225.0625 491.683594 230.953125 L 491.683594 259.59375 C 491.683594 265.484375 486.863281 270.300781 480.976562 270.300781 Z M 452.066406 227.203125 C 450.191406 227.203125 448.585938 228.808594 448.585938 230.953125 L 448.585938 259.59375 C 448.585938 261.734375 450.191406 263.34375 452.066406 263.34375 L 480.976562 263.34375 C 482.847656 263.34375 484.722656 261.734375 484.722656 259.59375 L 484.722656 230.953125 C 484.722656 228.808594 482.847656 227.203125 480.976562 227.203125 Z M 452.066406 227.203125 " fill-opacity="1" fill-rule="evenodd"/><path fill="#f4f6ea" d="M 306.441406 270.300781 L 277.796875 270.300781 C 271.910156 270.300781 267.089844 265.484375 267.089844 259.59375 L 267.089844 230.953125 C 267.089844 225.0625 271.910156 220.242188 277.796875 220.242188 L 306.441406 220.242188 C 312.328125 220.242188 317.148438 225.0625 317.148438 230.953125 L 317.148438 259.59375 C 317.148438 265.484375 312.328125 270.300781 306.441406 270.300781 Z M 277.796875 227.203125 C 275.65625 227.203125 274.050781 228.808594 274.050781 230.953125 L 274.050781 259.59375 C 274.050781 261.734375 275.65625 263.34375 277.796875 263.34375 L 306.441406 263.34375 C 308.582031 263.34375 310.1875 261.734375 310.1875 259.59375 L 310.1875 230.953125 C 310.1875 228.808594 308.582031 227.203125 306.441406 227.203125 Z M 277.796875 227.203125 " fill-opacity="1" fill-rule="evenodd"/><path fill="#f4f6ea" d="M 379.253906 248.886719 C 377.378906 248.886719 375.773438 247.28125 375.773438 245.40625 L 375.773438 200.433594 C 375.773438 198.292969 377.378906 196.953125 379.253906 196.953125 C 381.394531 196.953125 382.734375 198.292969 382.734375 200.433594 L 382.734375 245.40625 C 382.734375 247.28125 381.394531 248.886719 379.253906 248.886719 Z M 379.253906 248.886719 " fill-opacity="1" fill-rule="evenodd"/><path fill="#f4f6ea" d="M 379.253906 361.050781 C 365.867188 361.050781 354.894531 350.074219 354.894531 336.691406 C 354.894531 323.304688 365.867188 312.328125 379.253906 312.328125 C 392.90625 312.328125 403.878906 323.304688 403.878906 336.691406 C 403.878906 350.074219 392.90625 361.050781 379.253906 361.050781 Z M 379.253906 319.558594 C 369.617188 319.558594 361.851562 327.320312 361.851562 336.691406 C 361.851562 346.328125 369.617188 354.089844 379.253906 354.089844 C 388.890625 354.089844 396.921875 346.328125 396.921875 336.691406 C 396.921875 327.320312 388.890625 319.558594 379.253906 319.558594 Z M 379.253906 319.558594 " fill-opacity="1" fill-rule="evenodd"/><path fill="#f4f6ea" d="M 389.15625 403.078125 L 369.617188 403.078125 C 361.851562 403.078125 355.429688 396.652344 355.429688 388.890625 C 355.429688 383.535156 354.625 380.859375 352.484375 380.859375 C 351.414062 380.859375 349.539062 381.125 345.792969 383.269531 C 343.648438 384.605469 341.242188 385.140625 338.832031 385.140625 C 333.746094 385.140625 329.195312 382.464844 326.515625 378.183594 L 316.878906 361.585938 C 313.132812 354.894531 315.273438 346.328125 321.964844 342.3125 C 326.515625 339.902344 328.125 337.761719 328.125 336.691406 C 328.125 335.617188 326.515625 333.746094 321.964844 331.066406 C 318.753906 329.195312 316.613281 326.25 315.542969 322.503906 C 314.472656 319.023438 315.007812 315.273438 316.878906 312.0625 L 326.515625 295.199219 C 329.195312 290.914062 333.746094 288.238281 338.832031 288.238281 C 341.242188 288.238281 343.648438 289.039062 345.792969 290.113281 C 349.539062 292.253906 351.414062 292.789062 352.484375 292.789062 C 354.625 292.789062 355.429688 289.84375 355.429688 284.488281 C 355.429688 276.726562 361.851562 270.570312 369.617188 270.570312 L 389.15625 270.570312 C 396.921875 270.570312 403.34375 276.726562 403.34375 284.488281 C 403.34375 288.773438 403.878906 290.648438 404.414062 291.71875 C 404.683594 292.519531 405.21875 292.789062 406.023438 292.789062 C 407.09375 292.789062 409.234375 292.253906 412.980469 290.113281 C 415.125 289.039062 417.53125 288.238281 419.941406 288.238281 C 425.027344 288.238281 429.578125 290.914062 432.253906 295.199219 L 441.625 312.0625 C 443.5 315.273438 444.035156 319.023438 443.230469 322.503906 C 442.160156 326.25 439.75 329.195312 436.539062 331.066406 C 432.253906 333.746094 430.648438 335.617188 430.648438 336.691406 C 430.648438 337.761719 432.253906 339.902344 436.539062 342.3125 C 439.75 344.183594 442.160156 347.128906 443.230469 350.878906 C 444.035156 354.625 443.5 358.371094 441.625 361.585938 L 432.253906 378.183594 C 429.578125 382.464844 425.027344 385.140625 419.941406 385.140625 C 417.53125 385.140625 415.125 384.605469 412.980469 383.269531 C 409.234375 381.125 407.09375 380.859375 406.023438 380.859375 C 404.148438 380.859375 403.34375 383.535156 403.34375 388.890625 C 403.34375 396.652344 396.921875 403.078125 389.15625 403.078125 Z M 352.484375 373.898438 C 357.035156 373.898438 362.386719 376.308594 362.386719 388.890625 C 362.386719 392.90625 365.601562 396.117188 369.617188 396.117188 L 389.15625 396.117188 C 393.171875 396.117188 396.117188 392.90625 396.117188 388.890625 C 396.117188 376.308594 401.472656 373.898438 406.023438 373.898438 C 408.964844 373.898438 412.445312 374.96875 416.460938 377.378906 C 419.675781 379.253906 424.226562 377.914062 426.097656 374.703125 L 435.734375 358.105469 C 436.539062 356.5 436.804688 354.625 436.269531 352.75 C 436.003906 350.878906 434.664062 349.269531 433.058594 348.46875 C 426.632812 344.71875 423.691406 340.972656 423.691406 336.691406 C 423.691406 332.675781 426.632812 328.660156 433.058594 325.179688 C 434.664062 324.109375 436.003906 322.503906 436.269531 320.894531 C 436.804688 319.023438 436.539062 317.148438 435.734375 315.542969 L 426.097656 298.675781 C 424.226562 295.464844 419.675781 294.394531 416.460938 296.269531 C 412.445312 298.675781 408.964844 299.75 406.023438 299.75 C 402.542969 299.75 399.863281 298.140625 398.257812 294.929688 C 396.921875 292.519531 396.117188 289.039062 396.117188 284.488281 C 396.117188 280.742188 393.171875 277.53125 389.15625 277.53125 L 369.617188 277.53125 C 365.601562 277.53125 362.386719 280.742188 362.386719 284.488281 C 362.386719 297.070312 357.035156 299.75 352.484375 299.75 C 349.808594 299.75 346.328125 298.675781 342.3125 296.269531 C 339.097656 294.394531 334.546875 295.464844 332.675781 298.675781 L 323.039062 315.542969 C 321.964844 317.148438 321.964844 319.023438 322.234375 320.894531 C 322.769531 322.769531 324.109375 324.109375 325.714844 325.179688 C 331.871094 328.660156 335.082031 332.675781 335.082031 336.691406 C 335.082031 340.972656 331.871094 344.71875 325.714844 348.46875 C 322.234375 350.34375 321.164062 354.625 323.039062 358.105469 L 332.675781 374.703125 C 334.546875 377.914062 339.097656 379.253906 342.3125 377.378906 C 346.328125 374.96875 349.808594 373.898438 352.484375 373.898438 Z M 352.484375 373.898438 " fill-opacity="1" fill-rule="evenodd"/><path fill="#f4f6ea" d="M 273.246094 445.371094 C 237.644531 445.371094 201.503906 437.074219 201.503906 421.011719 C 201.503906 405.21875 237.644531 396.921875 273.246094 396.921875 C 308.851562 396.921875 344.988281 405.21875 344.988281 421.011719 C 344.988281 437.074219 308.851562 445.371094 273.246094 445.371094 Z M 273.246094 403.878906 C 233.09375 403.878906 208.464844 413.785156 208.464844 421.011719 C 208.464844 428.238281 233.09375 438.144531 273.246094 438.144531 C 313.132812 438.144531 337.761719 428.238281 337.761719 421.011719 C 337.761719 413.785156 313.132812 403.878906 273.246094 403.878906 Z M 273.246094 403.878906 " fill-opacity="1" fill-rule="evenodd"/><path fill="#f4f6ea" d="M 273.246094 475.355469 C 237.644531 475.355469 201.503906 467.054688 201.503906 450.992188 L 201.503906 421.011719 C 201.503906 419.140625 203.113281 417.53125 204.984375 417.53125 C 206.859375 417.53125 208.464844 419.140625 208.464844 421.011719 L 208.464844 450.992188 C 208.464844 458.222656 233.09375 468.394531 273.246094 468.394531 C 313.132812 468.394531 337.761719 458.222656 337.761719 450.992188 L 337.761719 421.011719 C 337.761719 419.140625 339.367188 417.53125 341.507812 417.53125 C 343.382812 417.53125 344.988281 419.140625 344.988281 421.011719 L 344.988281 450.992188 C 344.988281 467.054688 308.851562 475.355469 273.246094 475.355469 Z M 273.246094 475.355469 " fill-opacity="1" fill-rule="evenodd"/><path fill="#f4f6ea" d="M 273.246094 504.53125 C 237.644531 504.53125 201.503906 496.234375 201.503906 480.441406 L 201.503906 450.457031 C 201.503906 448.316406 203.113281 446.980469 204.984375 446.980469 C 206.859375 446.980469 208.464844 448.316406 208.464844 450.457031 L 208.464844 480.441406 C 208.464844 487.667969 233.09375 497.574219 273.246094 497.574219 C 313.132812 497.574219 337.761719 487.667969 337.761719 480.441406 L 337.761719 450.457031 C 337.761719 448.316406 339.367188 446.980469 341.507812 446.980469 C 343.382812 446.980469 344.988281 448.316406 344.988281 450.457031 L 344.988281 480.441406 C 344.988281 496.234375 308.851562 504.53125 273.246094 504.53125 Z M 273.246094 504.53125 " fill-opacity="1" fill-rule="evenodd"/><path fill="#f4f6ea" d="M 273.246094 533.976562 C 237.644531 533.976562 201.503906 525.679688 201.503906 509.617188 L 201.503906 479.636719 C 201.503906 477.761719 203.113281 476.15625 204.984375 476.15625 C 206.859375 476.15625 208.464844 477.761719 208.464844 479.636719 L 208.464844 509.617188 C 208.464844 516.847656 233.09375 526.75 273.246094 526.75 C 313.132812 526.75 337.761719 516.847656 337.761719 509.617188 L 337.761719 479.636719 C 337.761719 477.761719 339.367188 476.15625 341.507812 476.15625 C 343.382812 476.15625 344.988281 477.761719 344.988281 479.636719 L 344.988281 509.617188 C 344.988281 525.679688 308.851562 533.976562 273.246094 533.976562 Z M 273.246094 533.976562 " fill-opacity="1" fill-rule="evenodd"/></svg>