<svg xmlns="http://www.w3.org/2000/svg" xmlns:xlink="http://www.w3.org/1999/xlink" width="1024" zoomAndPan="magnify" viewBox="0 0 768 767.999994" height="1024" preserveAspectRatio="xMidYMid meet" version="1.0"><defs><clipPath id="6e2b47fd73"><path d="M 423 143.617188 L 561 143.617188 L 561 311 L 423 311 Z M 423 143.617188 " clip-rule="nonzero"/></clipPath><clipPath id="4895d7402d"><path d="M 145.921875 329 L 179 329 L 179 333 L 145.921875 333 Z M 145.921875 329 " clip-rule="nonzero"/></clipPath><clipPath id="557b5cff13"><path d="M 145.921875 336 L 162 336 L 162 340 L 145.921875 340 Z M 145.921875 336 " clip-rule="nonzero"/></clipPath><clipPath id="94e73ed5d6"><path d="M 601 382 L 624.421875 382 L 624.421875 407 L 601 407 Z M 601 382 " clip-rule="nonzero"/></clipPath><clipPath id="b4106b983b"><path d="M 148 440 L 328 440 L 328 619.867188 L 148 619.867188 Z M 148 440 " clip-rule="nonzero"/></clipPath></defs><g clip-path="url(#6e2b47fd73)"><path fill="#f4f6ea" d="M 455.855469 145.75 C 448.382812 149.851562 445.125 160.097656 449.105469 167.691406 C 451.273438 171.910156 456.457031 176.128906 459.472656 176.128906 C 461.640625 176.128906 461.761719 177.9375 461.761719 218.925781 C 461.761719 242.433594 461.402344 261.722656 461.039062 261.722656 C 460.675781 261.722656 458.023438 260.152344 455.253906 258.226562 C 449.707031 254.367188 430.417969 244.480469 425.957031 243.15625 C 423.789062 242.433594 423.1875 242.792969 423.1875 244.480469 C 423.304688 246.050781 426.320312 247.976562 433.792969 251.472656 C 459.472656 263.289062 480.808594 281.851562 494.550781 304.15625 C 497.808594 309.457031 501.542969 311.871094 501.542969 308.613281 C 501.542969 306.808594 489.609375 289.207031 483.945312 282.457031 L 479.484375 277.390625 L 532.765625 277.390625 L 534.695312 281.007812 C 536.863281 285.226562 543.011719 289.449219 547.113281 289.449219 C 553.742188 289.449219 560.613281 282.695312 560.613281 276.1875 C 560.613281 265.097656 545.425781 258.585938 537.589844 266.421875 C 535.660156 268.351562 534.09375 270.882812 534.09375 271.847656 C 534.09375 273.535156 530.71875 273.777344 505.039062 273.777344 L 475.867188 273.777344 L 470.683594 269.4375 L 465.378906 265.21875 L 465.378906 176.734375 L 470.199219 174.683594 C 483.339844 169.257812 482.859375 150.933594 469.355469 145.269531 C 464.171875 142.980469 460.675781 143.097656 455.855469 145.75 Z M 470.804688 150.332031 C 472.492188 151.417969 474.421875 154.308594 475.144531 156.84375 C 476.347656 160.820312 476.226562 162.027344 474.179688 165.523438 C 467.546875 176.972656 452.117188 173.117188 452.117188 159.855469 C 452.117188 150.210938 462.605469 144.90625 470.804688 150.332031 Z M 553.742188 270.402344 C 561.097656 279.082031 548.800781 289.808594 540.722656 281.613281 C 537.347656 278.355469 537.105469 276.546875 539.035156 272.089844 C 541.6875 266.300781 549.402344 265.335938 553.742188 270.402344 Z M 553.742188 270.402344 " fill-opacity="1" fill-rule="nonzero"/></g><path fill="#f4f6ea" d="M 460.074219 156.359375 C 456.457031 159.976562 458.507812 165.28125 463.570312 165.28125 C 469.117188 165.28125 470.804688 159.492188 466.34375 156.359375 C 462.96875 153.949219 462.363281 153.949219 460.074219 156.359375 Z M 460.074219 156.359375 " fill-opacity="1" fill-rule="nonzero"/><path fill="#f4f6ea" d="M 393.167969 155.035156 C 384.128906 162.75 386.660156 178.179688 397.628906 181.554688 L 400.28125 182.277344 L 400.28125 271.726562 L 395.820312 271.003906 C 372.796875 267.386719 351.699219 270.039062 330.722656 279.320312 C 309.507812 288.722656 289.011719 308.613281 277.921875 330.433594 C 274.066406 338.148438 270.085938 349.121094 270.085938 352.375 C 270.085938 357.078125 273.34375 354.183594 275.390625 347.554688 C 282.019531 326.578125 298.535156 304.394531 316.378906 292.582031 C 325.660156 286.433594 341.210938 279.320312 351.457031 276.667969 C 360.378906 274.257812 390.15625 273.414062 397.027344 275.34375 L 400.28125 276.1875 L 400.28125 304.757812 L 394.011719 303.191406 C 385.695312 301.019531 380.992188 301.019531 380.992188 303.3125 C 380.992188 304.394531 382.679688 305.238281 385.574219 305.722656 C 414.746094 310.664062 436.6875 328.746094 447.054688 356.714844 C 449.34375 362.742188 450.1875 367.925781 450.671875 377.691406 L 451.273438 390.710938 L 476.953125 390.710938 C 499.132812 390.710938 502.75 390.46875 502.75 388.902344 C 502.75 387.335938 499.375 387.09375 479.363281 387.09375 L 456.097656 387.09375 L 455.375 378.292969 C 453.445312 351.773438 440.425781 328.507812 420.171875 314.882812 C 415.109375 311.507812 409.5625 308.375 407.996094 308.011719 C 405.101562 307.289062 405.101562 307.167969 405.101562 292.339844 L 405.101562 277.511719 L 411.492188 279.683594 C 445.246094 291.375 473.9375 324.527344 480.328125 359.367188 C 481.292969 364.671875 482.375 367.203125 483.582031 367.203125 C 487.558594 367.203125 482.738281 346.949219 475.023438 331.398438 C 465.980469 313.074219 451.636719 297.285156 434.277344 286.070312 C 426.441406 281.007812 410.289062 273.777344 407.03125 273.777344 C 405.34375 273.777344 405.101562 268.832031 405.101562 228.207031 L 405.101562 182.761719 L 409.082031 180.953125 C 419.207031 176.25 421.257812 163.472656 413.058594 156 C 409.441406 152.621094 407.875 152.019531 402.8125 152.019531 C 398.230469 152.019531 396.0625 152.742188 393.167969 155.035156 Z M 410.046875 159.132812 C 417.277344 166.484375 412.820312 177.9375 402.691406 177.9375 C 398.59375 177.9375 397.027344 177.214844 394.734375 174.5625 C 385.453125 163.832031 400.039062 149.125 410.046875 159.132812 Z M 410.046875 159.132812 " fill-opacity="1" fill-rule="nonzero"/><path fill="#f4f6ea" d="M 398.59375 164.679688 C 397.269531 168.054688 397.75 169.980469 400.28125 171.308594 C 404.019531 173.238281 407.753906 170.824219 407.273438 166.726562 C 407.03125 164.074219 406.1875 163.351562 403.175781 163.109375 C 400.523438 162.871094 399.195312 163.351562 398.59375 164.679688 Z M 398.59375 164.679688 " fill-opacity="1" fill-rule="nonzero"/><path fill="#f4f6ea" d="M 515.046875 183.363281 C 510.464844 186.136719 507.570312 192.042969 507.570312 198.671875 C 507.570312 202.289062 506.96875 203.496094 504.917969 204.460938 C 502.265625 205.542969 502.148438 206.386719 501.785156 220.132812 C 501.304688 242.191406 499.011719 240.140625 523.605469 239.78125 L 544.339844 239.417969 L 544.699219 222.300781 C 544.941406 206.027344 544.941406 205.183594 542.53125 204.460938 C 540.601562 203.855469 540.121094 202.652344 540.121094 198.671875 C 540.121094 184.929688 526.378906 176.492188 515.046875 183.363281 Z M 528.667969 186.257812 C 533.730469 188.425781 535.296875 191.320312 535.296875 198.433594 L 535.296875 203.976562 L 523.605469 203.617188 L 511.789062 203.253906 L 512.152344 197.828125 C 512.753906 190.835938 514.203125 188.304688 518.78125 186.375 C 523.605469 184.207031 523.726562 184.207031 528.667969 186.257812 Z M 541.085938 222.179688 L 541.445312 236.40625 L 506.367188 236.40625 L 506.367188 207.351562 L 523.605469 207.714844 L 540.722656 208.074219 Z M 541.085938 222.179688 " fill-opacity="1" fill-rule="nonzero"/><path fill="#f4f6ea" d="M 519.746094 215.671875 C 519.023438 216.996094 519.023438 218.441406 519.746094 219.648438 C 520.351562 220.492188 520.710938 223.265625 520.589844 225.554688 C 520.230469 229.414062 520.589844 229.773438 523.726562 230.136719 C 527.101562 230.5 527.101562 230.5 526.378906 226.277344 C 525.894531 223.628906 526.136719 221.09375 527.101562 219.648438 C 528.183594 217.839844 528.183594 216.875 526.980469 215.429688 C 524.808594 212.898438 521.195312 213.019531 519.746094 215.671875 Z M 519.746094 215.671875 " fill-opacity="1" fill-rule="nonzero"/><path fill="#f4f6ea" d="M 343.621094 188.183594 L 343.621094 193.007812 L 338.800781 193.007812 C 332.292969 193.007812 332.050781 196.261719 338.558594 196.863281 C 342.898438 197.226562 343.019531 197.347656 343.382812 202.289062 C 343.621094 205.785156 344.347656 207.472656 345.429688 207.472656 C 346.515625 207.472656 347.238281 205.785156 347.480469 202.289062 C 347.84375 197.226562 347.84375 197.226562 353.027344 196.863281 C 359.777344 196.382812 359.171875 193.730469 352.300781 193.25 C 347.238281 192.886719 347.238281 192.886719 347.238281 188.066406 C 347.238281 184.6875 346.757812 183.363281 345.429688 183.363281 C 344.105469 183.363281 343.621094 184.6875 343.621094 188.183594 Z M 343.621094 188.183594 " fill-opacity="1" fill-rule="nonzero"/><path fill="#f4f6ea" d="M 186.90625 192.40625 C 186.90625 193.972656 189.078125 194.210938 202.941406 193.972656 C 223.917969 193.488281 223.675781 191.320312 202.578125 190.835938 C 189.078125 190.597656 186.90625 190.835938 186.90625 192.40625 Z M 186.90625 192.40625 " fill-opacity="1" fill-rule="nonzero"/><path fill="#f4f6ea" d="M 186.90625 199.636719 C 186.90625 201.085938 188.59375 201.445312 194.742188 201.445312 C 200.890625 201.445312 202.578125 201.085938 202.578125 199.636719 C 202.578125 198.191406 200.890625 197.828125 194.742188 197.828125 C 188.59375 197.828125 186.90625 198.191406 186.90625 199.636719 Z M 186.90625 199.636719 " fill-opacity="1" fill-rule="nonzero"/><path fill="#f4f6ea" d="M 207.402344 199.515625 C 207.402344 200.964844 208.847656 201.445312 213.546875 201.445312 C 221.503906 201.445312 221.023438 198.550781 213.066406 198.070312 C 208.605469 197.828125 207.402344 198.070312 207.402344 199.515625 Z M 207.402344 199.515625 " fill-opacity="1" fill-rule="nonzero"/><path fill="#f4f6ea" d="M 279.128906 201.203125 C 274.1875 204.339844 272.136719 207.113281 272.980469 209.523438 C 273.703125 211.210938 274.304688 210.96875 277.683594 207.714844 C 282.984375 202.652344 288.167969 202.53125 293.113281 207.472656 C 296.609375 210.96875 296.609375 211.089844 294.800781 215.429688 C 293.835938 217.839844 292.992188 220.011719 292.992188 220.25 C 292.992188 220.492188 291.785156 221.214844 290.460938 222.058594 C 288.410156 223.023438 287.6875 223.023438 286.84375 221.820312 C 286.121094 220.613281 285.636719 220.613281 284.070312 221.820312 C 281.539062 223.867188 279.128906 222.058594 277.078125 216.394531 C 275.269531 211.210938 272.496094 210.96875 272.496094 216.03125 C 272.496094 218.804688 273.582031 220.976562 276.597656 223.746094 C 279.488281 226.398438 280.9375 228.929688 281.175781 231.703125 C 281.539062 235.320312 282.019531 235.800781 285.398438 236.164062 C 289.132812 236.527344 289.375 236.285156 290.097656 231.582031 C 290.582031 228.328125 291.90625 226.039062 293.59375 224.832031 C 297.332031 222.421875 299.140625 217.597656 298.535156 211.453125 C 298.054688 205.664062 296.488281 203.253906 291.664062 200.722656 C 287.207031 198.433594 283.46875 198.550781 279.128906 201.203125 Z M 279.128906 201.203125 " fill-opacity="1" fill-rule="nonzero"/><path fill="#f4f6ea" d="M 417.160156 204.460938 C 417.160156 206.027344 419.691406 206.269531 432.832031 206.269531 C 445.96875 206.269531 448.5 206.027344 448.5 204.460938 C 448.5 202.890625 445.96875 202.652344 432.832031 202.652344 C 419.691406 202.652344 417.160156 202.890625 417.160156 204.460938 Z M 417.160156 204.460938 " fill-opacity="1" fill-rule="nonzero"/><path fill="#f4f6ea" d="M 417.160156 211.691406 C 417.160156 213.140625 418.847656 213.5 424.996094 213.5 C 431.140625 213.5 432.832031 213.140625 432.832031 211.691406 C 432.832031 210.246094 431.140625 209.882812 424.996094 209.882812 C 418.847656 209.882812 417.160156 210.246094 417.160156 211.691406 Z M 417.160156 211.691406 " fill-opacity="1" fill-rule="nonzero"/><path fill="#f4f6ea" d="M 437.289062 210.609375 C 435.601562 212.296875 438.015625 213.5 443.199219 213.5 C 447.054688 213.5 448.5 213.019531 448.5 211.691406 C 448.5 210.367188 447.175781 209.882812 443.316406 209.882812 C 440.425781 209.882812 437.652344 210.246094 437.289062 210.609375 Z M 437.289062 210.609375 " fill-opacity="1" fill-rule="nonzero"/><path fill="#f4f6ea" d="M 215.960938 226.039062 C 209.8125 229.535156 207.761719 239.539062 212.222656 245.207031 C 215.355469 249.183594 221.746094 251.355469 225.84375 249.785156 C 228.738281 248.703125 229.703125 249.546875 245.011719 268.109375 C 253.933594 278.839844 261.648438 288.242188 262.011719 289.085938 C 262.492188 289.929688 260.804688 293.304688 258.03125 296.921875 C 251.402344 305.601562 241.878906 324.769531 238.140625 336.824219 C 235.128906 347.191406 231.511719 365.636719 231.511719 371.542969 L 231.511719 375.039062 L 205.109375 375.039062 L 202.699219 369.734375 C 198.722656 360.453125 187.148438 356.714844 178.710938 361.777344 C 162.796875 371.421875 170.753906 395.773438 189.199219 393.964844 C 196.671875 393.121094 201.734375 388.660156 204.265625 380.703125 C 204.988281 378.65625 206.796875 378.535156 235.367188 378.894531 L 265.867188 379.257812 L 266.109375 382.875 C 267.3125 397.097656 270.929688 411.566406 276.71875 424.707031 C 277.5625 426.753906 274.789062 426.875 228.015625 426.875 C 183.652344 426.875 178.46875 426.632812 178.46875 424.945312 C 178.46875 423.980469 176.902344 421.449219 174.972656 419.523438 C 172.078125 416.628906 170.390625 416.027344 165.8125 416.027344 C 161.230469 416.027344 159.542969 416.628906 156.648438 419.523438 C 153.875 422.414062 153.152344 424.101562 153.152344 428.441406 C 153.152344 442.546875 170.152344 447.007812 177.382812 434.710938 L 179.914062 430.492188 L 279.371094 430.492188 L 283.949219 437.964844 C 289.855469 447.367188 303.480469 461.835938 313.125 468.585938 C 321.683594 474.734375 337.957031 482.691406 346.394531 484.738281 L 352.0625 486.1875 L 352.0625 497.519531 C 352.0625 507.523438 351.820312 508.730469 349.648438 509.453125 C 345.070312 510.898438 341.210938 517.046875 341.210938 522.953125 C 341.210938 527.535156 341.816406 528.980469 345.308594 532.476562 C 350.855469 538.023438 357.367188 538.265625 363.394531 532.839844 C 371.109375 526.089844 369.902344 514.875 360.980469 510.65625 L 356.882812 508.730469 L 356.882812 497.878906 C 356.882812 487.390625 356.882812 487.148438 359.65625 487.632812 C 385.210938 492.816406 419.328125 484.015625 442.234375 466.175781 C 453.082031 457.734375 465.742188 443.632812 469.117188 436.15625 C 470.199219 433.746094 471.40625 432.902344 474.058594 432.902344 C 482.136719 432.902344 485.148438 421.933594 478.519531 416.871094 C 471.285156 411.566406 462.125 419.039062 465.257812 427.71875 C 466.585938 431.214844 466.34375 432.179688 463.691406 436.761719 C 462.003906 439.652344 458.507812 444.355469 455.855469 447.367188 L 451.152344 452.792969 L 444.644531 446.523438 C 438.617188 440.496094 438.253906 439.894531 438.617188 434.953125 C 438.976562 430.613281 438.496094 429.285156 435.722656 426.511719 C 431.140625 421.933594 423.1875 421.933594 418.96875 426.394531 C 410.167969 435.917969 421.738281 450.863281 433.070312 444.835938 C 435.242188 443.753906 436.324219 444.234375 441.390625 449.296875 C 444.644531 452.550781 447.296875 455.445312 447.296875 455.925781 C 447.296875 457.496094 431.261719 468.945312 423.1875 473.167969 C 418.847656 475.457031 410.40625 478.832031 404.5 480.640625 C 394.976562 483.535156 391.601562 483.894531 376.773438 484.015625 C 357.367188 484.015625 348.804688 482.328125 333.253906 475.09375 C 319.390625 468.707031 310.472656 462.316406 300.105469 451.226562 C 282.746094 432.660156 272.378906 409.515625 271.050781 385.886719 L 270.691406 379.257812 L 286.722656 378.894531 L 302.636719 378.535156 L 302.636719 383.839844 C 302.636719 393.242188 310.230469 416.027344 313.363281 416.027344 C 315.894531 416.027344 315.894531 413.492188 313.484375 408.671875 C 309.628906 401.199219 307.578125 393.484375 306.613281 383.71875 L 305.890625 375.039062 L 271.292969 375.039062 C 252.246094 375.039062 236.453125 374.796875 236.210938 374.4375 C 235.007812 373.351562 237.539062 356.234375 240.429688 344.539062 C 250.316406 305.722656 278.765625 270.882812 315.171875 253.28125 C 330.964844 245.566406 345.429688 241.46875 363.152344 239.78125 C 373.277344 238.695312 377.375 237.851562 377.375 236.765625 C 377.375 234.597656 363.632812 234.71875 350.613281 237.007812 C 323.007812 241.832031 297.691406 254.96875 276.355469 275.464844 C 270.207031 281.371094 265.023438 285.953125 264.902344 285.710938 C 264.542969 285.347656 254.535156 272.933594 237.296875 251.957031 C 232.835938 246.410156 232.835938 246.289062 234.644531 242.554688 C 239.949219 231.824219 226.6875 220.011719 215.960938 226.039062 Z M 227.773438 231.101562 C 232.597656 235.078125 232.835938 240.023438 228.375 243.519531 C 224.15625 246.894531 220.058594 246.652344 216.441406 243.035156 C 212.464844 239.179688 212.703125 235.800781 216.925781 231.460938 C 221.265625 227.121094 223.074219 227.121094 227.773438 231.101562 Z M 193.898438 365.757812 C 199.324219 368.40625 201.734375 376.96875 198.839844 382.632812 C 196.550781 387.09375 192.574219 389.503906 187.390625 389.503906 C 181.121094 389.503906 176.539062 386.128906 174.730469 379.980469 C 172.5625 372.628906 176.296875 366.480469 184.496094 363.828125 C 186.667969 363.105469 190.042969 363.828125 193.898438 365.757812 Z M 171.839844 422.65625 C 173.527344 424.222656 174.851562 426.996094 174.851562 428.683594 C 174.851562 430.371094 173.527344 433.144531 171.839844 434.710938 C 170.269531 436.398438 167.5 437.722656 165.8125 437.722656 C 164.125 437.722656 161.351562 436.398438 159.785156 434.710938 C 158.09375 433.144531 156.769531 430.371094 156.769531 428.683594 C 156.769531 426.996094 158.09375 424.222656 159.785156 422.65625 C 161.351562 420.96875 164.125 419.640625 165.8125 419.640625 C 167.5 419.640625 170.269531 420.96875 171.839844 422.65625 Z M 477.433594 421.449219 C 479.242188 423.742188 477.914062 427.71875 474.902344 428.683594 C 470.320312 430.128906 467.066406 424.464844 470.441406 421.089844 C 472.371094 419.160156 475.625 419.28125 477.433594 421.449219 Z M 432.710938 430.007812 C 435.84375 433.988281 435.84375 435.433594 433.070312 438.929688 C 428.371094 444.714844 418.484375 440.136719 420.171875 433.023438 C 421.738281 426.394531 428.609375 424.824219 432.710938 430.007812 Z M 361.585938 516.804688 C 364.839844 521.023438 364.71875 524.761719 361.34375 528.859375 C 359.292969 531.273438 357.367188 532.117188 354.472656 532.117188 C 351.578125 532.117188 349.648438 531.273438 347.601562 528.859375 C 344.226562 524.761719 344.105469 521.023438 347.359375 516.804688 C 349.289062 514.394531 350.855469 513.671875 354.472656 513.671875 C 358.089844 513.671875 359.65625 514.394531 361.585938 516.804688 Z M 361.585938 516.804688 " fill-opacity="1" fill-rule="nonzero"/><path fill="#f4f6ea" d="M 183.289062 370.820312 C 182.445312 371.785156 182.085938 374.074219 182.445312 375.882812 C 182.808594 378.050781 182.445312 379.980469 181.242188 381.425781 C 178.589844 384.199219 180.15625 385.40625 183.894531 383.476562 C 186.425781 382.152344 187.390625 382.152344 189.921875 383.476562 C 193.296875 385.285156 195.226562 384.320312 193.054688 381.910156 C 192.332031 380.824219 192.089844 378.65625 192.574219 376.242188 C 193.175781 373.109375 192.8125 371.902344 191.125 370.578125 C 188.113281 368.527344 185.097656 368.527344 183.289062 370.820312 Z M 183.289062 370.820312 " fill-opacity="1" fill-rule="nonzero"/><path fill="#f4f6ea" d="M 351.339844 520.179688 C 350.011719 523.675781 351.339844 526.328125 354.472656 526.328125 C 357.003906 526.328125 357.484375 525.726562 357.484375 522.710938 C 357.484375 519.820312 356.882812 518.976562 354.714844 518.734375 C 353.144531 518.492188 351.820312 519.097656 351.339844 520.179688 Z M 351.339844 520.179688 " fill-opacity="1" fill-rule="nonzero"/><path fill="#f4f6ea" d="M 189.316406 292.460938 C 189.316406 294.027344 191.851562 294.269531 204.988281 294.269531 C 218.128906 294.269531 220.660156 294.027344 220.660156 292.460938 C 220.660156 290.894531 218.128906 290.652344 204.988281 290.652344 C 191.851562 290.652344 189.316406 290.894531 189.316406 292.460938 Z M 189.316406 292.460938 " fill-opacity="1" fill-rule="nonzero"/><path fill="#f4f6ea" d="M 566.640625 296.078125 C 566.640625 297.644531 569.171875 297.886719 582.3125 297.886719 C 595.453125 297.886719 597.984375 297.644531 597.984375 296.078125 C 597.984375 294.511719 595.453125 294.269531 582.3125 294.269531 C 569.171875 294.269531 566.640625 294.511719 566.640625 296.078125 Z M 566.640625 296.078125 " fill-opacity="1" fill-rule="nonzero"/><path fill="#f4f6ea" d="M 188.957031 298.730469 C 186.90625 300.777344 188.714844 301.503906 195.949219 301.503906 C 202.097656 301.503906 203.785156 301.140625 203.785156 299.695312 C 203.785156 298.246094 202.21875 297.886719 196.792969 297.886719 C 192.933594 297.886719 189.316406 298.246094 188.957031 298.730469 Z M 188.957031 298.730469 " fill-opacity="1" fill-rule="nonzero"/><path fill="#f4f6ea" d="M 208.605469 299.695312 C 208.605469 301.019531 210.054688 301.503906 214.632812 301.503906 C 219.214844 301.503906 220.660156 301.019531 220.660156 299.695312 C 220.660156 298.367188 219.214844 297.886719 214.632812 297.886719 C 210.054688 297.886719 208.605469 298.367188 208.605469 299.695312 Z M 208.605469 299.695312 " fill-opacity="1" fill-rule="nonzero"/><path fill="#f4f6ea" d="M 365.320312 302.46875 C 365.320312 305.480469 366.164062 306.203125 369.058594 305.480469 C 372.554688 304.515625 372.074219 300.296875 368.335938 300.296875 C 366.164062 300.296875 365.320312 300.898438 365.320312 302.46875 Z M 365.320312 302.46875 " fill-opacity="1" fill-rule="nonzero"/><path fill="#f4f6ea" d="M 566.640625 303.3125 C 566.640625 304.757812 568.207031 305.117188 574.597656 305.117188 C 580.382812 305.117188 582.433594 304.757812 582.070312 303.550781 C 581.710938 302.707031 578.695312 301.984375 574.117188 301.742188 C 567.96875 301.503906 566.640625 301.742188 566.640625 303.3125 Z M 566.640625 303.3125 " fill-opacity="1" fill-rule="nonzero"/><path fill="#f4f6ea" d="M 586.773438 302.347656 C 584.722656 304.273438 586.410156 305.117188 591.957031 305.117188 C 596.539062 305.117188 597.984375 304.636719 597.984375 303.3125 C 597.984375 301.984375 596.65625 301.503906 592.800781 301.503906 C 589.90625 301.503906 587.132812 301.863281 586.773438 302.347656 Z M 586.773438 302.347656 " fill-opacity="1" fill-rule="nonzero"/><path fill="#f4f6ea" d="M 350.613281 303.429688 C 349.648438 304.273438 350.855469 308.734375 352.0625 308.734375 C 354.714844 308.734375 356.882812 307.046875 356.882812 305 C 356.882812 303.429688 356.039062 302.707031 354.109375 302.707031 C 352.542969 302.707031 350.976562 303.070312 350.613281 303.429688 Z M 350.613281 303.429688 " fill-opacity="1" fill-rule="nonzero"/><path fill="#f4f6ea" d="M 337.957031 308.375 C 336.269531 308.976562 335.785156 313.074219 337.355469 313.917969 C 337.835938 314.28125 339.402344 314.039062 340.851562 313.4375 C 342.660156 312.835938 343.261719 311.75 342.777344 310.0625 C 342.175781 307.53125 340.851562 307.167969 337.957031 308.375 Z M 337.957031 308.375 " fill-opacity="1" fill-rule="nonzero"/><path fill="#f4f6ea" d="M 324.9375 316.449219 C 322.648438 318.136719 322.648438 318.378906 324.695312 320.429688 C 326.625 322.359375 326.867188 322.359375 328.796875 320.429688 C 330.601562 318.621094 330.722656 318.136719 329.035156 316.570312 C 327.46875 315.003906 326.988281 315.003906 324.9375 316.449219 Z M 324.9375 316.449219 " fill-opacity="1" fill-rule="nonzero"/><path fill="#f4f6ea" d="M 517.09375 322.117188 C 516.371094 322.476562 516.011719 327.058594 516.25 332.363281 L 516.613281 341.886719 L 549.039062 342.25 C 571.945312 342.488281 581.949219 342.128906 583.035156 341.164062 C 585.207031 339.355469 585.328125 323.804688 583.277344 322.359375 C 581.46875 321.273438 518.902344 321.03125 517.09375 322.117188 Z M 558.203125 332.242188 L 558.203125 338.875 L 519.625 338.875 L 519.625 325.613281 L 558.203125 325.613281 Z M 567.847656 332.242188 C 567.847656 333.207031 567.003906 334.050781 566.039062 334.050781 C 565.074219 334.050781 564.230469 333.207031 564.230469 332.242188 C 564.230469 331.277344 565.074219 330.433594 566.039062 330.433594 C 567.003906 330.433594 567.847656 331.277344 567.847656 332.242188 Z M 576.285156 332.242188 C 576.285156 333.207031 575.441406 334.050781 574.476562 334.050781 C 573.511719 334.050781 572.667969 333.207031 572.667969 332.242188 C 572.667969 331.277344 573.511719 330.433594 574.476562 330.433594 C 575.441406 330.433594 576.285156 331.277344 576.285156 332.242188 Z M 576.285156 332.242188 " fill-opacity="1" fill-rule="nonzero"/><path fill="#f4f6ea" d="M 523.484375 329.351562 C 523.726562 330.074219 529.148438 330.675781 536.863281 331.039062 C 547.351562 331.277344 549.765625 331.039062 549.765625 329.710938 C 549.765625 328.386719 546.992188 328.023438 536.382812 328.023438 C 527.582031 328.023438 523.242188 328.507812 523.484375 329.351562 Z M 523.484375 329.351562 " fill-opacity="1" fill-rule="nonzero"/><path fill="#f4f6ea" d="M 524.449219 334.652344 C 524.449219 336.101562 526.496094 336.460938 537.226562 336.460938 C 546.871094 336.460938 549.882812 336.101562 549.523438 334.894531 C 549.160156 333.929688 545.183594 333.328125 536.746094 333.085938 C 526.378906 332.84375 524.449219 333.085938 524.449219 334.652344 Z M 524.449219 334.652344 " fill-opacity="1" fill-rule="nonzero"/><path fill="#f4f6ea" d="M 314.089844 326.816406 C 312.039062 329.109375 312.039062 329.46875 313.847656 331.277344 C 315.414062 332.84375 316.136719 332.964844 317.582031 331.640625 C 319.996094 329.832031 319.996094 327.542969 317.945312 325.734375 C 316.621094 324.769531 315.777344 325.011719 314.089844 326.816406 Z M 314.089844 326.816406 " fill-opacity="1" fill-rule="nonzero"/><g clip-path="url(#4895d7402d)"><path fill="#f4f6ea" d="M 145.921875 331.039062 C 145.921875 332.605469 148.210938 332.84375 161.832031 332.605469 C 173.164062 332.363281 177.867188 331.761719 178.226562 330.675781 C 178.589844 329.589844 174.851562 329.230469 162.316406 329.230469 C 148.453125 329.230469 145.921875 329.46875 145.921875 331.039062 Z M 145.921875 331.039062 " fill-opacity="1" fill-rule="nonzero"/></g><path fill="#f4f6ea" d="M 369.300781 334.652344 C 360.378906 342.128906 351.457031 345.140625 337.113281 345.863281 L 325.179688 346.347656 L 325.902344 364.671875 C 327.105469 397.460938 334.460938 415.183594 352.90625 430.613281 C 359.898438 436.398438 372.554688 443.753906 375.570312 443.753906 C 379.546875 443.753906 394.617188 433.867188 402.210938 426.394531 C 417.519531 411.082031 423.066406 395.53125 424.03125 365.636719 L 424.753906 346.105469 L 415.832031 346.105469 C 401.367188 346.105469 389.671875 341.886719 379.425781 332.964844 L 375.570312 329.589844 Z M 397.027344 347.914062 C 400.402344 349 407.273438 350.085938 412.214844 350.566406 L 421.136719 351.289062 L 420.414062 366.480469 C 419.929688 374.796875 418.726562 385.164062 417.761719 389.503906 C 415.109375 400.234375 408.71875 413.011719 402.089844 420.484375 C 396.183594 427.238281 379.546875 438.929688 375.929688 438.929688 C 371.953125 438.929688 360.136719 431.335938 351.941406 423.621094 C 337.355469 409.878906 331.929688 395.53125 330.722656 368.289062 L 330 351.289062 L 338.921875 350.566406 C 350.253906 349.722656 360.980469 345.984375 369.179688 340.199219 L 375.570312 335.738281 L 383.164062 340.921875 C 387.261719 343.695312 393.53125 346.828125 397.027344 347.914062 Z M 397.027344 347.914062 " fill-opacity="1" fill-rule="nonzero"/><path fill="#f4f6ea" d="M 369.78125 346.828125 C 363.632812 350.929688 353.144531 354.425781 343.621094 355.507812 L 335.785156 356.351562 L 336.148438 367.203125 C 337.113281 396.738281 347.960938 417.59375 368.578125 429.40625 L 375.328125 433.265625 L 380.871094 430.371094 C 388.105469 426.511719 399.195312 416.144531 403.898438 408.792969 C 410.167969 399.027344 413.664062 386.128906 414.386719 369.855469 L 415.109375 355.75 L 410.40625 355.75 C 403.175781 355.75 392.085938 352.496094 383.644531 347.914062 C 379.546875 345.625 375.6875 343.695312 375.207031 343.695312 C 374.726562 343.695312 372.3125 345.140625 369.78125 346.828125 Z M 374.964844 388.300781 C 374.964844 420.484375 374.726562 426.875 373.277344 426.875 C 370.265625 426.875 357.367188 416.507812 352.90625 410.238281 C 350.375 406.984375 347.238281 401.679688 345.914062 398.546875 C 342.777344 391.433594 340.125 376.96875 340.007812 366.839844 L 340.007812 359.367188 L 344.707031 359.367188 C 350.011719 359.367188 362.667969 355.628906 368.9375 352.132812 C 371.230469 350.929688 373.519531 349.84375 374.121094 349.722656 C 374.605469 349.722656 374.964844 367.082031 374.964844 388.300781 Z M 374.964844 388.300781 " fill-opacity="1" fill-rule="nonzero"/><g clip-path="url(#557b5cff13)"><path fill="#f4f6ea" d="M 145.921875 338.269531 C 145.921875 339.835938 147.246094 340.078125 153.394531 339.835938 C 157.976562 339.597656 160.988281 338.875 161.351562 337.910156 C 161.710938 336.824219 159.664062 336.460938 153.875 336.460938 C 147.488281 336.460938 145.921875 336.824219 145.921875 338.269531 Z M 145.921875 338.269531 " fill-opacity="1" fill-rule="nonzero"/></g><path fill="#f4f6ea" d="M 166.050781 337.304688 C 164.003906 339.234375 165.691406 340.078125 171.839844 340.078125 C 176.902344 340.078125 178.46875 339.71875 178.46875 338.269531 C 178.46875 336.945312 177.023438 336.460938 172.683594 336.460938 C 169.425781 336.460938 166.414062 336.824219 166.050781 337.304688 Z M 166.050781 337.304688 " fill-opacity="1" fill-rule="nonzero"/><path fill="#f4f6ea" d="M 305.410156 339.234375 C 304.324219 341.523438 304.445312 342.371094 306.371094 343.453125 C 308.179688 344.660156 308.785156 344.417969 309.867188 342.371094 C 310.953125 340.5625 310.832031 339.476562 309.75 338.148438 C 307.820312 335.738281 306.855469 335.980469 305.410156 339.234375 Z M 305.410156 339.234375 " fill-opacity="1" fill-rule="nonzero"/><path fill="#f4f6ea" d="M 517.214844 346.105469 C 516.371094 346.589844 516.011719 350.808594 516.25 356.472656 L 516.613281 365.996094 L 584.121094 365.996094 L 584.484375 356.59375 C 584.722656 349.84375 584.363281 347.191406 583.277344 346.710938 C 580.625 345.863281 518.542969 345.261719 517.214844 346.105469 Z M 558.203125 356.351562 L 558.203125 362.984375 L 519.625 362.984375 L 519.625 349.722656 L 558.203125 349.722656 Z M 568.570312 355.871094 C 569.535156 357.558594 566.398438 359.609375 564.953125 358.160156 C 563.867188 357.078125 564.953125 354.542969 566.640625 354.542969 C 567.242188 354.542969 568.085938 355.148438 568.570312 355.871094 Z M 577.007812 355.871094 C 578.214844 357.921875 575.441406 360.210938 573.753906 358.523438 C 572.308594 357.078125 573.269531 354.542969 575.078125 354.542969 C 575.683594 354.542969 576.527344 355.148438 577.007812 355.871094 Z M 577.007812 355.871094 " fill-opacity="1" fill-rule="nonzero"/><path fill="#f4f6ea" d="M 524.085938 351.652344 C 521.796875 353.941406 524.328125 354.542969 536.625 354.542969 C 546.75 354.542969 549.882812 354.183594 549.523438 352.976562 C 548.921875 351.410156 525.652344 350.203125 524.085938 351.652344 Z M 524.085938 351.652344 " fill-opacity="1" fill-rule="nonzero"/><path fill="#f4f6ea" d="M 524.085938 357.679688 C 521.796875 359.96875 524.328125 360.574219 536.625 360.574219 C 546.75 360.574219 549.882812 360.210938 549.523438 359.003906 C 548.921875 357.4375 525.652344 356.234375 524.085938 357.679688 Z M 524.085938 357.679688 " fill-opacity="1" fill-rule="nonzero"/><path fill="#f4f6ea" d="M 298.65625 353.21875 C 297.933594 356.234375 302.394531 358.160156 303.960938 355.628906 C 305.410156 353.21875 304.683594 351.53125 301.792969 351.167969 C 300.105469 350.929688 299.140625 351.652344 298.65625 353.21875 Z M 298.65625 353.21875 " fill-opacity="1" fill-rule="nonzero"/><path fill="#f4f6ea" d="M 516.855469 371.058594 C 516.371094 371.421875 516.011719 376.003906 516.011719 381.1875 C 516.011719 388.539062 516.371094 390.589844 517.9375 391.191406 C 519.023438 391.554688 525.773438 391.914062 533.007812 391.914062 L 546.148438 391.914062 L 546.148438 397.339844 C 546.148438 401.4375 545.664062 402.765625 544.339844 402.765625 C 543.253906 402.765625 542.050781 403.730469 541.6875 404.8125 C 540.359375 408.308594 538.792969 408.792969 528.425781 408.792969 C 520.351562 408.792969 518.421875 409.152344 518.421875 410.601562 C 518.421875 412.046875 520.46875 412.410156 529.875 412.410156 C 540.480469 412.410156 541.324219 412.53125 541.324219 414.820312 C 541.324219 416.988281 542.167969 417.230469 548.4375 417.230469 C 554.464844 417.230469 555.550781 416.871094 556.152344 414.820312 C 556.757812 412.648438 557.839844 412.410156 568.328125 412.410156 C 577.851562 412.410156 579.902344 412.046875 579.902344 410.601562 C 579.902344 409.152344 577.851562 408.792969 568.328125 408.792969 C 557.839844 408.792969 556.757812 408.550781 556.152344 406.382812 C 555.792969 405.054688 554.464844 403.96875 553.261719 403.96875 C 551.332031 403.96875 550.96875 403.007812 550.96875 398.0625 L 550.96875 392.15625 L 561.699219 391.3125 C 567.605469 390.832031 574.117188 390.832031 576.164062 391.3125 C 578.09375 391.675781 580.867188 391.433594 582.3125 390.710938 C 584.601562 389.503906 584.84375 388.417969 584.484375 380.101562 L 584.121094 370.820312 L 550.847656 370.457031 C 532.644531 370.335938 517.335938 370.578125 516.855469 371.058594 Z M 558.203125 380.464844 L 558.203125 387.09375 L 519.625 387.09375 L 519.625 381.308594 C 519.625 378.050781 519.988281 375.039062 520.46875 374.675781 C 520.832031 374.195312 529.511719 373.832031 539.757812 373.832031 L 558.203125 373.832031 Z M 567.605469 380.703125 C 567.125 383.355469 564.953125 383.117188 564.472656 380.582031 C 564.230469 379.378906 564.832031 378.65625 566.039062 378.65625 C 567.242188 378.65625 567.847656 379.5 567.605469 380.703125 Z M 576.648438 380.464844 C 576.765625 381.066406 575.921875 381.789062 574.839844 382.03125 C 573.511719 382.269531 572.667969 381.667969 572.667969 380.464844 C 572.667969 378.414062 576.285156 378.292969 576.648438 380.464844 Z M 552.175781 410.601562 C 552.175781 413.132812 551.574219 413.613281 548.558594 413.613281 C 545.542969 413.613281 544.941406 413.132812 544.941406 410.601562 C 544.941406 408.070312 545.542969 407.585938 548.558594 407.585938 C 551.574219 407.585938 552.175781 408.070312 552.175781 410.601562 Z M 552.175781 410.601562 " fill-opacity="1" fill-rule="nonzero"/><path fill="#f4f6ea" d="M 524.449219 378.050781 C 524.449219 379.5 526.617188 379.859375 537.105469 379.859375 C 547.59375 379.859375 549.765625 379.5 549.765625 378.050781 C 549.765625 376.605469 547.59375 376.242188 537.105469 376.242188 C 526.617188 376.242188 524.449219 376.605469 524.449219 378.050781 Z M 524.449219 378.050781 " fill-opacity="1" fill-rule="nonzero"/><path fill="#f4f6ea" d="M 524.449219 382.875 C 524.449219 384.320312 526.496094 384.683594 537.226562 384.683594 C 546.871094 384.683594 549.882812 384.320312 549.523438 383.117188 C 549.160156 382.152344 545.183594 381.546875 536.746094 381.308594 C 526.378906 381.066406 524.449219 381.308594 524.449219 382.875 Z M 524.449219 382.875 " fill-opacity="1" fill-rule="nonzero"/><g clip-path="url(#94e73ed5d6)"><path fill="#f4f6ea" d="M 607.988281 384.078125 C 603.289062 386.128906 601.601562 389.144531 601.601562 395.289062 C 601.601562 401.4375 606.785156 406.382812 613.292969 406.382812 C 625.230469 406.382812 628.726562 389.261719 617.875 384.078125 C 613.171875 381.910156 612.933594 381.910156 607.988281 384.078125 Z M 618.71875 390.832031 C 621.613281 394.566406 620.046875 399.628906 615.464844 401.800781 C 612.8125 403.007812 611.847656 402.765625 609.074219 400.714844 C 605.097656 397.824219 604.375 393.964844 607.027344 389.988281 C 609.558594 386.007812 615.464844 386.371094 618.71875 390.832031 Z M 618.71875 390.832031 " fill-opacity="1" fill-rule="nonzero"/></g><path fill="#f4f6ea" d="M 502.265625 440.738281 C 495.273438 454.480469 484.425781 469.066406 472.730469 480.277344 C 448.5 503.546875 421.136719 516.203125 387.863281 519.214844 C 380.753906 519.820312 378.582031 520.421875 378.582031 521.867188 C 378.582031 523.4375 380.269531 523.554688 390.394531 522.953125 C 403.054688 522.109375 421.136719 517.769531 431.503906 513.070312 C 435 511.382812 438.375 510.054688 438.976562 510.054688 C 439.582031 510.054688 440.0625 523.917969 440.0625 540.796875 L 440.0625 571.414062 L 408.597656 571.777344 L 377.257812 572.136719 L 375.449219 568.28125 C 373.640625 564.542969 367.613281 560.6875 363.511719 560.6875 C 360.5 560.6875 354.832031 563.941406 352.785156 566.953125 C 347.238281 574.910156 353.988281 587.207031 363.875 587.207031 C 369.179688 587.207031 375.449219 583.109375 376.773438 578.769531 C 377.496094 576.476562 378.945312 576.359375 420.773438 576.359375 C 463.089844 576.359375 464.050781 576.359375 464.777344 578.769531 C 465.257812 580.09375 467.1875 582.023438 469.238281 583.109375 C 479 588.171875 487.921875 576.359375 480.929688 567.4375 C 476.710938 562.132812 466.222656 563.699219 464.050781 570.089844 C 463.8125 570.8125 459.351562 571.535156 453.925781 571.65625 L 444.28125 571.898438 L 443.921875 539.953125 L 443.679688 507.886719 L 455.734375 499.929688 C 467.789062 491.851562 483.824219 477.023438 489.488281 468.707031 L 492.503906 464.246094 L 546.027344 464.246094 L 546.386719 480.761719 L 546.75 497.398438 L 560.976562 497.398438 C 578.816406 497.398438 580.746094 495.105469 563.386719 494.625 L 550.96875 494.261719 L 550.96875 464.246094 L 574.839844 464.246094 L 577.128906 468.707031 C 581.710938 478.230469 593.402344 479.917969 601.238281 472.082031 C 604.492188 468.828125 605.21875 467.140625 605.21875 463.160156 C 605.21875 453.515625 599.308594 447.367188 590.148438 447.367188 C 584.121094 447.367188 579.417969 450.140625 577.007812 455.203125 L 574.960938 459.421875 L 496.480469 459.421875 L 499.011719 455.445312 C 504.074219 447.851562 510.101562 435.074219 509.5 433.386719 C 508.292969 430.25 506.96875 431.695312 502.265625 440.738281 Z M 595.453125 452.792969 C 600.515625 455.324219 602.203125 460.386719 600.035156 465.8125 C 596.054688 475.214844 584.242188 475.214844 580.382812 465.933594 C 578.816406 462.195312 578.816406 461.230469 580.503906 457.734375 C 583.519531 451.46875 589.183594 449.539062 595.453125 452.792969 Z M 369.902344 567.917969 C 373.519531 571.292969 373.398438 576.839844 369.542969 580.578125 C 365.925781 584.3125 362.789062 584.433594 358.570312 580.816406 C 356.160156 578.769531 355.316406 576.839844 355.316406 573.945312 C 355.316406 566.472656 364.359375 562.734375 369.902344 567.917969 Z M 477.675781 569.96875 C 480.449219 572.5 480.449219 575.394531 477.433594 578.164062 C 472.007812 582.988281 464.777344 575.753906 469.597656 570.332031 C 472.25 567.4375 474.78125 567.316406 477.675781 569.96875 Z M 477.675781 569.96875 " fill-opacity="1" fill-rule="nonzero"/><path fill="#f4f6ea" d="M 586.773438 457.734375 C 584.964844 459.542969 585.929688 465.332031 588.21875 466.054688 C 592.199219 467.257812 594.488281 465.453125 594.125 461.351562 C 593.886719 458.339844 593.164062 457.496094 590.75 457.253906 C 589.0625 457.011719 587.253906 457.253906 586.773438 457.734375 Z M 586.773438 457.734375 " fill-opacity="1" fill-rule="nonzero"/><g clip-path="url(#b4106b983b)"><path fill="#f4f6ea" d="M 248.027344 440.980469 C 246.460938 442.425781 247.183594 444.476562 251.402344 451.46875 C 253.691406 455.324219 255.621094 458.699219 255.621094 458.941406 C 255.621094 459.183594 242.238281 459.542969 225.84375 459.664062 L 195.949219 460.027344 L 195.585938 477.144531 L 195.226562 494.382812 L 168.101562 494.382812 L 165.449219 490.765625 C 160.144531 483.65625 148.332031 487.269531 148.332031 495.949219 C 148.332031 500.773438 150.019531 503.425781 154.359375 505.234375 C 158.9375 507.160156 164.242188 505.234375 166.292969 500.894531 C 167.015625 499.324219 167.980469 498 168.464844 498.121094 C 169.066406 498.242188 176.058594 498.242188 184.253906 498.121094 L 198.960938 498 L 198.960938 464.246094 L 260.082031 464.246094 L 263.457031 469.066406 C 268.761719 476.664062 286.722656 493.179688 296.96875 499.808594 L 306.132812 505.835938 L 306.253906 546.941406 L 306.253906 587.929688 L 301.671875 589.980469 C 296.246094 592.390625 292.628906 597.9375 292.628906 604.085938 C 292.628906 616.5 305.890625 623.734375 316.015625 616.984375 C 321.5625 613.246094 323.371094 609.507812 322.765625 602.515625 C 322.164062 596.128906 317.945312 590.339844 312.761719 589.136719 L 309.867188 588.414062 L 309.867188 548.632812 C 309.867188 526.691406 310.109375 508.847656 310.472656 508.847656 C 310.710938 508.847656 314.089844 510.175781 317.824219 511.863281 C 325.539062 515.238281 327.953125 515.601562 327.953125 513.1875 C 327.953125 512.34375 322.40625 508.847656 315.65625 505.59375 C 293.234375 494.746094 274.066406 477.746094 259.597656 456.167969 C 255.5 450.140625 251.882812 443.992188 251.402344 442.667969 C 250.679688 440.136719 249.472656 439.53125 248.027344 440.980469 Z M 161.351562 492.214844 C 163.277344 494.140625 163.160156 498.601562 160.988281 500.410156 C 158.699219 502.339844 155.5625 501.617188 153.636719 498.601562 C 150.5 493.902344 157.371094 488.234375 161.351562 492.214844 Z M 313.242188 594.441406 C 323.25 600.589844 319.511719 614.933594 307.941406 614.933594 C 302.394531 614.933594 300.34375 613.96875 298.417969 609.992188 C 295.039062 603.601562 296.96875 596.972656 303.117188 593.957031 C 307.941406 591.546875 308.542969 591.546875 313.242188 594.441406 Z M 313.242188 594.441406 " fill-opacity="1" fill-rule="nonzero"/></g><path fill="#f4f6ea" d="M 303.238281 600.46875 C 300.34375 603.722656 301.671875 608.664062 305.890625 609.628906 C 309.867188 610.714844 312.761719 608.90625 313.242188 605.046875 C 313.96875 599.019531 307.335938 595.886719 303.238281 600.46875 Z M 303.238281 600.46875 " fill-opacity="1" fill-rule="nonzero"/><path fill="#f4f6ea" d="M 502.148438 494.261719 C 493.226562 496.433594 487.558594 501.375 483.582031 510.054688 C 477.554688 523.4375 483.21875 539.347656 496.117188 545.136719 C 503.351562 548.511719 514.082031 548.148438 520.710938 544.410156 C 525.652344 541.519531 526.136719 541.519531 528.183594 543.328125 C 529.511719 544.53125 530.476562 546.824219 530.476562 548.75 C 530.476562 551.28125 532.886719 554.296875 542.050781 562.976562 C 548.4375 569.003906 554.34375 573.945312 555.066406 573.945312 C 558.203125 573.945312 561.820312 570.089844 561.820312 566.835938 C 561.820312 564.300781 559.40625 561.167969 550.367188 552.367188 C 542.167969 544.171875 538.433594 541.277344 536.984375 541.878906 C 535.660156 542.363281 533.851562 541.640625 532.285156 540.191406 C 529.632812 537.660156 529.632812 537.539062 531.800781 533.441406 C 539.515625 518.253906 531.800781 499.808594 515.890625 495.105469 C 509.019531 493.058594 507.691406 492.9375 502.148438 494.261719 Z M 518.421875 501.011719 C 525.773438 504.75 529.632812 511.863281 529.632812 521.144531 C 529.632812 526.570312 529.03125 528.980469 526.496094 532.839844 C 518.78125 544.53125 501.183594 545.980469 491.660156 535.851562 C 475.023438 518.132812 496.722656 489.921875 518.421875 501.011719 Z M 518.421875 501.011719 " fill-opacity="1" fill-rule="nonzero"/><path fill="#f4f6ea" d="M 503.953125 504.027344 C 496.84375 505.714844 489.128906 516.203125 491.175781 521.507812 C 492.261719 524.519531 493.949219 523.554688 494.792969 519.457031 C 495.878906 513.914062 501.0625 508.96875 506.726562 508.003906 C 509.980469 507.523438 511.1875 506.800781 510.945312 505.472656 C 510.464844 503.0625 509.136719 502.820312 503.953125 504.027344 Z M 503.953125 504.027344 " fill-opacity="1" fill-rule="nonzero"/><path fill="#f4f6ea" d="M 221.867188 503.304688 C 221.867188 508.488281 222.226562 509.8125 224.035156 510.175781 C 225.121094 510.417969 236.816406 510.535156 249.953125 510.296875 L 273.703125 509.8125 L 273.703125 496.792969 L 221.867188 496.792969 Z M 231.269531 503.785156 C 231.511719 504.628906 230.546875 505.234375 229.21875 505.234375 C 226.6875 505.234375 225.964844 503.90625 227.53125 502.339844 C 228.617188 501.253906 230.667969 502.097656 231.269531 503.785156 Z M 268.640625 503.664062 C 268.15625 506.316406 265.988281 506.078125 265.507812 503.546875 C 265.265625 502.339844 265.867188 501.617188 267.074219 501.617188 C 268.277344 501.617188 268.882812 502.460938 268.640625 503.664062 Z M 268.640625 503.664062 " fill-opacity="1" fill-rule="nonzero"/><path fill="#f4f6ea" d="M 575.078125 514.273438 C 575.078125 515.839844 577.609375 516.082031 590.75 516.082031 C 603.890625 516.082031 606.421875 515.839844 606.421875 514.273438 C 606.421875 512.707031 603.890625 512.464844 590.75 512.464844 C 577.609375 512.464844 575.078125 512.707031 575.078125 514.273438 Z M 575.078125 514.273438 " fill-opacity="1" fill-rule="nonzero"/><path fill="#f4f6ea" d="M 222.710938 514.515625 C 222.226562 514.875 221.867188 517.890625 221.867188 521.023438 C 221.867188 525.363281 222.347656 526.691406 224.035156 527.050781 C 225.121094 527.292969 236.816406 527.414062 249.953125 527.171875 L 273.703125 526.691406 L 273.703125 513.671875 L 248.628906 513.671875 C 234.765625 513.671875 223.074219 514.03125 222.710938 514.515625 Z M 231.027344 519.820312 C 232.234375 521.867188 229.460938 524.160156 227.773438 522.472656 C 226.328125 521.023438 227.292969 518.492188 229.101562 518.492188 C 229.703125 518.492188 230.546875 519.097656 231.027344 519.820312 Z M 268.398438 519.820312 C 269.605469 521.867188 266.832031 524.160156 265.144531 522.472656 C 263.699219 521.023438 264.664062 518.492188 266.46875 518.492188 C 267.074219 518.492188 267.917969 519.097656 268.398438 519.820312 Z M 268.398438 519.820312 " fill-opacity="1" fill-rule="nonzero"/><path fill="#f4f6ea" d="M 575.078125 521.507812 C 575.078125 522.953125 576.765625 523.316406 582.914062 523.316406 C 589.0625 523.316406 590.75 522.953125 590.75 521.507812 C 590.75 520.0625 589.0625 519.699219 582.914062 519.699219 C 576.765625 519.699219 575.078125 520.0625 575.078125 521.507812 Z M 575.078125 521.507812 " fill-opacity="1" fill-rule="nonzero"/><path fill="#f4f6ea" d="M 595.574219 521.386719 C 595.574219 522.832031 597.019531 523.316406 601.722656 523.316406 C 609.675781 523.316406 609.195312 520.421875 601.238281 519.941406 C 596.777344 519.699219 595.574219 519.941406 595.574219 521.386719 Z M 595.574219 521.386719 " fill-opacity="1" fill-rule="nonzero"/><path fill="#f4f6ea" d="M 222.347656 532.234375 C 221.988281 533.078125 221.867188 536.214844 222.109375 539.109375 L 222.46875 544.410156 L 244.167969 544.773438 C 256.101562 545.015625 267.675781 544.773438 269.847656 544.410156 C 273.824219 543.6875 273.824219 543.6875 273.460938 537.417969 L 273.101562 531.152344 L 248.027344 530.789062 C 227.414062 530.546875 222.953125 530.789062 222.347656 532.234375 Z M 231.027344 536.695312 C 232.234375 538.746094 229.460938 541.035156 227.773438 539.347656 C 226.328125 537.902344 227.292969 535.371094 229.101562 535.371094 C 229.703125 535.371094 230.546875 535.972656 231.027344 536.695312 Z M 268.398438 536.695312 C 269.605469 538.746094 266.832031 541.035156 265.144531 539.347656 C 263.699219 537.902344 264.664062 535.371094 266.46875 535.371094 C 267.074219 535.371094 267.917969 535.972656 268.398438 536.695312 Z M 268.398438 536.695312 " fill-opacity="1" fill-rule="nonzero"/><path fill="#f4f6ea" d="M 222.347656 549.113281 C 221.988281 549.957031 221.867188 553.332031 222.109375 556.585938 L 222.46875 562.496094 L 273.101562 562.496094 L 273.101562 548.027344 L 248.027344 547.667969 C 227.53125 547.425781 222.953125 547.667969 222.347656 549.113281 Z M 250.195312 555.261719 C 250.195312 556.828125 249.230469 557.792969 247.542969 558.035156 C 245.496094 558.394531 244.769531 557.792969 244.769531 556.105469 C 244.769531 554.898438 245.132812 553.453125 245.613281 552.972656 C 247.183594 551.402344 250.195312 552.851562 250.195312 555.261719 Z M 250.195312 555.261719 " fill-opacity="1" fill-rule="nonzero"/><path fill="#f4f6ea" d="M 408.960938 599.503906 C 409.324219 600.589844 413.902344 601.191406 424.753906 601.433594 C 437.894531 601.671875 440.0625 601.433594 440.0625 599.863281 C 440.0625 598.296875 437.652344 598.058594 424.269531 598.058594 C 412.214844 598.058594 408.597656 598.417969 408.960938 599.503906 Z M 408.960938 599.503906 " fill-opacity="1" fill-rule="nonzero"/><path fill="#f4f6ea" d="M 409.5625 606.132812 C 407.515625 608.183594 409.324219 608.90625 416.554688 608.90625 C 422.703125 608.90625 424.390625 608.542969 424.390625 607.097656 C 424.390625 605.652344 422.824219 605.289062 417.398438 605.289062 C 413.542969 605.289062 409.925781 605.652344 409.5625 606.132812 Z M 409.5625 606.132812 " fill-opacity="1" fill-rule="nonzero"/><path fill="#f4f6ea" d="M 429.214844 607.097656 C 429.214844 608.425781 430.660156 608.90625 434.636719 608.90625 C 438.617188 608.90625 440.0625 608.425781 440.0625 607.097656 C 440.0625 605.773438 438.617188 605.289062 434.636719 605.289062 C 430.660156 605.289062 429.214844 605.773438 429.214844 607.097656 Z M 429.214844 607.097656 " fill-opacity="1" fill-rule="nonzero"/></svg>