<svg xmlns="http://www.w3.org/2000/svg" xmlns:xlink="http://www.w3.org/1999/xlink" width="1024" zoomAndPan="magnify" viewBox="0 0 768 767.999994" height="1024" preserveAspectRatio="xMidYMid meet" version="1.0"><defs><clipPath id="e1e334950e"><path d="M 123.582031 131.722656 L 644.082031 131.722656 L 644.082031 636.472656 L 123.582031 636.472656 Z M 123.582031 131.722656 " clip-rule="nonzero"/></clipPath></defs><g clip-path="url(#e1e334950e)"><path fill="#f4f6ea" d="M 585.734375 218.820312 L 418.855469 218.820312 C 416.050781 213.113281 412.894531 207.582031 409.414062 202.253906 C 409.257812 201.972656 409.082031 201.710938 408.894531 201.453125 C 400.375 188.589844 389.9375 176.957031 377.882812 167.050781 C 350.179688 144.296875 315.148438 131.761719 279.230469 131.761719 C 225.328125 131.761719 177.753906 159.328125 149.84375 201.097656 C 149.492188 201.515625 149.1875 201.976562 148.9375 202.472656 C 133.007812 226.871094 123.730469 255.988281 123.730469 287.234375 C 123.730469 318.480469 132.996094 347.582031 148.914062 371.976562 C 149.175781 372.503906 149.496094 372.992188 149.875 373.433594 C 172.230469 406.871094 207.1875 431.203125 247.90625 439.5625 L 247.90625 561.117188 L 182.144531 561.117188 C 180.132812 561.117188 178.214844 561.96875 176.867188 563.460938 C 175.515625 564.949219 174.859375 566.945312 175.0625 568.945312 L 178.117188 599.433594 C 180.148438 619.777344 198.359375 636.332031 218.714844 636.332031 L 484.5625 636.304688 C 484.753906 636.316406 484.941406 636.332031 485.132812 636.332031 L 490.664062 636.332031 C 518.472656 636.332031 541.121094 613.6875 541.15625 585.851562 L 541.460938 340.890625 L 637.144531 340.890625 C 641.078125 340.890625 644.261719 337.703125 644.261719 333.773438 L 644.261719 277.320312 C 644.261719 245.066406 618.007812 218.820312 585.734375 218.820312 Z M 463.90625 351.296875 C 465.453125 354.175781 465.714844 357.082031 464.703125 360.199219 C 463.695312 363.304688 461.777344 365.507812 458.839844 366.933594 C 453.542969 369.488281 448.996094 373.335938 445.308594 378.382812 C 444.753906 379.152344 444.238281 379.933594 443.746094 380.722656 C 443.738281 380.738281 443.726562 380.753906 443.71875 380.773438 C 441 385.148438 439.273438 389.84375 438.597656 394.792969 C 438.167969 398.007812 436.675781 400.5 433.980469 402.441406 C 431.367188 404.359375 428.523438 405.007812 425.308594 404.433594 C 419.492188 403.382812 413.554688 403.820312 407.636719 405.746094 C 405.851562 406.332031 404.15625 407.039062 402.53125 407.839844 C 402.277344 407.949219 402.023438 408.070312 401.777344 408.214844 C 401.769531 408.21875 401.761719 408.226562 401.75 408.230469 C 398.300781 410.03125 395.230469 412.3125 392.597656 415.0625 C 390.308594 417.445312 387.6875 418.558594 384.359375 418.558594 C 381.074219 418.558594 378.394531 417.421875 376.15625 415.074219 C 373.519531 412.320312 370.453125 410.039062 367.003906 408.238281 C 366.992188 408.230469 366.976562 408.222656 366.964844 408.214844 C 366.714844 408.070312 366.457031 407.945312 366.195312 407.832031 C 364.570312 407.035156 362.871094 406.324219 361.085938 405.738281 C 357.273438 404.496094 353.441406 403.875 349.644531 403.875 C 347.570312 403.875 345.503906 404.0625 343.453125 404.433594 C 340.222656 405.011719 337.363281 404.355469 334.691406 402.410156 C 332.0625 400.515625 330.566406 398.011719 330.117188 394.769531 C 329.460938 389.972656 327.800781 385.386719 325.1875 381.0625 C 325.09375 380.894531 324.992188 380.722656 324.886719 380.5625 C 324.421875 379.820312 323.941406 379.085938 323.421875 378.363281 C 319.746094 373.335938 315.199219 369.492188 309.914062 366.9375 C 306.96875 365.507812 305.046875 363.304688 304.039062 360.1875 C 303.027344 357.082031 303.289062 354.175781 304.835938 351.300781 C 307.617188 346.132812 309.027344 340.34375 309.027344 334.09375 C 309.027344 327.878906 307.621094 322.097656 304.835938 316.890625 C 303.269531 313.976562 303.019531 311.148438 304.042969 307.984375 C 305.046875 304.878906 306.96875 302.675781 309.871094 301.269531 C 315.167969 298.746094 319.730469 294.902344 323.453125 289.804688 C 327.078125 284.753906 329.320312 279.25 330.113281 273.460938 C 330.570312 270.15625 332.035156 267.710938 334.714844 265.757812 C 337.398438 263.804688 340.160156 263.175781 343.476562 263.789062 C 349.300781 264.808594 355.222656 264.355469 361.074219 262.453125 C 366.949219 260.554688 372.015625 257.425781 376.164062 253.132812 C 378.414062 250.777344 381.09375 249.628906 384.359375 249.628906 C 387.667969 249.628906 390.289062 250.75 392.597656 253.152344 C 392.601562 253.15625 392.605469 253.160156 392.609375 253.160156 C 396.726562 257.425781 401.796875 260.554688 407.660156 262.449219 C 413.519531 264.355469 419.445312 264.804688 425.328125 263.777344 C 428.535156 263.183594 431.367188 263.828125 434 265.757812 C 436.664062 267.699219 438.167969 270.207031 438.597656 273.445312 C 439.394531 279.28125 441.652344 284.792969 445.320312 289.851562 C 449.011719 294.902344 453.570312 298.746094 458.828125 301.25 C 461.773438 302.675781 463.695312 304.882812 464.699219 307.988281 C 465.722656 311.148438 465.472656 313.980469 463.898438 316.90625 C 461.121094 322.097656 459.714844 327.878906 459.714844 334.09375 C 459.714844 340.34375 461.125 346.132812 463.90625 351.296875 Z M 451.535156 401.703125 L 470.070312 433.789062 L 450.757812 430.449219 C 447.367188 429.859375 444.050781 431.777344 442.863281 435.003906 L 436.09375 453.417969 L 415.863281 418.371094 C 418.203125 418.015625 420.519531 418.035156 422.789062 418.445312 C 429.855469 419.707031 436.636719 418.144531 442.351562 413.953125 C 446.75 410.785156 449.867188 406.601562 451.535156 401.699219 Z M 285.796875 427.628906 C 283.609375 428.203125 281.410156 428.5 279.230469 428.5 C 264.003906 428.5 248.617188 414.164062 237.023438 389.164062 C 235.082031 384.972656 233.289062 380.539062 231.617188 375.9375 L 297.949219 375.9375 C 299.65625 377.421875 301.570312 378.714844 303.710938 379.75 C 306.234375 380.96875 308.496094 382.722656 310.449219 384.933594 L 285.792969 427.628906 Z M 138.144531 294.351562 L 203.375 294.351562 C 203.890625 318.8125 207.035156 341.640625 212.269531 361.699219 L 159.238281 361.699219 C 146.941406 341.957031 139.375 318.976562 138.144531 294.351562 Z M 159.230469 212.796875 L 212.265625 212.796875 C 207.035156 232.851562 203.890625 255.667969 203.375 280.117188 L 138.144531 280.117188 C 139.375 255.503906 146.9375 232.535156 159.230469 212.796875 Z M 279.230469 146 C 297.714844 146 315.199219 166.539062 326.800781 198.5625 L 231.617188 198.5625 C 233.289062 193.957031 235.082031 189.523438 237.027344 185.328125 C 248.621094 160.335938 264.003906 145.996094 279.230469 145.996094 Z M 331.351562 212.796875 C 334.511719 224.066406 336.992188 236.386719 338.632812 249.464844 C 334.253906 249.910156 330.089844 251.515625 326.335938 254.246094 C 320.566406 258.449219 316.996094 264.414062 316.007812 271.515625 C 315.601562 274.503906 314.519531 277.398438 312.816406 280.117188 L 217.613281 280.117188 C 218.144531 255.996094 221.402344 233.003906 227.050781 212.796875 Z M 415.441406 249.742188 C 414.3125 249.546875 413.183594 249.273438 412.050781 248.90625 C 408.425781 247.734375 405.328125 245.835938 402.851562 243.273438 C 397.886719 238.117188 391.492188 235.394531 384.359375 235.394531 C 377.222656 235.394531 370.804688 238.128906 365.894531 243.273438 C 363.417969 245.835938 360.320312 247.734375 356.683594 248.910156 C 355.457031 249.308594 354.234375 249.597656 353.019531 249.792969 C 351.476562 236.632812 349.15625 224.246094 346.179688 212.800781 L 399.242188 212.800781 C 406.296875 224.101562 411.808594 236.503906 415.441406 249.742188 Z M 217.613281 294.351562 L 295.789062 294.351562 C 293.4375 296.964844 291.640625 300.070312 290.496094 303.601562 C 288.292969 310.414062 288.914062 317.335938 292.289062 323.617188 C 293.949219 326.722656 294.792969 330.246094 294.792969 334.09375 C 294.792969 337.960938 293.953125 341.480469 292.296875 344.554688 C 289.386719 349.972656 288.523438 355.847656 289.738281 361.699219 L 227.054688 361.699219 C 221.402344 341.488281 218.144531 318.488281 217.613281 294.351562 Z M 317.199219 401.714844 C 318.886719 406.632812 321.988281 410.800781 326.335938 413.9375 C 332.121094 418.144531 338.90625 419.707031 345.972656 418.441406 C 348.234375 418.03125 350.546875 418.015625 352.882812 418.371094 L 332.652344 453.417969 L 325.882812 435.003906 C 324.695312 431.777344 321.375 429.863281 317.984375 430.449219 L 298.675781 433.789062 Z M 389.078125 198.5625 L 341.96875 198.5625 C 335.371094 178.753906 326.613281 162.523438 316.386719 151.019531 C 345.113281 158.917969 370.546875 175.738281 389.078125 198.5625 Z M 242.144531 150.945312 C 231.84375 162.515625 223.074219 178.832031 216.488281 198.5625 L 169.367188 198.5625 C 187.78125 175.796875 213.117188 158.851562 242.144531 150.945312 Z M 169.375 375.9375 L 216.492188 375.9375 C 223.082031 395.664062 231.851562 411.984375 242.148438 423.550781 C 213.125 415.648438 187.792969 398.703125 169.375 375.9375 Z M 218.714844 622.097656 C 205.6875 622.097656 193.585938 611.070312 192.28125 598.015625 L 190.011719 575.355469 L 442.429688 575.355469 C 442.480469 592.007812 443.679688 609.910156 454.035156 622.070312 Z M 490.664062 622.097656 L 485.8125 622.097656 C 459.246094 619.03125 456.445312 602.539062 456.691406 568.285156 C 456.703125 566.390625 455.960938 564.566406 454.625 563.222656 C 453.289062 561.875 451.46875 561.117188 449.574219 561.117188 L 262.144531 561.117188 L 262.144531 441.792969 C 267.300781 442.359375 272.53125 442.671875 277.824219 442.71875 C 277.664062 444.371094 278.085938 446.058594 279.070312 447.472656 C 280.652344 449.734375 283.402344 450.882812 286.125 450.410156 L 314.570312 445.488281 L 324.539062 472.597656 C 325.492188 475.1875 327.859375 476.996094 330.609375 477.234375 C 330.816406 477.25 331.019531 477.257812 331.222656 477.257812 C 333.746094 477.257812 336.105469 475.914062 337.382812 473.699219 L 365.664062 424.710938 C 365.730469 424.78125 365.800781 424.84375 365.867188 424.910156 C 370.785156 430.066406 377.179688 432.792969 384.359375 432.792969 C 391.539062 432.792969 397.914062 430.074219 402.871094 424.921875 C 402.941406 424.847656 403.015625 424.785156 403.085938 424.710938 L 431.363281 473.699219 C 432.640625 475.914062 435 477.257812 437.527344 477.257812 C 437.726562 477.257812 437.933594 477.25 438.136719 477.234375 C 440.890625 476.996094 443.253906 475.191406 444.210938 472.597656 L 454.179688 445.488281 L 482.625 450.410156 C 485.347656 450.882812 488.097656 449.738281 489.675781 447.472656 C 491.257812 445.207031 491.382812 442.230469 490.003906 439.839844 L 458.296875 384.9375 C 460.261719 382.714844 462.519531 380.96875 465.039062 379.75 C 471.480469 376.628906 476.046875 371.386719 478.242188 364.597656 C 480.460938 357.792969 479.835938 350.863281 476.445312 344.550781 C 474.792969 341.480469 473.953125 337.960938 473.953125 334.09375 C 473.953125 330.246094 474.792969 326.722656 476.449219 323.632812 C 479.828125 317.339844 480.453125 310.414062 478.246094 303.601562 C 476.046875 296.800781 471.480469 291.558594 464.996094 288.417969 C 461.851562 286.917969 459.101562 284.578125 456.832031 281.46875 C 454.570312 278.351562 453.183594 275.003906 452.710938 271.539062 C 451.765625 264.457031 448.191406 258.476562 442.398438 254.261719 C 438.644531 251.511719 434.464844 249.898438 430.082031 249.453125 C 428.6875 243.890625 426.992188 238.414062 424.996094 233.058594 L 547.554688 233.058594 C 535.125 243.792969 527.238281 259.648438 527.238281 277.320312 L 527.238281 333.765625 L 526.921875 585.835938 C 526.894531 605.828125 510.632812 622.09375 490.667969 622.09375 Z M 630.027344 326.65625 L 541.472656 326.65625 L 541.472656 277.320312 C 541.472656 252.914062 561.328125 233.058594 585.738281 233.058594 C 610.144531 233.058594 630.027344 252.914062 630.027344 277.320312 Z M 487.929688 499.277344 C 487.929688 503.207031 484.742188 506.394531 480.8125 506.394531 L 308.28125 506.394531 C 304.347656 506.394531 301.160156 503.207031 301.160156 499.277344 C 301.160156 495.347656 304.347656 492.160156 308.28125 492.160156 L 480.8125 492.160156 C 484.742188 492.160156 487.929688 495.347656 487.929688 499.277344 Z M 487.929688 538.410156 C 487.929688 542.339844 484.742188 545.527344 480.8125 545.527344 L 308.28125 545.527344 C 304.347656 545.527344 301.160156 542.339844 301.160156 538.410156 C 301.160156 534.480469 304.347656 531.292969 308.28125 531.292969 L 480.8125 531.292969 C 484.742188 531.292969 487.929688 534.480469 487.929688 538.410156 Z M 412.128906 313.785156 C 414.90625 316.566406 414.90625 321.070312 412.128906 323.851562 L 381.582031 354.398438 C 380.191406 355.789062 378.371094 356.484375 376.546875 356.484375 C 374.726562 356.484375 372.90625 355.789062 371.515625 354.398438 L 356.617188 339.5 C 353.835938 336.71875 353.835938 332.214844 356.617188 329.433594 C 359.394531 326.652344 363.902344 326.652344 366.679688 329.433594 L 376.546875 339.300781 L 402.0625 313.785156 C 404.839844 311.003906 409.347656 311.003906 412.125 313.785156 Z M 384.359375 270.289062 C 349.191406 270.289062 320.585938 298.910156 320.585938 334.09375 C 320.585938 369.273438 349.195312 397.894531 384.359375 397.894531 C 419.519531 397.894531 448.160156 369.273438 448.160156 334.09375 C 448.160156 298.910156 419.539062 270.289062 384.359375 270.289062 Z M 384.359375 383.660156 C 357.042969 383.660156 334.820312 361.421875 334.820312 334.09375 C 334.820312 306.761719 357.042969 284.523438 384.359375 284.523438 C 411.671875 284.523438 433.925781 306.761719 433.925781 334.09375 C 433.925781 361.421875 411.6875 383.660156 384.359375 383.660156 Z M 384.359375 383.660156 " fill-opacity="1" fill-rule="nonzero"/></g></svg>