<svg xmlns="http://www.w3.org/2000/svg" xmlns:xlink="http://www.w3.org/1999/xlink" width="1024" zoomAndPan="magnify" viewBox="0 0 768 767.999994" height="1024" preserveAspectRatio="xMidYMid meet" version="1.0"><defs><clipPath id="8a167e85b7"><path d="M 134.785156 527 L 241 527 L 241 633.535156 L 134.785156 633.535156 Z M 134.785156 527 " clip-rule="nonzero"/></clipPath><clipPath id="ed352fc81b"><path d="M 134.785156 270 L 377 270 L 377 423 L 134.785156 423 Z M 134.785156 270 " clip-rule="nonzero"/></clipPath><clipPath id="554fd6b5a4"><path d="M 429 429 L 633.535156 429 L 633.535156 559 L 429 559 Z M 429 429 " clip-rule="nonzero"/></clipPath><clipPath id="43649297ea"><path d="M 448 543 L 614 543 L 614 633.535156 L 448 633.535156 Z M 448 543 " clip-rule="nonzero"/></clipPath><clipPath id="c259c88b07"><path d="M 467 134.785156 L 633.535156 134.785156 L 633.535156 242 L 467 242 Z M 467 134.785156 " clip-rule="nonzero"/></clipPath></defs><path fill="#f4f6ea" d="M 293.371094 255.613281 C 289.21875 255.613281 285.820312 252.214844 285.820312 248.0625 C 285.820312 227.21875 268.90625 210.300781 248.0625 210.300781 C 243.90625 210.300781 240.511719 206.902344 240.511719 202.75 C 240.511719 198.597656 243.90625 195.199219 248.0625 195.199219 C 268.90625 195.199219 285.820312 178.28125 285.820312 157.441406 C 285.820312 153.285156 289.21875 149.886719 293.371094 149.886719 C 297.527344 149.886719 300.925781 153.285156 300.925781 157.441406 C 300.925781 178.28125 317.839844 195.199219 338.683594 195.199219 C 342.835938 195.199219 346.234375 198.597656 346.234375 202.75 C 346.234375 206.902344 342.835938 210.300781 338.683594 210.300781 C 317.839844 210.300781 300.925781 227.21875 300.925781 248.0625 C 300.925781 252.214844 297.527344 255.613281 293.371094 255.613281 Z M 275.25 202.75 C 282.648438 207.207031 288.917969 213.472656 293.371094 220.875 C 297.828125 213.472656 304.097656 207.207031 311.496094 202.75 C 304.097656 198.296875 297.828125 192.027344 293.371094 184.625 C 288.917969 192.027344 282.648438 198.296875 275.25 202.75 Z M 275.25 202.75 " fill-opacity="1" fill-rule="nonzero"/><g clip-path="url(#8a167e85b7)"><path fill="#f4f6ea" d="M 187.648438 633.207031 C 183.492188 633.207031 180.09375 629.808594 180.09375 625.652344 C 180.09375 604.8125 163.179688 587.894531 142.335938 587.894531 C 138.183594 587.894531 134.785156 584.496094 134.785156 580.34375 C 134.785156 576.1875 138.183594 572.789062 142.335938 572.789062 C 163.179688 572.789062 180.09375 555.875 180.09375 535.03125 C 180.09375 530.878906 183.492188 527.480469 187.648438 527.480469 C 191.800781 527.480469 195.199219 530.878906 195.199219 535.03125 C 195.199219 555.875 212.113281 572.789062 232.957031 572.789062 C 237.113281 572.789062 240.511719 576.1875 240.511719 580.34375 C 240.511719 584.496094 237.113281 587.894531 232.957031 587.894531 C 212.113281 587.894531 195.199219 604.8125 195.199219 625.652344 C 195.199219 629.808594 191.800781 633.207031 187.648438 633.207031 Z M 169.523438 580.34375 C 176.921875 584.796875 183.191406 591.066406 187.648438 598.46875 C 192.101562 591.066406 198.371094 584.796875 205.769531 580.34375 C 198.371094 575.886719 192.101562 569.621094 187.648438 562.21875 C 183.191406 569.621094 176.921875 575.886719 169.523438 580.34375 Z M 169.523438 580.34375 " fill-opacity="1" fill-rule="nonzero"/></g><path fill="#f4f6ea" d="M 451.960938 429.304688 C 447.808594 429.304688 444.410156 425.90625 444.410156 421.753906 C 444.410156 405.066406 430.890625 391.546875 414.203125 391.546875 C 410.046875 391.546875 406.652344 388.148438 406.652344 383.996094 C 406.652344 379.839844 410.046875 376.441406 414.203125 376.441406 C 430.890625 376.441406 444.410156 362.925781 444.410156 346.234375 C 444.410156 342.082031 447.808594 338.683594 451.960938 338.683594 C 456.113281 338.683594 459.511719 342.082031 459.511719 346.234375 C 459.511719 362.925781 473.03125 376.441406 489.722656 376.441406 C 493.875 376.441406 497.273438 379.839844 497.273438 383.996094 C 497.273438 388.148438 493.875 391.546875 489.722656 391.546875 C 473.03125 391.546875 459.511719 405.066406 459.511719 421.753906 C 459.511719 425.90625 456.113281 429.304688 451.960938 429.304688 Z M 439.199219 383.996094 C 444.257812 387.316406 448.5625 391.699219 451.960938 396.757812 C 455.285156 391.699219 459.664062 387.394531 464.722656 383.996094 C 459.664062 380.671875 455.359375 376.292969 451.960938 371.230469 C 448.640625 376.292969 444.257812 380.597656 439.199219 383.996094 Z M 439.199219 383.996094 " fill-opacity="1" fill-rule="nonzero"/><g clip-path="url(#ed352fc81b)"><path fill="#f4f6ea" d="M 366.324219 422.734375 C 365.796875 422.734375 365.191406 422.734375 364.664062 422.585938 C 360.585938 421.679688 358.015625 417.601562 358.921875 413.597656 C 360.507812 406.425781 361.339844 399.023438 361.339844 391.546875 C 361.339844 333.246094 313.914062 285.820312 255.613281 285.820312 C 197.3125 285.820312 149.886719 333.246094 149.886719 391.546875 C 149.886719 398.949219 150.71875 406.347656 152.304688 413.597656 C 153.210938 417.675781 150.644531 421.679688 146.566406 422.585938 C 142.488281 423.492188 138.484375 420.921875 137.578125 416.84375 C 135.691406 408.613281 134.785156 400.082031 134.785156 391.546875 C 134.785156 324.9375 189.007812 270.71875 255.613281 270.71875 C 322.222656 270.71875 376.441406 324.9375 376.441406 391.546875 C 376.441406 400.082031 375.535156 408.613281 373.648438 416.84375 C 372.894531 420.320312 369.722656 422.734375 366.324219 422.734375 Z M 366.324219 422.734375 " fill-opacity="1" fill-rule="nonzero"/></g><path fill="#f4f6ea" d="M 255.613281 512.375 C 217.550781 512.375 182.511719 495.007812 159.480469 464.648438 C 157.441406 461.929688 157.441406 458.230469 159.480469 455.511719 C 182.511719 425.226562 217.550781 407.78125 255.613281 407.78125 C 293.675781 407.78125 328.714844 425.152344 351.75 455.511719 C 353.789062 458.230469 353.789062 461.929688 351.75 464.648438 C 328.714844 494.929688 293.597656 512.375 255.613281 512.375 Z M 175.1875 460.117188 C 195.351562 483.832031 224.347656 497.273438 255.613281 497.273438 C 286.878906 497.273438 315.953125 483.832031 336.039062 460.117188 C 315.878906 436.40625 286.878906 422.960938 255.613281 422.960938 C 224.347656 422.960938 195.273438 436.40625 175.1875 460.117188 Z M 175.1875 460.117188 " fill-opacity="1" fill-rule="nonzero"/><path fill="#f4f6ea" d="M 255.613281 422.960938 C 225.179688 422.960938 200.335938 398.191406 200.335938 367.683594 C 200.335938 337.171875 225.105469 312.402344 255.613281 312.402344 C 286.121094 312.402344 310.894531 337.171875 310.894531 367.683594 C 310.894531 398.191406 286.121094 422.960938 255.613281 422.960938 Z M 255.613281 327.582031 C 233.488281 327.582031 215.4375 345.554688 215.4375 367.757812 C 215.4375 389.960938 233.410156 407.933594 255.613281 407.933594 C 277.816406 407.933594 295.789062 389.960938 295.789062 367.757812 C 295.789062 345.554688 277.816406 327.582031 255.613281 327.582031 Z M 255.613281 327.582031 " fill-opacity="1" fill-rule="nonzero"/><g clip-path="url(#554fd6b5a4)"><path fill="#f4f6ea" d="M 623.464844 558.519531 C 622.933594 558.519531 622.332031 558.519531 621.800781 558.367188 C 617.722656 557.460938 615.15625 553.382812 616.0625 549.378906 C 617.347656 543.488281 618.027344 537.449219 618.027344 531.332031 C 618.027344 483.453125 579.058594 444.484375 531.179688 444.484375 C 483.300781 444.484375 444.335938 483.453125 444.335938 531.332031 C 444.335938 537.449219 445.015625 543.566406 446.296875 549.378906 C 447.203125 553.457031 444.636719 557.460938 440.558594 558.367188 C 436.480469 559.273438 432.476562 556.707031 431.570312 552.628906 C 429.984375 545.679688 429.230469 538.429688 429.230469 531.253906 C 429.230469 475.070312 474.996094 429.304688 531.179688 429.304688 C 587.367188 429.304688 633.128906 475.070312 633.128906 531.253906 C 633.128906 538.503906 632.375 545.679688 630.789062 552.628906 C 630.035156 556.101562 626.863281 558.519531 623.464844 558.519531 Z M 623.464844 558.519531 " fill-opacity="1" fill-rule="nonzero"/></g><g clip-path="url(#43649297ea)"><path fill="#f4f6ea" d="M 531.257812 633.207031 C 499.160156 633.207031 469.558594 618.554688 450.148438 592.953125 C 448.109375 590.234375 448.109375 586.535156 450.148438 583.816406 C 469.632812 558.214844 499.160156 543.566406 531.257812 543.566406 C 563.351562 543.566406 592.953125 558.214844 612.363281 583.816406 C 614.402344 586.535156 614.402344 590.234375 612.363281 592.953125 C 592.878906 618.554688 563.351562 633.207031 531.257812 633.207031 Z M 465.855469 588.421875 C 482.394531 607.378906 505.882812 618.101562 531.257812 618.101562 C 556.628906 618.101562 580.117188 607.378906 596.65625 588.421875 C 580.117188 569.46875 556.628906 558.746094 531.257812 558.746094 C 505.882812 558.746094 482.394531 569.46875 465.855469 588.421875 Z M 465.855469 588.421875 " fill-opacity="1" fill-rule="nonzero"/></g><path fill="#f4f6ea" d="M 531.257812 558.667969 C 505.203125 558.667969 483.980469 537.449219 483.980469 511.394531 C 483.980469 485.339844 505.203125 464.121094 531.257812 464.121094 C 557.308594 464.121094 578.53125 485.339844 578.53125 511.394531 C 578.53125 537.449219 557.308594 558.667969 531.257812 558.667969 Z M 531.257812 479.222656 C 513.507812 479.222656 499.085938 493.648438 499.085938 511.394531 C 499.085938 529.140625 513.507812 543.566406 531.257812 543.566406 C 549.003906 543.566406 563.425781 529.140625 563.425781 511.394531 C 563.425781 493.648438 549.003906 479.222656 531.257812 479.222656 Z M 531.257812 479.222656 " fill-opacity="1" fill-rule="nonzero"/><g clip-path="url(#c259c88b07)"><path fill="#f4f6ea" d="M 623.917969 241.1875 C 623.386719 241.1875 622.785156 241.1875 622.253906 241.039062 C 618.175781 240.132812 615.609375 236.054688 616.515625 232.050781 C 617.574219 227.445312 618.101562 222.6875 618.101562 217.929688 C 618.101562 180.472656 587.59375 149.964844 550.136719 149.964844 C 512.679688 149.964844 482.167969 180.472656 482.167969 217.929688 C 482.167969 222.6875 482.699219 227.445312 483.753906 232.050781 C 484.660156 236.128906 482.09375 240.132812 478.015625 241.039062 C 473.9375 241.945312 469.933594 239.378906 469.027344 235.300781 C 467.746094 229.636719 467.140625 223.746094 467.140625 217.855469 C 467.140625 172.015625 504.371094 134.785156 550.210938 134.785156 C 596.050781 134.785156 633.28125 172.015625 633.28125 217.855469 C 633.28125 223.746094 632.601562 229.636719 631.394531 235.300781 C 630.636719 238.847656 627.464844 241.1875 624.066406 241.1875 Z M 623.917969 241.1875 " fill-opacity="1" fill-rule="nonzero"/></g><path fill="#f4f6ea" d="M 550.136719 300.925781 C 524.007812 300.925781 499.914062 288.992188 484.058594 268.148438 C 482.019531 265.429688 482.019531 261.730469 484.058594 259.011719 C 499.914062 238.167969 524.007812 226.238281 550.136719 226.238281 C 576.265625 226.238281 600.355469 238.167969 616.214844 259.011719 C 618.253906 261.730469 618.253906 265.429688 616.214844 268.148438 C 600.355469 288.992188 576.265625 300.925781 550.136719 300.925781 Z M 499.839844 263.542969 C 512.679688 277.742188 530.726562 285.820312 550.136719 285.820312 C 569.542969 285.820312 587.59375 277.742188 600.429688 263.542969 C 587.59375 249.34375 569.542969 241.265625 550.136719 241.265625 C 530.726562 241.265625 512.679688 249.269531 499.839844 263.542969 Z M 499.839844 263.542969 " fill-opacity="1" fill-rule="nonzero"/><path fill="#f4f6ea" d="M 550.136719 241.339844 C 528.460938 241.339844 510.789062 223.667969 510.789062 201.996094 C 510.789062 180.320312 528.460938 162.648438 550.136719 162.648438 C 571.808594 162.648438 589.480469 180.320312 589.480469 201.996094 C 589.480469 223.667969 571.808594 241.339844 550.136719 241.339844 Z M 550.136719 177.679688 C 536.769531 177.679688 525.894531 188.554688 525.894531 201.917969 C 525.894531 215.285156 536.769531 226.160156 550.136719 226.160156 C 563.503906 226.160156 574.378906 215.285156 574.378906 201.917969 C 574.378906 188.554688 563.503906 177.679688 550.136719 177.679688 Z M 550.136719 177.679688 " fill-opacity="1" fill-rule="nonzero"/><path fill="#f4f6ea" d="M 383.996094 336.644531 C 380.898438 336.644531 378.027344 334.757812 376.894531 331.734375 C 375.460938 327.808594 377.425781 323.503906 381.351562 322.070312 L 508.375 275.324219 C 512.300781 273.890625 516.605469 275.851562 518.039062 279.78125 C 519.476562 283.707031 517.4375 288.011719 513.585938 289.445312 L 386.5625 336.191406 C 385.730469 336.492188 384.824219 336.644531 383.917969 336.644531 Z M 383.996094 336.644531 " fill-opacity="1" fill-rule="nonzero"/><path fill="#f4f6ea" d="M 414.203125 497.875 C 413.75 497.875 413.21875 497.875 412.765625 497.726562 L 331.28125 481.941406 C 327.203125 481.1875 324.488281 477.183594 325.316406 473.105469 C 326.148438 469.027344 330.074219 466.308594 334.152344 467.140625 L 415.636719 482.925781 C 419.714844 483.679688 422.433594 487.683594 421.601562 491.757812 C 420.921875 495.382812 417.75 497.875 414.203125 497.875 Z M 414.203125 497.875 " fill-opacity="1" fill-rule="nonzero"/><path fill="#f4f6ea" d="M 572.792969 383.996094 C 556.101562 383.996094 542.582031 370.476562 542.582031 353.789062 C 542.582031 337.097656 556.101562 323.582031 572.792969 323.582031 C 589.480469 323.582031 603 337.097656 603 353.789062 C 603 370.476562 589.480469 383.996094 572.792969 383.996094 Z M 572.792969 338.683594 C 564.484375 338.683594 557.6875 345.480469 557.6875 353.789062 C 557.6875 362.09375 564.484375 368.890625 572.792969 368.890625 C 581.097656 368.890625 587.894531 362.09375 587.894531 353.789062 C 587.894531 345.480469 581.097656 338.683594 572.792969 338.683594 Z M 572.792969 338.683594 " fill-opacity="1" fill-rule="nonzero"/><path fill="#f4f6ea" d="M 548.625 445.996094 C 547.945312 445.996094 547.265625 445.921875 546.585938 445.695312 C 542.582031 444.5625 540.242188 440.332031 541.375 436.328125 L 559.347656 373.421875 C 560.480469 369.417969 564.710938 367.152344 568.714844 368.210938 C 572.714844 369.34375 575.058594 373.574219 573.925781 377.574219 L 555.949219 440.484375 C 554.96875 443.804688 551.949219 445.996094 548.699219 445.996094 Z M 548.625 445.996094 " fill-opacity="1" fill-rule="nonzero"/><path fill="#f4f6ea" d="M 366.398438 577.625 C 363.679688 577.625 361.113281 576.1875 359.753906 573.621094 C 357.789062 569.921875 359.148438 565.390625 362.851562 563.425781 L 433.308594 525.441406 C 437.007812 523.476562 441.539062 524.835938 443.503906 528.539062 C 445.46875 532.238281 444.109375 536.769531 440.40625 538.730469 L 369.949219 576.71875 C 368.816406 577.320312 367.605469 577.625 366.398438 577.625 Z M 366.398438 577.625 " fill-opacity="1" fill-rule="nonzero"/><path fill="#f4f6ea" d="M 346.234375 610.550781 C 329.546875 610.550781 316.027344 597.03125 316.027344 580.34375 C 316.027344 563.652344 329.546875 550.136719 346.234375 550.136719 C 362.925781 550.136719 376.441406 563.652344 376.441406 580.34375 C 376.441406 597.03125 362.925781 610.550781 346.234375 610.550781 Z M 346.234375 565.238281 C 337.929688 565.238281 331.132812 572.035156 331.132812 580.34375 C 331.132812 588.648438 337.929688 595.445312 346.234375 595.445312 C 354.542969 595.445312 361.339844 588.648438 361.339844 580.34375 C 361.339844 572.035156 354.542969 565.238281 346.234375 565.238281 Z M 346.234375 565.238281 " fill-opacity="1" fill-rule="nonzero"/><path fill="#f4f6ea" d="M 478.542969 201.542969 C 478.542969 201.542969 478.015625 201.542969 477.714844 201.542969 L 420.921875 195.199219 C 416.769531 194.746094 413.824219 190.96875 414.277344 186.816406 C 414.730469 182.664062 418.507812 179.71875 422.660156 180.171875 L 479.449219 186.515625 C 483.605469 186.96875 486.550781 190.742188 486.097656 194.898438 C 485.644531 198.75 482.394531 201.617188 478.621094 201.617188 Z M 478.542969 201.542969 " fill-opacity="1" fill-rule="nonzero"/><path fill="#f4f6ea" d="M 399.097656 217.855469 C 382.410156 217.855469 368.890625 204.335938 368.890625 187.648438 C 368.890625 170.957031 382.410156 157.441406 399.097656 157.441406 C 415.789062 157.441406 429.304688 170.957031 429.304688 187.648438 C 429.304688 204.335938 415.789062 217.855469 399.097656 217.855469 Z M 399.097656 172.542969 C 390.792969 172.542969 383.996094 179.339844 383.996094 187.648438 C 383.996094 195.953125 390.792969 202.75 399.097656 202.75 C 407.40625 202.75 414.203125 195.953125 414.203125 187.648438 C 414.203125 179.339844 407.40625 172.542969 399.097656 172.542969 Z M 399.097656 172.542969 " fill-opacity="1" fill-rule="nonzero"/></svg>