<svg xmlns="http://www.w3.org/2000/svg" xmlns:xlink="http://www.w3.org/1999/xlink" width="1024" zoomAndPan="magnify" viewBox="0 0 768 767.999994" height="1024" preserveAspectRatio="xMidYMid meet" version="1.0"><defs><clipPath id="f77fa188be"><path d="M 139 131.160156 L 384 131.160156 L 384 615.660156 L 139 615.660156 Z M 139 131.160156 " clip-rule="nonzero"/></clipPath><clipPath id="d62f38653d"><path d="M 395 244 L 586 244 L 586 615.660156 L 395 615.660156 Z M 395 244 " clip-rule="nonzero"/></clipPath><clipPath id="68334c5776"><path d="M 395 131.160156 L 557 131.160156 L 557 277 L 395 277 Z M 395 131.160156 " clip-rule="nonzero"/></clipPath><clipPath id="dc1edb1a25"><path d="M 395 489 L 516 489 L 516 615.660156 L 395 615.660156 Z M 395 489 " clip-rule="nonzero"/></clipPath></defs><g clip-path="url(#f77fa188be)"><path fill="#f4f6ea" d="M 377.113281 615.714844 L 356.320312 615.714844 C 352.566406 615.714844 349.585938 612.730469 349.585938 608.976562 C 349.585938 605.222656 352.566406 602.238281 356.320312 602.238281 L 370.375 602.238281 L 370.375 144.925781 C 346.3125 145.597656 262.28125 151.664062 220.792969 203.351562 C 196.632812 233.480469 190.664062 274.582031 203.273438 325.5 C 203.753906 327.234375 203.371094 329.160156 202.40625 330.699219 L 154.472656 407.609375 C 151.96875 411.652344 151.777344 416.5625 154.085938 420.699219 C 156.398438 424.933594 160.730469 427.4375 165.542969 427.4375 L 178.921875 427.4375 C 183.542969 427.4375 187.777344 429.554688 190.664062 433.214844 C 193.457031 436.871094 194.417969 441.492188 193.261719 445.917969 L 189.414062 460.644531 C 189.316406 461.03125 189.414062 461.511719 189.703125 461.800781 L 192.398438 464.785156 C 197.304688 470.273438 197.5 478.550781 192.6875 484.230469 C 192.398438 484.613281 192.398438 485 192.398438 485.191406 C 192.398438 485.480469 192.589844 485.769531 192.972656 486.058594 L 201.445312 491.832031 C 206.066406 494.914062 208.566406 500.59375 207.796875 506.078125 L 204.71875 528.027344 C 203.851562 533.898438 205.679688 539.867188 209.722656 544.292969 C 213.765625 548.722656 219.542969 551.128906 225.605469 550.933594 L 266.320312 549.296875 C 282.398438 548.625 296.835938 558.925781 301.550781 574.324219 L 310.40625 603.492188 C 311.464844 607.050781 309.445312 610.804688 305.882812 611.867188 C 302.320312 612.925781 298.566406 610.902344 297.507812 607.339844 L 288.652344 578.175781 C 285.765625 568.742188 276.8125 562.390625 266.898438 562.773438 L 226.183594 564.410156 C 216.171875 564.796875 206.546875 560.753906 199.808594 553.339844 C 193.070312 545.929688 190.085938 536.015625 191.433594 526.195312 L 194.515625 504.25 C 194.515625 503.769531 194.320312 503.289062 193.9375 503 L 185.464844 497.222656 C 182 494.914062 179.691406 491.160156 179.113281 487.019531 C 178.535156 482.882812 179.789062 478.644531 182.484375 475.46875 C 182.867188 474.988281 182.867188 474.316406 182.484375 473.832031 L 179.789062 470.847656 C 176.417969 467.09375 175.167969 461.992188 176.417969 457.179688 L 180.269531 442.453125 C 180.363281 441.972656 180.269531 441.585938 180.074219 441.394531 C 179.882812 441.203125 179.59375 440.914062 179.015625 440.914062 L 165.636719 440.914062 C 155.820312 440.914062 147.15625 435.8125 142.441406 427.246094 C 137.722656 418.773438 138.011719 408.765625 143.113281 400.484375 L 189.605469 325.984375 C 176.898438 271.984375 183.925781 227.898438 210.398438 194.882812 C 232.34375 167.640625 268.152344 148.003906 314.160156 138.1875 C 348.523438 130.871094 376.152344 131.449219 377.304688 131.449219 C 380.964844 131.449219 383.851562 134.527344 383.851562 138.1875 L 383.851562 609.074219 C 383.851562 612.828125 380.867188 615.8125 377.113281 615.8125 Z M 377.113281 615.714844 " fill-opacity="1" fill-rule="nonzero"/></g><g clip-path="url(#d62f38653d)"><path fill="#f4f6ea" d="M 426.398438 615.714844 L 401.949219 615.714844 C 398.195312 615.714844 395.210938 612.730469 395.210938 608.976562 L 395.210938 301.148438 C 395.210938 297.394531 398.195312 294.410156 401.949219 294.410156 L 488.769531 294.410156 L 536.898438 246.476562 C 538.152344 245.222656 539.882812 244.550781 541.617188 244.550781 L 578.675781 244.550781 C 582.429688 244.550781 585.414062 247.535156 585.414062 251.289062 C 585.414062 255.042969 582.429688 258.027344 578.675781 258.027344 L 544.40625 258.027344 L 496.28125 305.960938 C 495.027344 307.214844 493.296875 307.886719 491.5625 307.886719 L 408.6875 307.886719 L 408.6875 602.238281 L 426.398438 602.238281 C 430.152344 602.238281 433.136719 605.222656 433.136719 608.976562 C 433.136719 612.730469 430.152344 615.714844 426.398438 615.714844 Z M 426.398438 615.714844 " fill-opacity="1" fill-rule="nonzero"/></g><g clip-path="url(#68334c5776)"><path fill="#f4f6ea" d="M 432.074219 276.21875 L 401.949219 276.21875 C 398.195312 276.21875 395.210938 273.234375 395.210938 269.480469 L 395.210938 138.089844 C 395.210938 134.625 397.90625 131.640625 401.371094 131.351562 C 402.429688 131.351562 427.070312 129.332031 458.546875 139.4375 C 487.617188 148.773438 528.042969 170.625 556.054688 221.640625 C 557.882812 224.914062 556.632812 228.957031 553.359375 230.785156 C 550.085938 232.613281 546.042969 231.363281 544.214844 228.089844 C 523.519531 190.453125 493.488281 165.042969 454.890625 152.433594 C 434.769531 145.886719 417.445312 144.730469 408.589844 144.636719 L 408.589844 262.742188 L 429.1875 262.742188 L 441.894531 250.132812 C 444.492188 247.535156 448.824219 247.535156 451.421875 250.132812 C 454.023438 252.730469 454.023438 257.0625 451.421875 259.664062 L 436.792969 274.292969 C 435.542969 275.542969 433.808594 276.21875 432.074219 276.21875 Z M 432.074219 276.21875 " fill-opacity="1" fill-rule="nonzero"/></g><path fill="#f4f6ea" d="M 601.296875 279.203125 C 586.085938 279.203125 573.667969 266.882812 573.667969 251.671875 C 573.667969 236.464844 586.085938 224.144531 601.296875 224.144531 C 616.503906 224.144531 628.921875 236.464844 628.921875 251.671875 C 628.921875 266.882812 616.503906 279.203125 601.296875 279.203125 Z M 601.296875 237.621094 C 593.5 237.621094 587.144531 243.972656 587.144531 251.671875 C 587.144531 259.375 593.5 265.726562 601.296875 265.726562 C 609.09375 265.726562 615.445312 259.375 615.445312 251.671875 C 615.445312 243.972656 609.09375 237.621094 601.296875 237.621094 Z M 601.296875 237.621094 " fill-opacity="1" fill-rule="nonzero"/><path fill="#f4f6ea" d="M 601.296875 369.296875 C 586.085938 369.296875 573.667969 356.976562 573.667969 341.769531 C 573.667969 326.5625 586.085938 314.238281 601.296875 314.238281 C 616.503906 314.238281 628.921875 326.5625 628.921875 341.769531 C 628.921875 356.976562 616.503906 369.296875 601.296875 369.296875 Z M 601.296875 327.621094 C 593.5 327.621094 587.144531 333.972656 587.144531 341.671875 C 587.144531 349.375 593.5 355.726562 601.296875 355.726562 C 609.09375 355.726562 615.445312 349.375 615.445312 341.671875 C 615.445312 333.972656 609.09375 327.621094 601.296875 327.621094 Z M 601.296875 327.621094 " fill-opacity="1" fill-rule="nonzero"/><path fill="#f4f6ea" d="M 586.566406 443.511719 C 571.359375 443.511719 558.941406 431.191406 558.941406 415.984375 C 558.941406 400.773438 571.359375 388.453125 586.566406 388.453125 C 601.777344 388.453125 614.195312 400.773438 614.195312 415.984375 C 614.195312 431.191406 601.777344 443.511719 586.566406 443.511719 Z M 586.566406 401.929688 C 578.769531 401.929688 572.417969 408.28125 572.417969 415.984375 C 572.417969 423.683594 578.769531 430.035156 586.566406 430.035156 C 594.363281 430.035156 600.71875 423.683594 600.71875 415.984375 C 600.71875 408.28125 594.363281 401.929688 586.566406 401.929688 Z M 586.566406 401.929688 " fill-opacity="1" fill-rule="nonzero"/><path fill="#f4f6ea" d="M 529.488281 495.492188 C 514.28125 495.492188 501.863281 483.171875 501.863281 467.960938 C 501.863281 452.753906 514.277344 440.433594 529.488281 440.433594 C 544.695312 440.433594 557.113281 452.753906 557.113281 467.960938 C 557.113281 483.171875 544.695312 495.492188 529.488281 495.492188 Z M 529.488281 453.8125 C 521.691406 453.8125 515.339844 460.164062 515.339844 467.867188 C 515.339844 475.566406 521.691406 481.917969 529.488281 481.917969 C 537.285156 481.917969 543.636719 475.566406 543.636719 467.867188 C 543.636719 460.164062 537.285156 453.8125 529.488281 453.8125 Z M 529.488281 453.8125 " fill-opacity="1" fill-rule="nonzero"/><path fill="#f4f6ea" d="M 457.871094 264.859375 C 442.664062 264.859375 430.246094 252.539062 430.246094 237.332031 C 430.246094 222.121094 442.664062 209.800781 457.871094 209.800781 C 473.082031 209.800781 485.5 222.121094 485.5 237.332031 C 485.5 252.539062 473.082031 264.859375 457.871094 264.859375 Z M 457.871094 223.179688 C 450.074219 223.179688 443.722656 229.535156 443.722656 237.234375 C 443.722656 244.933594 450.074219 251.289062 457.871094 251.289062 C 465.667969 251.289062 472.023438 244.933594 472.023438 237.234375 C 472.023438 229.535156 465.667969 223.179688 457.871094 223.179688 Z M 457.871094 223.179688 " fill-opacity="1" fill-rule="nonzero"/><path fill="#f4f6ea" d="M 578.675781 348.410156 L 401.949219 348.410156 C 398.195312 348.410156 395.210938 345.425781 395.210938 341.671875 C 395.210938 337.917969 398.195312 334.933594 401.949219 334.933594 L 578.675781 334.933594 C 582.429688 334.933594 585.414062 337.917969 585.414062 341.671875 C 585.414062 345.425781 582.429688 348.410156 578.675781 348.410156 Z M 578.675781 348.410156 " fill-opacity="1" fill-rule="nonzero"/><path fill="#f4f6ea" d="M 566.449219 416.945312 C 565.777344 416.945312 565.101562 416.945312 564.523438 416.65625 L 507.636719 399.332031 L 402.042969 399.332031 C 398.289062 399.332031 395.304688 396.347656 395.304688 392.59375 C 395.304688 388.839844 398.289062 385.855469 402.042969 385.855469 L 508.695312 385.855469 C 509.371094 385.855469 510.042969 385.949219 510.621094 386.144531 L 568.472656 403.757812 C 572.035156 404.816406 574.054688 408.570312 572.996094 412.132812 C 572.128906 415.019531 569.433594 416.945312 566.546875 416.945312 Z M 566.449219 416.945312 " fill-opacity="1" fill-rule="nonzero"/><path fill="#f4f6ea" d="M 509.660156 467.671875 C 508.3125 467.671875 506.867188 467.289062 505.710938 466.421875 L 469.519531 440.046875 L 401.949219 440.046875 C 398.195312 440.046875 395.210938 437.0625 395.210938 433.308594 C 395.210938 429.554688 398.195312 426.570312 401.949219 426.570312 L 471.734375 426.570312 C 473.175781 426.570312 474.523438 427.050781 475.679688 427.824219 L 513.703125 455.542969 C 516.6875 457.757812 517.359375 461.992188 515.144531 464.976562 C 513.796875 466.804688 511.777344 467.769531 509.660156 467.769531 Z M 509.660156 467.671875 " fill-opacity="1" fill-rule="nonzero"/><g clip-path="url(#dc1edb1a25)"><path fill="#f4f6ea" d="M 508.601562 615.714844 C 506.867188 615.714844 505.230469 615.042969 503.882812 613.789062 L 488 598.390625 C 486.847656 597.234375 486.171875 595.789062 485.980469 594.25 L 480.011719 534.667969 L 448.246094 503 L 401.851562 503 C 398.097656 503 395.113281 500.015625 395.113281 496.261719 C 395.113281 492.507812 398.097656 489.523438 401.851562 489.523438 L 450.941406 489.523438 C 452.769531 489.523438 454.40625 490.195312 455.660156 491.449219 L 491.175781 526.773438 C 492.238281 527.832031 493.007812 529.375 493.101562 530.914062 L 499.070312 590.496094 L 513.125 604.164062 C 515.820312 606.765625 515.820312 611 513.21875 613.695312 C 511.871094 615.042969 510.140625 615.714844 508.40625 615.714844 Z M 508.601562 615.714844 " fill-opacity="1" fill-rule="nonzero"/></g></svg>