<svg xmlns="http://www.w3.org/2000/svg" xmlns:xlink="http://www.w3.org/1999/xlink" width="1024" zoomAndPan="magnify" viewBox="0 0 768 767.999994" height="1024" preserveAspectRatio="xMidYMid meet" version="1.0"><defs><clipPath id="a63bd54473"><path d="M 145.921875 152.0625 L 628.171875 152.0625 L 628.171875 634.3125 L 145.921875 634.3125 Z M 145.921875 152.0625 " clip-rule="nonzero"/></clipPath></defs><g clip-path="url(#a63bd54473)"><path fill="#f4f6ea" d="M 473.363281 221.757812 C 474.882812 218.816406 478.515625 217.664062 481.457031 219.183594 C 552.832031 256.1875 597.777344 328.242188 599.800781 408.222656 L 614.128906 392.683594 C 616.378906 390.242188 620.171875 390.089844 622.613281 392.332031 C 625.054688 394.582031 625.203125 398.375 622.964844 400.816406 L 598.117188 427.773438 C 596.9375 429.054688 595.316406 429.703125 593.707031 429.703125 C 593.253906 429.703125 592.804688 429.636719 592.355469 429.535156 C 592.125 429.484375 591.90625 429.425781 591.683594 429.34375 C 591.59375 429.316406 591.515625 429.273438 591.425781 429.246094 C 590.671875 428.945312 590.011719 428.503906 589.453125 427.945312 L 562.675781 403.269531 C 560.234375 401.015625 560.085938 397.226562 562.328125 394.785156 C 564.578125 392.34375 568.371094 392.191406 570.8125 394.433594 L 587.851562 410.132812 C 586.511719 333.894531 543.886719 265.054688 475.941406 229.832031 C 472.992188 228.320312 471.839844 224.699219 473.363281 221.757812 Z M 492.484375 588.300781 C 459.164062 609.695312 420.527344 620.992188 380.746094 620.992188 C 345.414062 620.992188 310.980469 612.066406 280.371094 595.085938 L 302.527344 588.171875 C 305.6875 587.183594 307.460938 583.820312 306.46875 580.648438 C 305.476562 577.484375 302.117188 575.714844 298.945312 576.707031 L 264.003906 587.613281 C 263.601562 587.730469 263.210938 587.890625 262.84375 588.09375 C 260.378906 589.433594 259.128906 592.363281 260 595.148438 L 270.925781 630.148438 C 271.726562 632.71875 274.097656 634.359375 276.660156 634.359375 C 277.25 634.359375 277.851562 634.269531 278.453125 634.089844 C 281.613281 633.101562 283.382812 629.738281 282.394531 626.566406 L 276.109375 606.453125 C 308.101562 623.863281 343.953125 633 380.734375 633 C 422.820312 633 463.707031 621.03125 498.957031 598.398438 C 501.75 596.609375 502.558594 592.894531 500.769531 590.105469 C 498.988281 587.3125 495.273438 586.5 492.484375 588.300781 Z M 167.832031 429.683594 C 167.921875 429.683594 168.011719 429.683594 168.113281 429.675781 C 171.425781 429.523438 173.988281 426.714844 173.835938 423.402344 C 173.695312 420.238281 173.617188 417.027344 173.617188 413.855469 C 173.617188 340.578125 211.75 273.71875 273.988281 236.316406 L 268.894531 258.96875 C 268.164062 262.203125 270.207031 265.414062 273.4375 266.144531 C 273.878906 266.246094 274.328125 266.292969 274.757812 266.292969 C 277.511719 266.292969 279.984375 264.394531 280.613281 261.601562 L 288.648438 225.828125 C 288.648438 225.820312 288.648438 225.808594 288.65625 225.800781 C 288.679688 225.6875 288.699219 225.570312 288.71875 225.460938 C 288.726562 225.378906 288.746094 225.300781 288.757812 225.210938 C 288.769531 225.128906 288.769531 225.050781 288.777344 224.96875 C 288.816406 224.457031 288.796875 223.957031 288.707031 223.46875 C 288.707031 223.46875 288.707031 223.46875 288.707031 223.457031 C 288.636719 223.066406 288.527344 222.675781 288.378906 222.308594 C 288.367188 222.289062 288.359375 222.265625 288.359375 222.257812 C 288.289062 222.085938 288.21875 221.925781 288.136719 221.765625 C 288.136719 221.757812 288.128906 221.757812 288.128906 221.746094 C 288.097656 221.695312 288.066406 221.65625 288.046875 221.605469 C 287.976562 221.488281 287.917969 221.367188 287.847656 221.257812 C 287.796875 221.175781 287.746094 221.105469 287.695312 221.035156 C 287.636719 220.945312 287.578125 220.867188 287.507812 220.777344 C 287.445312 220.695312 287.378906 220.625 287.316406 220.554688 C 287.257812 220.484375 287.1875 220.40625 287.125 220.335938 C 287.058594 220.265625 286.988281 220.207031 286.917969 220.136719 C 286.847656 220.066406 286.765625 219.996094 286.695312 219.9375 C 286.625 219.875 286.566406 219.824219 286.496094 219.777344 C 286.40625 219.707031 286.316406 219.636719 286.226562 219.574219 C 286.167969 219.535156 286.097656 219.496094 286.035156 219.457031 C 285.9375 219.386719 285.824219 219.324219 285.726562 219.265625 C 285.664062 219.234375 285.605469 219.207031 285.546875 219.175781 C 285.4375 219.117188 285.316406 219.066406 285.207031 219.003906 C 285.136719 218.976562 285.074219 218.957031 285.003906 218.925781 C 284.894531 218.886719 284.777344 218.835938 284.664062 218.796875 C 284.574219 218.765625 284.496094 218.746094 284.40625 218.726562 C 284.316406 218.703125 284.226562 218.675781 284.136719 218.644531 L 248.363281 210.609375 C 245.121094 209.890625 241.917969 211.921875 241.1875 215.152344 C 240.457031 218.386719 242.5 221.597656 245.730469 222.328125 L 266.292969 226.949219 C 201.324219 266.695312 161.609375 336.949219 161.609375 413.863281 C 161.609375 417.21875 161.691406 420.609375 161.839844 423.960938 C 161.980469 427.171875 164.640625 429.683594 167.832031 429.683594 Z M 324.238281 276.410156 C 324.089844 274.621094 324.007812 272.816406 324.007812 271.066406 C 324.007812 243.800781 341.398438 220.535156 365.675781 211.75 C 358.171875 205.566406 353.378906 196.210938 353.378906 185.746094 C 353.378906 167.171875 368.496094 152.0625 387.070312 152.0625 C 405.640625 152.0625 420.757812 167.171875 420.757812 185.753906 C 420.757812 196.210938 415.964844 205.578125 408.460938 211.761719 C 432.738281 220.546875 450.128906 243.808594 450.128906 271.078125 C 450.128906 272.828125 450.046875 274.628906 449.898438 276.421875 C 449.636719 279.53125 447.035156 281.925781 443.914062 281.925781 L 330.222656 281.925781 C 327.101562 281.914062 324.5 279.523438 324.238281 276.410156 Z M 365.386719 185.753906 C 365.386719 197.710938 375.109375 207.4375 387.070312 207.4375 C 399.027344 207.4375 408.75 197.710938 408.75 185.753906 C 408.75 173.796875 399.027344 164.070312 387.070312 164.070312 C 375.109375 164.070312 365.386719 173.796875 365.386719 185.753906 Z M 336.035156 269.90625 L 438.101562 269.90625 C 437.480469 242.289062 414.824219 220.015625 387.070312 220.015625 C 359.3125 220.015625 336.648438 242.289062 336.035156 269.90625 Z M 628.21875 562.457031 C 628.21875 564.207031 628.136719 566.007812 627.988281 567.800781 C 627.726562 570.910156 625.125 573.304688 622.003906 573.304688 L 508.3125 573.304688 C 505.191406 573.304688 502.589844 570.910156 502.328125 567.800781 C 502.179688 566.007812 502.097656 564.207031 502.097656 562.457031 C 502.097656 535.191406 519.488281 511.925781 543.765625 503.140625 C 536.261719 496.957031 531.46875 487.601562 531.46875 477.132812 C 531.46875 458.5625 546.578125 443.441406 565.15625 443.441406 C 583.730469 443.441406 598.847656 458.550781 598.847656 477.132812 C 598.847656 487.589844 594.054688 496.957031 586.550781 503.140625 C 610.828125 511.925781 628.21875 535.199219 628.21875 562.457031 Z M 543.484375 477.144531 C 543.484375 489.101562 553.210938 498.828125 565.167969 498.828125 C 577.125 498.828125 586.851562 489.101562 586.851562 477.144531 C 586.851562 465.1875 577.125 455.460938 565.167969 455.460938 C 553.210938 455.460938 543.484375 465.1875 543.484375 477.144531 Z M 616.199219 561.296875 C 615.578125 533.679688 592.925781 511.40625 565.167969 511.40625 C 537.410156 511.40625 514.746094 533.679688 514.125 561.296875 Z M 265.824219 573.304688 L 152.132812 573.304688 C 149.011719 573.304688 146.410156 570.910156 146.148438 567.800781 C 146 566.007812 145.921875 564.207031 145.921875 562.457031 C 145.921875 535.191406 163.3125 511.925781 187.585938 503.140625 C 180.082031 496.957031 175.289062 487.601562 175.289062 477.132812 C 175.289062 458.5625 190.398438 443.441406 208.980469 443.441406 C 227.558594 443.441406 242.667969 458.550781 242.667969 477.132812 C 242.667969 487.589844 237.875 496.957031 230.371094 503.140625 C 254.648438 511.925781 272.039062 535.191406 272.039062 562.457031 C 272.039062 564.207031 271.957031 566.007812 271.808594 567.800781 C 271.546875 570.910156 268.945312 573.304688 265.824219 573.304688 Z M 187.296875 477.144531 C 187.296875 489.101562 197.019531 498.828125 208.980469 498.828125 C 220.9375 498.828125 230.664062 489.101562 230.664062 477.144531 C 230.664062 465.1875 220.9375 455.460938 208.980469 455.460938 C 197.019531 455.460938 187.296875 465.1875 187.296875 477.144531 Z M 260.011719 561.296875 C 259.390625 533.679688 236.734375 511.40625 208.980469 511.40625 C 181.222656 511.40625 158.558594 533.679688 157.9375 561.296875 Z M 292.121094 357.421875 L 307.710938 341.832031 C 312.113281 337.4375 318.566406 336.347656 324.160156 339.058594 L 336.457031 345.023438 C 341.339844 342.492188 346.433594 340.378906 351.667969 338.71875 L 356.140625 325.820312 C 358.179688 319.949219 363.515625 316.15625 369.726562 316.15625 L 391.769531 316.15625 C 397.984375 316.15625 403.320312 319.949219 405.359375 325.820312 L 409.832031 338.71875 C 415.066406 340.378906 420.160156 342.492188 425.042969 345.023438 L 437.339844 339.058594 C 442.933594 336.347656 449.386719 337.4375 453.789062 341.832031 L 469.378906 357.421875 C 473.773438 361.8125 474.863281 368.277344 472.152344 373.871094 L 466.195312 386.167969 C 468.730469 391.050781 470.839844 396.144531 472.5 401.378906 L 485.398438 405.851562 C 491.273438 407.890625 495.066406 413.226562 495.066406 419.4375 L 495.066406 441.480469 C 495.066406 447.695312 491.273438 453.027344 485.398438 455.070312 L 472.5 459.542969 C 470.839844 464.777344 468.730469 469.871094 466.195312 474.753906 L 472.152344 487.050781 C 474.863281 492.644531 473.773438 499.097656 469.378906 503.5 L 453.789062 519.089844 C 449.398438 523.484375 442.933594 524.574219 437.339844 521.863281 L 425.042969 515.898438 C 420.160156 518.429688 415.066406 520.539062 409.832031 522.203125 L 405.359375 535.101562 C 403.320312 540.972656 397.984375 544.765625 391.769531 544.765625 L 369.726562 544.765625 C 363.515625 544.765625 358.171875 540.972656 356.140625 535.101562 L 351.667969 522.203125 C 346.433594 520.539062 341.351562 518.429688 336.457031 515.898438 L 324.160156 521.863281 C 318.566406 524.574219 312.113281 523.484375 307.710938 519.089844 L 292.121094 503.5 C 287.726562 499.109375 286.636719 492.644531 289.347656 487.050781 L 295.300781 474.753906 C 292.769531 469.871094 290.660156 464.777344 289 459.542969 L 276.101562 455.070312 C 270.226562 453.027344 266.433594 447.695312 266.433594 441.480469 L 266.433594 419.429688 C 266.433594 413.214844 270.226562 407.871094 276.101562 405.839844 L 289 401.367188 C 290.660156 396.132812 292.769531 391.042969 295.300781 386.15625 L 289.347656 373.859375 C 286.636719 368.265625 287.71875 361.8125 292.121094 357.421875 Z M 295.832031 411.703125 L 280.03125 417.1875 C 279.011719 417.539062 278.429688 418.359375 278.429688 419.4375 L 278.429688 441.480469 C 278.429688 442.554688 279.011719 443.375 280.03125 443.734375 L 295.832031 449.21875 C 297.695312 449.855469 299.113281 451.378906 299.644531 453.269531 C 301.445312 459.671875 304.007812 465.867188 307.28125 471.671875 C 308.238281 473.382812 308.308594 475.464844 307.449219 477.234375 L 300.15625 492.292969 C 299.683594 493.265625 299.855469 494.253906 300.617188 495.015625 L 316.203125 510.605469 C 316.964844 511.363281 317.957031 511.535156 318.925781 511.066406 L 333.984375 503.761719 C 334.816406 503.359375 335.707031 503.160156 336.605469 503.160156 C 337.628906 503.160156 338.636719 503.421875 339.550781 503.929688 C 345.363281 507.203125 351.554688 509.765625 357.949219 511.566406 C 359.839844 512.09375 361.351562 513.515625 362.003906 515.378906 L 367.488281 531.175781 C 367.835938 532.199219 368.65625 532.777344 369.738281 532.777344 L 391.78125 532.777344 C 392.863281 532.777344 393.671875 532.199219 394.03125 531.175781 L 399.515625 515.378906 C 400.15625 513.515625 401.675781 512.09375 403.570312 511.566406 C 409.960938 509.773438 416.15625 507.203125 421.96875 503.929688 C 423.679688 502.96875 425.761719 502.898438 427.535156 503.761719 L 442.59375 511.054688 C 443.5625 511.523438 444.554688 511.355469 445.3125 510.59375 L 460.902344 495.003906 C 461.664062 494.246094 461.835938 493.253906 461.363281 492.285156 L 454.070312 477.222656 C 453.210938 475.453125 453.277344 473.382812 454.238281 471.660156 C 457.511719 465.847656 460.074219 459.652344 461.875 453.257812 C 462.40625 451.367188 463.824219 449.855469 465.6875 449.207031 L 481.488281 443.722656 C 482.507812 443.375 483.085938 442.554688 483.085938 441.472656 L 483.085938 419.429688 C 483.085938 418.347656 482.507812 417.539062 481.488281 417.175781 L 465.6875 411.695312 C 463.824219 411.054688 462.40625 409.53125 461.875 407.640625 C 460.074219 401.238281 457.511719 395.042969 454.238281 389.238281 C 453.277344 387.527344 453.210938 385.449219 454.070312 383.675781 L 461.363281 368.617188 C 461.835938 367.648438 461.664062 366.65625 460.902344 365.894531 L 445.3125 350.304688 C 444.554688 349.546875 443.5625 349.375 442.59375 349.847656 L 427.535156 357.148438 C 425.761719 358.011719 423.691406 357.941406 421.96875 356.980469 C 416.15625 353.707031 409.960938 351.148438 403.570312 349.34375 C 401.675781 348.816406 400.167969 347.394531 399.515625 345.53125 L 394.03125 329.734375 C 393.683594 328.710938 392.863281 328.132812 391.78125 328.132812 L 369.738281 328.132812 C 368.65625 328.132812 367.847656 328.710938 367.488281 329.734375 L 362.003906 345.53125 C 361.363281 347.394531 359.839844 348.816406 357.949219 349.34375 C 351.554688 351.136719 345.363281 353.707031 339.550781 356.980469 C 337.839844 357.941406 335.757812 358.011719 333.984375 357.148438 L 318.925781 349.855469 C 317.957031 349.386719 316.964844 349.554688 316.203125 350.316406 L 300.613281 365.90625 C 299.855469 366.667969 299.683594 367.65625 300.15625 368.628906 L 307.449219 383.6875 C 308.308594 385.457031 308.238281 387.527344 307.28125 389.25 C 304.007812 395.0625 301.445312 401.257812 299.644531 407.652344 C 299.113281 409.542969 297.695312 411.054688 295.832031 411.703125 Z M 313.964844 430.457031 C 313.964844 393.632812 343.921875 363.675781 380.746094 363.675781 C 417.566406 363.675781 447.527344 393.632812 447.527344 430.457031 C 447.527344 467.277344 417.566406 497.238281 380.746094 497.238281 C 343.921875 497.238281 313.964844 467.277344 313.964844 430.457031 Z M 325.972656 430.457031 C 325.972656 460.652344 350.546875 485.230469 380.746094 485.230469 C 410.941406 485.230469 435.519531 460.652344 435.519531 430.457031 C 435.519531 400.257812 410.941406 375.679688 380.746094 375.679688 C 350.546875 375.679688 325.972656 400.257812 325.972656 430.457031 Z M 370.566406 448.496094 C 371.738281 449.667969 373.28125 450.257812 374.8125 450.257812 C 376.34375 450.257812 377.882812 449.667969 379.054688 448.496094 L 406.640625 420.910156 C 408.980469 418.566406 408.980469 414.765625 406.640625 412.425781 C 404.300781 410.082031 400.496094 410.082031 398.144531 412.425781 L 374.800781 435.769531 L 363.3125 424.28125 C 360.972656 421.941406 357.171875 421.941406 354.820312 424.28125 C 352.476562 426.621094 352.476562 430.425781 354.820312 432.765625 Z M 370.566406 448.496094 " fill-opacity="1" fill-rule="nonzero"/></g></svg>