<svg xmlns="http://www.w3.org/2000/svg" xmlns:xlink="http://www.w3.org/1999/xlink" width="1024" zoomAndPan="magnify" viewBox="0 0 768 767.999994" height="1024" preserveAspectRatio="xMidYMid meet" version="1.0"><defs><clipPath id="3ede7b6361"><path d="M 139.777344 528 L 295 528 L 295 610.847656 L 139.777344 610.847656 Z M 139.777344 528 " clip-rule="nonzero"/></clipPath><clipPath id="b7c212121c"><path d="M 173 574 L 261 574 L 261 610.847656 L 173 610.847656 Z M 173 574 " clip-rule="nonzero"/></clipPath><clipPath id="ddef1633a9"><path d="M 139.777344 229 L 295 229 L 295 312 L 139.777344 312 Z M 139.777344 229 " clip-rule="nonzero"/></clipPath><clipPath id="f066b10831"><path d="M 178 142.847656 L 255 142.847656 L 255 219 L 178 219 Z M 178 142.847656 " clip-rule="nonzero"/></clipPath><clipPath id="0ed7490378"><path d="M 453 528 L 607.777344 528 L 607.777344 610.847656 L 453 610.847656 Z M 453 528 " clip-rule="nonzero"/></clipPath><clipPath id="2231ac2842"><path d="M 487 574 L 574 574 L 574 610.847656 L 487 610.847656 Z M 487 574 " clip-rule="nonzero"/></clipPath><clipPath id="09787ef1c8"><path d="M 453 229 L 607.777344 229 L 607.777344 312 L 453 312 Z M 453 229 " clip-rule="nonzero"/></clipPath><clipPath id="0e882a956a"><path d="M 492 142.847656 L 569 142.847656 L 569 219 L 492 219 Z M 492 142.847656 " clip-rule="nonzero"/></clipPath></defs><g clip-path="url(#3ede7b6361)"><path fill="#f4f6ea" d="M 216.964844 538.726562 C 187.828125 538.726562 155.882812 555.644531 150.191406 593.429688 C 149.902344 595.3125 150.371094 596.929688 151.617188 598.367188 C 152.859375 599.8125 154.382812 600.515625 156.285156 600.515625 L 277.644531 600.515625 C 279.550781 600.515625 281.082031 599.8125 282.316406 598.375 C 283.558594 596.929688 284.015625 595.3125 283.742188 593.441406 C 278.050781 555.644531 246.101562 538.730469 216.964844 538.726562 Z M 277.644531 610.726562 L 156.285156 610.726562 C 151.371094 610.726562 147.074219 608.757812 143.871094 605.035156 C 140.671875 601.300781 139.359375 596.769531 140.09375 591.910156 C 146.679688 548.121094 183.457031 528.515625 216.964844 528.515625 C 250.488281 528.515625 287.25 548.121094 293.835938 591.917969 C 294.570312 596.769531 293.261719 601.3125 290.058594 605.035156 C 286.847656 608.757812 282.558594 610.726562 277.644531 610.726562 Z M 277.644531 610.726562 " fill-opacity="1" fill-rule="evenodd"/></g><path fill="#f4f6ea" d="M 216.964844 451.964844 C 201.65625 451.964844 189.210938 464.410156 189.210938 479.71875 C 189.210938 495.027344 201.65625 507.472656 216.964844 507.472656 C 232.273438 507.472656 244.71875 495.027344 244.71875 479.71875 C 244.722656 464.410156 232.273438 451.964844 216.964844 451.964844 Z M 216.964844 517.683594 C 196.03125 517.683594 178.996094 500.652344 178.996094 479.71875 C 179 458.78125 196.03125 441.75 216.964844 441.75 C 237.902344 441.75 254.933594 458.78125 254.933594 479.71875 C 254.933594 500.652344 237.902344 517.6875 216.964844 517.683594 Z M 216.964844 517.683594 " fill-opacity="1" fill-rule="evenodd"/><g clip-path="url(#b7c212121c)"><path fill="#f4f6ea" d="M 178.933594 610.726562 C 176.113281 610.726562 173.828125 608.441406 173.828125 605.621094 L 173.828125 579.621094 C 173.828125 576.800781 176.113281 574.527344 178.933594 574.527344 C 181.765625 574.527344 184.039062 576.804688 184.039062 579.621094 L 184.042969 605.621094 C 184.042969 608.441406 181.765625 610.726562 178.933594 610.726562 Z M 254.988281 610.726562 C 252.167969 610.726562 249.878906 608.441406 249.878906 605.621094 L 249.878906 579.621094 C 249.878906 576.800781 252.167969 574.527344 254.984375 574.527344 C 257.816406 574.527344 260.101562 576.804688 260.101562 579.621094 L 260.101562 605.621094 C 260.101562 608.441406 257.816406 610.726562 254.988281 610.726562 Z M 254.988281 610.726562 " fill-opacity="1" fill-rule="evenodd"/></g><path fill="#f4f6ea" d="M 373.78125 367.433594 C 348.878906 367.433594 328.613281 387.6875 328.613281 412.59375 C 328.613281 437.496094 348.878906 457.75 373.78125 457.75 C 398.675781 457.75 418.941406 437.496094 418.941406 412.59375 C 418.941406 387.6875 398.675781 367.433594 373.78125 367.433594 Z M 373.78125 467.964844 C 343.238281 467.964844 318.398438 443.125 318.398438 412.59375 C 318.398438 382.058594 343.238281 357.222656 373.78125 357.222656 C 404.3125 357.222656 429.152344 382.0625 429.152344 412.59375 C 429.152344 443.125 404.3125 467.964844 373.78125 467.964844 Z M 373.78125 467.964844 " fill-opacity="1" fill-rule="evenodd"/><path fill="#f4f6ea" d="M 355.269531 516.367188 L 392.28125 516.367188 L 398.792969 492.375 C 399.21875 490.78125 400.398438 489.492188 401.949219 488.929688 C 403.929688 488.183594 405.910156 487.367188 407.824219 486.484375 C 409.324219 485.792969 411.066406 485.867188 412.503906 486.695312 L 434.066406 499.054688 L 460.25 472.875 L 447.875 451.3125 C 447.058594 449.875 446.980469 448.132812 447.671875 446.632812 C 448.566406 444.707031 449.386719 442.726562 450.109375 440.761719 C 450.683594 439.21875 451.972656 438.039062 453.566406 437.601562 L 477.546875 431.101562 L 477.546875 394.082031 L 453.558594 387.582031 C 451.972656 387.144531 450.683594 385.964844 450.109375 384.421875 C 449.375 382.441406 448.554688 380.464844 447.671875 378.550781 C 446.980469 377.039062 447.054688 375.292969 447.875 373.867188 L 460.238281 352.304688 L 434.066406 326.125 L 412.503906 338.484375 C 411.066406 339.316406 409.324219 339.390625 407.824219 338.699219 C 405.886719 337.804688 403.917969 336.984375 401.949219 336.261719 C 400.398438 335.6875 399.21875 334.402344 398.792969 332.804688 L 392.28125 308.816406 L 355.269531 308.816406 L 348.761719 332.804688 C 348.335938 334.402344 347.152344 335.6875 345.601562 336.261719 C 343.632812 336.984375 341.65625 337.804688 339.730469 338.699219 C 338.230469 339.390625 336.484375 339.316406 335.046875 338.484375 L 313.484375 326.125 L 287.316406 352.304688 L 299.675781 373.867188 C 300.496094 375.304688 300.570312 377.050781 299.878906 378.550781 C 298.996094 380.472656 298.175781 382.453125 297.441406 384.421875 C 296.867188 385.964844 295.582031 387.144531 293.984375 387.582031 L 270.007812 394.082031 L 270.007812 431.101562 L 293.996094 437.601562 C 295.582031 438.035156 296.867188 439.21875 297.441406 440.761719 C 298.175781 442.75 298.996094 444.71875 299.878906 446.644531 C 300.570312 448.144531 300.496094 449.886719 299.675781 451.3125 L 287.316406 472.875 L 313.484375 499.054688 L 335.046875 486.695312 C 336.484375 485.867188 338.230469 485.792969 339.730469 486.484375 C 341.664062 487.375 343.644531 488.195312 345.601562 488.917969 C 347.15625 489.492188 348.335938 490.78125 348.761719 492.375 Z M 396.195312 526.578125 L 351.355469 526.578125 C 349.058594 526.578125 347.039062 525.035156 346.429688 522.800781 L 339.582031 497.546875 C 339.015625 497.3125 338.453125 497.078125 337.886719 496.84375 L 315.175781 509.855469 C 313.175781 511.003906 310.65625 510.675781 309.027344 509.046875 L 277.324219 477.34375 C 275.699219 475.707031 275.359375 473.195312 276.507812 471.195312 L 289.527344 448.484375 C 289.28125 447.921875 289.050781 447.355469 288.824219 446.78125 L 263.5625 439.929688 C 261.335938 439.335938 259.792969 437.3125 259.792969 435.003906 L 259.792969 390.175781 C 259.792969 387.867188 261.335938 385.847656 263.558594 385.25 L 288.824219 378.398438 C 289.050781 377.824219 289.28125 377.261719 289.527344 376.699219 L 276.507812 353.996094 C 275.359375 351.996094 275.699219 349.476562 277.324219 347.835938 L 309.027344 316.144531 C 310.65625 314.507812 313.175781 314.179688 315.175781 315.328125 L 337.890625 328.347656 C 338.453125 328.101562 339.015625 327.871094 339.578125 327.636719 L 346.433594 302.378906 C 347.039062 300.144531 349.058594 298.605469 351.355469 298.605469 L 396.195312 298.601562 C 398.496094 298.601562 400.515625 300.148438 401.121094 302.378906 L 407.972656 327.636719 C 408.535156 327.867188 409.101562 328.101562 409.664062 328.335938 L 432.375 315.324219 C 434.375 314.175781 436.898438 314.507812 438.523438 316.144531 L 470.226562 347.835938 C 471.855469 349.476562 472.195312 351.996094 471.046875 353.996094 L 458.023438 376.695312 C 458.269531 377.261719 458.503906 377.824219 458.726562 378.398438 L 483.992188 385.25 C 486.214844 385.847656 487.757812 387.867188 487.757812 390.175781 L 487.757812 435.003906 C 487.757812 437.3125 486.214844 439.335938 483.992188 439.929688 L 458.726562 446.78125 C 458.503906 447.355469 458.269531 447.921875 458.023438 448.484375 L 471.046875 471.1875 C 472.195312 473.183594 471.855469 475.707031 470.226562 477.34375 L 438.527344 509.046875 C 436.898438 510.671875 434.375 511.003906 432.375 509.855469 L 409.664062 496.84375 C 409.101562 497.078125 408.535156 497.3125 407.972656 497.546875 L 401.121094 522.800781 C 400.515625 525.035156 398.492188 526.578125 396.195312 526.578125 Z M 396.195312 526.578125 " fill-opacity="1" fill-rule="evenodd"/><g clip-path="url(#ddef1633a9)"><path fill="#f4f6ea" d="M 216.964844 239.945312 C 187.828125 239.945312 155.882812 256.863281 150.191406 294.648438 C 149.902344 296.53125 150.371094 298.148438 151.617188 299.59375 C 152.859375 301.03125 154.382812 301.734375 156.285156 301.734375 L 277.644531 301.730469 C 279.550781 301.730469 281.082031 301.03125 282.316406 299.59375 C 283.558594 298.148438 284.015625 296.53125 283.742188 294.660156 C 278.050781 256.859375 246.101562 239.945312 216.964844 239.945312 Z M 277.644531 311.945312 L 156.285156 311.945312 C 151.371094 311.945312 147.082031 309.976562 143.871094 306.253906 C 140.671875 302.519531 139.359375 297.988281 140.09375 293.125 C 146.679688 249.339844 183.457031 229.734375 216.964844 229.734375 C 250.488281 229.734375 287.25 249.339844 293.835938 293.136719 C 294.570312 297.988281 293.261719 302.53125 290.058594 306.253906 C 286.847656 309.976562 282.558594 311.945312 277.644531 311.945312 Z M 277.644531 311.945312 " fill-opacity="1" fill-rule="evenodd"/></g><g clip-path="url(#f066b10831)"><path fill="#f4f6ea" d="M 216.964844 153.183594 C 201.65625 153.183594 189.210938 165.628906 189.210938 180.9375 C 189.210938 196.246094 201.65625 208.691406 216.964844 208.691406 C 232.273438 208.691406 244.71875 196.246094 244.71875 180.9375 C 244.722656 165.628906 232.273438 153.183594 216.964844 153.183594 Z M 216.964844 218.902344 C 196.03125 218.902344 178.996094 201.875 178.996094 180.9375 C 179 160 196.03125 142.96875 216.964844 142.96875 C 237.902344 142.96875 254.933594 160 254.933594 180.9375 C 254.933594 201.871094 237.902344 218.90625 216.964844 218.902344 Z M 216.964844 218.902344 " fill-opacity="1" fill-rule="evenodd"/></g><path fill="#f4f6ea" d="M 178.933594 311.945312 C 176.113281 311.945312 173.828125 309.660156 173.828125 306.839844 L 173.828125 280.839844 C 173.828125 278.019531 176.113281 275.734375 178.933594 275.734375 C 181.765625 275.734375 184.039062 278.019531 184.039062 280.839844 L 184.042969 306.839844 C 184.042969 309.660156 181.765625 311.945312 178.933594 311.945312 Z M 254.988281 311.945312 C 252.167969 311.945312 249.878906 309.660156 249.878906 306.839844 L 249.878906 280.839844 C 249.878906 278.019531 252.167969 275.734375 254.984375 275.734375 C 257.816406 275.734375 260.101562 278.019531 260.101562 280.839844 L 260.101562 306.839844 C 260.101562 309.660156 257.816406 311.945312 254.988281 311.945312 Z M 254.988281 311.945312 " fill-opacity="1" fill-rule="evenodd"/><g clip-path="url(#0ed7490378)"><path fill="#f4f6ea" d="M 530.585938 538.726562 C 501.449219 538.726562 469.503906 555.644531 463.8125 593.429688 C 463.527344 595.3125 463.992188 596.929688 465.238281 598.367188 C 466.484375 599.8125 468.003906 600.515625 469.90625 600.515625 L 591.265625 600.515625 C 593.171875 600.515625 594.703125 599.8125 595.9375 598.375 C 597.179688 596.929688 597.648438 595.3125 597.363281 593.441406 C 591.683594 555.644531 559.726562 538.730469 530.585938 538.726562 Z M 591.265625 610.726562 L 469.90625 610.726562 C 464.992188 610.726562 460.707031 608.757812 457.492188 605.035156 C 454.292969 601.300781 452.980469 596.769531 453.714844 591.910156 C 460.300781 548.121094 497.078125 528.515625 530.585938 528.515625 C 564.109375 528.515625 600.871094 548.121094 607.457031 591.917969 C 608.191406 596.769531 606.882812 601.3125 603.679688 605.035156 C 600.46875 608.757812 596.179688 610.726562 591.265625 610.726562 Z M 591.265625 610.726562 " fill-opacity="1" fill-rule="evenodd"/></g><path fill="#f4f6ea" d="M 530.585938 451.964844 C 515.277344 451.964844 502.832031 464.410156 502.832031 479.71875 C 502.832031 495.027344 515.277344 507.472656 530.585938 507.472656 C 545.894531 507.472656 558.34375 495.027344 558.34375 479.71875 C 558.34375 464.410156 545.894531 451.964844 530.585938 451.964844 Z M 530.585938 517.683594 C 509.652344 517.683594 492.621094 500.652344 492.621094 479.71875 C 492.621094 458.78125 509.652344 441.75 530.585938 441.75 C 551.523438 441.75 568.554688 458.78125 568.554688 479.71875 C 568.554688 500.652344 551.523438 517.6875 530.585938 517.683594 Z M 530.585938 517.683594 " fill-opacity="1" fill-rule="evenodd"/><g clip-path="url(#2231ac2842)"><path fill="#f4f6ea" d="M 492.566406 610.726562 C 489.738281 610.726562 487.460938 608.441406 487.460938 605.621094 L 487.460938 579.621094 C 487.460938 576.800781 489.738281 574.527344 492.566406 574.527344 C 495.386719 574.527344 497.671875 576.804688 497.671875 579.621094 L 497.675781 605.621094 C 497.675781 608.441406 495.386719 610.726562 492.566406 610.726562 Z M 568.621094 610.726562 C 565.789062 610.726562 563.511719 608.441406 563.511719 605.621094 L 563.511719 579.621094 C 563.511719 576.800781 565.789062 574.527344 568.617188 574.527344 C 571.4375 574.527344 573.726562 576.804688 573.726562 579.621094 L 573.726562 605.621094 C 573.726562 608.441406 571.4375 610.726562 568.621094 610.726562 Z M 568.621094 610.726562 " fill-opacity="1" fill-rule="evenodd"/></g><g clip-path="url(#09787ef1c8)"><path fill="#f4f6ea" d="M 530.585938 239.945312 C 501.449219 239.945312 469.503906 256.863281 463.8125 294.648438 C 463.527344 296.53125 463.992188 298.148438 465.238281 299.59375 C 466.484375 301.03125 468.003906 301.734375 469.90625 301.734375 L 591.265625 301.730469 C 593.171875 301.730469 594.703125 301.03125 595.9375 299.59375 C 597.179688 298.148438 597.648438 296.53125 597.363281 294.660156 C 591.683594 256.859375 559.726562 239.945312 530.585938 239.945312 Z M 591.265625 311.945312 L 469.90625 311.945312 C 464.992188 311.945312 460.707031 309.976562 457.492188 306.253906 C 454.292969 302.519531 452.980469 297.988281 453.714844 293.125 C 460.300781 249.339844 497.078125 229.734375 530.585938 229.734375 C 564.109375 229.734375 600.871094 249.339844 607.457031 293.136719 C 608.191406 297.988281 606.882812 302.53125 603.679688 306.253906 C 600.480469 309.976562 596.179688 311.945312 591.265625 311.945312 Z M 591.265625 311.945312 " fill-opacity="1" fill-rule="evenodd"/></g><g clip-path="url(#0e882a956a)"><path fill="#f4f6ea" d="M 530.585938 153.183594 C 515.277344 153.183594 502.832031 165.628906 502.832031 180.9375 C 502.832031 196.246094 515.277344 208.691406 530.585938 208.691406 C 545.894531 208.691406 558.34375 196.246094 558.34375 180.9375 C 558.34375 165.628906 545.894531 153.183594 530.585938 153.183594 Z M 530.585938 218.902344 C 509.652344 218.902344 492.621094 201.875 492.621094 180.9375 C 492.621094 160 509.652344 142.96875 530.585938 142.96875 C 551.523438 142.96875 568.554688 160 568.554688 180.9375 C 568.554688 201.871094 551.523438 218.90625 530.585938 218.902344 Z M 530.585938 218.902344 " fill-opacity="1" fill-rule="evenodd"/></g><path fill="#f4f6ea" d="M 492.566406 311.945312 C 489.738281 311.945312 487.460938 309.660156 487.460938 306.839844 L 487.460938 280.839844 C 487.460938 278.019531 489.738281 275.734375 492.566406 275.734375 C 495.386719 275.734375 497.671875 278.019531 497.671875 280.839844 L 497.675781 306.839844 C 497.675781 309.660156 495.386719 311.945312 492.566406 311.945312 Z M 568.621094 311.945312 C 565.789062 311.945312 563.511719 309.660156 563.511719 306.839844 L 563.511719 280.839844 C 563.511719 278.019531 565.789062 275.734375 568.617188 275.734375 C 571.4375 275.734375 573.726562 278.019531 573.726562 280.839844 L 573.726562 306.839844 C 573.726562 309.660156 571.4375 311.945312 568.621094 311.945312 Z M 568.621094 311.945312 " fill-opacity="1" fill-rule="evenodd"/><path fill="#f4f6ea" d="M 216.964844 418.773438 C 214.148438 418.773438 211.859375 416.488281 211.859375 413.667969 L 211.859375 342.179688 C 211.859375 339.359375 214.144531 337.074219 216.964844 337.074219 C 219.785156 337.074219 222.070312 339.359375 222.070312 342.179688 L 222.070312 413.667969 C 222.070312 416.488281 219.785156 418.773438 216.964844 418.773438 Z M 216.964844 418.773438 " fill-opacity="1" fill-rule="evenodd"/><path fill="#f4f6ea" d="M 197.574219 366.679688 C 196.265625 366.679688 194.957031 366.179688 193.964844 365.179688 C 191.964844 363.1875 191.964844 359.957031 193.964844 357.957031 L 213.359375 338.5625 C 215.347656 336.570312 218.582031 336.574219 220.570312 338.5625 L 239.964844 357.953125 C 241.964844 359.953125 241.964844 363.1875 239.964844 365.179688 C 237.976562 367.179688 234.742188 367.179688 232.753906 365.179688 L 216.964844 349.390625 L 201.179688 365.179688 C 200.191406 366.175781 198.878906 366.679688 197.574219 366.679688 Z M 197.574219 366.679688 " fill-opacity="1" fill-rule="evenodd"/><path fill="#f4f6ea" d="M 530.585938 418.773438 C 527.769531 418.773438 525.480469 416.488281 525.480469 413.667969 L 525.480469 342.179688 C 525.480469 339.359375 527.769531 337.074219 530.585938 337.074219 C 533.40625 337.074219 535.691406 339.359375 535.691406 342.179688 L 535.695312 413.667969 C 535.695312 416.488281 533.40625 418.773438 530.585938 418.773438 Z M 530.585938 418.773438 " fill-opacity="1" fill-rule="evenodd"/><path fill="#f4f6ea" d="M 530.585938 418.773438 C 529.28125 418.773438 527.96875 418.273438 526.980469 417.273438 L 507.585938 397.878906 C 505.585938 395.890625 505.585938 392.65625 507.585938 390.65625 C 509.578125 388.667969 512.8125 388.667969 514.800781 390.65625 L 530.585938 406.445312 L 546.375 390.65625 C 548.363281 388.667969 551.597656 388.667969 553.597656 390.65625 C 555.585938 392.65625 555.585938 395.890625 553.597656 397.882812 L 534.191406 417.273438 C 533.203125 418.273438 531.894531 418.773438 530.585938 418.773438 Z M 530.585938 418.773438 " fill-opacity="1" fill-rule="evenodd"/><path fill="#f4f6ea" d="M 424.527344 232.5625 L 323.027344 232.5625 C 320.207031 232.5625 317.921875 230.277344 317.921875 227.457031 C 317.921875 224.640625 320.207031 222.351562 323.027344 222.351562 L 424.527344 222.351562 C 427.34375 222.351562 429.632812 224.640625 429.632812 227.457031 C 429.632812 230.277344 427.34375 232.5625 424.527344 232.5625 Z M 424.527344 232.5625 " fill-opacity="1" fill-rule="evenodd"/><path fill="#f4f6ea" d="M 405.132812 251.957031 C 403.824219 251.957031 402.515625 251.457031 401.515625 250.457031 C 399.527344 248.46875 399.527344 245.234375 401.515625 243.246094 L 417.300781 227.457031 L 401.515625 211.671875 C 399.527344 209.679688 399.527344 206.449219 401.515625 204.449219 C 403.515625 202.457031 406.75 202.457031 408.738281 204.449219 L 428.132812 223.851562 C 430.132812 225.839844 430.132812 229.074219 428.132812 231.0625 L 408.738281 250.457031 C 407.75 251.457031 406.441406 251.957031 405.132812 251.957031 Z M 405.132812 251.957031 " fill-opacity="1" fill-rule="evenodd"/><path fill="#f4f6ea" d="M 424.527344 580.910156 L 323.027344 580.910156 C 320.207031 580.910156 317.921875 578.621094 317.921875 575.804688 C 317.921875 572.984375 320.207031 570.695312 323.027344 570.695312 L 424.527344 570.695312 C 427.34375 570.695312 429.632812 572.984375 429.632812 575.804688 C 429.632812 578.621094 427.34375 580.910156 424.527344 580.910156 Z M 424.527344 580.910156 " fill-opacity="1" fill-rule="evenodd"/><path fill="#f4f6ea" d="M 342.421875 600.300781 C 341.113281 600.300781 339.8125 599.800781 338.8125 598.800781 L 319.421875 579.410156 C 317.421875 577.417969 317.421875 574.1875 319.421875 572.1875 L 338.8125 552.792969 C 340.804688 550.804688 344.039062 550.804688 346.039062 552.792969 C 348.027344 554.792969 348.027344 558.027344 346.039062 560.015625 L 330.25 575.804688 L 346.039062 591.578125 C 348.027344 593.578125 348.027344 596.8125 346.039062 598.800781 C 345.039062 599.800781 343.730469 600.300781 342.421875 600.300781 Z M 342.421875 600.300781 " fill-opacity="1" fill-rule="evenodd"/></svg>