<svg xmlns="http://www.w3.org/2000/svg" xmlns:xlink="http://www.w3.org/1999/xlink" width="1024" zoomAndPan="magnify" viewBox="0 0 768 767.999994" height="1024" preserveAspectRatio="xMidYMid meet" version="1.0"><defs><clipPath id="adb61d520b"><path d="M 136.464844 118.785156 L 631.464844 118.785156 L 631.464844 649.035156 L 136.464844 649.035156 Z M 136.464844 118.785156 " clip-rule="nonzero"/></clipPath></defs><g clip-path="url(#adb61d520b)"><path fill="#f4f6ea" d="M 373.835938 336.8125 C 358.660156 336.8125 346.3125 349.160156 346.3125 364.332031 C 346.3125 372.730469 350.167969 380.621094 356.609375 385.789062 L 356.609375 401.566406 C 356.609375 405.601562 359.871094 408.863281 363.902344 408.863281 L 383.753906 408.863281 C 387.789062 408.863281 391.050781 405.601562 391.050781 401.566406 L 391.050781 385.789062 C 397.488281 380.609375 401.347656 372.730469 401.347656 364.332031 C 401.347656 349.160156 388.996094 336.8125 373.824219 336.8125 Z M 380.171875 375.597656 C 377.878906 376.890625 376.460938 379.320312 376.460938 381.953125 L 376.460938 394.273438 L 371.199219 394.273438 L 371.199219 381.953125 C 371.199219 379.328125 369.78125 376.902344 367.488281 375.597656 C 363.425781 373.304688 360.902344 368.980469 360.902344 364.332031 C 360.902344 357.207031 366.707031 351.402344 373.835938 351.402344 C 380.960938 351.402344 386.765625 357.207031 386.765625 364.332031 C 386.765625 368.992188 384.246094 373.304688 380.179688 375.597656 Z M 548.488281 370.273438 C 576.34375 310.976562 597.363281 247.878906 611.003906 182.507812 C 611.453125 180.351562 610.902344 178.101562 609.503906 176.390625 C 608.117188 174.703125 606.042969 173.722656 603.867188 173.722656 C 603.84375 173.722656 603.824219 173.722656 603.804688 173.722656 C 530.042969 174.371094 455.847656 156.621094 376.941406 119.472656 C 374.9375 118.535156 372.617188 118.542969 370.625 119.515625 C 302.753906 152.714844 222.136719 171.960938 143.636719 173.734375 C 141.511719 173.785156 139.507812 174.753906 138.164062 176.402344 C 136.820312 178.046875 136.246094 180.195312 136.613281 182.289062 C 163.6875 337.101562 246.15625 485.746094 368.84375 600.847656 C 370.238281 602.160156 372.042969 602.828125 373.835938 602.828125 C 375.625 602.828125 377.253906 602.234375 378.628906 601.035156 C 391.601562 589.738281 404.304688 577.628906 416.582031 564.90625 L 416.582031 612.570312 C 416.582031 637.757812 472.25 649.21875 523.980469 649.21875 C 575.707031 649.21875 631.378906 637.746094 631.378906 612.570312 L 631.378906 406.078125 C 631.378906 384.863281 591.871094 373.390625 548.5 370.292969 Z M 616.777344 406.058594 C 616.777344 412.65625 585.203125 428.121094 523.96875 428.121094 C 462.734375 428.121094 431.160156 412.65625 431.160156 406.058594 C 431.160156 399.460938 462.734375 383.996094 523.96875 383.996094 C 585.203125 383.996094 616.777344 399.460938 616.777344 406.058594 Z M 416.570312 492.292969 C 403.128906 508.484375 388.839844 523.628906 374 537.382812 C 286.203125 450.554688 226.535156 340.113281 205.128906 224.878906 C 263.570312 222.316406 323.042969 207.332031 373.898438 182.3125 C 432.160156 210.144531 487.359375 224.191406 542.238281 225.128906 C 531.273438 275.972656 514.757812 324.910156 493.089844 370.804688 C 479.191406 372.074219 465.882812 374.234375 454.378906 377.328125 L 454.378906 320.917969 C 454.378906 312.375 448.292969 305.226562 440.226562 303.570312 L 440.226562 282.113281 C 440.226562 245.511719 410.441406 215.730469 373.84375 215.730469 C 337.246094 215.730469 307.464844 245.511719 307.464844 282.113281 L 307.464844 303.570312 C 299.398438 305.226562 293.3125 312.375 293.3125 320.917969 L 293.3125 424.773438 C 293.3125 434.539062 301.253906 442.488281 311.027344 442.488281 L 416.589844 442.488281 L 416.589844 492.3125 Z M 403.261719 303.195312 L 344.386719 303.195312 L 344.386719 282.089844 C 344.386719 265.855469 357.589844 252.652344 373.824219 252.652344 C 390.058594 252.652344 403.261719 265.855469 403.261719 282.089844 Z M 373.824219 238.0625 C 349.542969 238.0625 329.796875 257.808594 329.796875 282.089844 L 329.796875 303.195312 L 322.03125 303.195312 L 322.03125 282.089844 C 322.03125 253.527344 345.269531 230.300781 373.824219 230.300781 C 402.378906 230.300781 425.617188 253.539062 425.617188 282.089844 L 425.617188 303.195312 L 417.851562 303.195312 L 417.851562 282.089844 C 417.851562 257.808594 398.105469 238.0625 373.824219 238.0625 Z M 416.570312 427.878906 L 311.007812 427.878906 C 309.320312 427.878906 307.878906 426.453125 307.878906 424.753906 L 307.878906 320.898438 C 307.878906 319.210938 309.308594 317.773438 311.007812 317.773438 L 436.640625 317.773438 C 438.328125 317.773438 439.769531 319.199219 439.769531 320.898438 L 439.769531 382.152344 C 425.605469 387.988281 416.570312 395.910156 416.570312 406.046875 Z M 374 585.632812 C 258.445312 475.421875 180.097656 334.769531 152.492188 188.0625 C 229.140625 185.132812 307.296875 166.125 373.886719 134.15625 C 450.429688 169.753906 522.84375 187.511719 594.851562 188.3125 C 580.992188 251.433594 560.097656 312.332031 532.703125 369.523438 C 529.792969 369.449219 526.875 369.40625 523.980469 369.40625 C 519.226562 369.40625 514.453125 369.5 509.683594 369.699219 C 531.386719 322.242188 547.75 271.722656 558.347656 219.316406 C 558.785156 217.15625 558.222656 214.917969 556.828125 213.230469 C 555.441406 211.550781 553.375 210.582031 551.199219 210.582031 C 551.179688 210.582031 551.15625 210.582031 551.136719 210.582031 C 494.519531 211.074219 437.609375 197.035156 377.023438 167.628906 C 374.980469 166.636719 372.585938 166.648438 370.550781 167.679688 C 319.207031 193.566406 255.691406 209.207031 196.304688 210.59375 C 194.1875 210.644531 192.199219 211.613281 190.84375 213.238281 C 189.5 214.875 188.925781 217.011719 189.28125 219.097656 C 210.203125 342.480469 273.949219 460.945312 368.757812 552.671875 C 370.167969 554.035156 372 554.722656 373.835938 554.722656 C 375.667969 554.722656 377.316406 554.097656 378.710938 552.859375 C 391.789062 541.113281 404.472656 528.328125 416.582031 514.695312 L 416.582031 543.613281 C 402.941406 558.476562 388.664062 572.585938 374.011719 585.652344 Z M 523.96875 634.609375 C 462.734375 634.609375 431.160156 619.144531 431.160156 612.550781 L 431.160156 560.757812 C 451.105469 572.292969 488.464844 577.691406 523.96875 577.691406 C 559.472656 577.691406 596.832031 572.28125 616.777344 560.757812 L 616.777344 612.550781 C 616.777344 619.144531 585.203125 634.609375 523.96875 634.609375 Z M 523.96875 563.101562 C 462.734375 563.101562 431.160156 547.636719 431.160156 541.039062 L 431.160156 492.5 C 451.105469 504.035156 488.464844 509.433594 523.96875 509.433594 C 559.472656 509.433594 596.832031 504.027344 616.777344 492.5 L 616.777344 541.039062 C 616.777344 547.636719 585.203125 563.101562 523.96875 563.101562 Z M 523.96875 494.855469 C 462.734375 494.855469 431.160156 479.390625 431.160156 472.792969 L 431.160156 425.773438 C 451.105469 437.3125 488.464844 442.707031 523.96875 442.707031 C 559.472656 442.707031 596.832031 437.300781 616.777344 425.773438 L 616.777344 472.792969 C 616.777344 479.390625 585.203125 494.855469 523.96875 494.855469 Z M 523.96875 447.886719 C 512.445312 447.886719 503.074219 457.265625 503.074219 468.78125 C 503.074219 480.296875 512.453125 489.675781 523.96875 489.675781 C 535.484375 489.675781 544.863281 480.296875 544.863281 468.78125 C 544.863281 457.265625 535.484375 447.886719 523.96875 447.886719 Z M 523.96875 475.085938 C 520.488281 475.085938 517.664062 472.261719 517.664062 468.78125 C 517.664062 465.300781 520.488281 462.476562 523.96875 462.476562 C 527.449219 462.476562 530.273438 465.300781 530.273438 468.78125 C 530.273438 472.261719 527.449219 475.085938 523.96875 475.085938 Z M 523.96875 514.625 C 512.445312 514.625 503.074219 524.003906 503.074219 535.519531 C 503.074219 547.03125 512.453125 556.410156 523.96875 556.410156 C 535.484375 556.410156 544.863281 547.03125 544.863281 535.519531 C 544.863281 524.003906 535.484375 514.625 523.96875 514.625 Z M 523.96875 541.824219 C 520.488281 541.824219 517.664062 539 517.664062 535.519531 C 517.664062 532.039062 520.488281 529.214844 523.96875 529.214844 C 527.449219 529.214844 530.273438 532.039062 530.273438 535.519531 C 530.273438 539 527.449219 541.824219 523.96875 541.824219 Z M 523.96875 583.453125 C 512.445312 583.453125 503.074219 592.832031 503.074219 604.347656 C 503.074219 615.863281 512.453125 625.242188 523.96875 625.242188 C 535.484375 625.242188 544.863281 615.863281 544.863281 604.347656 C 544.863281 592.832031 535.484375 583.453125 523.96875 583.453125 Z M 523.96875 610.652344 C 520.488281 610.652344 517.664062 607.828125 517.664062 604.347656 C 517.664062 600.867188 520.488281 598.042969 523.96875 598.042969 C 527.449219 598.042969 530.273438 600.867188 530.273438 604.347656 C 530.273438 607.828125 527.449219 610.652344 523.96875 610.652344 Z M 523.96875 610.652344 " fill-opacity="1" fill-rule="nonzero"/></g></svg>