<svg xmlns="http://www.w3.org/2000/svg" xmlns:xlink="http://www.w3.org/1999/xlink" width="1024" zoomAndPan="magnify" viewBox="0 0 768 767.999994" height="1024" preserveAspectRatio="xMidYMid meet" version="1.0"><defs><clipPath id="373b1efb2c"><path d="M 624 298 L 624.316406 298 L 624.316406 299 L 624 299 Z M 624 298 " clip-rule="nonzero"/></clipPath><clipPath id="e39360b29d"><path d="M 164.566406 277 L 612 277 L 612 454.734375 L 164.566406 454.734375 Z M 164.566406 277 " clip-rule="nonzero"/></clipPath></defs><path fill="#f4f6ea" d="M 534.753906 329.160156 C 534.816406 329.140625 535.066406 329.011719 535.574219 328.722656 C 535.535156 328.738281 535.496094 328.757812 535.457031 328.769531 C 535.222656 328.898438 534.992188 329.03125 534.753906 329.160156 Z M 534.753906 329.160156 " fill-opacity="1" fill-rule="nonzero"/><g clip-path="url(#373b1efb2c)"><path fill="#f4f6ea" d="M 624.238281 298.746094 C 624.238281 298.746094 624.21875 298.765625 624.210938 298.777344 C 624.226562 298.777344 624.230469 298.765625 624.246094 298.757812 C 624.25 298.75 624.265625 298.738281 624.269531 298.730469 C 624.265625 298.730469 624.25 298.746094 624.246094 298.75 Z M 624.238281 298.746094 " fill-opacity="1" fill-rule="nonzero"/></g><g clip-path="url(#e39360b29d)"><path fill="#f4f6ea" d="M 610.902344 406.488281 C 604.023438 393.703125 598.707031 380.035156 590.488281 368 C 586.648438 362.378906 582 356.320312 575.75 353.214844 C 569.90625 350.3125 563.304688 350.105469 557.636719 353.542969 C 553.101562 356.292969 549.761719 360.4375 546.664062 364.640625 C 543.5625 368.847656 540.890625 373.359375 538.242188 377.855469 C 535.464844 382.566406 532.757812 387.324219 529.789062 391.921875 C 529.136719 392.929688 528.476562 393.929688 527.789062 394.917969 C 527.476562 395.367188 527.160156 395.8125 526.839844 396.261719 C 526.398438 396.871094 524.660156 398.867188 526.660156 396.5625 C 525.257812 398.179688 523.976562 399.855469 522.390625 401.316406 C 522.15625 401.535156 521.90625 401.738281 521.660156 401.945312 C 521.351562 402.136719 521.050781 402.339844 520.738281 402.519531 C 520.859375 402.488281 521 402.457031 521.148438 402.417969 C 521.128906 402.4375 521.148438 402.429688 521.15625 402.429688 C 520.921875 402.496094 520.699219 402.578125 520.46875 402.660156 C 520.5 402.667969 520.519531 402.675781 520.550781 402.679688 C 520.710938 402.6875 520.886719 402.699219 521.078125 402.714844 C 520.957031 402.707031 520.820312 402.714844 520.6875 402.714844 C 521.160156 402.847656 521.296875 402.988281 521.167969 403.007812 C 521.136719 402.976562 521.039062 402.929688 520.847656 402.867188 C 520.726562 402.828125 520.570312 402.769531 520.429688 402.71875 C 520.402344 402.71875 520.378906 402.71875 520.351562 402.71875 C 520.351562 402.71875 520.339844 402.714844 520.332031 402.707031 C 520.320312 402.707031 520.308594 402.71875 520.296875 402.71875 C 520.277344 402.71875 520.261719 402.71875 520.242188 402.71875 C 520.238281 402.71875 520.226562 402.726562 520.21875 402.730469 C 520.21875 402.730469 520.21875 402.730469 520.210938 402.726562 C 520.179688 402.726562 520.148438 402.726562 520.121094 402.730469 C 520.128906 402.738281 520.140625 402.746094 520.148438 402.75 C 520.007812 402.785156 519.878906 402.808594 519.761719 402.816406 C 519.796875 402.796875 519.847656 402.777344 519.917969 402.746094 C 519.722656 402.765625 519.636719 402.789062 519.636719 402.820312 C 519.140625 402.835938 519.039062 402.65625 520.019531 402.648438 C 520.039062 402.660156 520.050781 402.675781 520.070312 402.6875 C 520.097656 402.679688 520.121094 402.667969 520.148438 402.660156 C 520.148438 402.660156 520.136719 402.648438 520.128906 402.640625 C 520.152344 402.640625 520.171875 402.640625 520.199219 402.640625 C 520.207031 402.640625 520.210938 402.640625 520.226562 402.636719 C 520.171875 402.625 520.136719 402.617188 520.082031 402.605469 C 520.070312 402.589844 520.050781 402.578125 520.03125 402.558594 C 520.070312 402.558594 520.117188 402.570312 520.152344 402.578125 C 519.988281 402.464844 519.820312 402.335938 519.648438 402.21875 C 519.609375 402.1875 519.570312 402.15625 519.539062 402.117188 C 519.140625 401.738281 518.757812 401.339844 518.390625 400.929688 C 518.300781 400.828125 518.203125 400.699219 518.109375 400.570312 C 518.167969 400.675781 518.230469 400.785156 518.300781 400.910156 C 517.917969 400.21875 517.398438 399.621094 517.03125 398.90625 C 516.949219 398.75 516.878906 398.589844 516.808594 398.429688 C 516.480469 397.53125 516.152344 396.628906 515.859375 395.71875 C 515.109375 393.382812 514.46875 391.011719 513.863281 388.632812 C 512.382812 382.800781 511.121094 376.90625 509.871094 371.015625 C 507.273438 358.800781 504.976562 346.445312 501.402344 334.476562 C 500.085938 330.078125 498.65625 325.3125 496.09375 321.46875 C 494.105469 318.492188 491.367188 315.964844 488.628906 313.695312 C 484.941406 310.636719 480.609375 307.804688 475.574219 308.1875 C 467.726562 308.796875 461.976562 315.332031 459.269531 322.292969 C 458.148438 325.1875 457.367188 328.210938 456.605469 331.21875 C 454.019531 341.425781 451.972656 351.78125 449.910156 362.101562 C 447.472656 374.292969 445.140625 386.492188 442.695312 398.679688 C 440.804688 408.117188 438.972656 417.605469 436.492188 426.910156 C 436.105469 428.347656 435.707031 429.777344 435.234375 431.1875 C 435.171875 431.386719 435.09375 431.585938 435.015625 431.777344 C 434.992188 431.820312 434.976562 431.847656 434.953125 431.898438 C 434.355469 432.960938 433.503906 434.628906 432.578125 435.785156 C 432.144531 435.089844 431.71875 434.390625 431.308594 433.679688 C 430.496094 432.261719 429.777344 430.796875 428.988281 429.371094 C 428.878906 429.050781 428.765625 428.722656 428.664062 428.398438 C 427.867188 425.859375 427.269531 423.25 426.707031 420.644531 C 422.640625 401.988281 419.980469 383.011719 416.761719 364.199219 C 413.269531 343.792969 409.914062 323.140625 404.191406 303.214844 C 402.34375 296.796875 400.34375 289.730469 396.496094 284.191406 C 394.417969 281.195312 391.816406 278.523438 388.160156 277.574219 C 383.992188 276.484375 379.691406 277.996094 376.742188 281.050781 C 372.625 285.3125 371.101562 291.261719 369.796875 296.867188 C 367.894531 305.105469 366.515625 313.464844 365.136719 321.800781 C 361.445312 344.066406 358.199219 366.417969 354.027344 388.609375 C 352.121094 398.738281 350.0625 408.855469 347.378906 418.8125 C 346.324219 422.71875 345.171875 426.601562 343.773438 430.390625 C 343.503906 431.121094 343.214844 431.847656 342.933594 432.578125 C 342.859375 432.757812 342.773438 432.9375 342.691406 433.117188 C 341.773438 430.390625 340.984375 427.617188 340.25 424.839844 C 334.546875 403.546875 330.804688 381.765625 325.609375 360.347656 C 323.277344 350.730469 320.835938 341.035156 317.222656 331.800781 C 314.417969 324.621094 310.679688 315.332031 302.605469 312.734375 C 293.394531 309.777344 286.261719 318.09375 282.878906 325.601562 C 278.253906 335.839844 275.824219 346.90625 273.375 357.820312 C 270.835938 369.136719 268.574219 380.585938 265.023438 391.648438 C 264.425781 393.5 263.707031 395.308594 263.035156 397.128906 C 262.988281 397.289062 262.792969 397.871094 262.628906 398.261719 C 262.597656 398.359375 262.558594 398.457031 262.527344 398.550781 C 262.558594 398.460938 262.578125 398.390625 262.613281 398.316406 C 262.597656 398.351562 262.578125 398.390625 262.566406 398.425781 C 262.34375 398.910156 262.117188 399.398438 261.878906 399.878906 C 261.433594 400.785156 260.957031 401.675781 260.445312 402.539062 C 260.246094 402.875 260.015625 403.199219 259.777344 403.527344 C 259.714844 403.695312 259.507812 404.046875 259.25 404.335938 C 259.21875 404.367188 259.1875 404.398438 259.164062 404.429688 C 259.078125 404.566406 258.988281 404.695312 258.917969 404.835938 C 258.988281 404.707031 259.054688 404.597656 259.109375 404.488281 C 259.027344 404.585938 258.929688 404.675781 258.839844 404.765625 C 259 404.695312 258.660156 405.128906 258.195312 405.425781 C 258.1875 405.425781 258.175781 405.433594 258.167969 405.4375 C 258.128906 405.46875 258.085938 405.507812 258.046875 405.546875 C 258.046875 405.546875 258.039062 405.546875 258.035156 405.546875 C 258.015625 405.546875 257.996094 405.546875 257.976562 405.546875 C 257.980469 405.539062 257.988281 405.535156 258 405.523438 C 257.980469 405.527344 257.96875 405.539062 257.949219 405.546875 C 257.777344 405.558594 257.609375 405.574219 257.5 405.574219 C 257.546875 405.609375 257.5 405.644531 257.410156 405.664062 C 257.40625 405.664062 257.390625 405.664062 257.378906 405.664062 C 257.269531 405.675781 257.097656 405.664062 256.898438 405.609375 C 256.757812 405.574219 256.609375 405.539062 256.460938 405.507812 C 256.246094 405.488281 256.027344 405.46875 255.820312 405.488281 C 255.996094 405.476562 256.128906 405.46875 256.277344 405.46875 C 256.109375 405.4375 255.949219 405.398438 255.789062 405.355469 C 255.4375 405.257812 255.085938 405.117188 254.730469 405.003906 C 254.71875 405.003906 254.710938 404.988281 254.699219 404.988281 C 253.558594 404.40625 252.589844 403.574219 251.488281 402.949219 C 251.652344 403.046875 251.796875 403.125 251.921875 403.199219 C 251.769531 403.089844 251.617188 402.976562 251.480469 402.859375 C 251.058594 402.480469 250.648438 402.097656 250.242188 401.699219 C 249.261719 400.730469 248.339844 399.707031 247.453125 398.640625 C 247.371094 398.539062 247.289062 398.441406 247.203125 398.339844 C 247.203125 398.351562 247.210938 398.371094 247.203125 398.386719 C 247.203125 398.371094 247.199219 398.351562 247.191406 398.335938 C 247.101562 398.226562 247.019531 398.117188 246.929688 398.007812 C 246.519531 397.511719 246.480469 397.390625 246.582031 397.449219 C 246.359375 397.1875 246.140625 396.941406 246.070312 396.851562 C 245.179688 395.609375 244.324219 394.347656 243.5 393.058594 C 237.15625 383.203125 232.566406 372.207031 225.65625 362.726562 C 222.140625 357.898438 218.148438 353.359375 212.359375 351.3125 C 206.84375 349.363281 201.65625 352.324219 197.722656 356.003906 C 193.707031 359.761719 190.476562 364.457031 187.417969 368.988281 C 183.976562 374.105469 180.8125 379.40625 177.78125 384.773438 C 173.152344 392.980469 168.605469 401.339844 164.992188 410.054688 C 163.316406 414.082031 166.792969 419.363281 170.792969 420.273438 C 175.640625 421.378906 179.222656 418.78125 181.011719 414.472656 C 180.660156 415.324219 180.472656 415.765625 180.398438 415.941406 C 180.480469 415.746094 180.6875 415.265625 180.921875 414.746094 C 181.257812 414.015625 181.601562 413.292969 181.949219 412.5625 C 182.882812 410.605469 183.851562 408.667969 184.839844 406.738281 C 187.457031 401.609375 190.195312 396.539062 193.046875 391.539062 C 196.085938 386.230469 199.253906 380.976562 202.734375 375.945312 C 203.515625 374.816406 204.324219 373.703125 205.140625 372.597656 C 205.175781 372.546875 205.203125 372.507812 205.234375 372.464844 C 205.234375 372.457031 205.242188 372.449219 205.246094 372.445312 C 205.632812 371.976562 206.003906 371.503906 206.394531 371.035156 C 207.179688 370.105469 208.050781 369.277344 208.914062 368.449219 C 209.320312 368.839844 209.710938 369.238281 210.089844 369.660156 C 210.453125 370.066406 210.792969 370.488281 211.148438 370.90625 C 211.160156 370.925781 211.164062 370.929688 211.179688 370.949219 C 212.699219 373.097656 214.128906 375.296875 215.472656 377.5625 C 221.847656 388.273438 227.058594 399.640625 234.894531 409.433594 C 241.984375 418.292969 254.425781 426.21875 265.824219 420.179688 C 274.410156 415.632812 278.261719 404.695312 281.03125 396.058594 C 284.578125 385 286.847656 373.554688 289.386719 362.230469 C 290.636719 356.648438 291.917969 351.0625 293.4375 345.542969 C 294.109375 343.085938 294.828125 340.648438 295.644531 338.238281 C 296.015625 337.144531 296.398438 336.054688 296.816406 334.96875 C 296.925781 334.6875 297.042969 334.40625 297.148438 334.128906 C 297.214844 333.988281 297.273438 333.847656 297.335938 333.714844 C 297.753906 332.800781 298.222656 331.929688 298.714844 331.070312 C 298.988281 331.550781 299.265625 332.027344 299.515625 332.527344 C 299.90625 333.300781 300.277344 334.097656 300.636719 334.894531 C 300.65625 334.9375 300.6875 335 300.722656 335.078125 C 300.835938 335.355469 300.957031 335.660156 301.015625 335.808594 C 301.796875 337.785156 302.511719 339.777344 303.183594 341.792969 C 310.171875 362.71875 314.0625 384.679688 318.761719 406.1875 C 320.820312 415.59375 322.847656 425.042969 325.617188 434.277344 C 327.484375 440.503906 329.699219 448.773438 335.8125 452.222656 C 339.640625 454.382812 344.113281 454.589844 348.023438 452.480469 C 350.929688 450.910156 353.082031 448.335938 354.839844 445.601562 C 358.867188 439.328125 361.058594 431.648438 363.035156 424.523438 C 368.8125 403.675781 372.140625 382.113281 375.59375 360.78125 C 378.722656 341.4375 381.238281 321.882812 385.480469 302.738281 C 385.636719 302.058594 385.78125 301.375 385.941406 300.695312 C 387.191406 304.285156 388.25 307.9375 389.226562 311.605469 C 391.769531 321.199219 393.785156 330.925781 395.667969 340.664062 C 399.773438 361.878906 403.085938 383.234375 406.773438 404.519531 C 408.105469 412.222656 409.429688 419.953125 411.210938 427.570312 C 411.742188 429.832031 412.292969 432.117188 413.101562 434.300781 C 413.988281 436.707031 415.152344 438.925781 416.402344 441.15625 C 418.347656 444.636719 420.546875 448.355469 423.65625 450.925781 C 436.316406 461.390625 448.492188 445.074219 451.851562 433.621094 C 454.371094 425.019531 456.046875 416.140625 457.835938 407.367188 C 462.464844 384.59375 466.375 361.636719 471.773438 339.027344 C 472.605469 335.527344 473.460938 332.019531 474.59375 328.601562 C 474.730469 328.191406 474.882812 327.789062 475.023438 327.386719 C 475.105469 327.25 475.175781 327.101562 475.261719 326.96875 C 475.34375 326.832031 475.972656 326.027344 476.160156 325.757812 C 476.351562 325.542969 476.550781 325.332031 476.613281 325.257812 C 477.042969 325.5 477.433594 325.757812 477.429688 325.898438 C 477.160156 325.691406 476.894531 325.488281 476.625 325.28125 C 476.933594 325.53125 477.234375 325.78125 477.535156 326.042969 C 478.019531 326.460938 478.492188 326.890625 478.953125 327.328125 C 480.011719 328.316406 480.980469 329.449219 482.050781 330.425781 C 482.191406 330.65625 482.339844 330.886719 482.46875 331.128906 C 482.78125 331.707031 483.050781 332.296875 483.328125 332.890625 C 483.328125 332.90625 483.339844 332.917969 483.347656 332.9375 C 483.582031 333.546875 483.808594 334.15625 484.019531 334.769531 C 484.851562 337.148438 485.570312 339.566406 486.238281 341.996094 C 489.617188 354.269531 491.957031 366.816406 494.636719 379.246094 C 495.847656 384.871094 497.078125 390.5 498.605469 396.050781 C 499.726562 400.140625 500.933594 404.644531 503.195312 408.265625 C 506.121094 412.945312 510.699219 417.480469 516.203125 418.851562 C 521.269531 420.113281 526.554688 418.851562 530.738281 415.8125 C 539.433594 409.503906 544.871094 399.410156 550.199219 390.328125 C 552.898438 385.714844 555.566406 381.082031 558.515625 376.625 C 559.125 375.703125 559.746094 374.792969 560.394531 373.894531 C 560.675781 373.503906 560.957031 373.117188 561.246094 372.734375 C 561.359375 372.585938 561.484375 372.433594 561.605469 372.289062 C 562.816406 370.824219 564.128906 369.519531 565.523438 368.238281 C 565.644531 368.160156 565.765625 368.085938 565.886719 368.007812 C 565.867188 367.957031 566.132812 367.757812 566.566406 367.605469 C 566.578125 367.605469 566.59375 367.605469 566.605469 367.605469 C 566.625 367.589844 566.644531 367.585938 566.667969 367.570312 C 566.722656 367.554688 566.765625 367.535156 566.824219 367.519531 C 566.828125 367.519531 566.84375 367.519531 566.855469 367.515625 C 566.863281 367.515625 566.875 367.515625 566.882812 367.515625 C 566.847656 367.535156 566.804688 367.566406 566.773438 367.585938 C 566.886719 367.578125 566.996094 367.570312 567.097656 367.558594 C 567.265625 367.605469 567.425781 367.65625 567.585938 367.714844 C 568.0625 368.035156 568.675781 368.5 569.253906 368.875 C 569.046875 368.65625 569.277344 368.585938 569.824219 369.097656 C 569.894531 369.167969 569.972656 369.234375 570.046875 369.296875 C 570.113281 369.324219 570.183594 369.355469 570.246094 369.375 C 570.175781 369.355469 570.125 369.328125 570.0625 369.308594 C 570.195312 369.425781 570.324219 369.539062 570.453125 369.660156 C 571.101562 370.257812 571.714844 370.886719 572.316406 371.527344 C 572.792969 372.039062 573.246094 372.558594 573.695312 373.09375 C 573.851562 373.273438 573.996094 373.457031 574.144531 373.644531 C 574.953125 375.207031 576.355469 376.683594 577.320312 378.164062 C 584.859375 389.792969 590.011719 402.714844 596.558594 414.890625 C 598.625 418.722656 604.246094 420.242188 607.925781 417.871094 C 611.820312 415.363281 613.113281 410.597656 610.910156 406.503906 Z M 210.683594 366.726562 C 210.683594 366.726562 210.691406 366.71875 210.699219 366.710938 C 210.699219 366.710938 210.691406 366.71875 210.683594 366.726562 Z M 207.265625 367.160156 C 207.265625 367.160156 207.332031 367.199219 207.363281 367.21875 C 206.570312 367.136719 206.765625 367.066406 207.265625 367.160156 Z M 209.804688 367.621094 C 209.980469 367.449219 210.144531 367.269531 210.320312 367.097656 C 210.332031 367.097656 210.339844 367.085938 210.351562 367.085938 C 210.121094 367.328125 209.941406 367.5 209.804688 367.628906 Z M 258.6875 405.347656 C 258.667969 405.414062 258.316406 405.503906 258.128906 405.546875 C 258.457031 405.375 258.71875 405.253906 258.6875 405.347656 Z M 257.820312 405.714844 C 257.859375 405.695312 257.890625 405.675781 257.929688 405.65625 C 257.804688 405.765625 257.675781 405.875 257.558594 405.988281 C 257.65625 405.886719 257.738281 405.796875 257.820312 405.714844 Z M 297.46875 328.78125 C 297.40625 328.699219 297.34375 328.621094 297.285156 328.550781 C 297.417969 328.660156 297.488281 328.75 297.507812 328.800781 C 297.496094 328.796875 297.484375 328.789062 297.46875 328.78125 Z M 296.445312 328.050781 C 296.484375 328.082031 296.535156 328.101562 296.578125 328.132812 C 296.433594 327.980469 296.265625 327.808594 296.078125 327.589844 C 296.277344 327.8125 296.507812 328.019531 296.738281 328.222656 C 296.824219 328.261719 296.914062 328.300781 296.984375 328.339844 C 297.027344 328.367188 297.058594 328.390625 297.097656 328.417969 C 297.128906 328.472656 297.175781 328.546875 297.234375 328.636719 C 297.183594 328.601562 297.128906 328.578125 297.074219 328.539062 C 297.136719 328.597656 297.203125 328.652344 297.257812 328.71875 C 297.277344 328.738281 297.292969 328.757812 297.308594 328.777344 C 297.183594 328.691406 296.976562 328.527344 296.714844 328.269531 C 296.625 328.199219 296.539062 328.140625 296.445312 328.058594 Z M 300.335938 328.660156 C 300.335938 328.660156 300.34375 328.648438 300.347656 328.648438 C 300.417969 328.578125 300.496094 328.507812 300.574219 328.4375 C 300.796875 328.328125 301.054688 328.207031 301.214844 328.078125 C 300.875 328.351562 300.585938 328.53125 300.335938 328.660156 Z M 340.511719 437.195312 C 340.394531 437.367188 340.28125 437.539062 340.160156 437.707031 C 340.101562 437.785156 340.035156 437.855469 339.972656 437.925781 C 340.753906 436.578125 340.792969 436.71875 340.511719 437.195312 Z M 434.894531 432.097656 C 434.824219 432.277344 434.757812 432.460938 434.695312 432.640625 C 434.765625 432.441406 434.832031 432.257812 434.894531 432.097656 Z M 434.066406 437.769531 C 433.847656 437.558594 433.652344 437.375 433.515625 437.257812 C 433.515625 437.257812 433.507812 437.246094 433.503906 437.238281 C 433.792969 437.449219 433.976562 437.636719 434.066406 437.769531 Z M 434.675781 438.398438 C 434.882812 438.554688 435.074219 438.746094 435.132812 438.964844 C 435.105469 438.886719 434.921875 438.664062 434.675781 438.398438 Z M 435.054688 431.707031 C 435.34375 431.03125 435.464844 430.949219 435.054688 431.707031 Z M 475.410156 324.59375 C 474.195312 324.109375 474.925781 324.332031 475.410156 324.59375 Z M 474.671875 328.160156 C 474.671875 328.160156 474.941406 327.550781 475 327.457031 C 474.855469 327.828125 474.710938 328.160156 474.671875 328.160156 Z M 475.222656 326.859375 C 475.410156 326.328125 475.355469 326.492188 475.222656 326.859375 Z M 519.917969 402.589844 C 519.851562 402.578125 519.78125 402.554688 519.726562 402.546875 C 519.789062 402.554688 519.828125 402.566406 519.886719 402.570312 C 519.890625 402.578125 519.902344 402.585938 519.910156 402.597656 Z M 521.179688 402.425781 C 521.179688 402.425781 521.191406 402.410156 521.199219 402.410156 C 521.230469 402.40625 521.257812 402.398438 521.289062 402.390625 C 521.25 402.398438 521.210938 402.417969 521.179688 402.429688 Z M 567.136719 367.320312 C 567.136719 367.320312 567.117188 367.320312 567.113281 367.320312 C 567.175781 367.289062 567.238281 367.257812 567.296875 367.21875 C 567.234375 367.265625 567.195312 367.289062 567.136719 367.328125 Z M 567.136719 367.320312 " fill-opacity="1" fill-rule="nonzero"/></g><path fill="#f4f6ea" d="M 286.957031 363.867188 C 286.835938 363.9375 286.71875 364.019531 286.597656 364.097656 C 286.617188 364.148438 286.890625 364.050781 287.476562 363.679688 C 287.425781 363.679688 287.367188 363.6875 287.316406 363.691406 C 287.191406 363.75 287.066406 363.808594 286.957031 363.871094 Z M 286.957031 363.867188 " fill-opacity="1" fill-rule="nonzero"/><path fill="#f4f6ea" d="M 238.824219 396.699219 C 238.011719 395.257812 238.363281 396.039062 238.824219 396.699219 Z M 238.824219 396.699219 " fill-opacity="1" fill-rule="nonzero"/><path fill="#f4f6ea" d="M 289.960938 364.960938 C 290.078125 365.085938 290.339844 365.25 290.765625 365.390625 C 290.765625 365.390625 290.757812 365.390625 290.75 365.386719 C 290.507812 365.289062 290.238281 365.140625 289.957031 364.960938 Z M 289.960938 364.960938 " fill-opacity="1" fill-rule="nonzero"/><path fill="#f4f6ea" d="M 240.933594 398.761719 C 240.933594 398.761719 240.953125 398.761719 240.964844 398.769531 C 240.945312 398.769531 240.929688 398.769531 240.910156 398.769531 C 240.890625 398.769531 240.875 398.78125 240.855469 398.789062 C 240.875 398.808594 240.902344 398.828125 240.921875 398.847656 C 240.933594 398.847656 240.945312 398.847656 240.960938 398.847656 C 240.984375 398.839844 241.011719 398.828125 241.035156 398.820312 C 241.035156 398.820312 241.042969 398.820312 241.050781 398.828125 C 241.0625 398.828125 241.070312 398.820312 241.082031 398.816406 C 241.101562 398.820312 241.121094 398.828125 241.140625 398.835938 C 241.230469 398.828125 241.3125 398.828125 241.402344 398.820312 C 241.363281 398.808594 241.3125 398.796875 241.269531 398.789062 C 241.222656 398.789062 241.183594 398.789062 241.144531 398.789062 C 241.152344 398.789062 241.160156 398.78125 241.164062 398.777344 C 241.164062 398.777344 241.179688 398.777344 241.183594 398.777344 C 241.269531 398.738281 241.351562 398.691406 241.441406 398.648438 C 241.441406 398.648438 241.453125 398.640625 241.460938 398.636719 C 241.304688 398.675781 241.164062 398.710938 241.050781 398.746094 C 241 398.730469 240.929688 398.726562 240.871094 398.71875 C 240.894531 398.738281 240.929688 398.757812 240.953125 398.769531 C 240.945312 398.769531 240.941406 398.769531 240.933594 398.769531 Z M 240.933594 398.761719 " fill-opacity="1" fill-rule="nonzero"/><path fill="#f4f6ea" d="M 240.625 398.871094 C 240.679688 398.871094 240.730469 398.859375 240.800781 398.859375 C 240.8125 398.859375 240.820312 398.859375 240.832031 398.859375 C 240.8125 398.847656 240.800781 398.835938 240.78125 398.820312 C 240.714844 398.839844 240.664062 398.859375 240.621094 398.878906 Z M 240.625 398.871094 " fill-opacity="1" fill-rule="nonzero"/><path fill="#f4f6ea" d="M 212.492188 58.652344 C 212.683594 58.488281 212.871094 58.3125 213.058594 58.140625 C 212.917969 58.261719 212.730469 58.429688 212.480469 58.652344 C 212.480469 58.652344 212.480469 58.652344 212.488281 58.652344 Z M 212.492188 58.652344 " fill-opacity="1" fill-rule="nonzero"/></svg>