<svg xmlns="http://www.w3.org/2000/svg" xmlns:xlink="http://www.w3.org/1999/xlink" width="1024" zoomAndPan="magnify" viewBox="0 0 768 767.999994" height="1024" preserveAspectRatio="xMidYMid meet" version="1.0"><defs><clipPath id="cb206beeca"><path d="M 132.480469 132.480469 L 635.730469 132.480469 L 635.730469 635.730469 L 132.480469 635.730469 Z M 132.480469 132.480469 " clip-rule="nonzero"/></clipPath></defs><g clip-path="url(#cb206beeca)"><path fill="#f4f6ea" d="M 263.183594 494.679688 C 258.84375 494.679688 255.328125 491.164062 255.328125 486.828125 C 255.328125 482.488281 258.84375 478.972656 263.183594 478.972656 L 357.984375 478.972656 C 362.324219 478.972656 365.839844 482.488281 365.839844 486.828125 C 365.839844 491.164062 362.324219 494.679688 357.984375 494.679688 Z M 159.429688 303.984375 C 159.417969 303.808594 159.410156 303.632812 159.410156 303.457031 L 159.410156 200.96875 C 159.410156 197.027344 162.339844 193.6875 166.253906 193.179688 C 187.511719 190.410156 213.285156 181.476562 245.042969 165.871094 C 247.222656 164.792969 249.78125 164.792969 251.96875 165.871094 C 283.730469 181.476562 309.5 190.40625 330.757812 193.179688 C 334.671875 193.6875 337.601562 197.019531 337.601562 200.96875 L 337.601562 303.457031 C 337.601562 303.632812 337.59375 303.816406 337.582031 303.992188 C 335.261719 338.007812 306.476562 369.109375 252.027344 396.425781 C 250.921875 396.976562 249.714844 397.261719 248.507812 397.261719 C 247.296875 397.261719 246.089844 396.984375 244.984375 396.425781 C 190.511719 369.097656 161.726562 337.996094 159.429688 303.984375 Z M 175.117188 303.179688 C 177.105469 330.476562 201.792969 356.507812 248.507812 380.589844 C 295.199219 356.519531 319.886719 330.488281 321.894531 303.179688 L 321.894531 207.703125 C 301.054688 204.03125 277.441406 195.644531 248.507812 181.660156 C 219.570312 195.644531 195.957031 204.03125 175.117188 207.703125 Z M 238.621094 449.476562 L 237.648438 449.476562 C 233.308594 449.476562 229.792969 452.992188 229.792969 457.328125 C 229.792969 461.667969 233.308594 465.183594 237.648438 465.183594 L 238.621094 465.183594 C 242.960938 465.183594 246.476562 461.667969 246.476562 457.328125 C 246.476562 452.992188 242.960938 449.476562 238.621094 449.476562 Z M 238.621094 478.972656 L 237.648438 478.972656 C 233.308594 478.972656 229.792969 482.488281 229.792969 486.828125 C 229.792969 491.164062 233.308594 494.679688 237.648438 494.679688 L 238.621094 494.679688 C 242.960938 494.679688 246.476562 491.164062 246.476562 486.828125 C 246.476562 482.488281 242.960938 478.972656 238.621094 478.972656 Z M 238.621094 508.4375 L 237.648438 508.4375 C 233.308594 508.4375 229.792969 511.953125 229.792969 516.292969 C 229.792969 520.632812 233.308594 524.144531 237.648438 524.144531 L 238.621094 524.144531 C 242.960938 524.144531 246.476562 520.632812 246.476562 516.292969 C 246.476562 511.953125 242.960938 508.4375 238.621094 508.4375 Z M 255.328125 516.292969 C 255.328125 520.632812 258.84375 524.144531 263.183594 524.144531 L 383.050781 524.144531 C 387.390625 524.144531 390.902344 520.632812 390.902344 516.292969 C 390.902344 511.953125 387.390625 508.4375 383.050781 508.4375 L 263.183594 508.4375 C 258.84375 508.4375 255.328125 511.953125 255.328125 516.292969 Z M 450.035156 406.390625 C 450.035156 382.570312 469.414062 363.191406 493.234375 363.191406 C 517.054688 363.191406 536.402344 382.570312 536.402344 406.390625 C 536.402344 430.210938 517.035156 449.558594 493.234375 449.558594 C 469.433594 449.558594 450.035156 430.191406 450.035156 406.390625 Z M 465.742188 406.390625 C 465.742188 421.53125 478.074219 433.851562 493.234375 433.851562 C 508.394531 433.851562 520.695312 421.53125 520.695312 406.390625 C 520.695312 391.25 508.375 378.898438 493.234375 378.898438 C 478.09375 378.898438 465.742188 391.230469 465.742188 406.390625 Z M 255.328125 457.328125 C 255.328125 461.667969 258.84375 465.183594 263.183594 465.183594 L 357.984375 465.183594 C 362.324219 465.183594 365.839844 461.667969 365.839844 457.328125 C 365.839844 452.992188 362.324219 449.476562 357.984375 449.476562 L 263.183594 449.476562 C 258.84375 449.476562 255.328125 452.992188 255.328125 457.328125 Z M 599.175781 447.613281 L 599.175781 569.871094 L 622.597656 569.871094 C 626.9375 569.871094 630.449219 573.386719 630.449219 577.726562 L 630.449219 602.683594 C 630.449219 620.785156 615.71875 635.519531 597.613281 635.519531 L 170.414062 635.519531 C 152.3125 635.519531 137.578125 620.785156 137.578125 602.683594 L 137.578125 577.726562 C 137.578125 573.386719 141.09375 569.871094 145.433594 569.871094 L 168.855469 569.871094 L 168.855469 378.816406 C 167.472656 377.480469 166.121094 376.132812 164.820312 374.789062 C 144.835938 354.050781 133.957031 331.464844 132.5 307.636719 C 132.484375 307.480469 132.484375 307.316406 132.484375 307.152344 L 132.484375 175.339844 C 132.484375 171.050781 135.933594 167.554688 140.21875 167.484375 C 165.902344 167.09375 200.164062 155.914062 244.976562 133.316406 C 247.203125 132.191406 249.828125 132.191406 252.050781 133.316406 C 296.859375 155.914062 331.117188 167.089844 356.777344 167.484375 C 361.066406 167.546875 364.511719 171.042969 364.511719 175.339844 L 364.511719 238.644531 L 571.640625 238.644531 C 586.824219 238.644531 599.179688 251.003906 599.179688 266.1875 L 599.179688 365.160156 C 613.078125 375.617188 624.96875 388.085938 634.21875 402.046875 C 635.960938 404.675781 635.960938 408.09375 634.21875 410.722656 C 624.96875 424.683594 613.070312 437.152344 599.179688 447.609375 Z M 364.507812 270.785156 L 559.15625 270.785156 C 563.496094 270.785156 567.011719 274.300781 567.011719 278.636719 L 567.011719 346.253906 C 569.886719 347.535156 572.722656 348.882812 575.511719 350.320312 C 578.214844 351.71875 580.871094 353.183594 583.472656 354.710938 L 583.472656 266.195312 C 583.472656 259.667969 578.167969 254.359375 571.640625 254.359375 L 364.511719 254.359375 L 364.511719 270.789062 Z M 332.175781 374.789062 C 313.660156 393.996094 286.667969 412.234375 251.921875 429.003906 C 250.839844 429.523438 249.675781 429.78125 248.507812 429.78125 C 247.335938 429.78125 246.171875 429.523438 245.089844 429.003906 C 234.957031 424.109375 225.5 419.09375 216.695312 413.960938 L 216.695312 537.703125 L 551.292969 537.703125 L 551.292969 472.648438 C 532.863281 478.816406 513.1875 482.015625 493.257812 482.027344 C 493.246094 482.027344 493.234375 482.027344 493.222656 482.027344 C 493.222656 482.027344 493.214844 482.027344 493.210938 482.027344 C 493.210938 482.027344 493.195312 482.027344 493.191406 482.027344 C 464.222656 482.027344 435.773438 475.261719 410.910156 462.460938 C 386.660156 449.972656 366.363281 432.082031 352.207031 410.722656 C 350.464844 408.09375 350.464844 404.675781 352.207031 402.046875 C 366.355469 380.691406 386.652344 362.800781 410.910156 350.308594 C 435.773438 337.507812 464.226562 330.742188 493.191406 330.742188 C 493.191406 330.742188 493.203125 330.742188 493.210938 330.742188 C 493.210938 330.742188 493.214844 330.742188 493.222656 330.742188 C 493.234375 330.742188 493.246094 330.742188 493.257812 330.742188 C 513.179688 330.746094 532.859375 333.953125 551.292969 340.121094 L 551.292969 286.484375 L 364.492188 286.484375 L 364.492188 307.148438 C 364.492188 307.3125 364.492188 307.46875 364.480469 307.632812 C 363.023438 331.449219 352.144531 354.042969 332.160156 374.78125 Z M 493.222656 466.328125 C 493.222656 466.328125 493.253906 466.328125 493.265625 466.328125 C 526.296875 466.308594 553.164062 439.429688 553.164062 406.398438 C 553.164062 373.367188 526.296875 346.484375 493.265625 346.464844 C 493.253906 346.464844 493.234375 346.464844 493.222656 346.464844 C 460.164062 346.464844 433.273438 373.355469 433.273438 406.402344 C 433.273438 439.453125 460.164062 466.335938 493.222656 466.339844 Z M 417.558594 406.390625 C 417.558594 387.21875 424.746094 369.699219 436.546875 356.351562 C 408.78125 366.417969 384.734375 383.742188 368.316406 406.390625 C 384.734375 429.039062 408.78125 446.363281 436.546875 456.429688 C 424.746094 443.082031 417.558594 425.5625 417.558594 406.390625 Z M 200.992188 545.5625 L 200.992188 404.222656 C 195.144531 400.347656 189.65625 396.425781 184.5625 392.4375 L 184.5625 569.878906 L 583.46875 569.878906 L 583.46875 458.078125 C 580.863281 459.605469 578.214844 461.070312 575.507812 462.46875 C 572.722656 463.902344 569.878906 465.253906 567.003906 466.535156 L 567.003906 545.570312 C 567.003906 549.90625 563.488281 553.421875 559.152344 553.421875 L 208.847656 553.421875 C 204.507812 553.421875 200.992188 549.90625 200.992188 545.570312 Z M 176.125 363.890625 C 192.742188 381.136719 217.085938 397.714844 248.507812 413.195312 C 279.914062 397.714844 304.242188 381.132812 320.863281 363.890625 C 338.117188 345.988281 347.511719 326.824219 348.800781 306.914062 L 348.800781 182.808594 C 322.585938 180.632812 289.640625 169.558594 248.511719 149.117188 C 207.375 169.566406 174.425781 180.640625 148.195312 182.808594 L 148.195312 306.910156 C 149.476562 326.816406 158.878906 345.980469 176.132812 363.882812 Z M 591.320312 585.578125 L 153.285156 585.578125 L 153.285156 602.683594 C 153.285156 612.128906 160.972656 619.8125 170.414062 619.8125 L 597.613281 619.8125 C 607.058594 619.8125 614.742188 612.128906 614.742188 602.683594 L 614.742188 585.578125 Z M 618.109375 406.390625 C 601.695312 383.746094 577.65625 366.429688 549.894531 356.363281 C 561.691406 369.707031 568.871094 387.226562 568.871094 406.390625 C 568.871094 425.558594 561.691406 443.074219 549.894531 456.417969 C 577.65625 446.351562 601.695312 429.035156 618.109375 406.390625 Z M 618.109375 406.390625 " fill-opacity="1" fill-rule="nonzero"/></g></svg>