<svg xmlns="http://www.w3.org/2000/svg" xmlns:xlink="http://www.w3.org/1999/xlink" width="1024" zoomAndPan="magnify" viewBox="0 0 768 767.999994" height="1024" preserveAspectRatio="xMidYMid meet" version="1.0"><defs><clipPath id="5e7f6be179"><path d="M 134 135 L 634 135 L 634 633.71875 L 134 633.71875 Z M 134 135 " clip-rule="nonzero"/></clipPath></defs><g clip-path="url(#5e7f6be179)"><path fill="#f4f6ea" d="M 177.128906 265.894531 C 168.667969 255.171875 163.578125 241.667969 163.578125 226.949219 C 163.578125 192.171875 191.769531 163.980469 226.546875 163.980469 C 261.324219 163.980469 289.515625 192.171875 289.515625 226.949219 C 289.515625 241.667969 284.429688 255.171875 275.96875 265.894531 C 269.382812 256.5625 260.519531 249.441406 250.382812 245.070312 C 255.535156 239.359375 258.761719 231.875 258.761719 223.597656 C 258.761719 205.835938 244.308594 191.390625 226.546875 191.390625 C 208.785156 191.390625 194.335938 205.835938 194.335938 223.597656 C 194.335938 231.875 197.5625 239.359375 202.714844 245.070312 C 192.578125 249.441406 183.714844 256.5625 177.128906 265.894531 Z M 243.019531 223.597656 C 243.019531 214.519531 235.628906 207.132812 226.546875 207.132812 C 217.46875 207.132812 210.078125 214.519531 210.078125 223.597656 C 210.078125 232.679688 217.46875 240.070312 226.546875 240.070312 C 235.628906 240.070312 243.019531 232.679688 243.019531 223.597656 Z M 189.042969 276.191406 C 188.847656 276.484375 188.554688 276.652344 188.328125 276.914062 C 198.933594 285.039062 212.15625 289.917969 226.546875 289.917969 C 240.960938 289.917969 254.199219 285.023438 264.8125 276.878906 C 264.582031 276.617188 264.25 276.492188 264.054688 276.191406 C 255.664062 263.429688 241.644531 255.8125 226.546875 255.8125 C 211.453125 255.8125 197.429688 263.429688 189.042969 276.191406 Z M 557.863281 223.597656 C 557.863281 214.519531 550.472656 207.132812 541.394531 207.132812 C 532.3125 207.132812 524.921875 214.519531 524.921875 223.597656 C 524.921875 232.679688 532.3125 240.070312 541.394531 240.070312 C 550.472656 240.070312 557.863281 232.679688 557.863281 223.597656 Z M 491.972656 265.890625 C 498.5625 256.5625 507.425781 249.441406 517.558594 245.070312 C 512.410156 239.359375 509.179688 231.875 509.179688 223.597656 C 509.179688 205.835938 523.632812 191.390625 541.394531 191.390625 C 559.15625 191.390625 573.605469 205.835938 573.605469 223.597656 C 573.605469 231.875 570.378906 239.359375 565.230469 245.070312 C 575.363281 249.441406 584.226562 256.5625 590.816406 265.890625 C 599.273438 255.171875 604.363281 241.664062 604.363281 226.949219 C 604.363281 192.171875 576.171875 163.980469 541.394531 163.980469 C 506.617188 163.980469 478.425781 192.171875 478.425781 226.949219 C 478.425781 241.664062 483.511719 255.171875 491.972656 265.890625 Z M 503.894531 276.191406 C 503.699219 276.484375 503.402344 276.652344 503.175781 276.914062 C 513.78125 285.039062 527 289.917969 541.394531 289.917969 C 555.804688 289.917969 569.042969 285.027344 579.65625 276.882812 C 579.425781 276.617188 579.09375 276.492188 578.894531 276.191406 C 570.511719 263.429688 556.492188 255.8125 541.394531 255.8125 C 526.296875 255.8125 512.277344 263.429688 503.894531 276.191406 Z M 243.023438 538.4375 C 243.023438 529.410156 235.679688 521.960938 226.546875 521.960938 C 217.417969 521.960938 210.070312 529.410156 210.070312 538.4375 C 210.070312 547.566406 217.417969 554.914062 226.546875 554.914062 C 235.679688 554.914062 243.023438 547.566406 243.023438 538.4375 Z M 226.546875 570.65625 C 211.433594 570.65625 197.476562 578.316406 189.082031 591.015625 C 188.871094 591.332031 188.660156 591.644531 188.347656 591.855469 C 198.945312 599.9375 212.171875 604.765625 226.546875 604.765625 C 240.925781 604.765625 254.148438 599.9375 264.75 591.855469 C 264.433594 591.644531 264.226562 591.332031 264.015625 591.015625 C 255.617188 578.316406 241.660156 570.65625 226.546875 570.65625 Z M 226.546875 478.828125 C 191.808594 478.828125 163.578125 507.058594 163.578125 541.796875 C 163.578125 556.488281 168.617188 570.027344 177.117188 580.730469 C 183.625 571.390625 192.546875 564.253906 202.621094 559.847656 C 197.476562 554.179688 194.328125 546.625 194.328125 538.4375 C 194.328125 520.699219 208.8125 506.21875 226.546875 506.21875 C 244.285156 506.21875 258.765625 520.699219 258.765625 538.4375 C 258.765625 546.625 255.617188 554.179688 250.476562 559.847656 C 260.550781 564.253906 269.472656 571.390625 275.980469 580.730469 C 284.480469 570.027344 289.515625 556.488281 289.515625 541.796875 C 289.515625 507.058594 261.285156 478.828125 226.546875 478.828125 Z M 557.863281 538.445312 C 557.863281 529.363281 550.472656 521.980469 541.394531 521.980469 C 532.3125 521.980469 524.921875 529.363281 524.921875 538.445312 C 524.921875 547.523438 532.3125 554.914062 541.394531 554.914062 C 550.472656 554.914062 557.863281 547.523438 557.863281 538.445312 Z M 541.394531 478.828125 C 506.617188 478.828125 478.425781 507.019531 478.425781 541.796875 C 478.425781 556.511719 483.511719 570.015625 491.972656 580.734375 C 498.5625 571.40625 507.425781 564.285156 517.558594 559.917969 C 512.410156 554.203125 509.179688 546.722656 509.179688 538.445312 C 509.179688 520.683594 523.632812 506.238281 541.394531 506.238281 C 559.15625 506.238281 573.605469 520.683594 573.605469 538.445312 C 573.605469 546.722656 570.378906 554.203125 565.230469 559.917969 C 575.363281 564.285156 584.226562 571.40625 590.816406 580.734375 C 599.273438 570.015625 604.363281 556.511719 604.363281 541.796875 C 604.363281 507.019531 576.171875 478.828125 541.394531 478.828125 Z M 541.394531 570.65625 C 526.296875 570.65625 512.277344 578.277344 503.894531 591.035156 C 503.699219 591.332031 503.402344 591.5 503.175781 591.757812 C 513.78125 599.882812 527 604.765625 541.394531 604.765625 C 555.804688 604.765625 569.042969 599.871094 579.65625 591.726562 C 579.425781 591.460938 579.09375 591.335938 578.894531 591.035156 C 570.511719 578.277344 556.492188 570.65625 541.394531 570.65625 Z M 480.3125 591.332031 C 476.957031 587.132812 473.910156 582.726562 471.601562 577.898438 C 444.316406 590.386719 414.300781 596.894531 383.972656 596.894531 C 383.324219 596.894531 382.679688 596.847656 382.035156 596.839844 L 389.535156 589.339844 C 392.609375 586.265625 392.609375 581.285156 389.535156 578.210938 C 386.460938 575.136719 381.480469 575.136719 378.40625 578.210938 L 360.980469 595.636719 C 338.582031 593.195312 316.699219 587.21875 296.339844 577.898438 C 294.03125 582.726562 290.988281 587.132812 287.628906 591.332031 C 309.890625 601.683594 333.773438 608.378906 358.242188 611.15625 L 378.40625 631.320312 C 379.941406 632.855469 381.957031 633.625 383.972656 633.625 C 385.984375 633.625 388 632.855469 389.535156 631.320312 C 392.609375 628.246094 392.609375 623.265625 389.535156 620.1875 L 381.925781 612.578125 C 382.609375 612.585938 383.289062 612.636719 383.972656 612.636719 C 417.34375 612.636719 450.296875 605.289062 480.3125 591.332031 Z M 287.628906 177.414062 C 290.988281 181.613281 294.03125 186.019531 296.339844 190.847656 C 323.625 178.359375 353.640625 171.851562 383.972656 171.851562 C 384.617188 171.851562 385.261719 171.898438 385.90625 171.902344 L 378.40625 179.40625 C 375.332031 182.480469 375.332031 187.460938 378.40625 190.535156 C 379.941406 192.074219 381.957031 192.84375 383.972656 192.84375 C 385.984375 192.84375 388 192.074219 389.535156 190.535156 L 406.960938 173.109375 C 429.359375 175.550781 451.242188 181.527344 471.601562 190.847656 C 473.910156 186.019531 476.957031 181.613281 480.3125 177.414062 C 458.050781 167.0625 434.167969 160.367188 409.699219 157.589844 L 389.535156 137.425781 C 386.460938 134.351562 381.480469 134.351562 378.40625 137.425781 C 375.332031 140.5 375.332031 145.480469 378.40625 148.554688 L 386.015625 156.167969 C 385.332031 156.160156 384.652344 156.109375 383.972656 156.109375 C 350.597656 156.109375 317.644531 163.457031 287.628906 177.414062 Z M 177.011719 480.714844 C 181.210938 477.355469 185.617188 474.3125 190.445312 472.003906 C 177.957031 444.71875 171.449219 414.703125 171.449219 384.371094 C 171.449219 383.726562 171.496094 383.082031 171.503906 382.4375 L 179.003906 389.9375 C 180.539062 391.476562 182.554688 392.242188 184.570312 392.242188 C 186.582031 392.242188 188.597656 391.476562 190.132812 389.9375 C 193.207031 386.863281 193.207031 381.882812 190.132812 378.808594 L 172.707031 361.382812 C 175.148438 338.984375 181.125 317.101562 190.445312 296.742188 C 185.617188 294.433594 181.210938 291.390625 177.011719 288.03125 C 166.660156 310.292969 159.964844 334.175781 157.1875 358.644531 L 137.023438 378.808594 C 133.949219 381.882812 133.949219 386.863281 137.023438 389.9375 C 140.097656 393.011719 145.078125 393.011719 148.15625 389.9375 L 155.765625 382.328125 C 155.757812 383.011719 155.707031 383.691406 155.707031 384.371094 C 155.707031 417.746094 163.054688 450.699219 177.011719 480.714844 Z M 630.917969 378.808594 C 627.84375 375.734375 622.863281 375.734375 619.789062 378.808594 L 612.175781 386.417969 C 612.183594 385.734375 612.234375 385.054688 612.234375 384.371094 C 612.234375 351 604.886719 317.941406 590.929688 288.03125 C 586.730469 291.390625 582.324219 294.433594 577.496094 296.742188 C 589.984375 324.027344 596.492188 354.042969 596.492188 384.371094 C 596.492188 385.019531 596.445312 385.664062 596.441406 386.308594 L 588.9375 378.808594 C 585.863281 375.734375 580.882812 375.734375 577.808594 378.808594 C 574.734375 381.882812 574.734375 386.863281 577.808594 389.9375 L 595.234375 407.363281 C 592.792969 429.761719 586.816406 451.644531 577.496094 472.003906 C 582.324219 474.3125 586.730469 477.355469 590.929688 480.714844 C 601.285156 458.523438 607.980469 434.597656 610.757812 410.097656 L 630.917969 389.9375 C 633.992188 386.863281 633.992188 381.882812 630.917969 378.808594 Z M 436.445312 457.835938 C 436.445312 446.246094 427.046875 436.847656 415.457031 436.847656 L 352.488281 436.847656 C 340.894531 436.847656 331.496094 446.246094 331.496094 457.835938 C 331.496094 469.429688 340.894531 478.828125 352.488281 478.828125 L 415.457031 478.828125 C 427.046875 478.828125 436.445312 469.429688 436.445312 457.835938 Z M 457.433594 340.085938 C 456.28125 301.777344 423.957031 269.769531 385.648438 268.929688 C 344.195312 268.089844 310.507812 301.253906 310.507812 342.394531 C 310.507812 364.433594 320.160156 384.164062 335.484375 397.492188 C 342.726562 403.894531 348.289062 412.078125 350.703125 421.210938 C 351.332031 421.105469 351.855469 421.105469 352.488281 421.105469 L 376.101562 421.105469 L 376.101562 387.625 L 357.417969 368.945312 C 354.375 365.902344 354.375 360.863281 357.417969 357.820312 C 360.460938 354.777344 365.5 354.777344 368.542969 357.820312 L 383.972656 373.25 L 399.398438 357.820312 C 402.441406 354.777344 407.480469 354.777344 410.523438 357.820312 C 413.566406 360.863281 413.566406 365.902344 410.523438 368.945312 L 391.84375 387.625 L 391.84375 421.105469 L 415.457031 421.105469 C 415.875 421.105469 416.398438 421.105469 416.820312 421.210938 C 419.128906 412.289062 424.480469 404.3125 431.722656 398.226562 C 447.988281 384.371094 458.066406 363.488281 457.433594 340.085938 Z M 383.972656 520.804688 C 399.609375 520.804688 412.515625 509.472656 414.929688 494.570312 L 353.011719 494.570312 C 355.425781 509.472656 368.332031 520.804688 383.972656 520.804688 Z M 383.972656 520.804688 " fill-opacity="1" fill-rule="nonzero"/></g></svg>