<svg xmlns="http://www.w3.org/2000/svg" xmlns:xlink="http://www.w3.org/1999/xlink" width="1024" zoomAndPan="magnify" viewBox="0 0 768 767.999994" height="1024" preserveAspectRatio="xMidYMid meet" version="1.0"><defs><clipPath id="7b1aae5294"><path d="M 142.65625 125.953125 L 598.65625 125.953125 L 598.65625 615.703125 L 142.65625 615.703125 Z M 142.65625 125.953125 " clip-rule="nonzero"/></clipPath></defs><g clip-path="url(#7b1aae5294)"><path fill="#f4f6ea" d="M 528.773438 393.144531 L 528.773438 419.109375 L 506.242188 419.109375 L 506.242188 393.144531 Z M 506.242188 457.257812 L 506.242188 431.296875 L 528.773438 431.296875 L 528.773438 457.257812 Z M 506.242188 495.398438 L 506.242188 469.4375 L 528.773438 469.4375 L 528.773438 495.398438 Z M 500.148438 507.585938 L 534.867188 507.585938 C 538.226562 507.585938 540.960938 504.855469 540.960938 501.492188 L 540.960938 387.050781 C 540.960938 383.679688 538.226562 380.957031 534.867188 380.957031 L 500.148438 380.957031 C 496.785156 380.957031 494.054688 383.691406 494.054688 387.050781 L 494.054688 501.492188 C 494.054688 504.863281 496.785156 507.585938 500.148438 507.585938 Z M 382.84375 392.414062 L 382.84375 411.214844 L 358.386719 411.214844 L 358.386719 392.414062 Z M 358.386719 442.203125 L 358.386719 423.402344 L 382.84375 423.402344 L 382.84375 442.203125 Z M 352.292969 454.394531 L 388.9375 454.394531 C 392.300781 454.394531 395.03125 451.660156 395.03125 448.300781 L 395.03125 386.320312 C 395.03125 382.949219 392.300781 380.226562 388.9375 380.226562 L 352.292969 380.226562 C 348.929688 380.226562 346.195312 382.957031 346.195312 386.320312 L 346.195312 448.300781 C 346.195312 451.671875 348.929688 454.394531 352.292969 454.394531 Z M 234.988281 393.144531 L 234.988281 419.109375 L 212.457031 419.109375 L 212.457031 393.144531 Z M 212.457031 457.257812 L 212.457031 431.296875 L 234.988281 431.296875 L 234.988281 457.257812 Z M 212.457031 495.398438 L 212.457031 469.445312 L 234.988281 469.445312 L 234.988281 495.398438 Z M 206.363281 507.585938 L 241.082031 507.585938 C 244.441406 507.585938 247.175781 504.863281 247.175781 501.492188 L 247.175781 387.050781 C 247.175781 383.679688 244.441406 380.957031 241.082031 380.957031 L 206.363281 380.957031 C 203 380.957031 200.269531 383.691406 200.269531 387.050781 L 200.269531 501.492188 C 200.269531 504.863281 203 507.585938 206.363281 507.585938 Z M 586.210938 336.398438 L 581.457031 350.507812 C 580.910156 352.140625 579.546875 353.117188 577.820312 353.117188 L 163.417969 353.117188 C 161.691406 353.117188 160.332031 352.140625 159.78125 350.507812 L 155.019531 336.398438 L 155.039062 336.296875 L 150.09375 332.742188 L 155.132812 336.246094 L 586.097656 336.246094 L 586.191406 336.296875 L 591.136719 332.742188 L 586.199219 336.398438 Z M 560.074219 532.785156 L 560.074219 365.316406 L 474.929688 365.316406 L 474.929688 522.558594 C 479.398438 524.03125 482.730469 527.980469 483.296875 532.785156 Z M 522.140625 603.328125 L 522.140625 581.621094 C 522.140625 578.257812 519.40625 575.527344 516.042969 575.527344 L 500.523438 575.527344 L 500.523438 553.820312 C 500.523438 550.460938 497.792969 547.726562 494.429688 547.726562 L 483.398438 547.726562 L 483.398438 544.964844 L 560.074219 544.964844 L 560.074219 603.328125 Z M 181.152344 544.976562 L 257.828125 544.976562 L 257.828125 547.738281 L 246.800781 547.738281 C 243.4375 547.738281 240.707031 550.46875 240.707031 553.832031 L 240.707031 575.539062 L 225.183594 575.539062 C 221.824219 575.539062 219.089844 578.269531 219.089844 581.632812 L 219.089844 603.335938 L 181.152344 603.335938 Z M 299.648438 521.929688 L 278.480469 521.929688 L 278.480469 365.304688 L 299.648438 365.304688 Z M 429.394531 522.558594 L 429.394531 365.316406 L 311.835938 365.316406 L 311.835938 522.558594 C 316.742188 524.171875 320.304688 528.804688 320.304688 534.25 L 320.304688 547.738281 L 333.480469 547.738281 L 333.480469 480.414062 L 329.703125 480.414062 C 326.339844 480.414062 323.609375 477.683594 323.609375 474.320312 C 323.609375 470.960938 326.339844 468.226562 329.703125 468.226562 L 411.527344 468.226562 C 414.890625 468.226562 417.621094 470.960938 417.621094 474.320312 C 417.621094 477.683594 414.890625 480.414062 411.527344 480.414062 L 407.75 480.414062 L 407.75 547.738281 L 420.921875 547.738281 L 420.921875 534.25 C 420.921875 528.804688 424.476562 524.183594 429.394531 522.558594 Z M 462.738281 521.929688 L 441.574219 521.929688 L 441.574219 365.304688 L 462.738281 365.304688 Z M 433.113281 547.726562 L 433.113281 534.238281 C 433.113281 534.1875 433.183594 534.117188 433.222656 534.117188 L 471.089844 534.117188 C 471.140625 534.117188 471.210938 534.1875 471.210938 534.238281 L 471.210938 547.726562 Z M 376.710938 547.726562 L 376.710938 480.40625 L 395.5625 480.40625 L 395.5625 547.726562 Z M 364.519531 480.40625 L 364.519531 547.726562 L 345.667969 547.726562 L 345.667969 480.40625 Z M 270.019531 534.238281 C 270.019531 534.1875 270.089844 534.117188 270.140625 534.117188 L 308.007812 534.117188 C 308.007812 534.117188 308.117188 534.1875 308.117188 534.238281 L 308.117188 547.726562 L 270.019531 547.726562 Z M 488.335938 575.527344 L 488.335938 559.914062 L 252.894531 559.914062 L 252.894531 575.527344 Z M 509.949219 603.328125 L 509.949219 587.714844 L 231.277344 587.714844 L 231.277344 603.328125 L 509.960938 603.328125 Z M 266.300781 365.316406 L 181.152344 365.316406 L 181.152344 532.785156 L 257.929688 532.785156 C 258.5 527.980469 261.84375 524.03125 266.300781 522.558594 Z M 243.246094 308.933594 C 243.246094 307.582031 244.382812 306.445312 245.734375 306.445312 L 495.507812 306.445312 C 496.859375 306.445312 497.996094 307.582031 497.996094 308.933594 L 497.996094 324.066406 L 243.246094 324.066406 Z M 346.105469 206.246094 C 342.511719 211.28125 339.21875 217.488281 336.335938 224.800781 C 328.917969 243.601562 324.625 268.089844 324.117188 294.257812 L 274.273438 294.257812 C 276.589844 251.871094 306.382812 216.675781 346.105469 206.246094 Z M 370.613281 203.085938 C 354.871094 203.085938 337.390625 240.25 336.304688 294.257812 L 404.925781 294.257812 C 403.839844 240.25 386.359375 203.085938 370.613281 203.085938 Z M 466.957031 294.257812 L 417.113281 294.257812 C 416.597656 268.089844 412.308594 243.601562 404.894531 224.800781 C 402.011719 217.488281 398.730469 211.273438 395.125 206.246094 C 434.847656 216.6875 464.640625 251.871094 466.957031 294.257812 Z M 376.710938 138.128906 L 409.566406 138.128906 L 403.574219 144.023438 C 402.40625 145.167969 401.757812 146.734375 401.757812 148.367188 C 401.757812 150.003906 402.417969 151.570312 403.574219 152.714844 L 409.566406 158.605469 L 376.710938 158.605469 Z M 596.09375 329.1875 C 593.757812 325.925781 590.109375 324.058594 586.097656 324.058594 L 510.175781 324.058594 L 510.175781 308.921875 C 510.175781 300.828125 503.59375 294.246094 495.496094 294.246094 L 479.164062 294.246094 C 476.472656 238.796875 432.046875 194.136719 376.710938 191.058594 L 376.710938 170.785156 L 424.449219 170.785156 C 426.925781 170.785156 429.152344 169.292969 430.085938 166.996094 C 431.019531 164.703125 430.480469 162.070312 428.714844 160.34375 L 416.523438 148.359375 L 428.714844 136.375 C 430.480469 134.636719 431.019531 132.003906 430.085938 129.71875 C 429.152344 127.433594 426.914062 125.941406 424.449219 125.941406 L 370.613281 125.941406 C 367.253906 125.941406 364.519531 128.675781 364.519531 132.035156 L 364.519531 191.070312 C 309.175781 194.148438 264.746094 238.808594 262.066406 294.257812 L 245.734375 294.257812 C 237.636719 294.257812 231.054688 300.835938 231.054688 308.933594 L 231.054688 324.066406 L 155.132812 324.066406 C 151.117188 324.066406 147.484375 325.9375 145.136719 329.195312 C 142.800781 332.457031 142.191406 336.5 143.472656 340.296875 L 148.222656 354.40625 C 150.457031 361.027344 156.421875 365.304688 163.410156 365.304688 L 168.957031 365.304688 L 168.957031 609.421875 C 168.957031 612.785156 171.6875 615.515625 175.050781 615.515625 L 566.160156 615.515625 C 569.53125 615.515625 572.253906 612.785156 572.253906 609.421875 L 572.253906 365.304688 L 577.800781 365.304688 C 584.789062 365.304688 590.75 361.027344 592.984375 354.40625 L 597.75 340.296875 C 599.027344 336.5 598.429688 332.445312 596.082031 329.195312 Z M 596.09375 329.1875 " fill-opacity="1" fill-rule="evenodd"/></g></svg>