<svg xmlns="http://www.w3.org/2000/svg" xmlns:xlink="http://www.w3.org/1999/xlink" width="1024" zoomAndPan="magnify" viewBox="0 0 768 767.999994" height="1024" preserveAspectRatio="xMidYMid meet" version="1.0"><defs><clipPath id="78b44c61c6"><path d="M 144.382812 144.382812 L 620.632812 144.382812 L 620.632812 620.632812 L 144.382812 620.632812 Z M 144.382812 144.382812 " clip-rule="nonzero"/></clipPath></defs><g clip-path="url(#78b44c61c6)"><path fill="#f4f6ea" d="M 388.390625 482.789062 C 388.390625 486.0625 385.730469 488.71875 382.460938 488.71875 C 379.191406 488.71875 376.535156 486.0625 376.535156 482.789062 C 376.535156 479.519531 379.191406 476.863281 382.460938 476.863281 C 385.730469 476.863281 388.390625 479.511719 388.390625 482.789062 Z M 318.597656 418.914062 C 316.285156 421.226562 316.285156 424.980469 318.597656 427.300781 C 320.90625 429.613281 324.660156 429.613281 326.984375 427.300781 C 341.800781 412.484375 361.507812 404.3125 382.472656 404.3125 C 403.433594 404.3125 423.144531 412.472656 437.960938 427.300781 C 439.117188 428.457031 440.636719 429.039062 442.148438 429.039062 C 443.660156 429.039062 445.183594 428.457031 446.339844 427.300781 C 448.648438 424.988281 448.648438 421.234375 446.339844 418.914062 C 429.277344 401.855469 406.597656 392.460938 382.472656 392.460938 C 358.347656 392.460938 335.65625 401.855469 318.597656 418.914062 Z M 382.460938 421.523438 C 366.101562 421.523438 350.710938 427.894531 339.144531 439.460938 C 336.832031 441.773438 336.832031 445.527344 339.144531 447.851562 C 341.457031 450.160156 345.210938 450.160156 347.519531 447.851562 C 356.855469 438.515625 369.265625 433.378906 382.460938 433.378906 C 395.660156 433.378906 408.066406 438.515625 417.402344 447.851562 C 418.558594 449.003906 420.082031 449.589844 421.59375 449.589844 C 423.101562 449.589844 424.625 449.003906 425.78125 447.851562 C 428.09375 445.539062 428.09375 441.785156 425.78125 439.460938 C 414.210938 427.894531 398.820312 421.523438 382.460938 421.523438 Z M 382.460938 450.597656 C 373.859375 450.597656 365.777344 453.945312 359.691406 460.03125 C 357.378906 462.339844 357.378906 466.09375 359.691406 468.417969 C 362.003906 470.730469 365.757812 470.730469 368.070312 468.417969 C 371.910156 464.574219 377.019531 462.460938 382.453125 462.460938 C 387.886719 462.460938 392.992188 464.574219 396.835938 468.417969 C 397.992188 469.574219 399.511719 470.15625 401.023438 470.15625 C 402.535156 470.15625 404.058594 469.574219 405.210938 468.417969 C 407.523438 466.105469 407.523438 462.351562 405.210938 460.03125 C 399.148438 453.945312 391.066406 450.597656 382.460938 450.597656 Z M 384.179688 328.296875 L 470.226562 354.417969 C 472.722656 355.175781 474.433594 357.480469 474.433594 360.085938 L 474.433594 460.582031 C 474.433594 468.644531 472.644531 475.351562 468.632812 482.335938 C 447.859375 518.550781 411.632812 540.542969 384.890625 552.605469 C 384.113281 552.949219 383.28125 553.128906 382.453125 553.128906 C 381.621094 553.128906 380.792969 552.949219 380.011719 552.605469 C 353.28125 540.53125 317.046875 518.550781 296.269531 482.335938 C 292.257812 475.34375 290.472656 468.632812 290.472656 460.582031 L 290.472656 360.085938 C 290.472656 357.480469 292.179688 355.175781 294.679688 354.417969 L 380.722656 328.296875 C 381.859375 327.960938 383.066406 327.960938 384.179688 328.296875 Z M 382.460938 340.171875 L 302.34375 364.484375 L 302.34375 460.582031 C 302.34375 466.621094 303.570312 471.214844 306.574219 476.4375 C 321.203125 501.945312 348.09375 524.695312 382.472656 540.679688 C 416.839844 524.6875 443.730469 501.945312 458.371094 476.4375 C 461.375 471.203125 462.597656 466.609375 462.597656 460.582031 L 462.597656 364.484375 Z M 620.539062 374.570312 C 620.539062 384.832031 612.191406 393.179688 601.929688 393.179688 C 598.410156 393.179688 595.132812 392.183594 592.328125 390.484375 L 559.339844 416.613281 C 558.292969 417.441406 557 417.898438 555.65625 417.898438 L 496.167969 417.898438 L 496.167969 446.339844 L 509.613281 446.339844 C 510.945312 446.339844 512.25 446.792969 513.296875 447.621094 L 546.28125 473.75 C 549.085938 472.050781 552.367188 471.054688 555.882812 471.054688 C 566.148438 471.054688 574.496094 479.402344 574.496094 489.667969 C 574.496094 499.929688 566.148438 508.277344 555.882812 508.277344 C 545.621094 508.277344 537.273438 499.929688 537.273438 489.667969 C 537.273438 487.234375 537.757812 484.925781 538.605469 482.789062 L 507.558594 458.191406 L 496.167969 458.191406 L 496.167969 460.582031 C 496.167969 472.488281 493.410156 482.832031 487.484375 493.152344 C 485.398438 496.789062 483.125 500.355469 480.6875 503.871094 L 502.875 526.058594 C 503.992188 527.167969 504.613281 528.675781 504.613281 530.25 L 504.613281 584.304688 C 511.972656 586.785156 517.296875 593.738281 517.296875 601.929688 C 517.296875 612.191406 508.949219 620.539062 498.6875 620.539062 C 488.421875 620.539062 480.074219 612.191406 480.074219 601.929688 C 480.074219 593.738281 485.398438 586.785156 492.757812 584.304688 L 492.757812 532.707031 L 473.484375 513.433594 C 452.453125 539.335938 421.71875 561.238281 384.683594 576.34375 C 383.964844 576.640625 383.203125 576.777344 382.441406 576.777344 C 381.683594 576.777344 380.921875 576.628906 380.199219 576.34375 C 343.164062 561.238281 312.429688 539.347656 291.398438 513.433594 L 272.125 532.707031 L 272.125 584.304688 C 279.484375 586.785156 284.8125 593.738281 284.8125 601.929688 C 284.8125 612.191406 276.464844 620.539062 266.199219 620.539062 C 255.933594 620.539062 247.585938 612.191406 247.585938 601.929688 C 247.585938 593.738281 252.910156 586.785156 260.273438 584.304688 L 260.273438 530.25 C 260.273438 528.675781 260.894531 527.167969 262.011719 526.058594 L 284.199219 503.871094 C 281.757812 500.355469 279.484375 496.789062 277.402344 493.152344 C 271.484375 482.832031 268.726562 472.488281 268.726562 460.582031 L 268.726562 458.191406 L 257.347656 458.191406 L 226.296875 482.789062 C 227.148438 484.925781 227.632812 487.234375 227.632812 489.667969 C 227.632812 499.929688 219.285156 508.277344 209.019531 508.277344 C 198.757812 508.277344 190.410156 499.929688 190.410156 489.667969 C 190.410156 479.402344 198.757812 471.054688 209.019531 471.054688 C 212.539062 471.054688 215.816406 472.050781 218.621094 473.75 L 251.609375 447.621094 C 252.65625 446.792969 253.949219 446.339844 255.292969 446.339844 L 268.738281 446.339844 L 268.738281 417.898438 L 209.257812 417.898438 C 207.925781 417.898438 206.621094 417.441406 205.574219 416.613281 L 172.585938 390.484375 C 169.78125 392.183594 166.503906 393.179688 162.984375 393.179688 C 152.722656 393.179688 144.375 384.832031 144.375 374.570312 C 144.375 364.304688 152.722656 355.957031 162.984375 355.957031 C 173.25 355.957031 181.597656 364.304688 181.597656 374.570312 C 181.597656 377 181.113281 379.3125 180.261719 381.445312 L 211.3125 406.042969 L 268.746094 406.042969 L 268.746094 377.601562 L 255.300781 377.601562 C 253.96875 377.601562 252.664062 377.148438 251.617188 376.316406 L 218.632812 350.1875 C 215.828125 351.886719 212.546875 352.886719 209.03125 352.886719 C 198.765625 352.886719 190.417969 344.539062 190.417969 334.273438 C 190.417969 324.007812 198.765625 315.660156 209.03125 315.660156 C 219.292969 315.660156 227.640625 324.007812 227.640625 334.273438 C 227.640625 336.703125 227.15625 339.015625 226.308594 341.148438 L 257.359375 365.746094 L 268.738281 365.746094 L 268.738281 343.964844 C 268.738281 341.355469 270.445312 339.054688 272.945312 338.292969 L 376.535156 306.859375 L 376.535156 265.527344 L 233.539062 265.527344 C 230.269531 265.527344 227.613281 262.871094 227.613281 259.601562 L 227.613281 222.742188 L 200.289062 222.742188 C 197.019531 222.742188 194.359375 220.085938 194.359375 216.816406 L 194.359375 150.3125 C 194.359375 147.042969 197.019531 144.382812 200.289062 144.382812 L 266.792969 144.382812 C 270.0625 144.382812 272.71875 147.042969 272.71875 150.3125 L 272.71875 216.816406 C 272.71875 220.085938 270.0625 222.742188 266.792969 222.742188 L 239.46875 222.742188 L 239.46875 253.683594 L 376.535156 253.683594 L 376.535156 222.742188 L 349.210938 222.742188 C 345.941406 222.742188 343.28125 220.085938 343.28125 216.816406 L 343.28125 150.3125 C 343.28125 147.042969 345.941406 144.382812 349.210938 144.382812 L 415.714844 144.382812 C 418.984375 144.382812 421.640625 147.042969 421.640625 150.3125 L 421.640625 216.816406 C 421.640625 220.085938 418.984375 222.742188 415.714844 222.742188 L 388.390625 222.742188 L 388.390625 253.683594 L 525.457031 253.683594 L 525.457031 222.742188 L 498.132812 222.742188 C 494.863281 222.742188 492.207031 220.085938 492.207031 216.816406 L 492.207031 150.3125 C 492.207031 147.042969 494.863281 144.382812 498.132812 144.382812 L 564.636719 144.382812 C 567.90625 144.382812 570.5625 147.042969 570.5625 150.3125 L 570.5625 216.816406 C 570.5625 220.085938 567.90625 222.742188 564.636719 222.742188 L 537.3125 222.742188 L 537.3125 259.609375 C 537.3125 262.878906 534.652344 265.539062 531.382812 265.539062 L 388.390625 265.539062 L 388.390625 306.871094 L 491.96875 338.304688 C 494.46875 339.066406 496.175781 341.367188 496.175781 343.972656 L 496.175781 365.757812 L 507.558594 365.757812 L 538.605469 341.160156 C 537.757812 339.023438 537.273438 336.714844 537.273438 334.285156 C 537.273438 324.019531 545.621094 315.671875 555.882812 315.671875 C 566.148438 315.671875 574.496094 324.019531 574.496094 334.285156 C 574.496094 344.546875 566.148438 352.894531 555.882812 352.894531 C 552.367188 352.894531 549.085938 351.898438 546.28125 350.199219 L 513.296875 376.328125 C 512.25 377.15625 510.957031 377.613281 509.613281 377.613281 L 496.167969 377.613281 L 496.167969 406.050781 L 553.601562 406.050781 L 584.652344 381.453125 C 583.800781 379.320312 583.316406 377.007812 583.316406 374.578125 C 583.316406 364.316406 591.664062 355.96875 601.929688 355.96875 C 612.191406 355.957031 620.539062 364.304688 620.539062 374.570312 Z M 549.125 334.273438 C 549.125 337.996094 552.160156 341.03125 555.882812 341.03125 C 559.609375 341.03125 562.640625 337.996094 562.640625 334.273438 C 562.640625 330.550781 559.609375 327.515625 555.882812 327.515625 C 552.160156 327.515625 549.125 330.550781 549.125 334.273438 Z M 504.058594 210.886719 L 558.710938 210.886719 L 558.710938 156.238281 L 504.058594 156.238281 Z M 355.136719 210.886719 L 409.785156 210.886719 L 409.785156 156.238281 L 355.136719 156.238281 Z M 206.214844 210.886719 L 260.863281 210.886719 L 260.863281 156.238281 L 206.214844 156.238281 Z M 215.796875 334.273438 C 215.796875 330.550781 212.765625 327.515625 209.039062 327.515625 C 205.316406 327.515625 202.285156 330.550781 202.285156 334.273438 C 202.285156 337.996094 205.316406 341.03125 209.039062 341.03125 C 212.765625 341.03125 215.796875 337.996094 215.796875 334.273438 Z M 169.753906 374.570312 C 169.753906 370.84375 166.71875 367.8125 162.996094 367.8125 C 159.269531 367.8125 156.238281 370.84375 156.238281 374.570312 C 156.238281 378.292969 159.269531 381.324219 162.996094 381.324219 C 166.71875 381.324219 169.753906 378.292969 169.753906 374.570312 Z M 215.796875 489.667969 C 215.796875 485.941406 212.765625 482.910156 209.039062 482.910156 C 205.316406 482.910156 202.285156 485.941406 202.285156 489.667969 C 202.285156 493.390625 205.316406 496.421875 209.039062 496.421875 C 212.765625 496.421875 215.796875 493.390625 215.796875 489.667969 Z M 272.984375 601.929688 C 272.984375 598.203125 269.953125 595.171875 266.230469 595.171875 C 262.503906 595.171875 259.472656 598.203125 259.472656 601.929688 C 259.472656 605.652344 262.503906 608.6875 266.230469 608.6875 C 269.953125 608.6875 272.984375 605.652344 272.984375 601.929688 Z M 505.453125 601.929688 C 505.453125 598.203125 502.417969 595.171875 498.695312 595.171875 C 494.972656 595.171875 491.9375 598.203125 491.9375 601.929688 C 491.9375 605.652344 494.972656 608.6875 498.695312 608.6875 C 502.417969 608.6875 505.453125 605.652344 505.453125 601.929688 Z M 484.3125 348.371094 L 382.460938 317.449219 L 280.613281 348.359375 L 280.613281 460.574219 C 280.613281 470.453125 282.804688 478.679688 287.714844 487.246094 C 306.019531 519.15625 339.609375 546.5 382.460938 564.429688 C 425.316406 546.5 458.902344 519.144531 477.210938 487.246094 C 482.128906 478.679688 484.3125 470.453125 484.3125 460.574219 Z M 549.125 489.667969 C 549.125 493.390625 552.160156 496.421875 555.882812 496.421875 C 559.609375 496.421875 562.640625 493.390625 562.640625 489.667969 C 562.640625 485.941406 559.609375 482.910156 555.882812 482.910156 C 552.160156 482.910156 549.125 485.941406 549.125 489.667969 Z M 608.6875 374.570312 C 608.6875 370.84375 605.652344 367.8125 601.929688 367.8125 C 598.203125 367.8125 595.171875 370.84375 595.171875 374.570312 C 595.171875 378.292969 598.203125 381.324219 601.929688 381.324219 C 605.652344 381.324219 608.6875 378.292969 608.6875 374.570312 Z M 608.6875 374.570312 " fill-opacity="1" fill-rule="nonzero"/></g></svg>