<svg xmlns="http://www.w3.org/2000/svg" xmlns:xlink="http://www.w3.org/1999/xlink" width="1024" zoomAndPan="magnify" viewBox="0 0 768 767.999994" height="1024" preserveAspectRatio="xMidYMid meet" version="1.0"><defs><clipPath id="59b49d5964"><path d="M 162 131.179688 L 605.832031 131.179688 L 605.832031 636.679688 L 162 636.679688 Z M 162 131.179688 " clip-rule="nonzero"/></clipPath></defs><g clip-path="url(#59b49d5964)"><path fill="#f4f6ea" d="M 312.089844 234.429688 C 312.089844 230.472656 315.300781 227.265625 319.257812 227.265625 L 438.101562 227.265625 C 442.058594 227.265625 445.265625 230.472656 445.265625 234.429688 C 445.265625 238.390625 442.058594 241.597656 438.101562 241.597656 L 319.257812 241.597656 C 315.300781 241.597656 312.089844 238.390625 312.089844 234.429688 Z M 536.921875 332.472656 L 384.945312 332.472656 C 380.988281 332.472656 377.777344 335.679688 377.777344 339.636719 C 377.777344 343.59375 380.988281 346.804688 384.945312 346.804688 L 536.921875 346.804688 C 540.878906 346.804688 544.089844 343.59375 544.089844 339.636719 C 544.089844 335.679688 540.878906 332.472656 536.921875 332.472656 Z M 162.054688 394.214844 L 162.054688 393.515625 C 162.054688 390.957031 163.421875 388.589844 165.640625 387.3125 L 212.179688 360.445312 L 223.625 353.828125 L 223.625 160.996094 C 223.625 144.566406 236.992188 131.199219 253.421875 131.199219 L 500.132812 131.199219 C 504.191406 131.199219 508.035156 132.003906 511.566406 133.554688 C 511.753906 133.625 511.933594 133.707031 512.113281 133.796875 C 515.082031 135.179688 517.824219 137.097656 520.257812 139.535156 L 597.613281 216.886719 C 600.644531 219.921875 602.878906 223.421875 604.269531 227.257812 C 604.496094 227.742188 604.664062 228.257812 604.777344 228.792969 C 605.550781 231.40625 605.949219 234.15625 605.949219 237.011719 L 605.949219 607.0625 C 605.949219 623.476562 592.59375 636.832031 576.179688 636.832031 L 253.421875 636.832031 C 236.992188 636.832031 223.625 623.476562 223.625 607.0625 L 223.625 535.414062 C 184.078125 499.523438 162.054688 449.902344 162.054688 394.214844 Z M 516.121094 155.667969 L 516.121094 205.5625 C 516.121094 213.96875 523.007812 220.761719 531.800781 221.03125 L 583.078125 222.625 Z M 237.957031 345.542969 L 258.714844 333.546875 C 260.933594 332.265625 263.667969 332.265625 265.886719 333.546875 L 312.425781 360.445312 L 358.964844 387.3125 C 361.179688 388.589844 362.546875 390.957031 362.546875 393.515625 L 362.546875 394.214844 C 362.546875 464.695312 327.539062 525.34375 266.496094 560.609375 L 265.851562 560.976562 C 264.753906 561.601562 263.527344 561.917969 262.300781 561.917969 C 261.0625 561.917969 259.824219 561.597656 258.714844 560.953125 C 251.417969 556.738281 244.503906 552.152344 237.957031 547.246094 L 237.957031 607.0625 C 237.957031 615.574219 244.894531 622.5 253.421875 622.5 L 576.179688 622.5 C 584.691406 622.5 591.617188 615.574219 591.617188 607.0625 L 591.617188 237.230469 L 531.363281 235.355469 C 514.78125 234.855469 501.785156 221.765625 501.785156 205.5625 L 501.785156 145.625 C 501.246094 145.566406 500.699219 145.53125 500.132812 145.53125 L 253.421875 145.53125 C 244.894531 145.53125 237.957031 152.46875 237.957031 160.996094 Z M 176.421875 397.636719 C 177.515625 460.019531 208.628906 513.886719 262.320312 546.433594 C 315.976562 514.167969 347.089844 460.261719 348.183594 397.636719 L 305.257812 372.855469 L 262.300781 348.03125 L 219.347656 372.855469 Z M 246.28125 484.359375 C 246.59375 484.398438 246.902344 484.417969 247.214844 484.417969 C 249.101562 484.417969 250.929688 483.671875 252.28125 482.320312 L 316.316406 418.285156 C 319.113281 415.488281 319.113281 410.949219 316.316406 408.152344 C 313.515625 405.351562 308.980469 405.351562 306.179688 408.152344 L 248.75 465.582031 L 233.398438 439.023438 C 231.417969 435.597656 227.035156 434.425781 223.609375 436.40625 C 220.179688 438.386719 219.007812 442.769531 220.988281 446.195312 L 241.007812 480.839844 C 242.125 482.765625 244.070312 484.066406 246.28125 484.359375 Z M 536.921875 444.410156 L 384.945312 444.410156 C 380.988281 444.410156 377.777344 447.617188 377.777344 451.574219 C 377.777344 455.53125 380.988281 458.742188 384.945312 458.742188 L 536.921875 458.742188 C 540.878906 458.742188 544.089844 455.53125 544.089844 451.574219 C 544.089844 447.617188 540.878906 444.410156 536.921875 444.410156 Z M 536.921875 556.347656 L 384.945312 556.347656 C 380.988281 556.347656 377.777344 559.554688 377.777344 563.511719 C 377.777344 567.46875 380.988281 570.679688 384.945312 570.679688 L 536.921875 570.679688 C 540.878906 570.679688 544.089844 567.46875 544.089844 563.511719 C 544.089844 559.554688 540.878906 556.347656 536.921875 556.347656 Z M 377.777344 287.5 C 377.777344 291.457031 380.988281 294.664062 384.945312 294.664062 L 536.921875 294.664062 C 540.878906 294.664062 544.089844 291.457031 544.089844 287.5 C 544.089844 283.539062 540.878906 280.332031 536.921875 280.332031 L 384.945312 280.332031 C 380.988281 280.332031 377.777344 283.539062 377.777344 287.5 Z M 536.921875 389.050781 L 384.945312 389.050781 C 380.988281 389.050781 377.777344 392.257812 377.777344 396.214844 C 377.777344 400.171875 380.988281 403.382812 384.945312 403.382812 L 536.921875 403.382812 C 540.878906 403.382812 544.089844 400.171875 544.089844 396.214844 C 544.089844 392.257812 540.878906 389.050781 536.921875 389.050781 Z M 536.921875 497.765625 L 384.945312 497.765625 C 380.988281 497.765625 377.777344 500.976562 377.777344 504.933594 C 377.777344 508.890625 380.988281 512.097656 384.945312 512.097656 L 536.921875 512.097656 C 540.878906 512.097656 544.089844 508.890625 544.089844 504.933594 C 544.089844 500.976562 540.878906 497.765625 536.921875 497.765625 Z M 536.921875 497.765625 " fill-opacity="1" fill-rule="nonzero"/></g></svg>