<svg xmlns="http://www.w3.org/2000/svg" xmlns:xlink="http://www.w3.org/1999/xlink" width="1024" zoomAndPan="magnify" viewBox="0 0 768 767.999994" height="1024" preserveAspectRatio="xMidYMid meet" version="1.0"><defs><clipPath id="b65d8bb05e"><path d="M 120.992188 127.347656 L 646.742188 127.347656 L 646.742188 640.347656 L 120.992188 640.347656 Z M 120.992188 127.347656 " clip-rule="nonzero"/></clipPath></defs><g clip-path="url(#b65d8bb05e)"><path fill="#f4f6ea" d="M 209.285156 219.746094 L 209.285156 257.527344 C 209.285156 261.640625 205.945312 264.980469 201.832031 264.980469 C 197.71875 264.980469 194.378906 261.640625 194.378906 257.527344 L 194.378906 212.292969 C 194.378906 210.316406 195.164062 208.417969 196.5625 207.023438 L 273.929688 129.652344 C 275.328125 128.253906 277.226562 127.46875 279.199219 127.46875 L 577.632812 127.46875 C 581.75 127.46875 585.085938 130.804688 585.085938 134.921875 L 585.085938 271.894531 C 585.085938 276.007812 581.746094 279.347656 577.632812 279.347656 C 573.519531 279.347656 570.179688 276.007812 570.179688 271.894531 L 570.179688 142.375 L 286.65625 142.375 L 286.65625 212.292969 C 286.65625 216.410156 283.316406 219.746094 279.199219 219.746094 Z M 271.746094 152.917969 L 219.828125 204.839844 C 240.542969 204.839844 271.746094 204.839844 271.746094 204.839844 Z M 194.378906 538.394531 C 194.378906 534.28125 197.71875 530.941406 201.832031 530.941406 C 205.945312 530.941406 209.285156 534.28125 209.285156 538.394531 L 209.285156 603.347656 L 389.777344 603.347656 C 393.890625 603.347656 397.230469 606.6875 397.230469 610.800781 C 397.230469 614.914062 393.890625 618.253906 389.777344 618.253906 L 201.832031 618.253906 C 197.714844 618.253906 194.378906 614.917969 194.378906 610.800781 Z M 511.191406 618.253906 C 507.078125 618.253906 503.738281 614.914062 503.738281 610.800781 C 503.738281 606.6875 507.078125 603.347656 511.191406 603.347656 C 511.191406 603.347656 570.179688 603.347656 570.179688 603.347656 L 570.179688 478.050781 C 570.179688 473.9375 573.519531 470.597656 577.632812 470.597656 C 581.746094 470.597656 585.085938 473.9375 585.085938 478.050781 L 585.085938 610.800781 C 585.085938 614.917969 581.75 618.253906 577.632812 618.253906 Z M 403.597656 193.984375 C 399.484375 193.984375 396.144531 190.640625 396.144531 186.527344 C 396.144531 182.414062 399.484375 179.074219 403.597656 179.074219 L 520.742188 179.074219 C 524.855469 179.074219 528.199219 182.414062 528.199219 186.527344 C 528.199219 190.640625 524.855469 193.984375 520.742188 193.984375 Z M 403.597656 240.46875 C 399.484375 240.46875 396.144531 237.128906 396.144531 233.015625 C 396.144531 228.898438 399.484375 225.558594 403.597656 225.558594 L 520.742188 225.558594 C 524.855469 225.558594 528.199219 228.898438 528.199219 233.015625 C 528.199219 237.128906 524.855469 240.46875 520.742188 240.46875 Z M 369.832031 315.648438 C 365.714844 315.648438 362.378906 312.308594 362.378906 308.195312 C 362.378906 304.082031 365.714844 300.738281 369.832031 300.738281 L 489.234375 300.738281 C 493.347656 300.738281 496.6875 304.082031 496.6875 308.195312 C 496.6875 312.308594 493.347656 315.648438 489.234375 315.648438 Z M 395.546875 380.316406 C 391.433594 380.316406 388.09375 376.976562 388.09375 372.863281 C 388.09375 368.75 391.433594 365.410156 395.546875 365.410156 L 450.097656 365.410156 C 454.210938 365.410156 457.554688 368.75 457.554688 372.863281 C 457.554688 376.976562 454.210938 380.316406 450.097656 380.316406 Z M 434.050781 509.652344 C 429.9375 509.652344 426.597656 506.3125 426.597656 502.199219 C 426.597656 498.085938 429.9375 494.746094 434.050781 494.746094 L 520.742188 494.746094 C 524.855469 494.746094 528.199219 498.085938 528.199219 502.199219 C 528.199219 506.3125 524.855469 509.652344 520.742188 509.652344 Z M 323.867188 504.820312 C 303.078125 518.925781 277.988281 527.167969 250.980469 527.167969 C 179.191406 527.167969 120.992188 468.964844 120.992188 397.179688 C 120.992188 325.390625 179.191406 267.191406 250.980469 267.191406 C 322.765625 267.191406 380.964844 325.390625 380.964844 397.179688 C 380.964844 424.191406 372.726562 449.277344 358.621094 470.066406 L 380.0625 491.507812 C 387.816406 489.421875 396.46875 491.40625 402.53125 497.464844 L 487.558594 582.492188 C 496.578125 591.511719 496.578125 606.238281 487.558594 615.257812 L 469.058594 633.757812 C 460.035156 642.777344 445.273438 642.769531 436.292969 633.757812 L 351.265625 548.730469 C 345.203125 542.667969 343.214844 534.019531 345.304688 526.261719 Z M 349.476562 482 C 345.261719 486.890625 340.691406 491.460938 335.800781 495.675781 L 353.679688 513.550781 L 367.351562 499.878906 Z M 361.804688 526.507812 C 358.589844 529.722656 358.589844 534.976562 361.804688 538.191406 L 446.835938 623.222656 L 446.84375 623.226562 C 450.046875 626.441406 455.304688 626.429688 458.515625 623.21875 L 477.015625 604.71875 C 480.234375 601.5 480.234375 596.25 477.015625 593.03125 L 391.992188 508.007812 C 388.777344 504.792969 383.519531 504.785156 380.3125 508 Z M 250.980469 282.097656 C 187.425781 282.097656 135.898438 333.625 135.898438 397.179688 C 135.898438 460.730469 187.425781 512.257812 250.980469 512.257812 C 314.53125 512.257812 366.058594 460.730469 366.058594 397.179688 C 366.058594 333.625 314.53125 282.097656 250.980469 282.097656 Z M 250.980469 494.378906 C 197.449219 494.378906 153.777344 450.730469 153.777344 397.179688 C 153.777344 343.648438 197.449219 299.980469 250.980469 299.980469 C 304.53125 299.980469 348.179688 343.648438 348.179688 397.179688 C 348.179688 450.730469 304.53125 494.378906 250.980469 494.378906 Z M 250.980469 479.472656 C 296.316406 479.472656 333.269531 442.515625 333.269531 397.179688 C 333.269531 351.859375 296.316406 314.886719 250.980469 314.886719 C 205.660156 314.886719 168.683594 351.859375 168.683594 397.179688 C 168.683594 442.515625 205.660156 479.472656 250.980469 479.472656 Z M 202.429688 399.957031 C 199.335938 397.246094 199.027344 392.53125 201.738281 389.4375 C 204.449219 386.34375 209.164062 386.035156 212.257812 388.746094 L 238.347656 411.613281 L 289.738281 367.222656 C 292.851562 364.53125 297.5625 364.875 300.253906 367.988281 C 302.941406 371.101562 302.597656 375.8125 299.484375 378.503906 L 243.183594 427.136719 C 240.367188 429.566406 236.191406 429.550781 233.398438 427.101562 Z M 560.789062 283.046875 L 560.792969 283.054688 L 643.988281 427.144531 C 648.039062 434.152344 648.042969 442.152344 643.992188 449.160156 C 639.953125 456.164062 633.019531 460.164062 624.933594 460.164062 L 458.535156 460.164062 C 450.441406 460.164062 443.507812 456.160156 439.472656 449.152344 C 435.4375 442.152344 435.4375 434.15625 439.472656 427.15625 L 439.476562 427.152344 L 522.671875 283.054688 C 526.707031 276.046875 533.660156 272.042969 541.730469 272.042969 C 549.820312 272.042969 556.753906 276.046875 560.789062 283.046875 Z M 547.878906 290.496094 C 546.578125 288.238281 544.339844 286.949219 541.730469 286.949219 C 539.132812 286.949219 536.886719 288.238281 535.585938 290.496094 L 535.585938 290.5 L 452.386719 434.597656 C 451.085938 436.863281 451.085938 439.449219 452.386719 441.714844 C 453.691406 443.972656 455.925781 445.257812 458.535156 445.257812 L 624.933594 445.257812 C 627.539062 445.257812 629.777344 443.972656 631.078125 441.714844 L 631.082031 441.703125 C 632.386719 439.445312 632.386719 436.867188 631.082031 434.609375 L 631.078125 434.605469 L 547.882812 290.5 Z M 534.050781 332.371094 C 534.050781 328.132812 537.492188 324.691406 541.730469 324.691406 C 545.984375 324.691406 549.414062 328.132812 549.414062 332.371094 L 549.414062 396.1875 C 549.414062 400.4375 545.984375 403.878906 541.730469 403.878906 C 537.492188 403.878906 534.050781 400.4375 534.050781 396.1875 Z M 541.730469 429.535156 C 537.167969 429.535156 533.441406 425.804688 533.441406 421.242188 C 533.441406 416.667969 537.167969 412.9375 541.730469 412.9375 C 546.308594 412.9375 550.027344 416.667969 550.027344 421.242188 C 550.027344 425.804688 546.308594 429.535156 541.730469 429.535156 Z M 541.730469 429.535156 " fill-opacity="1" fill-rule="evenodd"/></g></svg>