<svg xmlns="http://www.w3.org/2000/svg" xmlns:xlink="http://www.w3.org/1999/xlink" width="1024" zoomAndPan="magnify" viewBox="0 0 768 767.999994" height="1024" preserveAspectRatio="xMidYMid meet" version="1.0"><defs><clipPath id="7036bb5288"><path d="M 163 580 L 221 580 L 221 638.199219 L 163 638.199219 Z M 163 580 " clip-rule="nonzero"/></clipPath></defs><path fill="#f4f6ea" d="M 244.132812 295.800781 L 140.429688 295.800781 C 139.488281 295.800781 138.550781 295.847656 137.613281 295.941406 C 136.679688 296.035156 135.75 296.175781 134.828125 296.359375 C 133.90625 296.542969 132.996094 296.773438 132.09375 297.046875 C 131.195312 297.320312 130.3125 297.636719 129.441406 297.996094 C 128.574219 298.359375 127.726562 298.761719 126.894531 299.203125 C 126.066406 299.648438 125.261719 300.132812 124.480469 300.652344 C 123.699219 301.175781 122.945312 301.738281 122.21875 302.332031 C 121.492188 302.929688 120.796875 303.5625 120.128906 304.226562 C 119.464844 304.890625 118.835938 305.585938 118.238281 306.3125 C 117.640625 307.042969 117.082031 307.796875 116.558594 308.578125 C 116.035156 309.359375 115.554688 310.164062 115.109375 310.992188 C 114.667969 311.824219 114.265625 312.671875 113.90625 313.539062 C 113.542969 314.410156 113.226562 315.292969 112.953125 316.191406 C 112.679688 317.09375 112.453125 318.003906 112.265625 318.925781 C 112.082031 319.847656 111.945312 320.777344 111.851562 321.714844 C 111.757812 322.648438 111.710938 323.585938 111.710938 324.527344 L 111.710938 400.5 C 111.710938 401.441406 111.757812 402.378906 111.851562 403.3125 C 111.945312 404.25 112.085938 405.179688 112.269531 406.101562 C 112.453125 407.023438 112.683594 407.933594 112.957031 408.832031 C 113.230469 409.730469 113.546875 410.617188 113.90625 411.484375 C 114.265625 412.351562 114.667969 413.203125 115.113281 414.03125 C 115.554688 414.859375 116.039062 415.664062 116.5625 416.445312 C 117.085938 417.226562 117.644531 417.980469 118.242188 418.707031 C 118.835938 419.433594 119.46875 420.132812 120.132812 420.796875 C 120.796875 421.460938 121.492188 422.089844 122.21875 422.6875 C 122.945312 423.285156 123.699219 423.84375 124.484375 424.367188 C 125.265625 424.890625 126.070312 425.371094 126.898438 425.816406 C 127.726562 426.257812 128.574219 426.660156 129.445312 427.023438 C 130.3125 427.382812 131.195312 427.699219 132.097656 427.972656 C 132.996094 428.246094 133.90625 428.476562 134.828125 428.660156 C 135.75 428.84375 136.679688 428.984375 137.613281 429.078125 C 138.550781 429.167969 139.488281 429.21875 140.429688 429.21875 L 244.132812 429.21875 C 245.070312 429.21875 246.011719 429.171875 246.945312 429.078125 C 247.882812 428.984375 248.808594 428.84375 249.734375 428.660156 C 250.65625 428.476562 251.566406 428.25 252.464844 427.976562 C 253.367188 427.703125 254.25 427.382812 255.117188 427.023438 C 255.988281 426.664062 256.835938 426.261719 257.664062 425.820312 C 258.492188 425.375 259.300781 424.890625 260.082031 424.371094 C 260.863281 423.847656 261.617188 423.285156 262.34375 422.691406 C 263.070312 422.09375 263.765625 421.464844 264.433594 420.796875 C 265.097656 420.132812 265.730469 419.4375 266.324219 418.710938 C 266.921875 417.984375 267.480469 417.230469 268.003906 416.449219 C 268.527344 415.667969 269.011719 414.863281 269.453125 414.03125 C 269.898438 413.203125 270.300781 412.355469 270.660156 411.484375 C 271.023438 410.617188 271.339844 409.734375 271.613281 408.832031 C 271.886719 407.933594 272.117188 407.023438 272.300781 406.101562 C 272.484375 405.179688 272.625 404.25 272.71875 403.3125 C 272.808594 402.378906 272.859375 401.441406 272.859375 400.5 L 272.859375 324.527344 C 272.859375 323.585938 272.8125 322.648438 272.71875 321.710938 C 272.625 320.777344 272.484375 319.847656 272.300781 318.925781 C 272.117188 318.003906 271.886719 317.089844 271.613281 316.191406 C 271.339844 315.292969 271.023438 314.40625 270.664062 313.539062 C 270.304688 312.671875 269.902344 311.820312 269.457031 310.992188 C 269.011719 310.164062 268.53125 309.355469 268.007812 308.574219 C 267.484375 307.792969 266.925781 307.039062 266.328125 306.3125 C 265.730469 305.585938 265.101562 304.886719 264.433594 304.222656 C 263.769531 303.558594 263.074219 302.925781 262.347656 302.332031 C 261.621094 301.734375 260.867188 301.175781 260.082031 300.652344 C 259.300781 300.128906 258.496094 299.644531 257.667969 299.203125 C 256.835938 298.757812 255.988281 298.355469 255.121094 297.996094 C 254.25 297.636719 253.367188 297.316406 252.46875 297.042969 C 251.566406 296.769531 250.65625 296.542969 249.734375 296.355469 C 248.8125 296.171875 247.882812 296.035156 246.945312 295.941406 C 246.011719 295.847656 245.070312 295.800781 244.132812 295.800781 Z M 253.410156 400.5 C 253.410156 401.109375 253.347656 401.710938 253.230469 402.308594 C 253.109375 402.90625 252.933594 403.484375 252.699219 404.046875 C 252.464844 404.609375 252.179688 405.144531 251.839844 405.648438 C 251.503906 406.15625 251.117188 406.625 250.6875 407.054688 C 250.257812 407.484375 249.789062 407.867188 249.28125 408.207031 C 248.777344 408.542969 248.242188 408.828125 247.679688 409.0625 C 247.117188 409.296875 246.535156 409.472656 245.941406 409.589844 C 245.34375 409.710938 244.742188 409.769531 244.132812 409.769531 L 140.429688 409.769531 C 139.820312 409.769531 139.21875 409.707031 138.621094 409.589844 C 138.023438 409.46875 137.445312 409.292969 136.882812 409.058594 C 136.320312 408.828125 135.789062 408.542969 135.28125 408.203125 C 134.777344 407.863281 134.308594 407.480469 133.878906 407.050781 C 133.449219 406.621094 133.0625 406.152344 132.726562 405.648438 C 132.386719 405.140625 132.101562 404.605469 131.867188 404.046875 C 131.636719 403.484375 131.460938 402.902344 131.339844 402.308594 C 131.21875 401.710938 131.160156 401.109375 131.160156 400.5 L 131.160156 324.527344 C 131.160156 323.917969 131.21875 323.316406 131.339844 322.71875 C 131.457031 322.121094 131.632812 321.542969 131.867188 320.980469 C 132.097656 320.417969 132.386719 319.882812 132.722656 319.375 C 133.0625 318.871094 133.445312 318.402344 133.875 317.972656 C 134.304688 317.539062 134.773438 317.15625 135.28125 316.816406 C 135.785156 316.480469 136.320312 316.191406 136.882812 315.960938 C 137.445312 315.726562 138.023438 315.550781 138.621094 315.429688 C 139.21875 315.308594 139.820312 315.25 140.429688 315.25 L 244.132812 315.25 C 244.742188 315.25 245.34375 315.308594 245.941406 315.429688 C 246.539062 315.546875 247.117188 315.722656 247.679688 315.957031 C 248.242188 316.191406 248.777344 316.476562 249.285156 316.816406 C 249.789062 317.152344 250.257812 317.539062 250.691406 317.96875 C 251.121094 318.398438 251.503906 318.867188 251.84375 319.375 C 252.183594 319.878906 252.46875 320.414062 252.703125 320.976562 C 252.933594 321.539062 253.109375 322.121094 253.230469 322.71875 C 253.347656 323.316406 253.410156 323.917969 253.410156 324.527344 Z M 253.410156 400.5 " fill-opacity="1" fill-rule="nonzero"/><path fill="#f4f6ea" d="M 464.566406 400.5 L 464.566406 324.527344 C 464.566406 323.585938 464.519531 322.648438 464.425781 321.714844 C 464.332031 320.777344 464.195312 319.847656 464.011719 318.925781 C 463.828125 318.003906 463.597656 317.09375 463.324219 316.191406 C 463.050781 315.292969 462.734375 314.410156 462.375 313.539062 C 462.011719 312.671875 461.609375 311.824219 461.167969 310.992188 C 460.722656 310.164062 460.242188 309.359375 459.71875 308.578125 C 459.195312 307.796875 458.636719 307.042969 458.039062 306.3125 C 457.441406 305.585938 456.8125 304.890625 456.148438 304.226562 C 455.484375 303.5625 454.785156 302.929688 454.058594 302.332031 C 453.332031 301.738281 452.578125 301.175781 451.796875 300.652344 C 451.015625 300.132812 450.210938 299.648438 449.382812 299.203125 C 448.550781 298.761719 447.703125 298.359375 446.835938 297.996094 C 445.964844 297.636719 445.082031 297.320312 444.183594 297.046875 C 443.28125 296.773438 442.371094 296.542969 441.449219 296.359375 C 440.527344 296.175781 439.597656 296.035156 438.664062 295.941406 C 437.726562 295.847656 436.789062 295.800781 435.847656 295.800781 L 332.148438 295.800781 C 331.207031 295.800781 330.269531 295.847656 329.332031 295.941406 C 328.398438 296.035156 327.46875 296.175781 326.546875 296.359375 C 325.625 296.542969 324.710938 296.773438 323.8125 297.046875 C 322.914062 297.320312 322.027344 297.636719 321.160156 297.996094 C 320.292969 298.359375 319.441406 298.761719 318.613281 299.203125 C 317.785156 299.648438 316.980469 300.132812 316.199219 300.652344 C 315.417969 301.175781 314.664062 301.738281 313.9375 302.332031 C 313.207031 302.929688 312.511719 303.5625 311.847656 304.226562 C 311.183594 304.890625 310.550781 305.585938 309.957031 306.3125 C 309.359375 307.042969 308.800781 307.796875 308.277344 308.578125 C 307.753906 309.359375 307.273438 310.164062 306.828125 310.992188 C 306.382812 311.824219 305.984375 312.671875 305.621094 313.539062 C 305.261719 314.410156 304.945312 315.292969 304.671875 316.191406 C 304.398438 317.09375 304.167969 318.003906 303.984375 318.925781 C 303.800781 319.847656 303.664062 320.777344 303.570312 321.714844 C 303.476562 322.648438 303.429688 323.585938 303.429688 324.527344 L 303.429688 400.5 C 303.429688 401.441406 303.476562 402.378906 303.570312 403.3125 C 303.664062 404.25 303.800781 405.179688 303.988281 406.101562 C 304.171875 407.023438 304.398438 407.933594 304.671875 408.832031 C 304.949219 409.730469 305.265625 410.617188 305.625 411.484375 C 305.984375 412.351562 306.386719 413.203125 306.832031 414.03125 C 307.273438 414.859375 307.757812 415.664062 308.28125 416.445312 C 308.800781 417.226562 309.363281 417.980469 309.957031 418.707031 C 310.554688 419.433594 311.1875 420.132812 311.851562 420.796875 C 312.515625 421.460938 313.210938 422.089844 313.9375 422.6875 C 314.664062 423.285156 315.417969 423.84375 316.199219 424.367188 C 316.980469 424.890625 317.789062 425.371094 318.617188 425.816406 C 319.445312 426.257812 320.292969 426.660156 321.164062 427.023438 C 322.03125 427.382812 322.914062 427.699219 323.8125 427.972656 C 324.714844 428.246094 325.625 428.476562 326.546875 428.660156 C 327.46875 428.84375 328.398438 428.984375 329.332031 429.078125 C 330.269531 429.167969 331.207031 429.21875 332.148438 429.21875 L 435.847656 429.21875 C 436.789062 429.21875 437.726562 429.167969 438.664062 429.078125 C 439.597656 428.984375 440.527344 428.84375 441.449219 428.660156 C 442.371094 428.476562 443.28125 428.246094 444.179688 427.972656 C 445.082031 427.699219 445.964844 427.382812 446.832031 427.023438 C 447.703125 426.660156 448.550781 426.257812 449.378906 425.816406 C 450.207031 425.371094 451.011719 424.890625 451.796875 424.367188 C 452.578125 423.84375 453.332031 423.285156 454.058594 422.6875 C 454.785156 422.089844 455.480469 421.460938 456.144531 420.796875 C 456.808594 420.132812 457.441406 419.433594 458.035156 418.707031 C 458.632812 417.980469 459.191406 417.226562 459.714844 416.445312 C 460.238281 415.664062 460.722656 414.859375 461.164062 414.03125 C 461.609375 413.203125 462.011719 412.351562 462.371094 411.484375 C 462.730469 410.617188 463.046875 409.730469 463.320312 408.832031 C 463.597656 407.933594 463.824219 407.023438 464.007812 406.101562 C 464.195312 405.179688 464.332031 404.25 464.425781 403.3125 C 464.519531 402.378906 464.566406 401.441406 464.566406 400.5 Z M 322.878906 400.5 L 322.878906 324.527344 C 322.878906 323.917969 322.9375 323.316406 323.054688 322.71875 C 323.175781 322.121094 323.351562 321.542969 323.585938 320.980469 C 323.816406 320.417969 324.101562 319.882812 324.441406 319.375 C 324.777344 318.871094 325.164062 318.402344 325.59375 317.972656 C 326.023438 317.539062 326.492188 317.15625 326.996094 316.816406 C 327.503906 316.480469 328.039062 316.191406 328.597656 315.960938 C 329.160156 315.726562 329.742188 315.550781 330.335938 315.429688 C 330.933594 315.308594 331.539062 315.25 332.144531 315.25 L 435.847656 315.25 C 436.457031 315.25 437.0625 315.308594 437.65625 315.429688 C 438.253906 315.550781 438.832031 315.726562 439.394531 315.960938 C 439.957031 316.191406 440.492188 316.480469 441 316.816406 C 441.503906 317.15625 441.972656 317.539062 442.402344 317.972656 C 442.832031 318.402344 443.214844 318.871094 443.554688 319.375 C 443.894531 319.882812 444.179688 320.417969 444.410156 320.980469 C 444.644531 321.542969 444.820312 322.121094 444.9375 322.71875 C 445.058594 323.316406 445.117188 323.917969 445.117188 324.527344 L 445.117188 400.5 C 445.117188 401.109375 445.058594 401.710938 444.9375 402.308594 C 444.816406 402.902344 444.640625 403.484375 444.410156 404.046875 C 444.175781 404.605469 443.890625 405.140625 443.550781 405.648438 C 443.214844 406.152344 442.828125 406.621094 442.398438 407.050781 C 441.96875 407.480469 441.5 407.863281 440.996094 408.203125 C 440.488281 408.542969 439.957031 408.828125 439.394531 409.058594 C 438.832031 409.292969 438.253906 409.46875 437.65625 409.589844 C 437.058594 409.707031 436.457031 409.769531 435.847656 409.769531 L 332.148438 409.769531 C 331.539062 409.769531 330.9375 409.707031 330.339844 409.589844 C 329.742188 409.46875 329.164062 409.292969 328.601562 409.058594 C 328.039062 408.828125 327.503906 408.542969 327 408.203125 C 326.496094 407.863281 326.027344 407.480469 325.597656 407.050781 C 325.164062 406.621094 324.78125 406.152344 324.445312 405.648438 C 324.105469 405.140625 323.820312 404.605469 323.585938 404.046875 C 323.351562 403.484375 323.175781 402.902344 323.058594 402.308594 C 322.9375 401.710938 322.878906 401.109375 322.878906 400.5 Z M 322.878906 400.5 " fill-opacity="1" fill-rule="nonzero"/><path fill="#f4f6ea" d="M 627.566406 295.800781 L 523.863281 295.800781 C 522.921875 295.800781 521.984375 295.847656 521.050781 295.941406 C 520.113281 296.035156 519.183594 296.171875 518.261719 296.355469 C 517.339844 296.542969 516.429688 296.769531 515.527344 297.042969 C 514.628906 297.316406 513.746094 297.636719 512.875 297.996094 C 512.007812 298.355469 511.15625 298.757812 510.328125 299.203125 C 509.5 299.644531 508.695312 300.128906 507.910156 300.652344 C 507.128906 301.175781 506.375 301.734375 505.648438 302.332031 C 504.921875 302.925781 504.226562 303.558594 503.558594 304.222656 C 502.894531 304.886719 502.265625 305.585938 501.667969 306.3125 C 501.070312 307.039062 500.511719 307.792969 499.988281 308.574219 C 499.464844 309.355469 498.980469 310.164062 498.539062 310.992188 C 498.09375 311.820312 497.691406 312.671875 497.332031 313.539062 C 496.972656 314.40625 496.65625 315.292969 496.382812 316.191406 C 496.105469 317.089844 495.878906 318.003906 495.695312 318.925781 C 495.511719 319.847656 495.371094 320.777344 495.277344 321.710938 C 495.183594 322.648438 495.136719 323.585938 495.136719 324.527344 L 495.136719 400.5 C 495.136719 401.441406 495.183594 402.378906 495.277344 403.3125 C 495.371094 404.25 495.511719 405.179688 495.695312 406.101562 C 495.878906 407.023438 496.109375 407.933594 496.382812 408.832031 C 496.65625 409.734375 496.972656 410.617188 497.335938 411.484375 C 497.695312 412.355469 498.097656 413.203125 498.539062 414.03125 C 498.984375 414.863281 499.46875 415.667969 499.992188 416.449219 C 500.511719 417.230469 501.074219 417.984375 501.671875 418.710938 C 502.265625 419.4375 502.898438 420.132812 503.5625 420.796875 C 504.226562 421.464844 504.925781 422.09375 505.652344 422.691406 C 506.378906 423.285156 507.132812 423.847656 507.914062 424.371094 C 508.695312 424.890625 509.5 425.375 510.332031 425.820312 C 511.160156 426.261719 512.007812 426.664062 512.878906 427.023438 C 513.746094 427.382812 514.628906 427.703125 515.53125 427.976562 C 516.429688 428.25 517.339844 428.476562 518.261719 428.660156 C 519.183594 428.84375 520.113281 428.984375 521.050781 429.078125 C 521.984375 429.171875 522.921875 429.21875 523.863281 429.21875 L 627.566406 429.21875 C 628.507812 429.21875 629.445312 429.167969 630.382812 429.078125 C 631.316406 428.984375 632.246094 428.84375 633.167969 428.660156 C 634.089844 428.476562 635 428.246094 635.898438 427.972656 C 636.800781 427.699219 637.683594 427.382812 638.550781 427.023438 C 639.417969 426.660156 640.269531 426.257812 641.097656 425.816406 C 641.925781 425.371094 642.730469 424.890625 643.511719 424.367188 C 644.292969 423.84375 645.046875 423.285156 645.777344 422.6875 C 646.503906 422.089844 647.199219 421.460938 647.863281 420.796875 C 648.527344 420.132812 649.160156 419.433594 649.753906 418.707031 C 650.351562 417.980469 650.910156 417.226562 651.433594 416.445312 C 651.957031 415.664062 652.4375 414.859375 652.882812 414.03125 C 653.328125 413.203125 653.730469 412.351562 654.089844 411.484375 C 654.449219 410.617188 654.765625 409.730469 655.039062 408.832031 C 655.3125 407.933594 655.542969 407.023438 655.726562 406.101562 C 655.910156 405.179688 656.050781 404.25 656.144531 403.3125 C 656.238281 402.378906 656.285156 401.441406 656.285156 400.5 L 656.285156 324.527344 C 656.285156 323.585938 656.238281 322.648438 656.144531 321.714844 C 656.050781 320.777344 655.914062 319.847656 655.726562 318.925781 C 655.542969 318.003906 655.316406 317.09375 655.042969 316.191406 C 654.769531 315.292969 654.453125 314.410156 654.089844 313.539062 C 653.730469 312.671875 653.328125 311.824219 652.886719 310.992188 C 652.441406 310.164062 651.957031 309.359375 651.4375 308.578125 C 650.914062 307.796875 650.355469 307.042969 649.757812 306.3125 C 649.160156 305.585938 648.53125 304.890625 647.867188 304.226562 C 647.199219 303.5625 646.503906 302.929688 645.777344 302.332031 C 645.050781 301.738281 644.296875 301.175781 643.515625 300.652344 C 642.734375 300.132812 641.929688 299.648438 641.097656 299.203125 C 640.269531 298.761719 639.421875 298.359375 638.554688 297.996094 C 637.683594 297.636719 636.800781 297.320312 635.902344 297.046875 C 635 296.773438 634.089844 296.542969 633.167969 296.359375 C 632.246094 296.175781 631.316406 296.035156 630.382812 295.941406 C 629.445312 295.847656 628.507812 295.800781 627.566406 295.800781 Z M 636.835938 400.5 C 636.835938 401.109375 636.773438 401.710938 636.65625 402.308594 C 636.535156 402.902344 636.359375 403.484375 636.128906 404.046875 C 635.894531 404.605469 635.609375 405.140625 635.269531 405.648438 C 634.933594 406.152344 634.546875 406.621094 634.117188 407.050781 C 633.6875 407.480469 633.21875 407.863281 632.714844 408.203125 C 632.207031 408.542969 631.675781 408.828125 631.113281 409.058594 C 630.550781 409.292969 629.972656 409.46875 629.375 409.589844 C 628.777344 409.707031 628.175781 409.769531 627.566406 409.769531 L 523.863281 409.769531 C 523.253906 409.769531 522.652344 409.710938 522.054688 409.589844 C 521.457031 409.472656 520.878906 409.296875 520.316406 409.0625 C 519.753906 408.828125 519.21875 408.542969 518.714844 408.207031 C 518.207031 407.867188 517.738281 407.484375 517.308594 407.054688 C 516.878906 406.625 516.492188 406.15625 516.15625 405.648438 C 515.816406 405.144531 515.53125 404.609375 515.296875 404.046875 C 515.0625 403.484375 514.886719 402.90625 514.765625 402.308594 C 514.648438 401.710938 514.585938 401.109375 514.585938 400.5 L 514.585938 324.527344 C 514.585938 323.917969 514.644531 323.316406 514.765625 322.71875 C 514.882812 322.121094 515.0625 321.539062 515.292969 320.976562 C 515.527344 320.414062 515.8125 319.878906 516.152344 319.375 C 516.492188 318.867188 516.875 318.398438 517.304688 317.96875 C 517.734375 317.539062 518.203125 317.152344 518.710938 316.816406 C 519.21875 316.476562 519.753906 316.191406 520.316406 315.957031 C 520.878906 315.722656 521.457031 315.546875 522.054688 315.429688 C 522.652344 315.308594 523.253906 315.25 523.863281 315.25 L 627.566406 315.25 C 628.175781 315.25 628.777344 315.308594 629.375 315.429688 C 629.972656 315.550781 630.550781 315.726562 631.113281 315.960938 C 631.675781 316.191406 632.210938 316.480469 632.714844 316.816406 C 633.222656 317.15625 633.691406 317.539062 634.121094 317.972656 C 634.550781 318.402344 634.933594 318.871094 635.273438 319.375 C 635.609375 319.882812 635.894531 320.417969 636.128906 320.980469 C 636.363281 321.542969 636.539062 322.121094 636.65625 322.71875 C 636.777344 323.316406 636.835938 323.917969 636.835938 324.527344 Z M 636.835938 400.5 " fill-opacity="1" fill-rule="nonzero"/><path fill="#f4f6ea" d="M 385.648438 237.785156 L 373.027344 228.535156 C 372.511719 228.171875 371.96875 227.863281 371.390625 227.609375 C 370.816406 227.351562 370.21875 227.152344 369.605469 227.011719 C 368.992188 226.871094 368.367188 226.792969 367.738281 226.773438 C 367.109375 226.753906 366.480469 226.796875 365.859375 226.898438 C 365.238281 227 364.632812 227.164062 364.042969 227.382812 C 363.449219 227.601562 362.886719 227.878906 362.347656 228.207031 C 361.8125 228.539062 361.3125 228.917969 360.847656 229.34375 C 360.386719 229.773438 359.96875 230.238281 359.59375 230.75 C 359.222656 231.257812 358.902344 231.796875 358.632812 232.367188 C 358.367188 232.9375 358.15625 233.527344 358.003906 234.140625 C 357.851562 234.753906 357.757812 235.375 357.726562 236.003906 C 357.695312 236.632812 357.726562 237.257812 357.816406 237.882812 C 357.90625 238.507812 358.054688 239.117188 358.261719 239.710938 C 358.472656 240.304688 358.734375 240.875 359.054688 241.417969 C 359.375 241.960938 359.742188 242.46875 360.160156 242.941406 C 360.578125 243.414062 361.039062 243.839844 361.539062 244.222656 L 392.175781 266.683594 C 392.691406 267.0625 393.238281 267.382812 393.816406 267.652344 C 394.394531 267.921875 394.992188 268.132812 395.613281 268.285156 C 396.234375 268.4375 396.863281 268.527344 397.5 268.554688 C 398.136719 268.582031 398.773438 268.546875 399.402344 268.449219 C 400.035156 268.351562 400.648438 268.191406 401.25 267.972656 C 401.851562 267.753906 402.421875 267.480469 402.96875 267.148438 C 403.515625 266.816406 404.023438 266.4375 404.492188 266.003906 C 404.964844 265.574219 405.386719 265.101562 405.765625 264.585938 L 428.222656 233.949219 C 428.601562 233.433594 428.925781 232.886719 429.195312 232.308594 C 429.464844 231.730469 429.675781 231.128906 429.828125 230.507812 C 429.976562 229.890625 430.066406 229.261719 430.09375 228.621094 C 430.121094 227.984375 430.089844 227.351562 429.992188 226.71875 C 429.894531 226.085938 429.734375 225.472656 429.515625 224.871094 C 429.296875 224.273438 429.023438 223.699219 428.691406 223.152344 C 428.359375 222.609375 427.976562 222.101562 427.546875 221.628906 C 427.113281 221.160156 426.640625 220.734375 426.125 220.359375 C 415.753906 213.238281 409.757812 226.832031 404.5625 233.335938 C 404.1875 231.644531 403.773438 229.96875 403.320312 228.296875 C 402.871094 226.628906 402.378906 224.96875 401.851562 223.324219 C 401.324219 221.675781 400.757812 220.042969 400.15625 218.421875 C 399.554688 216.800781 398.914062 215.195312 398.238281 213.601562 C 397.5625 212.011719 396.847656 210.433594 396.101562 208.875 C 395.351562 207.316406 394.570312 205.777344 393.75 204.253906 C 392.933594 202.726562 392.082031 201.222656 391.191406 199.738281 C 390.304688 198.253906 389.386719 196.792969 388.429688 195.347656 C 387.476562 193.90625 386.492188 192.488281 385.472656 191.089844 C 384.453125 189.691406 383.402344 188.320312 382.320312 186.96875 C 381.238281 185.621094 380.128906 184.296875 378.984375 182.996094 C 377.84375 181.699219 376.671875 180.425781 375.472656 179.179688 C 374.273438 177.9375 373.042969 176.71875 371.789062 175.53125 C 370.53125 174.339844 369.25 173.179688 367.941406 172.050781 C 366.632812 170.917969 365.296875 169.820312 363.941406 168.75 C 362.582031 167.679688 361.199219 166.644531 359.792969 165.636719 C 358.386719 164.628906 356.957031 163.65625 355.503906 162.714844 C 354.054688 161.773438 352.582031 160.867188 351.089844 159.992188 C 349.597656 159.117188 348.085938 158.277344 346.554688 157.472656 C 345.023438 156.667969 343.476562 155.898438 341.910156 155.164062 C 340.34375 154.429688 338.761719 153.734375 337.164062 153.070312 C 335.566406 152.410156 333.957031 151.785156 332.328125 151.195312 C 330.703125 150.609375 329.0625 150.058594 327.414062 149.542969 C 325.761719 149.03125 324.097656 148.554688 322.425781 148.117188 C 320.753906 147.679688 319.070312 147.28125 317.378906 146.921875 C 315.6875 146.558594 313.988281 146.238281 312.28125 145.953125 C 310.578125 145.671875 308.863281 145.429688 307.148438 145.222656 C 305.429688 145.019531 303.710938 144.851562 301.984375 144.726562 C 300.257812 144.601562 298.53125 144.511719 296.804688 144.464844 C 295.074219 144.417969 293.347656 144.410156 291.617188 144.441406 C 289.886719 144.472656 288.160156 144.546875 286.433594 144.65625 C 284.707031 144.765625 282.984375 144.917969 281.265625 145.105469 C 279.546875 145.292969 277.835938 145.523438 276.125 145.789062 C 274.417969 146.058594 272.714844 146.363281 271.019531 146.710938 C 269.328125 147.054688 267.640625 147.4375 265.964844 147.859375 C 264.285156 148.285156 262.621094 148.742188 260.964844 149.242188 C 259.308594 149.742188 257.664062 150.277344 256.03125 150.851562 C 254.402344 151.421875 252.78125 152.035156 251.179688 152.679688 C 249.574219 153.328125 247.988281 154.011719 246.414062 154.730469 C 244.84375 155.453125 243.289062 156.207031 241.75 157 C 240.210938 157.789062 238.691406 158.613281 237.191406 159.476562 C 235.691406 160.335938 234.210938 161.230469 232.753906 162.15625 C 231.292969 163.085938 229.855469 164.046875 228.441406 165.039062 C 227.023438 166.035156 225.632812 167.058594 224.265625 168.117188 C 222.894531 169.171875 221.550781 170.261719 220.234375 171.378906 C 218.914062 172.5 217.621094 173.644531 216.355469 174.824219 C 215.085938 176 213.847656 177.207031 212.636719 178.441406 C 211.425781 179.675781 210.242188 180.9375 209.089844 182.226562 C 207.933594 183.515625 206.8125 184.828125 205.71875 186.167969 C 204.625 187.507812 203.5625 188.871094 202.53125 190.257812 C 201.5 191.648438 200.5 193.058594 199.53125 194.492188 C 198.566406 195.925781 197.632812 197.378906 196.730469 198.855469 C 195.828125 200.332031 194.964844 201.828125 194.132812 203.347656 C 193.300781 204.863281 192.5 206.394531 191.738281 207.949219 C 190.976562 209.5 190.25 211.070312 189.558594 212.65625 C 188.871094 214.242188 188.214844 215.839844 187.597656 217.457031 C 186.980469 219.074219 186.402344 220.703125 185.859375 222.34375 C 185.316406 223.984375 184.808594 225.640625 184.34375 227.304688 C 183.875 228.96875 183.445312 230.644531 183.054688 232.328125 C 182.664062 234.011719 182.3125 235.707031 181.996094 237.40625 C 181.683594 239.105469 181.410156 240.8125 181.175781 242.527344 C 180.9375 244.242188 180.742188 245.957031 180.585938 247.679688 C 180.425781 249.402344 180.308594 251.128906 180.230469 252.855469 C 180.152344 254.582031 180.113281 256.3125 180.113281 258.042969 C 180.113281 258.679688 180.175781 259.3125 180.300781 259.9375 C 180.425781 260.566406 180.609375 261.171875 180.855469 261.761719 C 181.097656 262.351562 181.398438 262.914062 181.753906 263.445312 C 182.109375 263.976562 182.511719 264.464844 182.964844 264.917969 C 183.414062 265.371094 183.90625 265.773438 184.4375 266.128906 C 184.96875 266.480469 185.527344 266.78125 186.117188 267.027344 C 186.707031 267.269531 187.316406 267.453125 187.941406 267.578125 C 188.570312 267.703125 189.199219 267.765625 189.839844 267.765625 C 190.476562 267.765625 191.109375 267.703125 191.738281 267.578125 C 192.363281 267.453125 192.972656 267.269531 193.5625 267.027344 C 194.152344 266.78125 194.710938 266.480469 195.242188 266.128906 C 195.773438 265.773438 196.265625 265.371094 196.714844 264.917969 C 197.167969 264.464844 197.570312 263.976562 197.925781 263.445312 C 198.28125 262.914062 198.578125 262.351562 198.824219 261.761719 C 199.066406 261.171875 199.253906 260.566406 199.378906 259.9375 C 199.5 259.3125 199.5625 258.679688 199.5625 258.042969 C 202.375 145.308594 359.367188 129.316406 385.648438 237.785156 Z M 385.648438 237.785156 " fill-opacity="1" fill-rule="nonzero"/><g clip-path="url(#7036bb5288)"><path fill="#f4f6ea" d="M 192.28125 580.71875 C 191.347656 580.726562 190.414062 580.785156 189.488281 580.886719 C 188.558594 580.988281 187.636719 581.132812 186.722656 581.324219 C 185.808594 581.515625 184.90625 581.75 184.015625 582.03125 C 183.125 582.308594 182.25 582.628906 181.390625 582.996094 C 180.527344 583.359375 179.6875 583.765625 178.867188 584.210938 C 178.050781 584.660156 177.253906 585.144531 176.480469 585.667969 C 175.707031 586.191406 174.960938 586.753906 174.242188 587.351562 C 173.523438 587.949219 172.835938 588.578125 172.179688 589.242188 C 171.523438 589.90625 170.902344 590.601562 170.3125 591.324219 C 169.722656 592.050781 169.171875 592.800781 168.65625 593.582031 C 168.140625 594.359375 167.664062 595.160156 167.226562 595.984375 C 166.789062 596.8125 166.394531 597.65625 166.039062 598.519531 C 165.683594 599.382812 165.371094 600.261719 165.101562 601.15625 C 164.832031 602.050781 164.609375 602.957031 164.425781 603.871094 C 164.246094 604.789062 164.109375 605.710938 164.019531 606.640625 C 163.929688 607.570312 163.882812 608.5 163.882812 609.433594 C 163.882812 610.371094 163.929688 611.300781 164.019531 612.230469 C 164.109375 613.160156 164.246094 614.082031 164.425781 615 C 164.609375 615.914062 164.832031 616.820312 165.101562 617.714844 C 165.371094 618.609375 165.683594 619.488281 166.039062 620.351562 C 166.394531 621.214844 166.789062 622.058594 167.226562 622.886719 C 167.664062 623.710938 168.140625 624.511719 168.65625 625.289062 C 169.171875 626.070312 169.722656 626.820312 170.3125 627.546875 C 170.902344 628.269531 171.523438 628.964844 172.179688 629.628906 C 172.839844 630.292969 173.527344 630.921875 174.242188 631.519531 C 174.960938 632.117188 175.707031 632.679688 176.480469 633.203125 C 177.253906 633.726562 178.050781 634.210938 178.871094 634.660156 C 179.691406 635.105469 180.53125 635.511719 181.390625 635.875 C 182.25 636.238281 183.125 636.5625 184.015625 636.839844 C 184.90625 637.121094 185.808594 637.355469 186.722656 637.546875 C 187.636719 637.738281 188.558594 637.882812 189.488281 637.984375 C 190.414062 638.085938 191.347656 638.144531 192.28125 638.152344 C 193.214844 638.144531 194.144531 638.085938 195.074219 637.984375 C 196.003906 637.882812 196.921875 637.738281 197.835938 637.546875 C 198.75 637.355469 199.65625 637.121094 200.546875 636.839844 C 201.4375 636.5625 202.3125 636.238281 203.171875 635.875 C 204.03125 635.511719 204.871094 635.105469 205.691406 634.660156 C 206.511719 634.210938 207.308594 633.726562 208.082031 633.203125 C 208.855469 632.679688 209.597656 632.117188 210.316406 631.519531 C 211.035156 630.921875 211.722656 630.292969 212.378906 629.628906 C 213.035156 628.964844 213.660156 628.269531 214.246094 627.546875 C 214.835938 626.820312 215.390625 626.070312 215.90625 625.289062 C 216.421875 624.511719 216.898438 623.710938 217.335938 622.886719 C 217.769531 622.058594 218.167969 621.214844 218.523438 620.351562 C 218.878906 619.488281 219.1875 618.609375 219.457031 617.714844 C 219.726562 616.820312 219.953125 615.914062 220.132812 615 C 220.316406 614.082031 220.449219 613.160156 220.542969 612.230469 C 220.632812 611.300781 220.679688 610.371094 220.679688 609.433594 C 220.679688 608.5 220.632812 607.570312 220.542969 606.640625 C 220.449219 605.710938 220.316406 604.789062 220.132812 603.871094 C 219.953125 602.957031 219.726562 602.050781 219.457031 601.15625 C 219.1875 600.261719 218.878906 599.382812 218.523438 598.519531 C 218.167969 597.65625 217.769531 596.8125 217.332031 595.984375 C 216.894531 595.160156 216.421875 594.359375 215.90625 593.582031 C 215.390625 592.800781 214.835938 592.050781 214.246094 591.324219 C 213.660156 590.601562 213.035156 589.90625 212.378906 589.242188 C 211.722656 588.578125 211.035156 587.945312 210.316406 587.351562 C 209.597656 586.753906 208.851562 586.191406 208.082031 585.667969 C 207.308594 585.144531 206.511719 584.660156 205.691406 584.210938 C 204.871094 583.765625 204.03125 583.359375 203.171875 582.996094 C 202.3125 582.628906 201.4375 582.308594 200.542969 582.03125 C 199.652344 581.75 198.75 581.515625 197.835938 581.324219 C 196.921875 581.132812 196 580.988281 195.074219 580.886719 C 194.144531 580.785156 193.214844 580.726562 192.28125 580.71875 Z M 192.28125 618.703125 C 191.679688 618.691406 191.085938 618.621094 190.496094 618.496094 C 189.910156 618.367188 189.339844 618.183594 188.789062 617.949219 C 188.238281 617.710938 187.710938 617.421875 187.21875 617.082031 C 186.722656 616.738281 186.261719 616.355469 185.84375 615.925781 C 185.421875 615.496094 185.046875 615.03125 184.714844 614.527344 C 184.386719 614.027344 184.105469 613.496094 183.878906 612.941406 C 183.652344 612.382812 183.480469 611.8125 183.363281 611.222656 C 183.25 610.632812 183.191406 610.035156 183.191406 609.433594 C 183.191406 608.835938 183.25 608.238281 183.363281 607.648438 C 183.480469 607.058594 183.652344 606.484375 183.878906 605.929688 C 184.105469 605.375 184.386719 604.84375 184.714844 604.339844 C 185.046875 603.839844 185.421875 603.375 185.84375 602.945312 C 186.261719 602.515625 186.722656 602.128906 187.21875 601.789062 C 187.714844 601.449219 188.238281 601.160156 188.789062 600.921875 C 189.339844 600.683594 189.910156 600.503906 190.496094 600.375 C 191.085938 600.25 191.679688 600.179688 192.28125 600.167969 C 192.882812 600.179688 193.476562 600.25 194.0625 600.375 C 194.652344 600.503906 195.21875 600.6875 195.773438 600.921875 C 196.324219 601.160156 196.847656 601.449219 197.34375 601.792969 C 197.839844 602.132812 198.296875 602.515625 198.71875 602.945312 C 199.140625 603.375 199.515625 603.839844 199.84375 604.34375 C 200.175781 604.84375 200.453125 605.375 200.679688 605.929688 C 200.910156 606.488281 201.082031 607.058594 201.195312 607.648438 C 201.3125 608.238281 201.371094 608.835938 201.371094 609.4375 C 201.371094 610.035156 201.3125 610.632812 201.195312 611.222656 C 201.078125 611.8125 200.910156 612.386719 200.679688 612.941406 C 200.453125 613.496094 200.175781 614.027344 199.84375 614.53125 C 199.515625 615.03125 199.140625 615.496094 198.71875 615.925781 C 198.296875 616.355469 197.839844 616.742188 197.34375 617.082031 C 196.847656 617.421875 196.324219 617.710938 195.773438 617.949219 C 195.21875 618.1875 194.648438 618.367188 194.0625 618.496094 C 193.476562 618.621094 192.882812 618.691406 192.28125 618.703125 Z M 192.28125 618.703125 " fill-opacity="1" fill-rule="nonzero"/></g><path fill="#f4f6ea" d="M 604.746094 451.734375 C 604.390625 451.203125 603.988281 450.714844 603.535156 450.261719 C 603.082031 449.8125 602.589844 449.410156 602.058594 449.058594 C 601.527344 448.703125 600.964844 448.402344 600.375 448.160156 C 599.785156 447.917969 599.175781 447.734375 598.550781 447.609375 C 597.925781 447.484375 597.292969 447.425781 596.652344 447.425781 C 596.015625 447.425781 595.382812 447.488281 594.757812 447.613281 C 594.132812 447.738281 593.523438 447.921875 592.933594 448.167969 C 592.34375 448.410156 591.78125 448.710938 591.253906 449.066406 L 559.695312 470.214844 C 559.164062 470.570312 558.671875 470.972656 558.222656 471.425781 C 557.769531 471.878906 557.367188 472.371094 557.015625 472.902344 C 556.660156 473.433594 556.359375 473.992188 556.117188 474.585938 C 555.875 475.175781 555.691406 475.78125 555.566406 476.410156 C 555.441406 477.035156 555.378906 477.667969 555.382812 478.308594 C 555.382812 478.945312 555.445312 479.578125 555.570312 480.203125 C 555.695312 480.832031 555.878906 481.4375 556.125 482.027344 C 556.371094 482.617188 556.671875 483.179688 557.027344 483.710938 C 557.382812 484.242188 557.785156 484.730469 558.238281 485.183594 C 558.691406 485.632812 559.179688 486.035156 559.714844 486.390625 C 560.246094 486.746094 560.804688 487.042969 561.394531 487.289062 C 561.984375 487.53125 562.59375 487.714844 563.222656 487.839844 C 563.847656 487.960938 564.480469 488.023438 565.117188 488.023438 C 565.757812 488.023438 566.390625 487.960938 567.015625 487.835938 C 567.640625 487.710938 568.25 487.523438 568.839844 487.277344 C 569.429688 487.035156 569.992188 486.734375 570.519531 486.378906 L 585.527344 476.320312 C 585.246094 477.738281 584.933594 479.148438 584.589844 480.550781 C 584.246094 481.953125 583.867188 483.347656 583.457031 484.734375 C 583.050781 486.121094 582.609375 487.496094 582.136719 488.863281 C 581.664062 490.230469 581.160156 491.582031 580.625 492.925781 C 580.089844 494.269531 579.523438 495.597656 578.925781 496.914062 C 578.332031 498.230469 577.703125 499.535156 577.046875 500.820312 C 576.390625 502.109375 575.707031 503.382812 574.992188 504.636719 C 574.277344 505.894531 573.535156 507.132812 572.761719 508.355469 C 571.988281 509.578125 571.191406 510.78125 570.363281 511.964844 C 569.535156 513.152344 568.679688 514.316406 567.800781 515.460938 C 566.917969 516.609375 566.011719 517.734375 565.078125 518.835938 C 564.148438 519.941406 563.1875 521.023438 562.207031 522.082031 C 561.222656 523.144531 560.21875 524.179688 559.1875 525.191406 C 558.15625 526.207031 557.105469 527.195312 556.027344 528.160156 C 554.953125 529.125 553.855469 530.066406 552.734375 530.980469 C 551.617188 531.894531 550.476562 532.785156 549.316406 533.644531 C 548.15625 534.507812 546.976562 535.34375 545.777344 536.148438 C 544.578125 536.957031 543.363281 537.738281 542.128906 538.488281 C 540.894531 539.242188 539.644531 539.964844 538.375 540.65625 C 537.109375 541.351562 535.824219 542.015625 534.527344 542.652344 C 533.226562 543.285156 531.914062 543.890625 530.589844 544.464844 C 529.261719 545.039062 527.925781 545.585938 526.574219 546.097656 C 525.222656 546.609375 523.859375 547.09375 522.484375 547.542969 C 521.113281 547.992188 519.730469 548.410156 518.335938 548.796875 C 516.945312 549.183594 515.542969 549.539062 514.132812 549.859375 C 512.726562 550.183594 511.308594 550.472656 509.886719 550.726562 C 508.464844 550.984375 507.039062 551.207031 505.605469 551.398438 C 504.171875 551.589844 502.734375 551.75 501.296875 551.875 C 499.855469 552 498.414062 552.089844 496.96875 552.148438 C 495.527344 552.207031 494.082031 552.234375 492.636719 552.226562 C 491.191406 552.21875 489.746094 552.175781 488.300781 552.101562 C 486.859375 552.027344 485.417969 551.917969 483.980469 551.777344 C 482.542969 551.636719 481.105469 551.464844 479.675781 551.257812 C 478.246094 551.050781 476.820312 550.808594 475.402344 550.535156 C 473.980469 550.265625 472.570312 549.960938 471.164062 549.621094 C 469.757812 549.285156 468.363281 548.914062 466.972656 548.511719 C 465.585938 548.109375 464.207031 547.675781 462.839844 547.210938 C 461.472656 546.746094 460.113281 546.25 458.769531 545.722656 C 457.421875 545.195312 456.089844 544.636719 454.769531 544.046875 C 453.449219 543.457031 452.144531 542.835938 450.855469 542.1875 C 449.5625 541.539062 448.289062 540.859375 447.027344 540.152344 C 445.765625 539.441406 444.523438 538.707031 443.296875 537.941406 C 442.070312 537.175781 440.863281 536.382812 439.675781 535.5625 C 438.484375 534.742188 437.316406 533.894531 436.164062 533.019531 C 435.015625 532.144531 433.886719 531.242188 432.777344 530.316406 C 431.667969 529.386719 430.578125 528.4375 429.515625 527.460938 C 428.449219 526.480469 427.40625 525.480469 426.386719 524.457031 C 425.371094 523.429688 424.375 522.382812 423.402344 521.3125 C 422.433594 520.242188 421.488281 519.148438 420.566406 518.035156 C 419.644531 516.921875 418.75 515.785156 417.882812 514.628906 C 417.015625 513.476562 416.175781 512.300781 415.359375 511.105469 C 414.546875 509.910156 413.761719 508.699219 413 507.46875 C 412.242188 506.238281 411.515625 504.992188 410.8125 503.726562 C 410.113281 502.464844 409.441406 501.183594 408.796875 499.886719 C 408.15625 498.59375 407.546875 497.285156 406.964844 495.960938 C 406.382812 494.636719 405.832031 493.300781 405.3125 491.953125 C 404.789062 490.605469 404.300781 489.246094 403.84375 487.875 C 403.386719 486.503906 402.960938 485.121094 402.566406 483.730469 C 402.171875 482.339844 401.8125 480.941406 401.480469 479.535156 C 401.152344 478.128906 400.855469 476.714844 400.589844 475.292969 C 400.328125 473.871094 400.09375 472.445312 399.898438 471.015625 C 399.699219 469.582031 399.53125 468.148438 399.398438 466.707031 C 399.265625 465.269531 399.167969 463.828125 399.101562 462.382812 C 399.035156 460.941406 399.003906 459.496094 399.003906 458.050781 C 399.003906 457.410156 398.941406 456.777344 398.816406 456.152344 C 398.691406 455.527344 398.507812 454.917969 398.261719 454.328125 C 398.019531 453.738281 397.71875 453.179688 397.363281 452.648438 C 397.007812 452.117188 396.605469 451.625 396.15625 451.171875 C 395.703125 450.722656 395.210938 450.320312 394.679688 449.964844 C 394.148438 449.609375 393.589844 449.308594 393 449.066406 C 392.410156 448.820312 391.800781 448.636719 391.175781 448.511719 C 390.550781 448.386719 389.917969 448.324219 389.277344 448.324219 C 388.640625 448.324219 388.007812 448.386719 387.382812 448.511719 C 386.753906 448.636719 386.148438 448.820312 385.558594 449.066406 C 384.96875 449.308594 384.40625 449.609375 383.875 449.964844 C 383.34375 450.320312 382.851562 450.722656 382.402344 451.171875 C 381.949219 451.625 381.546875 452.117188 381.191406 452.648438 C 380.835938 453.179688 380.539062 453.738281 380.292969 454.328125 C 380.050781 454.917969 379.863281 455.527344 379.742188 456.152344 C 379.617188 456.777344 379.554688 457.410156 379.554688 458.050781 C 383.15625 592.867188 569.15625 613.78125 603.480469 484.789062 L 609.734375 494.117188 C 610.09375 494.636719 610.5 495.113281 610.957031 495.550781 C 611.410156 495.992188 611.902344 496.378906 612.429688 496.722656 C 612.960938 497.066406 613.519531 497.355469 614.105469 497.589844 C 614.691406 497.820312 615.292969 497.996094 615.914062 498.113281 C 616.535156 498.230469 617.160156 498.285156 617.792969 498.28125 C 618.421875 498.277344 619.046875 498.210938 619.667969 498.082031 C 620.285156 497.957031 620.882812 497.769531 621.464844 497.527344 C 622.050781 497.285156 622.601562 496.988281 623.125 496.636719 C 623.652344 496.285156 624.136719 495.886719 624.582031 495.441406 C 625.03125 494.996094 625.429688 494.511719 625.78125 493.988281 C 626.132812 493.464844 626.433594 492.910156 626.679688 492.328125 C 626.921875 491.746094 627.109375 491.148438 627.238281 490.53125 C 627.367188 489.910156 627.433594 489.285156 627.441406 488.65625 C 627.449219 488.023438 627.394531 487.398438 627.277344 486.777344 C 627.164062 486.15625 626.988281 485.554688 626.757812 484.96875 C 626.523438 484.382812 626.238281 483.820312 625.894531 483.292969 Z M 604.746094 451.734375 " fill-opacity="1" fill-rule="nonzero"/><path fill="#f4f6ea" d="M 199.382812 447.320312 C 198.914062 446.851562 198.398438 446.433594 197.84375 446.070312 C 197.289062 445.707031 196.699219 445.402344 196.082031 445.15625 C 195.464844 444.910156 194.832031 444.730469 194.175781 444.613281 C 193.523438 444.496094 192.863281 444.445312 192.199219 444.460938 C 191.535156 444.480469 190.878906 444.5625 190.230469 444.710938 C 189.585938 444.863281 188.960938 445.074219 188.355469 445.351562 C 187.75 445.628906 187.179688 445.964844 186.644531 446.355469 C 186.109375 446.746094 185.617188 447.1875 185.167969 447.679688 L 158.59375 473.910156 C 158.15625 474.359375 157.761719 474.851562 157.417969 475.378906 C 157.074219 475.90625 156.78125 476.460938 156.546875 477.046875 C 156.308594 477.632812 156.128906 478.234375 156.011719 478.851562 C 155.890625 479.472656 155.832031 480.097656 155.832031 480.726562 C 155.835938 481.355469 155.898438 481.980469 156.019531 482.601562 C 156.144531 483.21875 156.328125 483.820312 156.566406 484.402344 C 156.804688 484.984375 157.101562 485.539062 157.449219 486.066406 C 157.796875 486.589844 158.191406 487.078125 158.636719 487.527344 C 159.078125 487.976562 159.558594 488.378906 160.082031 488.734375 C 160.601562 489.089844 161.152344 489.390625 161.730469 489.640625 C 162.3125 489.886719 162.910156 490.078125 163.527344 490.210938 C 164.144531 490.339844 164.765625 490.414062 165.398438 490.421875 C 166.027344 490.433594 166.652344 490.382812 167.273438 490.273438 C 167.894531 490.160156 168.5 489.992188 169.085938 489.761719 C 169.675781 489.53125 170.234375 489.25 170.765625 488.914062 C 171.300781 488.574219 171.792969 488.1875 172.253906 487.753906 L 182.554688 477.585938 L 182.554688 555.796875 C 182.554688 556.4375 182.617188 557.070312 182.742188 557.695312 C 182.867188 558.320312 183.050781 558.929688 183.296875 559.519531 C 183.539062 560.109375 183.839844 560.671875 184.195312 561.203125 C 184.550781 561.730469 184.953125 562.222656 185.402344 562.675781 C 185.855469 563.125 186.347656 563.53125 186.878906 563.882812 C 187.40625 564.238281 187.96875 564.539062 188.558594 564.78125 C 189.148438 565.027344 189.757812 565.210938 190.382812 565.335938 C 191.007812 565.460938 191.640625 565.523438 192.28125 565.523438 C 192.917969 565.523438 193.550781 565.460938 194.175781 565.335938 C 194.804688 565.210938 195.410156 565.027344 196 564.78125 C 196.589844 564.539062 197.152344 564.238281 197.683594 563.882812 C 198.214844 563.53125 198.703125 563.125 199.15625 562.675781 C 199.609375 562.222656 200.011719 561.730469 200.367188 561.203125 C 200.71875 560.671875 201.019531 560.109375 201.265625 559.519531 C 201.507812 558.929688 201.691406 558.320312 201.816406 557.695312 C 201.941406 557.070312 202.003906 556.4375 202.003906 555.796875 L 202.003906 477.65625 L 212.222656 488.011719 C 212.675781 488.453125 213.164062 488.84375 213.691406 489.1875 C 214.21875 489.53125 214.777344 489.824219 215.359375 490.058594 C 215.945312 490.296875 216.546875 490.472656 217.164062 490.59375 C 217.785156 490.710938 218.410156 490.773438 219.039062 490.769531 C 219.667969 490.765625 220.292969 490.703125 220.910156 490.582031 C 221.53125 490.457031 222.128906 490.277344 222.714844 490.035156 C 223.296875 489.796875 223.851562 489.5 224.375 489.152344 C 224.902344 488.804688 225.386719 488.410156 225.835938 487.96875 C 226.285156 487.527344 226.6875 487.042969 227.042969 486.523438 C 227.398438 486.003906 227.699219 485.453125 227.949219 484.871094 C 228.195312 484.292969 228.386719 483.695312 228.519531 483.078125 C 228.648438 482.460938 228.722656 481.839844 228.730469 481.210938 C 228.742188 480.578125 228.691406 479.953125 228.582031 479.332031 C 228.472656 478.710938 228.300781 478.109375 228.074219 477.519531 C 227.84375 476.933594 227.5625 476.375 227.222656 475.839844 C 226.886719 475.308594 226.503906 474.8125 226.070312 474.355469 Z M 199.382812 447.320312 " fill-opacity="1" fill-rule="nonzero"/><path fill="#f4f6ea" d="M 560.4375 266.875 C 560.886719 267.324219 561.378906 267.726562 561.910156 268.082031 C 562.441406 268.4375 563 268.738281 563.589844 268.980469 C 564.179688 269.226562 564.789062 269.410156 565.414062 269.535156 C 566.039062 269.660156 566.671875 269.722656 567.3125 269.722656 C 567.949219 269.722656 568.582031 269.660156 569.207031 269.535156 C 569.835938 269.410156 570.441406 269.226562 571.03125 268.980469 C 571.621094 268.738281 572.183594 268.4375 572.714844 268.082031 C 573.246094 267.726562 573.734375 267.324219 574.1875 266.875 L 635.078125 205.980469 C 635.53125 205.53125 635.9375 205.039062 636.292969 204.507812 C 636.648438 203.976562 636.949219 203.417969 637.195312 202.824219 C 637.4375 202.234375 637.625 201.628906 637.75 201 C 637.875 200.375 637.9375 199.742188 637.9375 199.101562 C 637.9375 198.460938 637.875 197.828125 637.753906 197.203125 C 637.628906 196.574219 637.445312 195.96875 637.199219 195.375 C 636.957031 194.785156 636.65625 194.226562 636.300781 193.695312 C 635.945312 193.164062 635.542969 192.671875 635.089844 192.21875 C 634.636719 191.765625 634.148438 191.363281 633.613281 191.007812 C 633.082031 190.652344 632.523438 190.355469 631.933594 190.109375 C 631.339844 189.863281 630.734375 189.679688 630.105469 189.554688 C 629.480469 189.433594 628.847656 189.371094 628.207031 189.371094 C 627.566406 189.371094 626.933594 189.433594 626.308594 189.558594 C 625.679688 189.683594 625.074219 189.871094 624.484375 190.117188 C 623.890625 190.359375 623.332031 190.660156 622.800781 191.015625 C 622.269531 191.371094 621.777344 191.777344 621.328125 192.230469 L 567.3125 246.246094 L 545.476562 224.414062 C 545.023438 223.976562 544.53125 223.589844 544 223.246094 C 543.472656 222.90625 542.914062 222.621094 542.328125 222.386719 C 541.742188 222.15625 541.136719 221.980469 540.519531 221.867188 C 539.898438 221.75 539.273438 221.695312 538.644531 221.703125 C 538.011719 221.710938 537.390625 221.777344 536.773438 221.90625 C 536.15625 222.03125 535.554688 222.21875 534.972656 222.460938 C 534.394531 222.707031 533.839844 223.003906 533.316406 223.355469 C 532.792969 223.707031 532.308594 224.105469 531.863281 224.550781 C 531.417969 224.996094 531.019531 225.480469 530.667969 226.003906 C 530.316406 226.527344 530.019531 227.082031 529.773438 227.660156 C 529.53125 228.242188 529.34375 228.84375 529.21875 229.460938 C 529.089844 230.078125 529.023438 230.699219 529.015625 231.332031 C 529.011719 231.960938 529.066406 232.585938 529.179688 233.207031 C 529.296875 233.824219 529.46875 234.429688 529.703125 235.015625 C 529.933594 235.601562 530.21875 236.160156 530.5625 236.6875 C 530.902344 237.21875 531.292969 237.710938 531.726562 238.164062 Z M 560.4375 266.875 " fill-opacity="1" fill-rule="nonzero"/></svg>