<svg xmlns="http://www.w3.org/2000/svg" xmlns:xlink="http://www.w3.org/1999/xlink" width="1024" zoomAndPan="magnify" viewBox="0 0 768 767.999994" height="1024" preserveAspectRatio="xMidYMid meet" version="1.0"><defs><clipPath id="474143759b"><path d="M 342 143.230469 L 426 143.230469 L 426 227 L 342 227 Z M 342 143.230469 " clip-rule="nonzero"/></clipPath><clipPath id="73457878c9"><path d="M 558 143.230469 L 624.730469 143.230469 L 624.730469 210 L 558 210 Z M 558 143.230469 " clip-rule="nonzero"/></clipPath><clipPath id="b407d44280"><path d="M 350 558 L 418 558 L 418 624.730469 L 350 624.730469 Z M 350 558 " clip-rule="nonzero"/></clipPath><clipPath id="23855a93c7"><path d="M 143.230469 143.230469 L 210 143.230469 L 210 210 L 143.230469 210 Z M 143.230469 143.230469 " clip-rule="nonzero"/></clipPath><clipPath id="306cce92d6"><path d="M 540 541 L 624 541 L 624 624.730469 L 540 624.730469 Z M 540 541 " clip-rule="nonzero"/></clipPath></defs><g clip-path="url(#474143759b)"><path fill="#f4f6ea" d="M 384 226.253906 C 361.085938 226.253906 342.488281 207.65625 342.488281 184.742188 C 342.488281 161.828125 361.085938 143.230469 384 143.230469 C 406.914062 143.230469 425.511719 161.828125 425.511719 184.742188 C 425.511719 207.65625 406.914062 226.253906 384 226.253906 Z M 384 159.835938 C 370.300781 159.835938 359.09375 171.042969 359.09375 184.742188 C 359.09375 198.441406 370.300781 209.652344 384 209.652344 C 397.699219 209.652344 408.90625 198.441406 408.90625 184.742188 C 408.90625 171.042969 397.699219 159.835938 384 159.835938 Z M 384 159.835938 " fill-opacity="1" fill-rule="nonzero"/></g><path fill="#f4f6ea" d="M 541.742188 359.09375 C 518.828125 359.09375 500.230469 340.496094 500.230469 317.582031 C 500.230469 294.667969 518.828125 276.070312 541.742188 276.070312 C 564.660156 276.070312 583.253906 294.667969 583.253906 317.582031 C 583.253906 340.496094 564.660156 359.09375 541.742188 359.09375 Z M 541.742188 292.675781 C 528.046875 292.675781 516.835938 303.882812 516.835938 317.582031 C 516.835938 331.28125 528.046875 342.488281 541.742188 342.488281 C 555.441406 342.488281 566.652344 331.28125 566.652344 317.582031 C 566.652344 303.882812 555.441406 292.675781 541.742188 292.675781 Z M 541.742188 292.675781 " fill-opacity="1" fill-rule="nonzero"/><g clip-path="url(#73457878c9)"><path fill="#f4f6ea" d="M 591.558594 209.652344 C 573.210938 209.652344 558.347656 194.789062 558.347656 176.441406 C 558.347656 158.09375 573.210938 143.230469 591.558594 143.230469 C 609.90625 143.230469 624.765625 158.09375 624.765625 176.441406 C 624.765625 194.789062 609.90625 209.652344 591.558594 209.652344 Z M 591.558594 159.835938 C 582.425781 159.835938 574.953125 167.308594 574.953125 176.441406 C 574.953125 185.574219 582.425781 193.046875 591.558594 193.046875 C 600.691406 193.046875 608.164062 185.574219 608.164062 176.441406 C 608.164062 167.308594 600.691406 159.835938 591.558594 159.835938 Z M 591.558594 159.835938 " fill-opacity="1" fill-rule="nonzero"/></g><g clip-path="url(#b407d44280)"><path fill="#f4f6ea" d="M 384 624.765625 C 365.652344 624.765625 350.789062 609.90625 350.789062 591.558594 C 350.789062 573.210938 365.652344 558.347656 384 558.347656 C 402.347656 558.347656 417.207031 573.210938 417.207031 591.558594 C 417.207031 609.90625 402.347656 624.765625 384 624.765625 Z M 384 574.953125 C 374.867188 574.953125 367.394531 582.425781 367.394531 591.558594 C 367.394531 600.691406 374.867188 608.164062 384 608.164062 C 393.132812 608.164062 400.605469 600.691406 400.605469 591.558594 C 400.605469 582.425781 393.132812 574.953125 384 574.953125 Z M 384 574.953125 " fill-opacity="1" fill-rule="nonzero"/></g><g clip-path="url(#23855a93c7)"><path fill="#f4f6ea" d="M 176.441406 209.652344 C 158.09375 209.652344 143.230469 194.789062 143.230469 176.441406 C 143.230469 158.09375 158.09375 143.230469 176.441406 143.230469 C 194.789062 143.230469 209.652344 158.09375 209.652344 176.441406 C 209.652344 194.789062 194.789062 209.652344 176.441406 209.652344 Z M 176.441406 159.835938 C 167.308594 159.835938 159.835938 167.308594 159.835938 176.441406 C 159.835938 185.574219 167.308594 193.046875 176.441406 193.046875 C 185.574219 193.046875 193.046875 185.574219 193.046875 176.441406 C 193.046875 167.308594 185.574219 159.835938 176.441406 159.835938 Z M 176.441406 159.835938 " fill-opacity="1" fill-rule="nonzero"/></g><path fill="#f4f6ea" d="M 350.789062 475.324219 C 327.875 475.324219 309.277344 456.726562 309.277344 433.8125 C 309.277344 410.898438 327.875 392.300781 350.789062 392.300781 C 373.703125 392.300781 392.300781 410.898438 392.300781 433.8125 C 392.300781 456.726562 373.703125 475.324219 350.789062 475.324219 Z M 350.789062 408.90625 C 337.089844 408.90625 325.882812 420.113281 325.882812 433.8125 C 325.882812 447.511719 337.089844 458.71875 350.789062 458.71875 C 364.488281 458.71875 375.695312 447.511719 375.695312 433.8125 C 375.695312 420.113281 364.488281 408.90625 350.789062 408.90625 Z M 350.789062 408.90625 " fill-opacity="1" fill-rule="nonzero"/><g clip-path="url(#306cce92d6)"><path fill="#f4f6ea" d="M 582.011719 624.765625 C 559.097656 624.765625 540.5 606.171875 540.5 583.253906 C 540.5 560.339844 559.097656 541.742188 582.011719 541.742188 C 604.925781 541.742188 623.523438 560.339844 623.523438 583.253906 C 623.523438 606.171875 604.925781 624.765625 582.011719 624.765625 Z M 582.011719 558.347656 C 568.3125 558.347656 557.101562 569.558594 557.101562 583.253906 C 557.101562 596.953125 568.3125 608.164062 582.011719 608.164062 C 595.710938 608.164062 606.917969 596.953125 606.917969 583.253906 C 606.917969 569.558594 595.710938 558.347656 582.011719 558.347656 Z M 582.011719 558.347656 " fill-opacity="1" fill-rule="nonzero"/></g><path fill="#f4f6ea" d="M 217.953125 591.558594 C 195.039062 591.558594 176.441406 572.960938 176.441406 550.046875 C 176.441406 527.132812 195.039062 508.535156 217.953125 508.535156 C 240.867188 508.535156 259.464844 527.132812 259.464844 550.046875 C 259.464844 572.960938 240.867188 591.558594 217.953125 591.558594 Z M 217.953125 525.140625 C 204.253906 525.140625 193.046875 536.347656 193.046875 550.046875 C 193.046875 563.746094 204.253906 574.953125 217.953125 574.953125 C 231.652344 574.953125 242.859375 563.746094 242.859375 550.046875 C 242.859375 536.347656 231.652344 525.140625 217.953125 525.140625 Z M 217.953125 525.140625 " fill-opacity="1" fill-rule="nonzero"/><path fill="#f4f6ea" d="M 209.652344 334.1875 C 186.734375 334.1875 168.140625 315.589844 168.140625 292.675781 C 168.140625 269.757812 186.734375 251.164062 209.652344 251.164062 C 232.566406 251.164062 251.164062 269.757812 251.164062 292.675781 C 251.164062 315.589844 232.566406 334.1875 209.652344 334.1875 Z M 209.652344 267.765625 C 195.953125 267.765625 184.742188 278.976562 184.742188 292.675781 C 184.742188 306.371094 195.953125 317.582031 209.652344 317.582031 C 223.347656 317.582031 234.558594 306.371094 234.558594 292.675781 C 234.558594 278.976562 223.347656 267.765625 209.652344 267.765625 Z M 209.652344 267.765625 " fill-opacity="1" fill-rule="nonzero"/><path fill="#f4f6ea" d="M 516.339844 304.464844 C 514.429688 304.464844 512.519531 303.800781 511.023438 302.554688 L 429.414062 233.894531 C 425.925781 230.90625 425.429688 225.675781 428.417969 222.1875 C 431.40625 218.699219 436.636719 218.203125 440.125 221.191406 L 521.734375 289.851562 C 525.222656 292.839844 525.71875 298.070312 522.730469 301.558594 C 521.070312 303.550781 518.746094 304.546875 516.339844 304.546875 Z M 516.339844 304.464844 " fill-opacity="1" fill-rule="nonzero"/><path fill="#f4f6ea" d="M 237.878906 283.542969 C 235.140625 283.542969 232.398438 282.128906 230.820312 279.640625 C 228.414062 275.738281 229.578125 270.589844 233.476562 268.183594 L 323.144531 212.640625 C 327.046875 210.230469 332.191406 211.394531 334.601562 215.296875 C 337.007812 219.199219 335.847656 224.347656 331.945312 226.753906 L 242.277344 282.296875 C 240.949219 283.125 239.371094 283.542969 237.878906 283.542969 Z M 237.878906 283.542969 " fill-opacity="1" fill-rule="nonzero"/><path fill="#f4f6ea" d="M 242.941406 536.511719 C 240.617188 536.511719 238.292969 535.515625 236.714844 533.691406 C 233.726562 530.203125 234.058594 524.972656 237.464844 521.984375 L 295.414062 471.257812 C 298.902344 468.269531 304.132812 468.601562 307.121094 472.003906 C 310.109375 475.492188 309.777344 480.722656 306.371094 483.710938 L 248.421875 534.4375 C 246.84375 535.847656 244.933594 536.511719 242.941406 536.511719 Z M 242.941406 536.511719 " fill-opacity="1" fill-rule="nonzero"/><path fill="#f4f6ea" d="M 327.292969 418.621094 C 325.136719 418.621094 323.058594 417.789062 321.398438 416.210938 L 227.25 322.0625 C 224.011719 318.828125 224.011719 313.597656 227.25 310.359375 C 230.488281 307.121094 235.71875 307.121094 238.957031 310.359375 L 333.105469 404.507812 C 336.34375 407.746094 336.34375 412.976562 333.105469 416.210938 C 331.445312 417.875 329.371094 418.621094 327.210938 418.621094 Z M 327.292969 418.621094 " fill-opacity="1" fill-rule="nonzero"/><path fill="#f4f6ea" d="M 572.960938 525.71875 C 568.976562 525.71875 565.40625 522.816406 564.742188 518.664062 L 538.671875 351.621094 C 538.007812 347.054688 541.078125 342.820312 545.5625 342.15625 C 550.128906 341.492188 554.363281 344.5625 555.027344 349.046875 L 581.097656 516.089844 C 581.761719 520.65625 578.6875 524.890625 574.207031 525.554688 C 573.789062 525.554688 573.375 525.636719 572.878906 525.636719 Z M 572.960938 525.71875 " fill-opacity="1" fill-rule="nonzero"/><path fill="#f4f6ea" d="M 554.445312 573.042969 C 552.867188 573.042969 551.375 572.628906 549.964844 571.714844 L 402.097656 476.652344 C 398.28125 474.164062 397.117188 469.015625 399.609375 465.195312 C 402.097656 461.378906 407.246094 460.214844 411.066406 462.707031 L 558.929688 557.765625 C 562.75 560.257812 563.910156 565.40625 561.421875 569.222656 C 559.84375 571.714844 557.1875 573.042969 554.445312 573.042969 Z M 554.445312 573.042969 " fill-opacity="1" fill-rule="nonzero"/><path fill="#f4f6ea" d="M 379.101562 424.847656 C 376.277344 424.847656 373.539062 423.4375 371.960938 420.863281 C 369.554688 416.960938 370.800781 411.8125 374.699219 409.488281 L 480.640625 345.0625 C 484.539062 342.652344 489.6875 343.898438 492.011719 347.800781 C 494.335938 351.703125 493.175781 356.851562 489.273438 359.175781 L 383.335938 423.601562 C 382.007812 424.433594 380.511719 424.847656 379.019531 424.847656 Z M 379.101562 424.847656 " fill-opacity="1" fill-rule="nonzero"/><path fill="#f4f6ea" d="M 216.875 525.222656 C 212.390625 525.222656 208.738281 521.652344 208.570312 517.167969 L 203.507812 359.257812 C 203.339844 354.691406 206.992188 350.875 211.558594 350.707031 C 216.210938 350.457031 219.945312 354.195312 220.113281 358.761719 L 225.175781 516.671875 C 225.34375 521.238281 221.6875 525.054688 217.121094 525.222656 C 217.039062 525.222656 216.957031 525.222656 216.875 525.222656 Z M 216.875 525.222656 " fill-opacity="1" fill-rule="nonzero"/><path fill="#f4f6ea" d="M 359.257812 376.277344 C 359.257812 376.277344 358.511719 376.277344 358.179688 376.277344 C 353.613281 375.695312 350.457031 371.546875 351.039062 366.980469 L 370.464844 216.457031 C 371.046875 211.890625 375.199219 208.65625 379.765625 209.320312 C 384.332031 209.898438 387.488281 214.050781 386.90625 218.617188 L 367.476562 369.136719 C 366.980469 373.289062 363.328125 376.363281 359.257812 376.363281 Z M 359.257812 376.277344 " fill-opacity="1" fill-rule="nonzero"/><path fill="#f4f6ea" d="M 563.828125 263.285156 C 562.914062 263.285156 562 263.117188 561.089844 262.785156 C 556.769531 261.292969 554.53125 256.558594 556.023438 252.160156 L 575.453125 197.03125 C 576.945312 192.714844 581.679688 190.472656 586.078125 191.964844 C 590.394531 193.460938 592.636719 198.195312 591.144531 202.59375 L 571.714844 257.722656 C 570.46875 261.125 567.316406 263.285156 563.910156 263.285156 Z M 563.828125 263.285156 " fill-opacity="1" fill-rule="nonzero"/><path fill="#f4f6ea" d="M 417.125 191.71875 C 412.726562 191.71875 408.988281 188.230469 408.824219 183.746094 C 408.65625 179.179688 412.226562 175.277344 416.792969 175.113281 L 533.277344 170.464844 C 538.007812 170.296875 541.742188 173.867188 541.910156 178.433594 C 542.074219 183 538.507812 186.902344 533.941406 187.066406 L 417.457031 191.71875 C 417.457031 191.71875 417.207031 191.71875 417.125 191.71875 Z M 417.125 191.71875 " fill-opacity="1" fill-rule="nonzero"/><path fill="#f4f6ea" d="M 200.519531 269.09375 C 196.863281 269.09375 193.542969 266.6875 192.546875 263.035156 L 175.277344 202.59375 C 174.035156 198.195312 176.605469 193.628906 181.007812 192.296875 C 185.40625 191.054688 189.972656 193.628906 191.300781 198.027344 L 208.570312 258.46875 C 209.816406 262.867188 207.242188 267.433594 202.84375 268.761719 C 202.09375 269.011719 201.347656 269.09375 200.519531 269.09375 Z M 200.519531 269.09375 " fill-opacity="1" fill-rule="nonzero"/><path fill="#f4f6ea" d="M 350.875 191.71875 C 350.875 191.71875 350.625 191.71875 350.542969 191.71875 L 200.933594 185.738281 C 196.367188 185.574219 192.796875 181.671875 192.964844 177.105469 C 193.128906 172.539062 196.863281 168.96875 201.597656 169.136719 L 351.207031 175.113281 C 355.773438 175.277344 359.339844 179.179688 359.175781 183.746094 C 359.007812 188.230469 355.355469 191.71875 350.875 191.71875 Z M 350.875 191.71875 " fill-opacity="1" fill-rule="nonzero"/><path fill="#f4f6ea" d="M 408.824219 598.78125 C 404.421875 598.78125 400.6875 595.292969 400.519531 590.8125 C 400.355469 586.246094 403.925781 582.34375 408.492188 582.175781 L 515.34375 577.777344 C 519.910156 577.445312 523.8125 581.179688 523.976562 585.746094 C 524.144531 590.3125 520.574219 594.214844 516.007812 594.378906 L 409.15625 598.78125 C 409.15625 598.78125 408.90625 598.78125 408.824219 598.78125 Z M 408.824219 598.78125 " fill-opacity="1" fill-rule="nonzero"/><path fill="#f4f6ea" d="M 327.625 585.746094 C 326.960938 585.746094 326.296875 585.746094 325.632812 585.496094 L 248.171875 566.152344 C 243.691406 565.074219 241.035156 560.507812 242.113281 556.105469 C 243.191406 551.625 247.757812 548.96875 252.160156 550.046875 L 329.621094 569.390625 C 334.101562 570.46875 336.757812 575.035156 335.679688 579.4375 C 334.765625 583.171875 331.363281 585.746094 327.625 585.746094 Z M 327.625 585.746094 " fill-opacity="1" fill-rule="nonzero"/><path fill="#f4f6ea" d="M 378.851562 575.453125 C 375.03125 575.453125 371.546875 572.792969 370.714844 568.890625 L 349.460938 468.019531 C 348.546875 463.535156 351.371094 459.136719 355.855469 458.222656 C 360.339844 457.308594 364.738281 460.132812 365.652344 464.617188 L 386.90625 565.488281 C 387.820312 569.972656 384.996094 574.371094 380.511719 575.285156 C 379.929688 575.367188 379.351562 575.453125 378.769531 575.453125 Z M 378.851562 575.453125 " fill-opacity="1" fill-rule="nonzero"/></svg>