<svg xmlns="http://www.w3.org/2000/svg" xmlns:xlink="http://www.w3.org/1999/xlink" width="1024" zoomAndPan="magnify" viewBox="0 0 768 767.999994" height="1024" preserveAspectRatio="xMidYMid meet" version="1.0"><defs><clipPath id="36dc7822ad"><path d="M 429 559 L 502 559 L 502 631.320312 L 429 631.320312 Z M 429 559 " clip-rule="nonzero"/></clipPath><clipPath id="08766eed38"><path d="M 189 136.320312 L 262 136.320312 L 262 209 L 189 209 Z M 189 136.320312 " clip-rule="nonzero"/></clipPath></defs><path fill="#f4f6ea" d="M 344.070312 369.769531 C 307.195312 369.769531 277 339.570312 277 302.695312 C 277 265.820312 307.195312 235.621094 344.070312 235.621094 C 380.945312 235.621094 411.144531 265.820312 411.144531 302.695312 C 411.144531 339.570312 380.945312 369.769531 344.070312 369.769531 Z M 344.070312 247.238281 C 313.582031 247.238281 288.613281 272.207031 288.613281 302.695312 C 288.613281 333.183594 313.582031 358.152344 344.070312 358.152344 C 374.558594 358.152344 399.53125 333.183594 399.53125 302.695312 C 399.53125 272.207031 374.558594 247.238281 344.070312 247.238281 Z M 344.070312 247.238281 " fill-opacity="1" fill-rule="evenodd"/><path fill="#f4f6ea" d="M 388.785156 513.496094 C 386.753906 513.496094 384.722656 512.625 383.558594 510.59375 C 382.109375 507.980469 382.980469 504.203125 385.882812 502.753906 L 454.699219 462.101562 C 457.601562 460.652344 461.085938 461.519531 462.539062 464.132812 C 464.28125 467.039062 463.410156 470.523438 460.503906 472.265625 L 391.691406 512.625 C 390.820312 513.207031 389.65625 513.496094 388.785156 513.496094 Z M 344.070312 487.945312 C 340.878906 487.945312 338.265625 485.332031 338.265625 482.136719 L 338.265625 363.960938 C 338.265625 360.765625 340.878906 358.152344 344.070312 358.152344 C 347.265625 358.152344 349.878906 360.765625 349.878906 363.960938 L 349.878906 482.136719 C 349.878906 485.332031 347.265625 487.945312 344.070312 487.945312 Z M 344.070312 487.945312 " fill-opacity="1" fill-rule="evenodd"/><path fill="#f4f6ea" d="M 483.734375 487.945312 C 463.988281 487.945312 447.730469 471.683594 447.730469 451.941406 C 447.730469 431.90625 463.988281 415.644531 483.734375 415.644531 C 503.769531 415.644531 520.027344 431.90625 520.027344 451.941406 C 520.027344 471.683594 503.769531 487.945312 483.734375 487.945312 Z M 483.734375 427.257812 C 470.378906 427.257812 459.34375 438.292969 459.34375 451.941406 C 459.34375 465.296875 470.378906 476.328125 483.734375 476.328125 C 497.378906 476.328125 508.414062 465.296875 508.414062 451.941406 C 508.414062 438.292969 497.378906 427.257812 483.734375 427.257812 Z M 483.734375 427.257812 " fill-opacity="1" fill-rule="evenodd"/><path fill="#f4f6ea" d="M 344.070312 591.3125 C 312.421875 591.3125 286.582031 565.46875 286.582031 533.820312 C 286.582031 502.171875 312.421875 476.328125 344.070312 476.328125 C 375.71875 476.328125 401.5625 502.171875 401.5625 533.820312 C 401.5625 565.46875 375.71875 591.3125 344.070312 591.3125 Z M 344.070312 487.945312 C 318.808594 487.945312 298.195312 508.558594 298.195312 533.820312 C 298.195312 559.082031 318.808594 579.699219 344.070312 579.699219 C 369.332031 579.699219 389.949219 559.082031 389.949219 533.820312 C 389.949219 508.558594 369.332031 487.945312 344.070312 487.945312 Z M 344.070312 487.945312 " fill-opacity="1" fill-rule="evenodd"/><path fill="#f4f6ea" d="M 438.726562 587.828125 C 437.855469 587.828125 436.984375 587.535156 436.113281 587.246094 L 387.625 562.566406 C 384.722656 561.113281 383.558594 557.628906 385.011719 554.726562 C 386.464844 551.824219 389.949219 550.660156 392.851562 552.113281 L 441.339844 576.792969 C 444.246094 578.246094 445.40625 581.730469 443.953125 584.632812 C 442.792969 586.664062 440.761719 587.828125 438.726562 587.828125 Z M 438.726562 587.828125 " fill-opacity="1" fill-rule="evenodd"/><g clip-path="url(#36dc7822ad)"><path fill="#f4f6ea" d="M 465.730469 631.671875 C 445.695312 631.671875 429.4375 615.703125 429.4375 595.667969 C 429.4375 575.632812 445.695312 559.664062 465.730469 559.664062 C 485.476562 559.664062 501.734375 575.632812 501.734375 595.667969 C 501.734375 615.703125 485.476562 631.671875 465.730469 631.671875 Z M 465.730469 571.277344 C 452.085938 571.277344 441.050781 582.3125 441.050781 595.667969 C 441.050781 609.3125 452.085938 620.058594 465.730469 620.058594 C 479.089844 620.058594 490.121094 609.3125 490.121094 595.667969 C 490.121094 582.3125 479.089844 571.277344 465.730469 571.277344 Z M 465.730469 571.277344 " fill-opacity="1" fill-rule="evenodd"/></g><path fill="#f4f6ea" d="M 560.097656 564.019531 C 540.355469 564.019531 524.09375 547.757812 524.09375 528.011719 C 524.09375 507.980469 540.355469 491.71875 560.097656 491.71875 C 580.132812 491.71875 596.394531 507.980469 596.394531 528.011719 C 596.394531 547.757812 580.132812 564.019531 560.097656 564.019531 Z M 560.097656 503.332031 C 546.742188 503.332031 535.707031 514.367188 535.707031 528.011719 C 535.707031 541.371094 546.742188 552.402344 560.097656 552.402344 C 573.746094 552.402344 584.777344 541.371094 584.777344 528.011719 C 584.777344 514.367188 573.746094 503.332031 560.097656 503.332031 Z M 560.097656 503.332031 " fill-opacity="1" fill-rule="evenodd"/><path fill="#f4f6ea" d="M 490.414062 583.761719 C 488.378906 583.761719 486.636719 582.890625 485.476562 581.441406 C 483.734375 578.828125 484.316406 575.050781 486.929688 573.308594 L 532.222656 540.789062 C 534.835938 539.046875 538.320312 539.628906 540.355469 542.242188 C 542.097656 544.855469 541.515625 548.339844 538.902344 550.371094 L 493.605469 582.601562 C 492.734375 583.472656 491.574219 583.761719 490.414062 583.761719 Z M 490.414062 583.761719 " fill-opacity="1" fill-rule="evenodd"/><path fill="#f4f6ea" d="M 302.839844 263.207031 C 301.390625 263.207031 299.648438 262.625 298.484375 261.464844 L 241.574219 198.746094 C 239.542969 196.425781 239.542969 192.648438 242.15625 190.617188 C 244.480469 188.585938 247.960938 188.585938 250.285156 190.90625 L 307.195312 253.625 C 309.226562 255.949219 309.226562 259.433594 306.90625 261.753906 C 305.746094 262.625 304.292969 263.207031 302.839844 263.207031 Z M 302.839844 263.207031 " fill-opacity="1" fill-rule="evenodd"/><path fill="#f4f6ea" d="M 400.402344 284.113281 C 398.078125 284.113281 396.046875 282.949219 395.175781 280.628906 C 393.722656 277.722656 395.175781 274.242188 398.078125 273.078125 L 522.351562 219.652344 C 525.253906 218.199219 528.738281 219.652344 529.902344 222.554688 C 531.0625 225.460938 529.902344 228.945312 526.996094 230.105469 L 402.722656 283.820312 C 401.851562 284.113281 401.273438 284.113281 400.402344 284.113281 Z M 400.402344 284.113281 " fill-opacity="1" fill-rule="evenodd"/><path fill="#f4f6ea" d="M 229.378906 422.03125 C 227.636719 422.03125 226.1875 421.453125 225.023438 420.289062 C 222.992188 417.96875 222.992188 414.484375 225.316406 412.160156 L 296.453125 341.601562 C 298.777344 339.28125 302.550781 339.28125 304.875 341.601562 C 306.90625 343.925781 306.90625 347.699219 304.582031 349.734375 L 233.445312 420.289062 C 232.285156 421.453125 230.832031 422.03125 229.378906 422.03125 Z M 229.378906 422.03125 " fill-opacity="1" fill-rule="evenodd"/><path fill="#f4f6ea" d="M 377.753906 257.398438 C 376.589844 257.398438 375.429688 257.109375 374.558594 256.238281 C 371.945312 254.496094 371.074219 251.011719 372.816406 248.398438 L 397.789062 210.070312 C 399.53125 207.457031 403.304688 206.585938 405.917969 208.328125 C 408.53125 210.070312 409.402344 213.847656 407.660156 216.457031 L 382.398438 254.785156 C 381.527344 256.238281 379.496094 257.398438 377.753906 257.398438 Z M 377.753906 257.398438 " fill-opacity="1" fill-rule="evenodd"/><path fill="#f4f6ea" d="M 552.550781 248.980469 C 532.515625 248.980469 516.253906 232.71875 516.253906 212.976562 C 516.253906 192.941406 532.515625 176.679688 552.550781 176.679688 C 572.292969 176.679688 588.554688 192.941406 588.554688 212.976562 C 588.554688 232.71875 572.292969 248.980469 552.550781 248.980469 Z M 552.550781 188.292969 C 538.902344 188.292969 527.867188 199.328125 527.867188 212.976562 C 527.867188 226.332031 538.902344 237.363281 552.550781 237.363281 C 565.90625 237.363281 576.9375 226.332031 576.9375 212.976562 C 576.9375 199.328125 565.90625 188.292969 552.550781 188.292969 Z M 552.550781 188.292969 " fill-opacity="1" fill-rule="evenodd"/><path fill="#f4f6ea" d="M 207.601562 473.714844 C 187.859375 473.714844 171.597656 457.457031 171.597656 437.710938 C 171.597656 417.675781 187.859375 401.417969 207.601562 401.417969 C 227.636719 401.417969 243.898438 417.675781 243.898438 437.710938 C 243.898438 457.457031 227.636719 473.714844 207.601562 473.714844 Z M 207.601562 413.03125 C 194.246094 413.03125 183.210938 424.066406 183.210938 437.710938 C 183.210938 451.070312 194.246094 462.101562 207.601562 462.101562 C 221.25 462.101562 232.285156 451.070312 232.285156 437.710938 C 232.285156 424.066406 221.25 413.03125 207.601562 413.03125 Z M 207.601562 413.03125 " fill-opacity="1" fill-rule="evenodd"/><g clip-path="url(#08766eed38)"><path fill="#f4f6ea" d="M 225.605469 208.621094 C 205.570312 208.621094 189.308594 192.359375 189.308594 172.613281 C 189.308594 152.582031 205.570312 136.320312 225.605469 136.320312 C 245.347656 136.320312 261.609375 152.582031 261.609375 172.613281 C 261.609375 192.359375 245.347656 208.621094 225.605469 208.621094 Z M 225.605469 147.933594 C 211.957031 147.933594 200.925781 158.96875 200.925781 172.613281 C 200.925781 185.972656 211.957031 197.003906 225.605469 197.003906 C 238.960938 197.003906 249.996094 185.972656 249.996094 172.613281 C 249.996094 158.96875 238.960938 147.933594 225.605469 147.933594 Z M 225.605469 147.933594 " fill-opacity="1" fill-rule="evenodd"/></g><path fill="#f4f6ea" d="M 419.273438 224.007812 C 399.53125 224.007812 383.269531 207.75 383.269531 188.003906 C 383.269531 167.96875 399.53125 151.710938 419.273438 151.710938 C 439.308594 151.710938 455.570312 167.96875 455.570312 188.003906 C 455.570312 207.75 439.308594 224.007812 419.273438 224.007812 Z M 419.273438 163.324219 C 405.917969 163.324219 394.882812 174.355469 394.882812 188.003906 C 394.882812 201.359375 405.917969 212.394531 419.273438 212.394531 C 432.921875 212.394531 443.953125 201.359375 443.953125 188.003906 C 443.953125 174.355469 432.921875 163.324219 419.273438 163.324219 Z M 419.273438 163.324219 " fill-opacity="1" fill-rule="evenodd"/><path fill="#f4f6ea" d="M 344.070312 334.925781 C 326.359375 334.925781 311.839844 320.40625 311.839844 302.695312 C 311.839844 284.984375 326.359375 270.464844 344.070312 270.464844 C 361.785156 270.464844 376.300781 284.984375 376.300781 302.695312 C 376.300781 320.40625 361.785156 334.925781 344.070312 334.925781 Z M 344.070312 282.078125 C 332.746094 282.078125 323.457031 291.371094 323.457031 302.695312 C 323.457031 314.019531 332.746094 323.3125 344.070312 323.3125 C 355.394531 323.3125 364.6875 314.019531 364.6875 302.695312 C 364.6875 291.371094 355.394531 282.078125 344.070312 282.078125 Z M 344.070312 282.078125 " fill-opacity="1" fill-rule="evenodd"/><path fill="#f4f6ea" d="M 344.070312 566.050781 C 326.359375 566.050781 311.839844 551.53125 311.839844 533.820312 C 311.839844 516.109375 326.359375 501.589844 344.070312 501.589844 C 361.785156 501.589844 376.300781 516.109375 376.300781 533.820312 C 376.300781 551.53125 361.785156 566.050781 344.070312 566.050781 Z M 344.070312 513.207031 C 332.746094 513.207031 323.457031 522.496094 323.457031 533.820312 C 323.457031 545.144531 332.746094 554.4375 344.070312 554.4375 C 355.394531 554.4375 364.6875 545.144531 364.6875 533.820312 C 364.6875 522.496094 355.394531 513.207031 344.070312 513.207031 Z M 344.070312 513.207031 " fill-opacity="1" fill-rule="evenodd"/></svg>